# Alias OBJ Model File
# Exported from SketchUp, (c) 2000-2012 Trimble Navigation Limited
# File units = millimeters

mtllib Dat2.mtl

g Mesh1 Group2 Group1 Model

usemtl map_gach_lat_via_he_terrazzo
v 132837 1821.15 -116015
vt -33.2216 0.854933
vn -1 0 -0
v 132837 159.152 -97617.9
vt -29.0967 0.482287
v 132837 1821.15 -97617.9
vt -29.0967 0.854933
f 1/1/1 2/2/1 3/3/1

v 132837 159.152 -116015
vt -33.2216 0.482287
f 2/2/1 1/1/1 4/4/1

vt -16.7276 0.854933
vn 0 0 -1
v 136187 159.152 -116015
vt -17.4787 0.482287
vt -16.7276 0.482287
f 1/5/2 5/6/2 4/7/2

v 136187 1821.15 -116015
vt -17.4787 0.854933
f 5/6/2 1/5/2 6/8/2

vt 16.7276 33.2216
vn 0 1 -0
v 133643 1821.15 -115209
vt 16.9084 33.0408
vt 17.4787 33.2216
f 1/9/3 7/10/3 6/11/3

v 133643 1821.15 -98424.2
vt 16.9084 29.2775
f 7/10/3 1/9/3 8/12/3

vt 16.7276 29.0967
f 3/13/3 8/12/3 1/9/3

v 136187 1821.15 -97617.9
vt 17.4787 29.0967
f 8/12/3 3/13/3 9/14/3

vt 16.7276 0.482287
vn 0 0 1
vt 17.4787 0.854933
vt 16.7276 0.854933
f 2/15/4 9/16/4 3/17/4

v 136187 159.152 -97617.9
vt 17.4787 0.482287
f 9/16/4 2/15/4 10/18/4

vt 33.2216 0.482287
vn 1 0 -0
vt 29.0967 0.854933
vt 29.0967 0.482287
f 5/19/5 9/20/5 10/21/5

vt 33.2216 0.854933
f 9/20/5 5/19/5 6/22/5

v 135380 1821.15 -115209
vt 17.298 33.0408
f 6/11/3 11/23/3 9/14/3

f 6/11/3 7/10/3 11/23/3

v 133643 1208.15 -115209
vt 16.9084 0.717489
vt 17.298 0.854933
vt 16.9084 0.854933
f 12/24/4 11/25/4 7/26/4

v 135380 1208.15 -115209
vt 17.298 0.717489
f 11/25/4 12/24/4 13/27/4

v 135380 1208.15 -98424.2
vt 17.298 29.2775
f 12/10/3 14/28/3 13/23/3

v 133643 1208.15 -98424.2
f 14/28/3 12/10/3 15/12/3

vt 33.0408 0.717489
vt 29.2775 0.854933
vt 29.2775 0.717489
f 12/29/5 8/30/5 15/31/5

vt 33.0408 0.854933
f 8/30/5 12/29/5 7/32/5

vt -16.9084 0.854933
vt -17.298 0.717489
vt -16.9084 0.717489
f 8/33/2 14/34/2 15/35/2

v 135380 1821.15 -98424.2
vt -17.298 0.854933
f 14/34/2 8/33/2 16/36/2

f 8/12/3 9/14/3 16/28/3

f 16/28/3 9/14/3 11/23/3

vt -33.0408 0.854933
vt -29.2775 0.717489
vt -29.2775 0.854933
f 11/37/1 14/38/1 16/39/1

vt -33.0408 0.717489
f 14/38/1 11/37/1 13/40/1

g Mesh2 Group1 Model

usemtl FrontColor
v 114749 159.152 -51948.6
vt -1426.96 138.571
vn 0 -1 -0
v 78504.5 159.152 -48428.9
vt 0 0
v 78504.5 159.152 -51948.6
vt 0 138.571
f 17/41/6 18/42/6 19/43/6

v 114749 159.152 -48428.9
vt -1426.96 0
f 18/42/6 17/41/6 20/44/6

usemtl map_gach_lat_via_he_terrazzo
vt 18.857 0.482287
vn 1 -3.82516e-15 -8.6626e-16
v 114749 1037.15 -48428.9
vt 18.0678 0.679148
vt 18.0678 0.482287
f 17/45/7 21/46/7 20/47/7

v 114749 1037.15 -52062.7
vt 18.8825 0.679148
f 21/46/7 17/45/7 22/48/7

v 114749 159.152 -52062.7
vt 18.8825 0.482287
f 22/48/7 17/45/7 23/49/7

usemtl FrontColor
vt -1426.96 143.06
f 19/43/6 23/50/6 17/41/6

v 78504.5 159.152 -52062.7
vt 0 143.06
f 23/50/6 19/43/6 24/51/6

usemtl map_gach_lat_via_he_terrazzo
vt -18.857 0.482287
v 78504.5 1037.15 -52062.7
vt -18.8825 0.679148
vt -18.8825 0.482287
f 19/52/1 25/53/1 24/54/1

vt -18.0678 0.482287
f 18/55/1 25/53/1 19/52/1

v 78504.5 1037.15 -48428.9
vt -18.0678 0.679148
f 25/53/1 18/55/1 26/56/1

vt 5.9563 0.482287
vt 14.0829 0.679148
vt 5.9563 0.679148
f 18/57/4 21/58/4 26/59/4

vt 14.0829 0.482287
f 21/58/4 18/57/4 20/60/4

vt -1.36329 2.74314
vt -9.48992 3.55787
vt -9.48992 2.74314
f 21/61/3 25/62/3 26/63/3

vt -1.36329 3.55787
f 25/62/3 21/61/3 22/64/3

vt -14.0829 0.482287
vt -5.9563 0.679148
vt -14.0829 0.679148
f 23/65/2 25/66/2 22/67/2

vt -5.9563 0.482287
f 25/66/2 23/65/2 24/68/2

g Mesh3 Group1 Model

v 159318 1037.15 -48428.9
vt -1.4337 2.74314
v 125395 1037.15 -52062.7
vt -9.0397 3.55787
v 125395 1037.15 -48428.9
vt -9.0397 2.74314
f 27/69/3 28/70/3 29/71/3

v 159318 1037.15 -52062.7
vt -1.4337 3.55787
f 28/70/3 27/69/3 30/72/3

vn 1 7.65032e-15 1.73252e-15
v 159318 159.152 -51948.6
f 27/46/8 31/45/8 30/48/8

v 159318 159.152 -48428.9
f 31/45/8 27/46/8 32/47/8

vt 24.0759 0.679148
v 125395 159.152 -48428.9
vt 16.4699 0.482287
vt 24.0759 0.482287
f 27/73/4 33/74/4 32/75/4

vt 16.4699 0.679148
f 33/74/4 27/73/4 29/76/4

f 28/53/1 33/55/1 29/56/1

v 125395 159.152 -51948.6
f 33/55/1 28/53/1 34/52/1

v 125395 159.152 -52062.7
f 34/52/1 28/53/1 35/54/1

vt -16.4699 0.679148
v 159318 159.152 -52062.7
vt -24.0759 0.482287
vt -16.4699 0.482287
f 28/77/2 36/78/2 35/79/2

vt -24.0759 0.679148
f 36/78/2 28/77/2 30/80/2

f 30/48/8 31/45/8 36/49/8

usemtl FrontColor
vt -1846.09 138.571
vt -3181.63 143.06
vt -3181.63 138.571
f 34/81/6 36/82/6 31/83/6

vt -1846.09 143.06
f 36/82/6 34/81/6 35/84/6

vt -1846.09 0
f 31/83/6 33/85/6 34/81/6

vt -3181.63 0
f 33/85/6 31/83/6 32/86/6

