# Alias OBJ Model File
# Exported from SketchUp, (c) 2000-2012 Trimble Navigation Limited
# File units = millimeters

mtllib Dat3.mtl

g Mesh1 Group1 Model

usemtl mapbetong_mocphat_04_280x280
v 166375 8440.15 -163752
vt -4.10822 0.552067
vn -1 0 -0
v 166375 159.152 -51999.7
vt 1.93243 1.03775e-16
v 166375 8440.15 -51999.7
vt 1.93243 0.552067
f 1/1/1 2/2/1 3/3/1

v 166375 159.152 -163752
vt -4.10822 1.03775e-16
f 2/2/1 1/1/1 4/4/1

vt 2.85309 0.552067
vn -1.29386e-16 0 1
v 77102.8 159.152 -163752
vt -1.97244 1.03775e-16
vt 2.85309 1.03775e-16
f 1/5/2 5/6/2 4/7/2

v 77102.8 8440.15 -163752
vt -1.97244 0.552067
f 5/6/2 1/5/2 6/8/2

v 171495 8440.15 -170068
vt 3.12984 5.48787
vn 0 1 -0
vt -1.97244 5.0668
vt 2.85309 5.0668
f 7/9/3 6/10/3 1/11/3

v 71032.8 8440.15 -170068
vt -2.30055 5.48787
f 8/12/3 6/10/3 7/9/3

v 71032.8 8440.15 -51970.5
vt -2.30055 -2.38528
f 6/10/3 8/12/3 9/13/3

vt -4.44962 0.552067
vn -1 0 1.85831e-15
v 71032.8 159.152 -51970.5
vt 1.93401 1.03775e-16
vt 1.93401 0.552067
f 8/14/4 10/15/4 9/16/4

v 71032.8 159.152 -170068
vt -4.44962 1.03775e-16
f 10/15/4 8/14/4 11/17/4

vt 2.30055 0.552067
vn 0 0 -1
v 171495 159.152 -170068
vt -3.12984 1.03775e-16
vt 2.30055 1.03775e-16
f 8/18/5 12/19/5 11/20/5

vt -3.12984 0.552067
f 12/19/5 8/18/5 7/21/5

v 171495 8440.15 -52001.7
vt -1.93233 0.552067
vn 1 0 -9.78315e-17
vt 4.44962 1.03775e-16
vt 4.44962 0.552067
f 13/22/6 12/23/6 7/24/6

v 171495 159.152 -52001.7
vt -1.93233 1.03775e-16
f 12/23/6 13/22/6 14/25/6

vt 3.1291 0.552067
vn 0.000382704 0 1
vt 2.85235 1.03775e-16
vt 3.1291 1.03775e-16
f 13/26/7 2/27/7 14/28/7

vt 2.85235 0.552067
f 2/27/7 13/26/7 3/29/7

vt 3.12984 -2.3832
vt 2.85309 -2.38333
f 13/30/3 1/11/3 3/31/3

f 7/9/3 1/11/3 13/30/3

usemtl FrontColor
vt -3753.63 1.15228
vn 0 -1 -0
vt -3955.2 4649.5
vt -3955.2 1.22942
f 2/32/8 12/33/8 14/34/8

vt -3753.63 4400.84
f 4/35/8 12/33/8 2/32/8

vt -238.976 4400.84
f 5/36/8 12/33/8 4/35/8

vt 0 4649.5
f 5/36/8 11/37/8 12/33/8

vt -8.6402e-12 0
f 11/37/8 5/36/8 10/38/8

v 77102.8 159.152 -51972.3
vt -238.976 0.0733605
f 15/39/8 10/38/8 5/36/8

usemtl mapbetong_mocphat_04_280x280
v 77102.8 8440.15 -51972.3
vt -1.97303 0.552067
vn 0.000306978 0 1
vt -2.30114 1.03775e-16
vt -1.97303 1.03775e-16
f 16/40/9 10/41/9 15/42/9

vt -2.30114 0.552067
f 10/41/9 16/40/9 9/43/9

vt -1.97244 -2.38516
f 6/10/3 9/13/3 16/44/3

vt -1.93391 0.552067
vn 1 0 -0
vt 4.10822 1.03775e-16
vt 4.10822 0.552067
f 16/45/10 5/46/10 6/47/10

vt -1.93391 1.03775e-16
f 5/46/10 16/45/10 15/48/10

