# Alias OBJ Model File
# Exported from SketchUp, (c) 2000-2012 Trimble Navigation Limited
# File units = millimeters

mtllib Ngoaicanh17.mtl

g Mesh1 Group1 Model

usemtl Color_M07
v 178428 159.152 -190070
vt -441.327 702.192
vn -1.82392e-17 -1 7.99524e-17
v 183113 159.152 -169531
vt 4.25509e-30 -2.67432e-30
v 170502 159.152 -182143
vt 0 702.192
f 1/1/1 2/2/1 3/3/1

v 191040 159.152 -177458
vt -441.327 2.27374e-13
f 2/2/1 1/1/1 4/4/1

vt 702.192 0
vn 0.707107 0 -0.707107
v 191040 3469.95 -177458
vt 4.47861e-13 130.346
vt 4.47861e-13 0
f 1/5/2 5/6/2 4/7/2

v 178428 3469.95 -190070
vt 702.192 130.346
f 5/6/2 1/5/2 6/8/2

vt -441.327 0
vn -0.707107 0 -0.707107
v 170502 3469.95 -182143
vt 0 130.346
vt -441.327 130.346
f 1/9/3 7/10/3 6/11/3

vt 0 0
f 7/10/3 1/9/3 3/12/3

vt -702.192 9.72636e-45
vn -0.707107 -1.24763e-31 0.707107
v 172167 795.152 -180477
vt -609.442 25.0394
vt -702.192 130.346
f 3/13/4 8/14/4 7/15/4

v 176554 795.152 -176091
vt -365.22 25.0394
f 3/13/4 9/16/4 8/14/4

v 177061 798.221 -175584
vt -336.972 25.1602
f 3/13/4 10/17/4 9/16/4

v 181448 798.221 -171197
vt -92.7494 25.1602
f 3/13/4 11/18/4 10/17/4

vt 0 6.12843e-14
f 2/19/4 11/18/4 3/13/4

v 181448 2369.15 -171197
vt -92.7494 87.0079
f 11/18/4 2/19/4 12/20/4

v 183113 3469.95 -169531
f 13/10/4 12/20/4 2/19/4

f 12/20/4 13/10/4 7/15/4

vn 0 -1 -0
f 6/1/5 13/12/5 7/3/5

f 13/12/5 6/1/5 5/4/5

v 191040 6780.75 -177458
vt 4.47861e-13 260.693
f 6/8/2 14/21/2 5/6/2

v 178428 6780.75 -190070
vt 702.192 260.693
f 14/21/2 6/8/2 15/22/2

v 170502 6780.75 -182143
vt 0 260.693
vt -441.327 260.693
f 6/11/3 16/23/3 15/24/3

f 16/23/3 6/11/3 7/10/3

vn -0.707107 0 0.707107
v 172167 4105.95 -180477
vt -609.442 155.386
vt -702.192 260.693
f 7/15/6 17/25/6 16/26/6

v 176554 4105.95 -176091
vt -365.22 155.386
f 7/15/6 18/27/6 17/25/6

v 177061 4109.02 -175584
vt -336.972 155.507
f 7/15/6 19/28/6 18/27/6

v 181448 4109.02 -171197
vt -92.7494 155.507
f 7/15/6 20/29/6 19/28/6

f 13/10/6 20/29/6 7/15/6

v 181448 5679.95 -171197
vt -92.7494 217.354
f 20/29/6 13/10/6 21/30/6

v 183113 6780.75 -169531
f 22/23/6 21/30/6 13/10/6

f 21/30/6 22/23/6 16/26/6

f 15/1/5 22/12/5 16/3/5

f 22/12/5 15/1/5 14/4/5

v 191040 10091.6 -177458
vt 4.47861e-13 391.039
f 15/22/2 23/31/2 14/21/2

v 178428 10091.6 -190070
vt 702.192 391.039
f 23/31/2 15/22/2 24/32/2

v 170502 10091.6 -182143
vt 0 391.039
vt -441.327 391.039
f 15/24/3 25/33/3 24/34/3

f 25/33/3 15/24/3 16/23/3

v 172167 7416.75 -180477
vt -609.442 285.732
vt -702.192 391.039
f 16/26/6 26/35/6 25/36/6

v 176554 7416.75 -176091
vt -365.22 285.732
f 16/26/6 27/37/6 26/35/6

v 177061 7419.82 -175584
vt -336.972 285.853
f 16/26/6 28/38/6 27/37/6

v 181448 7419.82 -171197
vt -92.7494 285.853
f 16/26/6 29/39/6 28/38/6

f 22/23/6 29/39/6 16/26/6

v 181448 8990.75 -171197
vt -92.7494 347.701
f 29/39/6 22/23/6 30/40/6

v 183113 10091.6 -169531
f 31/33/6 30/40/6 22/23/6

f 30/40/6 31/33/6 25/36/6

f 24/1/5 31/12/5 25/3/5

f 31/12/5 24/1/5 23/4/5

v 191040 13402.4 -177458
vt 4.47861e-13 521.386
f 24/32/2 32/41/2 23/31/2

v 178428 13402.4 -190070
vt 702.192 521.386
f 32/41/2 24/32/2 33/42/2

vn -0.707107 -7.83848e-46 -0.707107
v 170502 13402.4 -182143
vt 0 521.386
vt -441.327 521.386
f 24/34/7 34/43/7 33/44/7

f 34/43/7 24/34/7 25/33/7

v 172167 10727.6 -180477
vt -609.442 416.079
vt -702.192 521.386
f 25/36/6 35/45/6 34/46/6

v 176554 10727.6 -176091
vt -365.22 416.079
f 25/36/6 36/47/6 35/45/6

v 177061 10730.6 -175584
vt -336.972 416.2
f 25/36/6 37/48/6 36/47/6

v 181448 10730.6 -171197
vt -92.7494 416.2
f 25/36/6 38/49/6 37/48/6

f 31/33/6 38/49/6 25/36/6

v 181448 12301.6 -171197
vt -92.7494 478.047
f 38/49/6 31/33/6 39/50/6

v 183113 13402.4 -169531
f 40/43/6 39/50/6 31/33/6

f 39/50/6 40/43/6 34/46/6

f 33/1/5 40/12/5 34/3/5

f 40/12/5 33/1/5 32/4/5

v 191040 16713.2 -177458
vt 4.47861e-13 651.732
f 33/42/2 41/51/2 32/41/2

v 178428 16713.2 -190070
vt 702.192 651.732
f 41/51/2 33/42/2 42/52/2

vn -0.707107 -1.10317e-31 -0.707107
v 170502 16713.2 -182143
vt 0 651.732
vt -441.327 651.732
f 33/44/8 43/53/8 42/54/8

f 43/53/8 33/44/8 34/43/8

v 172167 14038.4 -180477
vt -609.442 546.425
vt -702.192 651.732
f 34/46/6 44/55/6 43/56/6

v 176554 14038.4 -176091
vt -365.22 546.425
f 34/46/6 45/57/6 44/55/6

v 177061 14041.4 -175584
vt -336.972 546.546
f 34/46/6 46/58/6 45/57/6

v 181448 14041.4 -171197
vt -92.7494 546.546
f 34/46/6 47/59/6 46/58/6

f 40/43/6 47/59/6 34/46/6

v 181448 15612.4 -171197
vt -92.7494 608.394
f 47/59/6 40/43/6 48/60/6

v 183113 16713.2 -169531
f 49/53/6 48/60/6 40/43/6

f 48/60/6 49/53/6 43/56/6

f 42/1/5 49/12/5 43/3/5

f 49/12/5 42/1/5 41/4/5

v 191040 20024 -177458
vt 4.47861e-13 782.079
f 42/52/2 50/61/2 41/51/2

v 178428 20024 -190070
vt 702.192 782.079
f 50/61/2 42/52/2 51/62/2

v 170502 20024 -182143
vt 0 782.079
vt -441.327 782.079
f 42/54/3 52/63/3 51/64/3

f 52/63/3 42/54/3 43/53/3

v 172167 17349.2 -180477
vt -609.442 676.772
vt -702.192 782.079
f 43/56/6 53/65/6 52/66/6

v 176554 17349.2 -176091
vt -365.22 676.772
f 43/56/6 54/67/6 53/65/6

v 177061 17352.2 -175584
vt -336.972 676.892
f 43/56/6 55/68/6 54/67/6

v 181448 17352.2 -171197
vt -92.7494 676.892
f 43/56/6 56/69/6 55/68/6

f 49/53/6 56/69/6 43/56/6

v 181448 18923.2 -171197
vt -92.7494 738.74
f 56/69/6 49/53/6 57/70/6

v 183113 20024 -169531
f 58/63/6 57/70/6 49/53/6

f 57/70/6 58/63/6 52/66/6

f 51/1/5 58/12/5 52/3/5

f 58/12/5 51/1/5 50/4/5

v 191040 23334.8 -177458
vt 4.47861e-13 912.425
f 51/62/2 59/71/2 50/61/2

v 178428 23334.8 -190070
vt 702.192 912.425
f 59/71/2 51/62/2 60/72/2

v 170502 23334.8 -182143
vt 0 912.425
vt -441.327 912.425
f 51/64/3 61/73/3 60/74/3

f 61/73/3 51/64/3 52/63/3

v 172167 20660 -180477
vt -609.442 807.118
vt -702.192 912.425
f 52/66/6 62/75/6 61/76/6

v 176554 20660 -176091
vt -365.22 807.118
f 52/66/6 63/77/6 62/75/6

v 177061 20663 -175584
vt -336.972 807.239
f 52/66/6 64/78/6 63/77/6

v 181448 20663 -171197
vt -92.7494 807.239
f 52/66/6 65/79/6 64/78/6

f 58/63/6 65/79/6 52/66/6

v 181448 22234 -171197
vt -92.7494 869.087
f 65/79/6 58/63/6 66/80/6

v 183113 23334.8 -169531
f 67/73/6 66/80/6 58/63/6

f 66/80/6 67/73/6 61/76/6

f 60/1/5 67/12/5 61/3/5

f 67/12/5 60/1/5 59/4/5

v 191040 26645.6 -177458
vt 4.47861e-13 1042.77
f 60/72/2 68/81/2 59/71/2

v 178428 26645.6 -190070
vt 702.192 1042.77
f 68/81/2 60/72/2 69/82/2

vn -0.707107 1.5677e-45 -0.707107
v 170502 26645.6 -182143
vt 0 1042.77
vt -441.327 1042.77
f 60/74/9 70/83/9 69/84/9

f 70/83/9 60/74/9 61/73/9

v 172167 23970.8 -180477
vt -609.442 937.465
vt -702.192 1042.77
f 61/76/6 71/85/6 70/86/6

v 176554 23970.8 -176091
vt -365.22 937.465
f 61/76/6 72/87/6 71/85/6

v 177061 23973.8 -175584
vt -336.972 937.585
f 61/76/6 73/88/6 72/87/6

v 181448 23973.8 -171197
vt -92.7494 937.585
f 61/76/6 74/89/6 73/88/6

f 67/73/6 74/89/6 61/76/6

v 181448 25544.8 -171197
vt -92.7494 999.433
f 74/89/6 67/73/6 75/90/6

v 183113 26645.6 -169531
f 76/83/6 75/90/6 67/73/6

f 75/90/6 76/83/6 70/86/6

f 69/1/5 76/12/5 70/3/5

f 76/12/5 69/1/5 68/4/5

v 191040 29956.4 -177458
vt 4.47861e-13 1173.12
f 69/82/2 77/91/2 68/81/2

v 178428 29956.4 -190070
vt 702.192 1173.12
f 77/91/2 69/82/2 78/92/2

v 170502 29956.4 -182143
vt 0 1173.12
vt -441.327 1173.12
f 69/84/8 79/93/8 78/94/8

f 79/93/8 69/84/8 70/83/8

v 172167 27281.6 -180477
vt -609.442 1067.81
vt -702.192 1173.12
f 70/86/6 80/95/6 79/96/6

v 176554 27281.6 -176091
vt -365.22 1067.81
f 70/86/6 81/97/6 80/95/6

v 177061 27284.6 -175584
vt -336.972 1067.93
f 70/86/6 82/98/6 81/97/6

v 181448 27284.6 -171197
vt -92.7494 1067.93
f 70/86/6 83/99/6 82/98/6

f 76/83/6 83/99/6 70/86/6

v 181448 28855.6 -171197
vt -92.7494 1129.78
f 83/99/6 76/83/6 84/100/6

v 183113 29956.4 -169531
f 85/93/6 84/100/6 76/83/6

f 84/100/6 85/93/6 79/96/6

f 78/1/5 85/12/5 79/3/5

f 85/12/5 78/1/5 77/4/5

v 191040 33267.2 -177458
vt 4.47861e-13 1303.46
f 78/92/2 86/101/2 77/91/2

v 178428 33267.2 -190070
vt 702.192 1303.46
f 86/101/2 78/92/2 87/102/2

vn -0.707107 1.10317e-31 -0.707107
v 170502 33267.2 -182143
vt 0 1303.46
vt -441.327 1303.46
f 78/94/10 88/103/10 87/104/10

f 88/103/10 78/94/10 79/93/10

v 172167 30592.4 -180477
vt -609.442 1198.16
vt -702.192 1303.46
f 79/96/6 89/105/6 88/106/6

v 176554 30592.4 -176091
vt -365.22 1198.16
f 79/96/6 90/107/6 89/105/6

v 177061 30595.4 -175584
vt -336.972 1198.28
f 79/96/6 91/108/6 90/107/6

v 181448 30595.4 -171197
vt -92.7494 1198.28
f 79/96/6 92/109/6 91/108/6

f 85/93/6 92/109/6 79/96/6

v 181448 32166.4 -171197
vt -92.7494 1260.13
f 92/109/6 85/93/6 93/110/6

v 183113 33267.2 -169531
f 94/103/6 93/110/6 85/93/6

f 93/110/6 94/103/6 88/106/6

f 87/1/5 94/12/5 88/3/5

f 94/12/5 87/1/5 86/4/5

v 191040 36578 -177458
vt 4.47861e-13 1433.81
f 87/102/2 95/111/2 86/101/2

v 178428 36578 -190070
vt 702.192 1433.81
f 95/111/2 87/102/2 96/112/2

v 170502 36578 -182143
vt 0 1433.81
vt -441.327 1433.81
f 87/104/10 97/113/10 96/114/10

f 97/113/10 87/104/10 88/103/10

v 172167 33903.2 -180477
vt -609.442 1328.5
vt -702.192 1433.81
f 88/106/6 98/115/6 97/116/6

v 176554 33903.2 -176091
vt -365.22 1328.5
f 88/106/6 99/117/6 98/115/6

v 177061 33906.2 -175584
vt -336.972 1328.62
f 88/106/6 100/118/6 99/117/6

v 181448 33906.2 -171197
vt -92.7494 1328.62
f 88/106/6 101/119/6 100/118/6

f 94/103/6 101/119/6 88/106/6

v 181448 35477.2 -171197
vt -92.7494 1390.47
f 101/119/6 94/103/6 102/120/6

v 183113 36578 -169531
f 103/113/6 102/120/6 94/103/6

f 102/120/6 103/113/6 97/116/6

f 96/1/5 103/12/5 97/3/5

f 103/12/5 96/1/5 95/4/5

v 191040 39888.8 -177458
vt 4.47861e-13 1564.16
f 96/112/2 104/121/2 95/111/2

v 178428 39888.8 -190070
vt 702.192 1564.16
f 104/121/2 96/112/2 105/122/2

v 170502 39888.8 -182143
vt 0 1564.16
vt -441.327 1564.16
f 96/114/8 106/123/8 105/124/8

f 106/123/8 96/114/8 97/113/8

v 172167 37214 -180477
vt -609.442 1458.85
vt -702.192 1564.16
f 97/116/6 107/125/6 106/126/6

v 176554 37214 -176091
vt -365.22 1458.85
f 97/116/6 108/127/6 107/125/6

v 177061 37217 -175584
vt -336.972 1458.97
f 97/116/6 109/128/6 108/127/6

v 181448 37217 -171197
vt -92.7494 1458.97
f 97/116/6 110/129/6 109/128/6

f 103/113/6 110/129/6 97/116/6

v 181448 38788 -171197
vt -92.7494 1520.82
f 110/129/6 103/113/6 111/130/6

v 183113 39888.8 -169531
f 112/123/6 111/130/6 103/113/6

f 111/130/6 112/123/6 106/126/6

vt 441.327 2.27374e-13
vn 0 1 -0
f 104/131/11 106/3/11 112/12/11

vt 441.327 702.192
f 106/3/11 104/131/11 105/132/11

vt 702.192 909.59
vn 0.540001 0.645599 -0.540001
v 189481 41192.8 -177458
vt 43.4008 976.816
vt -1.56909e-12 909.59
f 105/133/12 113/134/12 104/135/12

v 178428 41192.8 -188511
vt 658.791 976.816
f 113/134/12 105/133/12 114/136/12

vt -441.327 741.176
vn -0.540001 0.645599 -0.540001
v 172061 41192.8 -182143
vt -43.4008 808.401
vt -397.926 808.401
f 105/137/13 115/138/13 114/139/13

vt -4.64481e-12 741.176
f 115/138/13 105/137/13 106/140/13

vt -702.192 1194.51
vn -0.540001 0.645599 0.540001
v 183113 41192.8 -171090
vt -43.4008 1261.74
vt -658.791 1261.74
f 106/141/14 116/142/14 115/143/14

vt 0 1194.51
f 116/142/14 106/141/14 112/144/14

vt 8.07794e-28 1194.51
vn 0.540001 0.645599 0.540001
vt 397.926 1261.74
vt 43.4008 1261.74
f 112/145/15 113/146/15 116/147/15

vt 441.327 1194.51
f 113/146/15 112/145/15 104/148/15

vn 0.707107 -1.10317e-31 0.707107
vt 441.327 1564.16
f 103/113/16 104/149/16 112/123/16

vt 441.327 1433.81
f 104/149/16 103/113/16 95/150/16

vn 0.707107 1.10317e-31 0.707107
f 94/103/17 95/150/17 103/113/17

vt 441.327 1303.46
f 95/150/17 94/103/17 86/151/17

f 85/93/17 86/151/17 94/103/17

vt 441.327 1173.12
f 86/151/17 85/93/17 77/152/17

f 76/83/16 77/152/16 85/93/16

vt 441.327 1042.77
f 77/152/16 76/83/16 68/153/16

vn 0.707107 3.13539e-45 0.707107
f 67/73/18 68/153/18 76/83/18

vt 441.327 912.425
f 68/153/18 67/73/18 59/154/18

vn 0.707107 0 0.707107
f 58/63/19 59/154/19 67/73/19

vt 441.327 782.079
f 59/154/19 58/63/19 50/155/19

f 49/53/19 50/155/19 58/63/19

vt 441.327 651.732
f 50/155/19 49/53/19 41/156/19

f 40/43/16 41/156/16 49/53/16

vt 441.327 521.386
f 41/156/16 40/43/16 32/157/16

vn 0.707107 -1.5677e-45 0.707107
f 31/33/20 32/157/20 40/43/20

vt 441.327 391.039
f 32/157/20 31/33/20 23/158/20

f 22/23/19 23/158/19 31/33/19

vt 441.327 260.693
f 23/158/19 22/23/19 14/159/19

f 13/10/19 14/159/19 22/23/19

vt 441.327 130.346
f 14/159/19 13/10/19 5/160/19

vn 0.707107 -6.83589e-32 0.707107
f 2/19/21 5/160/21 13/10/21

vt 441.327 -1.5543e-44
f 5/160/21 2/19/21 4/161/21

vt 397.926 43.4008
vn 1.78691e-15 1 -4.806e-16
vt 43.4008 658.791
vt 43.4008 43.4008
f 113/162/22 115/163/22 116/164/22

vt 397.926 658.791
f 115/163/22 113/162/22 114/165/22

v 177061 38788 -175584
vt -336.972 1520.82
f 111/130/6 106/126/6 117/166/6

v 176554 38788 -176091
vt -365.22 1520.82
f 117/166/6 106/126/6 118/167/6

v 172167 38788 -180477
vt -609.442 1520.82
f 118/167/6 106/126/6 119/168/6

f 119/168/6 106/126/6 107/125/6

usemtl Color_I03
f 108/127/6 119/168/6 107/125/6

f 119/168/6 108/127/6 118/167/6

usemtl Color_M07
f 108/127/6 109/128/6 118/167/6

f 117/166/6 118/167/6 109/128/6

usemtl Color_I03
f 110/129/6 117/166/6 109/128/6

f 117/166/6 110/129/6 111/130/6

usemtl Color_M07
v 177061 35477.2 -175584
vt -336.972 1390.47
f 102/120/6 97/116/6 120/169/6

v 176554 35477.2 -176091
vt -365.22 1390.47
f 120/169/6 97/116/6 121/170/6

v 172167 35477.2 -180477
vt -609.442 1390.47
f 121/170/6 97/116/6 122/171/6

f 122/171/6 97/116/6 98/115/6

usemtl Color_I03
f 99/117/6 122/171/6 98/115/6

f 122/171/6 99/117/6 121/170/6

usemtl Color_M07
f 99/117/6 100/118/6 121/170/6

f 120/169/6 121/170/6 100/118/6

usemtl Color_I03
f 101/119/6 120/169/6 100/118/6

f 120/169/6 101/119/6 102/120/6

usemtl Color_M07
v 177061 32166.4 -175584
vt -336.972 1260.13
f 93/110/6 88/106/6 123/172/6

v 176554 32166.4 -176091
vt -365.22 1260.13
f 123/172/6 88/106/6 124/173/6

v 172167 32166.4 -180477
vt -609.442 1260.13
f 124/173/6 88/106/6 125/174/6

f 125/174/6 88/106/6 89/105/6

usemtl Color_I03
f 90/107/6 125/174/6 89/105/6

f 125/174/6 90/107/6 124/173/6

usemtl Color_M07
f 90/107/6 91/108/6 124/173/6

f 123/172/6 124/173/6 91/108/6

usemtl Color_I03
f 92/109/6 123/172/6 91/108/6

f 123/172/6 92/109/6 93/110/6

usemtl Color_M07
v 177061 28855.6 -175584
vt -336.972 1129.78
f 84/100/6 79/96/6 126/175/6

v 176554 28855.6 -176091
vt -365.22 1129.78
f 126/175/6 79/96/6 127/176/6

v 172167 28855.6 -180477
vt -609.442 1129.78
f 127/176/6 79/96/6 128/177/6

f 128/177/6 79/96/6 80/95/6

usemtl Color_I03
f 81/97/6 128/177/6 80/95/6

f 128/177/6 81/97/6 127/176/6

usemtl Color_M07
f 81/97/6 82/98/6 127/176/6

f 126/175/6 127/176/6 82/98/6

usemtl Color_I03
f 83/99/6 126/175/6 82/98/6

f 126/175/6 83/99/6 84/100/6

usemtl Color_M07
v 177061 25544.8 -175584
vt -336.972 999.433
f 75/90/6 70/86/6 129/178/6

v 176554 25544.8 -176091
vt -365.22 999.433
f 129/178/6 70/86/6 130/179/6

v 172167 25544.8 -180477
vt -609.442 999.433
f 130/179/6 70/86/6 131/180/6

f 131/180/6 70/86/6 71/85/6

usemtl Color_I03
f 72/87/6 131/180/6 71/85/6

f 131/180/6 72/87/6 130/179/6

usemtl Color_M07
f 72/87/6 73/88/6 130/179/6

f 129/178/6 130/179/6 73/88/6

usemtl Color_I03
f 74/89/6 129/178/6 73/88/6

f 129/178/6 74/89/6 75/90/6

usemtl Color_M07
v 177061 22234 -175584
vt -336.972 869.087
f 66/80/6 61/76/6 132/181/6

v 176554 22234 -176091
vt -365.22 869.087
f 132/181/6 61/76/6 133/182/6

v 172167 22234 -180477
vt -609.442 869.087
f 133/182/6 61/76/6 134/183/6

f 134/183/6 61/76/6 62/75/6

usemtl Color_I03
f 63/77/6 134/183/6 62/75/6

f 134/183/6 63/77/6 133/182/6

usemtl Color_M07
f 63/77/6 64/78/6 133/182/6

f 132/181/6 133/182/6 64/78/6

usemtl Color_I03
f 65/79/6 132/181/6 64/78/6

f 132/181/6 65/79/6 66/80/6

usemtl Color_M07
v 177061 18923.2 -175584
vt -336.972 738.74
f 57/70/6 52/66/6 135/184/6

v 176554 18923.2 -176091
vt -365.22 738.74
f 135/184/6 52/66/6 136/185/6

v 172167 18923.2 -180477
vt -609.442 738.74
f 136/185/6 52/66/6 137/186/6

f 137/186/6 52/66/6 53/65/6

usemtl Color_I03
f 54/67/6 137/186/6 53/65/6

f 137/186/6 54/67/6 136/185/6

usemtl Color_M07
f 54/67/6 55/68/6 136/185/6

f 135/184/6 136/185/6 55/68/6

usemtl Color_I03
f 56/69/6 135/184/6 55/68/6

f 135/184/6 56/69/6 57/70/6

usemtl Color_M07
v 177061 15612.4 -175584
vt -336.972 608.394
f 48/60/6 43/56/6 138/187/6

v 176554 15612.4 -176091
vt -365.22 608.394
f 138/187/6 43/56/6 139/188/6

v 172167 15612.4 -180477
vt -609.442 608.394
f 139/188/6 43/56/6 140/189/6

f 140/189/6 43/56/6 44/55/6

usemtl Color_I03
f 45/57/6 140/189/6 44/55/6

f 140/189/6 45/57/6 139/188/6

usemtl Color_M07
f 45/57/6 46/58/6 139/188/6

f 138/187/6 139/188/6 46/58/6

usemtl Color_I03
f 47/59/6 138/187/6 46/58/6

f 138/187/6 47/59/6 48/60/6

usemtl Color_M07
v 177061 12301.6 -175584
vt -336.972 478.047
f 39/50/6 34/46/6 141/190/6

v 176554 12301.6 -176091
vt -365.22 478.047
f 141/190/6 34/46/6 142/191/6

v 172167 12301.6 -180477
vt -609.442 478.047
f 142/191/6 34/46/6 143/192/6

f 143/192/6 34/46/6 35/45/6

usemtl Color_I03
f 36/47/6 143/192/6 35/45/6

f 143/192/6 36/47/6 142/191/6

usemtl Color_M07
f 36/47/6 37/48/6 142/191/6

f 141/190/6 142/191/6 37/48/6

usemtl Color_I03
f 38/49/6 141/190/6 37/48/6

f 141/190/6 38/49/6 39/50/6

usemtl Color_M07
v 177061 8990.75 -175584
vt -336.972 347.701
f 30/40/6 25/36/6 144/193/6

v 176554 8990.75 -176091
vt -365.22 347.701
f 144/193/6 25/36/6 145/194/6

v 172167 8990.75 -180477
vt -609.442 347.701
f 145/194/6 25/36/6 146/195/6

f 146/195/6 25/36/6 26/35/6

usemtl Color_I03
f 27/37/6 146/195/6 26/35/6

f 146/195/6 27/37/6 145/194/6

usemtl Color_M07
f 27/37/6 28/38/6 145/194/6

f 144/193/6 145/194/6 28/38/6

usemtl Color_I03
f 29/39/6 144/193/6 28/38/6

f 144/193/6 29/39/6 30/40/6

usemtl Color_M07
v 177061 5679.95 -175584
vt -336.972 217.354
f 21/30/6 16/26/6 147/196/6

v 176554 5679.95 -176091
vt -365.22 217.354
f 147/196/6 16/26/6 148/197/6

v 172167 5679.95 -180477
vt -609.442 217.354
f 148/197/6 16/26/6 149/198/6

f 149/198/6 16/26/6 17/25/6

usemtl Color_I03
f 18/27/6 149/198/6 17/25/6

f 149/198/6 18/27/6 148/197/6

usemtl Color_M07
f 18/27/6 19/28/6 148/197/6

f 147/196/6 148/197/6 19/28/6

usemtl Color_I03
f 20/29/6 147/196/6 19/28/6

f 147/196/6 20/29/6 21/30/6

usemtl Color_M07
v 177061 2369.15 -175584
vt -336.972 87.0079
f 12/20/4 7/15/4 150/199/4

v 176554 2369.15 -176091
vt -365.22 87.0079
f 150/199/4 7/15/4 151/200/4

v 172167 2369.15 -180477
vt -609.442 87.0079
f 151/200/4 7/15/4 152/201/4

f 152/201/4 7/15/4 8/14/4

usemtl Color_I03
f 9/16/6 152/201/6 8/14/6

f 152/201/6 9/16/6 151/200/6

usemtl Color_M07
f 9/16/4 10/17/4 151/200/4

f 150/199/4 151/200/4 10/17/4

usemtl Color_I03
f 11/18/6 150/199/6 10/17/6

f 150/199/6 11/18/6 12/20/6

