# Alias OBJ Model File
# Exported from SketchUp, (c) 2000-2012 Trimble Navigation Limited
# File units = millimeters

mtllib Ngoaicanh21.mtl

g Mesh1 Group1 Model

usemtl Color_M07
v 192604 159.152 -116374
vt -9.09495e-13 702.192
vn -6.94319e-17 -1 4.36379e-17
v 203814 159.152 -98538
vt -441.327 -1.33716e-30
v 192604 159.152 -98538
vt 4.25509e-30 -2.67432e-30
f 1/1/1 2/2/1 3/3/1

v 203814 159.152 -116374
vt -441.327 702.192
f 2/2/1 1/1/1 4/4/1

v 192604 3469.95 -116374
vt -8.58323e-13 130.346
vn 7.28741e-17 0 -1
vt -441.327 0
vt -8.58323e-13 0
f 5/5/2 4/6/2 1/7/2

v 203814 3469.95 -116374
vt -441.327 130.346
f 4/6/2 5/5/2 6/8/2

v 203814 3469.95 -98538
vn 0 -1 -0
f 7/6/3 5/1/3 6/4/3

v 192604 3469.95 -98538
vt 0 0
f 5/1/3 7/6/3 8/9/3

vt 0 6.12843e-14
vn -7.28741e-17 -6.83589e-32 1
vt 441.327 130.346
vt 0 130.346
f 3/10/4 7/11/4 8/12/4

vt 441.327 -2.19851e-45
f 7/11/4 3/10/4 2/13/4

vt 702.192 0
vn 1 0 4.55673e-16
vt 2.01101e-13 130.346
vt 2.01101e-13 0
f 4/14/5 7/15/5 2/16/5

vt 702.192 130.346
f 7/15/5 4/14/5 6/17/5

v 203814 6780.75 -98538
vt 2.01101e-13 260.693
f 6/17/5 9/18/5 7/15/5

v 203814 6780.75 -116374
vt 702.192 260.693
f 9/18/5 6/17/5 10/19/5

v 192604 6780.75 -116374
vt -8.58323e-13 260.693
vt -441.327 260.693
f 6/8/2 11/20/2 10/21/2

f 11/20/2 6/8/2 5/5/2

vt -702.192 130.346
vn -1 0 -1.31867e-16
v 192604 4105.95 -114018
vt -609.442 155.386
vt -702.192 260.693
f 5/22/6 12/23/6 11/24/6

v 192604 4105.95 -107815
vt -365.22 155.386
f 5/22/6 13/25/6 12/23/6

v 192604 4109.02 -107097
vt -336.972 155.507
f 5/22/6 14/26/6 13/25/6

v 192604 4109.02 -100894
vt -92.7494 155.507
f 5/22/6 15/27/6 14/26/6

f 8/12/6 15/27/6 5/22/6

v 192604 5679.95 -100894
vt -92.7494 217.354
f 15/27/6 8/12/6 16/28/6

v 192604 6780.75 -98538
vt 0 260.693
f 17/29/6 16/28/6 8/12/6

f 16/28/6 17/29/6 11/24/6

f 11/1/3 9/6/3 17/9/3

f 9/6/3 11/1/3 10/4/3

v 192604 10091.6 -116374
vt -8.58323e-13 391.039
f 18/30/2 10/21/2 11/20/2

v 203814 10091.6 -116374
vt -441.327 391.039
f 10/21/2 18/30/2 19/31/2

v 203814 10091.6 -98538
f 20/6/3 18/1/3 19/4/3

v 192604 10091.6 -98538
f 18/1/3 20/6/3 21/9/3

vn -7.28741e-17 0 1
vt 441.327 391.039
vt 0 391.039
f 17/29/7 20/32/7 21/33/7

vt 441.327 260.693
f 20/32/7 17/29/7 9/34/7

f 8/12/7 9/34/7 17/29/7

f 9/34/7 8/12/7 7/11/7

vt 2.01101e-13 391.039
f 10/19/5 20/35/5 9/18/5

vt 702.192 391.039
f 20/35/5 10/19/5 19/36/5

v 203814 13402.4 -98538
vt 2.01101e-13 521.386
f 19/36/5 22/37/5 20/35/5

v 203814 13402.4 -116374
vt 702.192 521.386
f 22/37/5 19/36/5 23/38/5

vn 7.28741e-17 -7.83848e-46 -1
v 192604 13402.4 -116374
vt -8.58323e-13 521.386
vt -441.327 521.386
f 19/31/8 24/39/8 23/40/8

f 24/39/8 19/31/8 18/30/8

vt -702.192 391.039
v 192604 10727.6 -114018
vt -609.442 416.079
vt -702.192 521.386
f 18/41/6 25/42/6 24/43/6

v 192604 10727.6 -107815
vt -365.22 416.079
f 18/41/6 26/44/6 25/42/6

v 192604 10730.6 -107097
vt -336.972 416.2
f 18/41/6 27/45/6 26/44/6

v 192604 10730.6 -100894
vt -92.7494 416.2
f 18/41/6 28/46/6 27/45/6

f 21/33/6 28/46/6 18/41/6

v 192604 12301.6 -100894
vt -92.7494 478.047
f 28/46/6 21/33/6 29/47/6

v 192604 13402.4 -98538
vt 0 521.386
f 30/48/6 29/47/6 21/33/6

f 29/47/6 30/48/6 24/43/6

f 24/1/3 22/6/3 30/9/3

f 22/6/3 24/1/3 23/4/3

v 192604 16713.2 -116374
vt -8.58323e-13 651.732
vn 7.28741e-17 -1.10317e-31 -1
f 31/49/9 23/40/9 24/39/9

v 203814 16713.2 -116374
vt -441.327 651.732
f 23/40/9 31/49/9 32/50/9

v 203814 16713.2 -98538
f 33/6/3 31/1/3 32/4/3

v 192604 16713.2 -98538
f 31/1/3 33/6/3 34/9/3

vn -7.28741e-17 -1.10317e-31 1
vt 441.327 651.732
vt 0 651.732
f 30/48/10 33/51/10 34/52/10

vt 441.327 521.386
f 33/51/10 30/48/10 22/53/10

vn -7.28741e-17 -1.5677e-45 1
f 21/33/11 22/53/11 30/48/11

f 22/53/11 21/33/11 20/32/11

vt 2.01101e-13 651.732
f 23/38/5 33/54/5 22/37/5

vt 702.192 651.732
f 33/54/5 23/38/5 32/55/5

v 203814 20024 -98538
vt 2.01101e-13 782.079
f 32/55/5 35/56/5 33/54/5

v 203814 20024 -116374
vt 702.192 782.079
f 35/56/5 32/55/5 36/57/5

v 192604 20024 -116374
vt -8.58323e-13 782.079
vt -441.327 782.079
f 32/50/2 37/58/2 36/59/2

f 37/58/2 32/50/2 31/49/2

vt -702.192 651.732
v 192604 17349.2 -114018
vt -609.442 676.772
vt -702.192 782.079
f 31/60/6 38/61/6 37/62/6

v 192604 17349.2 -107815
vt -365.22 676.772
f 31/60/6 39/63/6 38/61/6

v 192604 17352.2 -107097
vt -336.972 676.892
f 31/60/6 40/64/6 39/63/6

v 192604 17352.2 -100894
vt -92.7494 676.892
f 31/60/6 41/65/6 40/64/6

f 34/52/6 41/65/6 31/60/6

v 192604 18923.2 -100894
vt -92.7494 738.74
f 41/65/6 34/52/6 42/66/6

v 192604 20024 -98538
vt 0 782.079
f 43/67/6 42/66/6 34/52/6

f 42/66/6 43/67/6 37/62/6

f 37/1/3 35/6/3 43/9/3

f 35/6/3 37/1/3 36/4/3

v 192604 23334.8 -116374
vt -8.58323e-13 912.425
f 44/68/2 36/59/2 37/58/2

v 203814 23334.8 -116374
vt -441.327 912.425
f 36/59/2 44/68/2 45/69/2

v 203814 23334.8 -98538
f 46/6/3 44/1/3 45/4/3

v 192604 23334.8 -98538
f 44/1/3 46/6/3 47/9/3

vt 441.327 912.425
vt 0 912.425
f 43/67/7 46/70/7 47/71/7

vt 441.327 782.079
f 46/70/7 43/67/7 35/72/7

f 34/52/7 35/72/7 43/67/7

f 35/72/7 34/52/7 33/51/7

vt 2.01101e-13 912.425
f 36/57/5 46/73/5 35/56/5

vt 702.192 912.425
f 46/73/5 36/57/5 45/74/5

v 203814 26645.6 -98538
vt 2.01101e-13 1042.77
f 45/74/5 48/75/5 46/73/5

v 203814 26645.6 -116374
vt 702.192 1042.77
f 48/75/5 45/74/5 49/76/5

vn 7.28741e-17 1.5677e-45 -1
v 192604 26645.6 -116374
vt -8.58323e-13 1042.77
vt -441.327 1042.77
f 45/69/12 50/77/12 49/78/12

f 50/77/12 45/69/12 44/68/12

vt -702.192 912.425
v 192604 23970.8 -114018
vt -609.442 937.465
vt -702.192 1042.77
f 44/79/6 51/80/6 50/81/6

v 192604 23970.8 -107815
vt -365.22 937.465
f 44/79/6 52/82/6 51/80/6

v 192604 23973.8 -107097
vt -336.972 937.585
f 44/79/6 53/83/6 52/82/6

v 192604 23973.8 -100894
vt -92.7494 937.585
f 44/79/6 54/84/6 53/83/6

f 47/71/6 54/84/6 44/79/6

v 192604 25544.8 -100894
vt -92.7494 999.433
f 54/84/6 47/71/6 55/85/6

v 192604 26645.6 -98538
vt 0 1042.77
f 56/86/6 55/85/6 47/71/6

f 55/85/6 56/86/6 50/81/6

f 50/1/3 48/6/3 56/9/3

f 48/6/3 50/1/3 49/4/3

v 192604 29956.4 -116374
vt -8.58323e-13 1173.12
f 57/87/9 49/78/9 50/77/9

v 203814 29956.4 -116374
vt -441.327 1173.12
f 49/78/9 57/87/9 58/88/9

v 203814 29956.4 -98538
f 59/6/3 57/1/3 58/4/3

v 192604 29956.4 -98538
f 57/1/3 59/6/3 60/9/3

vt 441.327 1173.12
vt 0 1173.12
f 56/86/10 59/89/10 60/90/10

vt 441.327 1042.77
f 59/89/10 56/86/10 48/91/10

vn -7.28741e-17 3.13539e-45 1
f 47/71/13 48/91/13 56/86/13

f 48/91/13 47/71/13 46/70/13

vt 2.01101e-13 1173.12
f 49/76/5 59/92/5 48/75/5

vt 702.192 1173.12
f 59/92/5 49/76/5 58/93/5

v 203814 33267.2 -98538
vt 2.01101e-13 1303.46
f 58/93/5 61/94/5 59/92/5

v 203814 33267.2 -116374
vt 702.192 1303.46
f 61/94/5 58/93/5 62/95/5

vn 7.28741e-17 1.10317e-31 -1
v 192604 33267.2 -116374
vt -8.58323e-13 1303.46
vt -441.327 1303.46
f 58/88/14 63/96/14 62/97/14

f 63/96/14 58/88/14 57/87/14

vt -702.192 1173.12
v 192604 30592.4 -114018
vt -609.442 1198.16
vt -702.192 1303.46
f 57/98/6 64/99/6 63/100/6

v 192604 30592.4 -107815
vt -365.22 1198.16
f 57/98/6 65/101/6 64/99/6

v 192604 30595.4 -107097
vt -336.972 1198.28
f 57/98/6 66/102/6 65/101/6

v 192604 30595.4 -100894
vt -92.7494 1198.28
f 57/98/6 67/103/6 66/102/6

f 60/90/6 67/103/6 57/98/6

v 192604 32166.4 -100894
vt -92.7494 1260.13
f 67/103/6 60/90/6 68/104/6

v 192604 33267.2 -98538
vt 0 1303.46
f 69/105/6 68/104/6 60/90/6

f 68/104/6 69/105/6 63/100/6

f 63/1/3 61/6/3 69/9/3

f 61/6/3 63/1/3 62/4/3

v 192604 36578 -116374
vt -8.58323e-13 1433.81
f 70/106/14 62/97/14 63/96/14

v 203814 36578 -116374
vt -441.327 1433.81
f 62/97/14 70/106/14 71/107/14

v 203814 36578 -98538
f 72/6/3 70/1/3 71/4/3

v 192604 36578 -98538
f 70/1/3 72/6/3 73/9/3

vn -7.28741e-17 1.10317e-31 1
vt 441.327 1433.81
vt 0 1433.81
f 69/105/15 72/108/15 73/109/15

vt 441.327 1303.46
f 72/108/15 69/105/15 61/110/15

f 60/90/15 61/110/15 69/105/15

f 61/110/15 60/90/15 59/89/15

vt 2.01101e-13 1433.81
f 62/95/5 72/111/5 61/94/5

vt 702.192 1433.81
f 72/111/5 62/95/5 71/112/5

v 203814 39888.8 -98538
vt 2.01101e-13 1564.16
f 71/112/5 74/113/5 72/111/5

v 203814 39888.8 -116374
vt 702.192 1564.16
f 74/113/5 71/112/5 75/114/5

v 192604 39888.8 -116374
vt -8.58323e-13 1564.16
vt -441.327 1564.16
f 71/107/9 76/115/9 75/116/9

f 76/115/9 71/107/9 70/106/9

vt -702.192 1433.81
v 192604 37214 -114018
vt -609.442 1458.85
vt -702.192 1564.16
f 70/117/6 77/118/6 76/119/6

v 192604 37214 -107815
vt -365.22 1458.85
f 70/117/6 78/120/6 77/118/6

v 192604 37217 -107097
vt -336.972 1458.97
f 70/117/6 79/121/6 78/120/6

v 192604 37217 -100894
vt -92.7494 1458.97
f 70/117/6 80/122/6 79/121/6

f 73/109/6 80/122/6 70/117/6

v 192604 38788 -100894
vt -92.7494 1520.82
f 80/122/6 73/109/6 81/123/6

v 192604 39888.8 -98538
vt 0 1564.16
f 82/124/6 81/123/6 73/109/6

f 81/123/6 82/124/6 76/119/6

vt 441.327 0
vn 0 1 -0
vt 9.09495e-13 702.192
f 74/125/16 76/126/16 82/9/16

vt 441.327 702.192
f 76/126/16 74/125/16 75/127/16

vt 702.192 909.59
vn 0.763676 0.645599 -3.09018e-15
v 202712 41192.8 -99640.4
vt 43.4008 976.816
vt -1.78581e-12 909.59
f 75/128/17 83/129/17 74/130/17

v 202712 41192.8 -115271
vt 658.791 976.816
f 83/129/17 75/128/17 84/131/17

vt -441.327 741.176
vn -5.00883e-15 0.645599 -0.763676
v 193707 41192.8 -115271
vt -43.4008 808.401
vt -397.926 808.401
f 75/132/18 85/133/18 84/134/18

vt -5.51506e-12 741.176
f 85/133/18 75/132/18 76/135/18

vt -702.192 1194.51
vn -0.763676 0.645599 -5.19913e-15
v 193707 41192.8 -99640.4
vt -43.4008 1261.74
vt -658.791 1261.74
f 76/136/19 86/137/19 85/138/19

vt 0 1194.51
f 86/137/19 76/136/19 82/139/19

vn -6.46665e-15 0.645599 0.763676
vt 397.926 1261.74
vt 43.4008 1261.74
f 82/139/20 83/140/20 86/141/20

vt 441.327 1194.51
f 83/140/20 82/139/20 74/142/20

vt 441.327 1564.16
f 73/109/10 74/143/10 82/124/10

f 74/143/10 73/109/10 72/108/10

vt 397.926 43.4008
vn 1.60337e-15 1 9.23697e-16
vt 43.4008 658.791
vt 43.4008 43.4008
f 83/144/21 85/145/21 86/146/21

vt 397.926 658.791
f 85/145/21 83/144/21 84/147/21

v 192604 38788 -107097
vt -336.972 1520.82
f 81/123/6 76/119/6 87/148/6

v 192604 38788 -107815
vt -365.22 1520.82
f 87/148/6 76/119/6 88/149/6

v 192604 38788 -114018
vt -609.442 1520.82
f 88/149/6 76/119/6 89/150/6

f 89/150/6 76/119/6 77/118/6

usemtl Color_I03
vn -1 0 -1.72273e-16
f 78/120/22 89/150/22 77/118/22

f 89/150/22 78/120/22 88/149/22

usemtl Color_M07
f 78/120/6 79/121/6 88/149/6

f 87/148/6 88/149/6 79/121/6

usemtl Color_I03
vn -1 0 7.58739e-16
f 80/122/23 87/148/23 79/121/23

f 87/148/23 80/122/23 81/123/23

usemtl Color_M07
v 192604 35477.2 -100894
vt -92.7494 1390.47
f 90/151/6 73/109/6 70/117/6

f 73/109/6 90/151/6 69/105/6

v 192604 33906.2 -100894
vt -92.7494 1328.62
f 91/152/6 69/105/6 90/151/6

f 69/105/6 91/152/6 63/100/6

v 192604 33906.2 -107097
vt -336.972 1328.62
f 63/100/6 91/152/6 92/153/6

usemtl Color_I03
v 192604 35477.2 -107097
vt -336.972 1390.47
f 91/152/23 93/154/23 92/153/23

f 93/154/23 91/152/23 90/151/23

usemtl Color_M07
f 90/151/6 70/117/6 93/154/6

v 192604 35477.2 -107815
vt -365.22 1390.47
f 93/154/6 70/117/6 94/155/6

v 192604 35477.2 -114018
vt -609.442 1390.47
f 94/155/6 70/117/6 95/156/6

v 192604 33903.2 -114018
vt -609.442 1328.5
f 95/156/6 70/117/6 96/157/6

f 63/100/6 96/157/6 70/117/6

v 192604 33903.2 -107815
vt -365.22 1328.5
f 63/100/6 97/158/6 96/157/6

f 63/100/6 92/153/6 97/158/6

f 97/158/6 92/153/6 94/155/6

f 93/154/6 94/155/6 92/153/6

usemtl Color_I03
f 95/156/22 97/158/22 94/155/22

f 97/158/22 95/156/22 96/157/22

usemtl Color_M07
v 192604 32166.4 -107097
vt -336.972 1260.13
f 68/104/6 63/100/6 98/159/6

v 192604 32166.4 -107815
vt -365.22 1260.13
f 98/159/6 63/100/6 99/160/6

v 192604 32166.4 -114018
vt -609.442 1260.13
f 99/160/6 63/100/6 100/161/6

f 100/161/6 63/100/6 64/99/6

usemtl Color_I03
f 65/101/22 100/161/22 64/99/22

f 100/161/22 65/101/22 99/160/22

usemtl Color_M07
f 65/101/6 66/102/6 99/160/6

f 98/159/6 99/160/6 66/102/6

usemtl Color_I03
f 67/103/23 98/159/23 66/102/23

f 98/159/23 67/103/23 68/104/23

usemtl Color_M07
v 192604 28855.6 -100894
vt -92.7494 1129.78
f 101/162/6 60/90/6 57/98/6

f 60/90/6 101/162/6 56/86/6

v 192604 27284.6 -100894
vt -92.7494 1067.93
f 102/163/6 56/86/6 101/162/6

f 56/86/6 102/163/6 50/81/6

v 192604 27284.6 -107097
vt -336.972 1067.93
f 50/81/6 102/163/6 103/164/6

usemtl Color_I03
v 192604 28855.6 -107097
vt -336.972 1129.78
f 102/163/23 104/165/23 103/164/23

f 104/165/23 102/163/23 101/162/23

usemtl Color_M07
f 101/162/6 57/98/6 104/165/6

v 192604 28855.6 -107815
vt -365.22 1129.78
f 104/165/6 57/98/6 105/166/6

v 192604 28855.6 -114018
vt -609.442 1129.78
f 105/166/6 57/98/6 106/167/6

v 192604 27281.6 -114018
vt -609.442 1067.81
f 106/167/6 57/98/6 107/168/6

f 50/81/6 107/168/6 57/98/6

v 192604 27281.6 -107815
vt -365.22 1067.81
f 50/81/6 108/169/6 107/168/6

f 50/81/6 103/164/6 108/169/6

f 108/169/6 103/164/6 105/166/6

f 104/165/6 105/166/6 103/164/6

usemtl Color_I03
f 106/167/22 108/169/22 105/166/22

f 108/169/22 106/167/22 107/168/22

usemtl Color_M07
v 192604 25544.8 -107097
vt -336.972 999.433
f 55/85/6 50/81/6 109/170/6

v 192604 25544.8 -107815
vt -365.22 999.433
f 109/170/6 50/81/6 110/171/6

v 192604 25544.8 -114018
vt -609.442 999.433
f 110/171/6 50/81/6 111/172/6

f 111/172/6 50/81/6 51/80/6

usemtl Color_I03
f 52/82/22 111/172/22 51/80/22

f 111/172/22 52/82/22 110/171/22

usemtl Color_M07
f 52/82/6 53/83/6 110/171/6

f 109/170/6 110/171/6 53/83/6

usemtl Color_I03
f 54/84/23 109/170/23 53/83/23

f 109/170/23 54/84/23 55/85/23

usemtl Color_M07
v 192604 22234 -100894
vt -92.7494 869.087
f 112/173/6 47/71/6 44/79/6

f 47/71/6 112/173/6 43/67/6

v 192604 20663 -100894
vt -92.7494 807.239
f 113/174/6 43/67/6 112/173/6

f 43/67/6 113/174/6 37/62/6

v 192604 20663 -107097
vt -336.972 807.239
f 37/62/6 113/174/6 114/175/6

usemtl Color_I03
v 192604 22234 -107097
vt -336.972 869.087
f 113/174/23 115/176/23 114/175/23

f 115/176/23 113/174/23 112/173/23

usemtl Color_M07
f 112/173/6 44/79/6 115/176/6

v 192604 22234 -107815
vt -365.22 869.087
f 115/176/6 44/79/6 116/177/6

v 192604 22234 -114018
vt -609.442 869.087
f 116/177/6 44/79/6 117/178/6

v 192604 20660 -114018
vt -609.442 807.118
f 117/178/6 44/79/6 118/179/6

f 37/62/6 118/179/6 44/79/6

v 192604 20660 -107815
vt -365.22 807.118
f 37/62/6 119/180/6 118/179/6

f 37/62/6 114/175/6 119/180/6

f 119/180/6 114/175/6 116/177/6

f 115/176/6 116/177/6 114/175/6

usemtl Color_I03
f 117/178/22 119/180/22 116/177/22

f 119/180/22 117/178/22 118/179/22

usemtl Color_M07
v 192604 18923.2 -107097
vt -336.972 738.74
f 42/66/6 37/62/6 120/181/6

v 192604 18923.2 -107815
vt -365.22 738.74
f 120/181/6 37/62/6 121/182/6

v 192604 18923.2 -114018
vt -609.442 738.74
f 121/182/6 37/62/6 122/183/6

f 122/183/6 37/62/6 38/61/6

usemtl Color_I03
f 39/63/22 122/183/22 38/61/22

f 122/183/22 39/63/22 121/182/22

usemtl Color_M07
f 39/63/6 40/64/6 121/182/6

f 120/181/6 121/182/6 40/64/6

usemtl Color_I03
f 41/65/23 120/181/23 40/64/23

f 120/181/23 41/65/23 42/66/23

usemtl Color_M07
v 192604 15612.4 -100894
vt -92.7494 608.394
f 123/184/6 34/52/6 31/60/6

f 34/52/6 123/184/6 30/48/6

v 192604 14041.4 -100894
vt -92.7494 546.546
f 124/185/6 30/48/6 123/184/6

f 30/48/6 124/185/6 24/43/6

v 192604 14041.4 -107097
vt -336.972 546.546
f 24/43/6 124/185/6 125/186/6

usemtl Color_I03
v 192604 15612.4 -107097
vt -336.972 608.394
f 124/185/23 126/187/23 125/186/23

f 126/187/23 124/185/23 123/184/23

usemtl Color_M07
f 123/184/6 31/60/6 126/187/6

v 192604 15612.4 -107815
vt -365.22 608.394
f 126/187/6 31/60/6 127/188/6

v 192604 15612.4 -114018
vt -609.442 608.394
f 127/188/6 31/60/6 128/189/6

v 192604 14038.4 -114018
vt -609.442 546.425
f 128/189/6 31/60/6 129/190/6

f 24/43/6 129/190/6 31/60/6

v 192604 14038.4 -107815
vt -365.22 546.425
f 24/43/6 130/191/6 129/190/6

f 24/43/6 125/186/6 130/191/6

f 130/191/6 125/186/6 127/188/6

f 126/187/6 127/188/6 125/186/6

usemtl Color_I03
f 128/189/22 130/191/22 127/188/22

f 130/191/22 128/189/22 129/190/22

usemtl Color_M07
v 192604 12301.6 -107097
vt -336.972 478.047
f 29/47/6 24/43/6 131/192/6

v 192604 12301.6 -107815
vt -365.22 478.047
f 131/192/6 24/43/6 132/193/6

v 192604 12301.6 -114018
vt -609.442 478.047
f 132/193/6 24/43/6 133/194/6

f 133/194/6 24/43/6 25/42/6

usemtl Color_I03
f 26/44/22 133/194/22 25/42/22

f 133/194/22 26/44/22 132/193/22

usemtl Color_M07
f 26/44/6 27/45/6 132/193/6

f 131/192/6 132/193/6 27/45/6

usemtl Color_I03
f 28/46/23 131/192/23 27/45/23

f 131/192/23 28/46/23 29/47/23

usemtl Color_M07
v 192604 8990.75 -100894
vt -92.7494 347.701
f 134/195/6 21/33/6 18/41/6

f 21/33/6 134/195/6 17/29/6

v 192604 7419.82 -100894
vt -92.7494 285.853
f 135/196/6 17/29/6 134/195/6

f 17/29/6 135/196/6 11/24/6

v 192604 7419.82 -107097
vt -336.972 285.853
f 11/24/6 135/196/6 136/197/6

usemtl Color_I03
v 192604 8990.75 -107097
vt -336.972 347.701
f 135/196/23 137/198/23 136/197/23

f 137/198/23 135/196/23 134/195/23

usemtl Color_M07
f 134/195/6 18/41/6 137/198/6

v 192604 8990.75 -107815
vt -365.22 347.701
f 137/198/6 18/41/6 138/199/6

v 192604 8990.75 -114018
vt -609.442 347.701
f 138/199/6 18/41/6 139/200/6

v 192604 7416.75 -114018
vt -609.442 285.732
f 139/200/6 18/41/6 140/201/6

f 11/24/6 140/201/6 18/41/6

v 192604 7416.75 -107815
vt -365.22 285.732
f 11/24/6 141/202/6 140/201/6

f 11/24/6 136/197/6 141/202/6

f 141/202/6 136/197/6 138/199/6

f 137/198/6 138/199/6 136/197/6

usemtl Color_I03
f 139/200/22 141/202/22 138/199/22

f 141/202/22 139/200/22 140/201/22

usemtl Color_M07
v 192604 5679.95 -107097
vt -336.972 217.354
f 16/28/6 11/24/6 142/203/6

v 192604 5679.95 -107815
vt -365.22 217.354
f 142/203/6 11/24/6 143/204/6

v 192604 5679.95 -114018
vt -609.442 217.354
f 143/204/6 11/24/6 144/205/6

f 144/205/6 11/24/6 12/23/6

usemtl Color_I03
f 13/25/22 144/205/22 12/23/22

f 144/205/22 13/25/22 143/204/22

usemtl Color_M07
f 13/25/6 14/26/6 143/204/6

f 142/203/6 143/204/6 14/26/6

usemtl Color_I03
f 15/27/23 142/203/23 14/26/23

f 142/203/23 15/27/23 16/28/23

usemtl Color_M07
v 192604 2369.15 -100894
vt -92.7494 87.0079
vn -1 -1.24763e-31 -1.31867e-16
f 145/206/24 8/12/24 5/22/24

f 8/12/24 145/206/24 3/10/24

v 192604 798.221 -100894
vt -92.7494 25.1602
f 146/207/24 3/10/24 145/206/24

vt -702.192 -1.01918e-43
f 3/10/24 146/207/24 1/208/24

v 192604 798.221 -107097
vt -336.972 25.1602
f 1/208/24 146/207/24 147/209/24

usemtl Color_I03
v 192604 2369.15 -107097
vt -336.972 87.0079
f 146/207/23 148/210/23 147/209/23

f 148/210/23 146/207/23 145/206/23

usemtl Color_M07
f 145/206/24 5/22/24 148/210/24

v 192604 2369.15 -107815
vt -365.22 87.0079
f 148/210/24 5/22/24 149/211/24

v 192604 2369.15 -114018
vt -609.442 87.0079
f 149/211/24 5/22/24 150/212/24

v 192604 795.152 -114018
vt -609.442 25.0394
f 150/212/24 5/22/24 151/213/24

f 1/208/24 151/213/24 5/22/24

v 192604 795.152 -107815
vt -365.22 25.0394
f 1/208/24 152/214/24 151/213/24

f 1/208/24 147/209/24 152/214/24

f 152/214/24 147/209/24 149/211/24

f 148/210/24 149/211/24 147/209/24

usemtl Color_I03
f 150/212/22 152/214/22 149/211/22

f 152/214/22 150/212/22 151/213/22

