# Alias OBJ Model File
# Exported from SketchUp, (c) 2000-2012 Trimble Navigation Limited
# File units = millimeters

mtllib Ngoaicanh3.mtl

g Mesh1 Group1 Model

usemtl Color_M07
v 227265 7454.15 -28336.1
vt -2339.55 219.557
vn 0 -1 -0
v 224877 7454.15 -28201.8
vt -2245.53 214.27
v 224757 7454.15 -28336.1
vt -2240.83 219.557
f 1/1/1 2/2/1 3/3/1

v 224877 7454.15 -26086.3
vt -2245.53 130.984
f 2/2/1 1/1/1 4/4/1

v 224877 7454.15 -25847.5
vt -2245.53 121.58
f 4/4/1 1/1/1 5/5/1

v 224877 7454.15 -23732
vt -2245.53 38.295
f 5/5/1 1/1/1 6/6/1

v 227265 7454.15 -23612.6
vt -2339.55 33.5929
f 7/7/1 6/6/1 1/1/1

v 224757 7454.15 -23612.6
vt -2240.83 33.5929
f 6/6/1 7/7/1 8/8/1

v 227265 8162.15 -23252.2
vt 2339.55 271.99
vn 0 -0.453648 0.891181
vt 2240.83 240.712
vt 2339.55 240.712
f 9/9/2 8/10/2 7/11/2

v 223269 7454.15 -23612.6
vt 2182.24 240.712
f 8/10/2 9/9/2 10/12/2

v 215117 7454.15 -23612.6
vt 1861.3 240.712
f 10/12/2 9/9/2 11/13/2

v 213629 7454.15 -23612.6
vt 1802.71 240.712
f 11/13/2 9/9/2 12/14/2

v 205477 7454.15 -23612.6
vt 1481.77 240.712
f 12/14/2 9/9/2 13/15/2

v 203989 7454.15 -23612.6
vt 1423.18 240.712
f 13/15/2 9/9/2 14/16/2

v 195837 7454.15 -23612.6
vt 1102.24 240.712
f 14/16/2 9/9/2 15/17/2

v 194349 7454.15 -23612.6
vt 1043.65 240.712
f 15/17/2 9/9/2 16/18/2

v 186197 7454.15 -23612.6
vt 722.715 240.712
f 16/18/2 9/9/2 17/19/2

v 184709 7454.15 -23612.6
vt 664.127 240.712
f 17/19/2 9/9/2 18/20/2

v 176557 7454.15 -23612.6
vt 343.188 240.712
f 18/20/2 9/9/2 19/21/2

v 175069 7454.15 -23612.6
vt 284.6 240.712
f 19/21/2 9/9/2 20/22/2

v 167840 7454.15 -23612.6
vt 0 240.712
f 20/22/2 9/9/2 21/23/2

v 167840 8162.15 -23252.2
vt 0 271.99
f 21/23/2 9/9/2 22/24/2

v 227265 8574.15 -23607
vt 2339.55 272.823
vn -5.10953e-32 0.652525 0.757767
vt -1.30837e-30 251.418
vt 2339.55 251.418
f 23/25/3 22/26/3 9/27/3

v 167840 8574.15 -23607
vt -2.2502e-30 272.823
f 22/26/3 23/25/3 24/28/3

vt 2339.55 90.782
vn 3.65672e-32 -0.929948 0.367691
v 167840 8872.15 -22853.3
vt 3.67843e-31 122.69
vt 3.31882e-30 90.782
f 23/29/4 25/30/4 24/31/4

v 227265 8872.15 -22853.3
vt 2339.55 122.69
f 25/30/4 23/29/4 26/32/4

vt 33.3715 331.299
vn 1 0 -0
v 227265 11785.2 -22853.3
vt 3.69875 457.717
vt 3.69875 343.031
f 23/33/5 27/34/5 26/35/5

v 227265 11785.2 -29404.6
vt 261.624 457.717
f 27/34/5 23/33/5 28/36/5

vt 33.5929 287.205
f 28/36/5 23/33/5 7/37/5

vt 19.4038 315.079
f 7/37/5 23/33/5 9/38/5

v 227265 8574.15 -28320.5
vt 218.942 331.299
f 28/36/5 7/37/5 29/39/5

vt 219.557 287.205
f 1/40/5 29/39/5 7/37/5

v 227265 8162.15 -28761.2
vt 236.293 315.079
f 29/39/5 1/40/5 30/41/5

vt -2339.55 359.25
vn -1.78564e-17 -0.514775 -0.857325
v 167840 8162.15 -28761.2
vt -4.92153e-15 391.763
vt -2339.55 391.763
f 1/42/6 31/43/6 30/44/6

vt -2240.83 359.25
f 3/45/6 31/43/6 1/42/6

v 223269 7454.15 -28336.1
vt -2182.24 359.25
f 32/46/6 31/43/6 3/45/6

v 215117 7454.15 -28336.1
vt -1861.3 359.25
f 33/47/6 31/43/6 32/46/6

v 213629 7454.15 -28336.1
vt -1802.71 359.25
f 34/48/6 31/43/6 33/47/6

v 205477 7454.15 -28336.1
vt -1481.77 359.25
f 35/49/6 31/43/6 34/48/6

v 203989 7454.15 -28336.1
vt -1423.18 359.25
f 36/50/6 31/43/6 35/49/6

v 195837 7454.15 -28336.1
vt -1102.24 359.25
f 37/51/6 31/43/6 36/50/6

v 194349 7454.15 -28336.1
vt -1043.65 359.25
f 38/52/6 31/43/6 37/51/6

v 186197 7454.15 -28336.1
vt -722.715 359.25
f 39/53/6 31/43/6 38/52/6

v 184709 7454.15 -28336.1
vt -664.127 359.25
f 40/54/6 31/43/6 39/53/6

v 176557 7454.15 -28336.1
vt -343.188 359.25
f 41/55/6 31/43/6 40/54/6

v 175069 7454.15 -28336.1
vt -284.6 359.25
f 42/56/6 31/43/6 41/55/6

v 167840 7454.15 -28336.1
vt -4.57293e-15 359.25
f 31/43/6 42/56/6 43/57/6

vt -284.6 219.557
vt 0 33.5929
vt 0 219.557
f 42/58/1 21/59/1 43/60/1

v 174950 7454.15 -28201.8
vt -279.898 214.27
f 21/59/1 42/58/1 44/61/1

vt -353.194 287.205
vn -0.747238 -1.03985e-18 -0.664556
v 174950 653.152 -28201.8
vt -346.118 19.4488
vt -346.118 287.205
f 42/62/7 45/63/7 44/64/7

v 175069 653.152 -28336.1
vt -353.194 19.4488
f 45/63/7 42/62/7 46/65/7

v 175069 1596.15 -28336.1
vt -353.194 56.5748
f 46/65/7 42/62/7 47/66/7

vt -284.6 287.205
vn 0 0 -1
v 176557 1596.15 -28336.1
vt -343.188 56.5748
vt -284.6 56.5748
f 42/67/8 48/68/8 47/69/8

vt -343.188 287.205
f 48/68/8 42/67/8 41/70/8

vt 284.6 219.557
vn 0 1 -0
vt 343.188 33.5929
vt 343.188 219.557
f 42/71/9 19/72/9 41/73/9

v 175069 7454.15 -25966.9
vt 284.6 126.282
f 49/74/9 19/72/9 42/71/9

vt 284.6 33.5929
f 49/74/9 20/75/9 19/72/9

v 174950 7454.15 -25847.5
vt 279.898 121.58
f 50/76/9 20/75/9 49/74/9

v 174950 7454.15 -23732
vt 279.898 38.295
f 20/75/9 50/76/9 51/77/9

vt -121.58 287.205
vn -1 0 -0
v 174950 653.152 -23732
vt -38.295 19.4488
vt -38.295 287.205
f 50/78/10 52/79/10 51/80/10

v 174950 653.152 -25847.5
vt -121.58 19.4488
f 52/79/10 50/78/10 53/81/10

vt -283.888 287.205
vn -0.707107 0 -0.707107
v 175069 653.152 -25966.9
vt -290.537 19.4488
vt -283.888 19.4488
f 50/82/11 54/83/11 53/84/11

vt -290.537 287.205
f 54/83/11 50/82/11 49/85/11

vt -284.6 126.282
vt -279.898 121.58
v 174950 7454.15 -26086.3
vt -279.898 130.984
f 49/86/1 50/87/1 55/88/1

vt -279.898 38.295
f 51/89/1 55/88/1 50/87/1

f 51/89/1 44/61/1 55/88/1

f 51/89/1 21/59/1 44/61/1

vt -284.6 33.5929
f 21/59/1 51/89/1 20/90/1

vt 170.839 287.205
vn -0.707107 3.11021e-19 0.707107
v 175069 1596.15 -23612.6
vt 177.489 56.5748
vt 177.489 287.205
f 51/91/12 56/92/12 20/93/12

vt 170.839 19.4488
f 52/94/12 56/92/12 51/91/12

v 175069 653.152 -23612.6
vt 177.489 19.4488
f 56/92/12 52/94/12 57/95/12

f 52/89/1 54/86/1 57/90/1

f 54/86/1 52/89/1 53/87/1

vt 279.898 214.27
f 45/96/9 52/77/9 53/76/9

v 167840 653.152 -28336.1
f 45/96/9 58/60/9 52/77/9

f 58/60/9 45/96/9 46/71/9

v 174950 653.152 -26086.3
f 46/58/1 59/88/1 45/61/1

f 59/88/1 46/58/1 54/86/1

v 176557 653.152 -28336.1
vt -343.188 219.557
f 54/86/1 46/58/1 60/97/1

vt 343.188 56.5748
vn 0 0 1
vt 284.6 19.4488
vt 343.188 19.4488
f 48/98/13 46/99/13 60/100/13

vt 284.6 56.5748
f 46/99/13 48/98/13 47/101/13

v 227265 1596.15 -29189.3
vt 2339.55 253.15
vn 1.90748e-18 1 1.94213e-17
f 61/102/14 47/71/14 48/73/14

v 167840 1596.15 -29189.3
vt -1.07915e-16 253.15
f 62/103/14 47/71/14 61/102/14

v 167840 1596.15 -28336.1
vt -1.07915e-16 219.557
f 47/71/14 62/103/14 63/104/14

vt 0 19.4488
vt 0 56.5748
f 58/105/13 47/101/13 63/106/13

f 47/101/13 58/105/13 46/99/13

v 227265 159.152 -29189.3
vt -2339.55 0
vt -2339.55 56.5748
f 64/107/8 62/106/8 61/108/8

v 167840 159.152 -29189.3
vt 0 0
f 62/106/8 64/107/8 65/109/8

vt -2339.55 253.15
v 167840 159.152 -22759.3
vt 0 253.15
f 64/110/1 66/109/1 65/111/1

v 227265 159.152 -22759.3
f 66/109/1 64/110/1 67/107/1

vt 253.15 0
v 227265 1596.15 -22759.3
f 64/112/5 68/106/5 67/109/5

vt 253.15 56.5748
f 68/106/5 64/112/5 61/113/5

v 226503 1596.15 -28336.1
vt 2309.54 219.557
vt 2339.55 1.09876e-15
f 61/102/14 69/114/14 68/115/14

v 224757 1596.15 -28336.1
vt 2240.83 219.557
f 61/102/14 70/116/14 69/114/14

v 223269 1596.15 -28336.1
vt 2182.24 219.557
f 61/102/14 71/117/14 70/116/14

v 215117 1596.15 -28336.1
vt 1861.3 219.557
f 61/102/14 72/118/14 71/117/14

v 213629 1596.15 -28336.1
vt 1802.71 219.557
f 61/102/14 73/119/14 72/118/14

v 205477 1596.15 -28336.1
vt 1481.77 219.557
f 61/102/14 74/120/14 73/119/14

v 203989 1596.15 -28336.1
vt 1423.18 219.557
f 61/102/14 75/121/14 74/120/14

v 195837 1596.15 -28336.1
vt 1102.24 219.557
f 61/102/14 76/122/14 75/121/14

v 194349 1596.15 -28336.1
vt 1043.65 219.557
f 61/102/14 77/123/14 76/122/14

v 186197 1596.15 -28336.1
vt 722.715 219.557
f 61/102/14 78/124/14 77/123/14

v 184709 1596.15 -28336.1
vt 664.127 219.557
f 61/102/14 79/125/14 78/124/14

f 61/102/14 48/73/14 79/125/14

vt 664.127 56.5748
f 60/100/13 79/126/13 48/98/13

v 184709 653.152 -28336.1
vt 664.127 19.4488
f 79/126/13 60/100/13 80/127/13

v 176677 653.152 -28201.8
vt 347.89 214.27
f 81/128/9 80/125/9 60/73/9

v 184590 653.152 -28201.8
vt 659.425 214.27
f 80/125/9 81/128/9 82/129/9

v 184590 653.152 -23732
vt 659.425 38.295
f 82/129/9 81/128/9 83/130/9

v 184709 653.152 -23612.6
vt 664.127 33.5929
f 81/128/9 84/131/9 83/130/9

v 176677 653.152 -26086.3
vt 347.89 130.984
f 85/132/9 84/131/9 81/128/9

v 176677 653.152 -25847.5
vt 347.89 121.58
f 86/133/9 84/131/9 85/132/9

v 176677 653.152 -23732
vt 347.89 38.295
f 87/134/9 84/131/9 86/133/9

v 176557 653.152 -23612.6
f 84/131/9 87/134/9 88/72/9

vt 273.074 19.4488
vn 0.707107 6.22042e-19 0.707107
v 176557 1596.15 -23612.6
vt 266.424 56.5748
vt 266.424 19.4488
f 87/135/15 89/136/15 88/137/15

vt 266.424 287.205
f 89/136/15 87/135/15 19/138/15

v 176677 7454.15 -23732
vt 273.074 287.205
f 19/138/15 87/135/15 90/139/15

vt 121.58 19.4488
vt 38.295 287.205
vt 38.295 19.4488
f 86/140/5 90/141/5 87/142/5

v 176677 7454.15 -25847.5
vt 121.58 287.205
f 90/141/5 86/140/5 91/143/5

v 176557 653.152 -25966.9
vt -153.375 19.4488
vn 0.707107 0 -0.707107
vt -160.025 287.205
vt -160.025 19.4488
f 92/144/16 91/145/16 86/146/16

v 176557 7454.15 -25966.9
vt -153.375 287.205
f 91/145/16 92/144/16 93/147/16

vt 338.615 19.4488
vn 0.707107 0 0.707107
vt 331.965 287.205
vt 331.965 19.4488
f 85/148/17 93/149/17 92/150/17

v 176677 7454.15 -26086.3
vt 338.615 287.205
f 93/149/17 85/148/17 94/151/17

vt 214.27 19.4488
vt 130.984 287.205
vt 130.984 19.4488
f 81/152/5 94/153/5 85/154/5

v 176677 7454.15 -28201.8
vt 214.27 287.205
f 94/153/5 81/152/5 95/155/5

vt -64.0064 19.4488
vn 0.747238 -5.19924e-19 -0.664556
vt -71.082 287.205
vt -71.082 19.4488
f 60/156/18 95/157/18 81/158/18

vt -64.0064 287.205
f 95/157/18 60/156/18 41/159/18

vt -64.0064 56.5748
f 41/159/18 60/156/18 48/160/18

vt -664.127 219.557
vt -347.89 214.27
f 40/161/1 95/162/1 41/97/1

vt -347.89 130.984
f 95/162/1 40/161/1 94/163/1

vt -347.89 121.58
f 94/163/1 40/161/1 91/164/1

vt -347.89 38.295
f 91/164/1 40/161/1 90/165/1

v 184590 7454.15 -28201.8
vt -659.425 214.27
f 90/165/1 40/161/1 96/166/1

vt -605.411 287.205
vn -0.747238 -2.59962e-19 -0.664556
vt -598.336 19.4488
vt -598.336 287.205
f 40/167/19 82/168/19 96/169/19

vt -605.411 19.4488
f 82/168/19 40/167/19 80/170/19

vt -605.411 56.5748
f 80/170/19 40/167/19 79/171/19

vt -722.715 287.205
vt -664.127 56.5748
vt -664.127 287.205
f 39/172/8 79/173/8 40/174/8

vt -722.715 56.5748
f 79/173/8 39/172/8 78/175/8

vt -316.224 287.205
v 186197 653.152 -28336.1
vt -316.224 19.4488
vt -316.224 56.5748
f 39/176/18 97/177/18 78/178/18

v 186317 7454.15 -28201.8
vt -323.299 287.205
f 98/179/18 97/177/18 39/176/18

v 186317 653.152 -28201.8
vt -323.299 19.4488
f 97/177/18 98/179/18 99/180/18

v 186317 7454.15 -26086.3
f 100/153/5 99/152/5 98/155/5

v 186317 653.152 -26086.3
f 99/152/5 100/153/5 101/154/5

v 186197 7454.15 -25966.9
vt 600.332 287.205
vt 606.982 19.4488
vt 606.982 287.205
f 102/181/17 101/182/17 100/183/17

v 186197 653.152 -25966.9
vt 600.332 19.4488
f 101/182/17 102/181/17 103/184/17

v 186317 7454.15 -25847.5
vt -428.392 287.205
vt -421.742 19.4488
vt -421.742 287.205
f 104/185/16 103/186/16 102/187/16

v 186317 653.152 -25847.5
vt -428.392 19.4488
f 103/186/16 104/185/16 105/188/16

v 186317 7454.15 -23732
f 106/141/5 105/140/5 104/143/5

v 186317 653.152 -23732
f 105/140/5 106/141/5 107/142/5

vt 534.791 287.205
vt 541.44 19.4488
vt 541.44 287.205
f 17/189/15 107/190/15 106/191/15

v 186197 1596.15 -23612.6
vt 534.791 56.5748
f 108/192/15 107/190/15 17/189/15

v 186197 653.152 -23612.6
vt 534.791 19.4488
f 107/190/15 108/192/15 109/193/15

vt -722.715 19.4488
v 184709 1596.15 -23612.6
f 109/194/8 110/173/8 108/175/8

vt -664.127 19.4488
f 110/173/8 109/194/8 84/195/8

vt -664.127 33.5929
vt -722.715 219.557
vt -722.715 33.5929
f 84/196/1 97/197/1 109/198/1

v 184709 653.152 -25966.9
vt -664.127 126.282
f 111/199/1 97/197/1 84/196/1

f 111/199/1 80/161/1 97/197/1

v 184590 653.152 -26086.3
vt -659.425 130.984
f 112/200/1 80/161/1 111/199/1

f 80/161/1 112/200/1 82/166/1

vt -130.984 19.4488
vt -214.27 287.205
vt -214.27 19.4488
f 112/201/10 96/202/10 82/203/10

v 184590 7454.15 -26086.3
vt -130.984 287.205
f 96/202/10 112/201/10 113/204/10

vt 373.664 19.4488
vn -0.707107 0 0.707107
v 184709 7454.15 -25966.9
vt 380.314 287.205
vt 373.664 287.205
f 112/205/20 114/206/20 113/207/20

vt 380.314 19.4488
f 114/206/20 112/205/20 111/208/20

vt 664.127 126.282
vt 659.425 130.984
v 184590 653.152 -25847.5
vt 659.425 121.58
f 111/209/9 112/210/9 115/211/9

f 82/129/9 115/211/9 112/210/9

f 82/129/9 83/130/9 115/211/9

v 184590 7454.15 -25847.5
f 83/79/10 116/78/10 115/81/10

v 184590 7454.15 -23732
f 116/78/10 83/79/10 117/80/10

vt 439.205 19.4488
vt 445.855 56.5748
vt 439.205 287.205
f 83/212/20 110/213/20 117/214/20

vt 445.855 19.4488
f 110/213/20 83/212/20 84/215/20

vt -659.425 38.295
f 83/216/1 111/199/1 84/196/1

vt -659.425 121.58
f 111/199/1 83/216/1 115/217/1

vt -552.254 287.205
vt -558.904 19.4488
vt -552.254 19.4488
f 116/218/11 111/219/11 115/220/11

vt -558.904 287.205
f 111/219/11 116/218/11 114/221/11

f 116/211/9 18/131/9 114/209/9

f 18/131/9 116/211/9 117/130/9

f 117/216/1 113/200/1 116/217/1

f 117/216/1 96/166/1 113/200/1

f 117/216/1 90/165/1 96/166/1

f 18/196/1 90/165/1 117/216/1

vt -343.188 33.5929
f 90/165/1 18/196/1 19/222/1

vt 343.188 126.282
f 90/134/9 93/223/9 19/72/9

f 93/223/9 90/134/9 91/133/9

vt -343.188 126.282
f 91/164/1 93/224/1 94/163/1

f 41/73/9 93/223/9 94/132/9

f 41/73/9 19/72/9 93/223/9

f 41/73/9 94/132/9 95/128/9

vt 445.855 287.205
f 117/214/20 110/213/20 18/225/20

vt 722.715 287.205
vt 664.127 287.205
f 110/126/13 17/226/13 18/227/13

vt 722.715 56.5748
f 17/226/13 110/126/13 108/228/13

vt 722.715 33.5929
f 110/131/14 68/115/14 108/229/14

f 89/72/14 68/115/14 110/131/14

f 56/75/14 68/115/14 89/72/14

v 167840 1596.15 -23612.6
vt -1.07915e-16 33.5929
f 118/230/14 68/115/14 56/75/14

v 167840 1596.15 -22759.3
vt -1.07915e-16 1.09876e-15
f 68/115/14 118/230/14 119/231/14

vt 2339.55 56.5748
f 66/109/13 68/232/13 119/106/13

vt 2339.55 0
f 68/232/13 66/109/13 67/233/13

vt -284.6 19.4488
f 57/234/8 118/106/8 56/69/8

v 167840 653.152 -23612.6
f 118/106/8 57/234/8 120/105/8

f 57/75/9 58/60/9 120/59/9

f 58/60/9 57/75/9 52/77/9

vt -343.188 19.4488
f 56/69/8 88/235/8 57/234/8

f 88/235/8 56/69/8 89/68/8

vt 343.188 287.205
f 19/236/13 56/101/13 89/98/13

vt 284.6 287.205
f 56/101/13 19/236/13 20/237/13

f 89/68/8 84/195/8 88/235/8

f 84/195/8 89/68/8 110/173/8

f 57/90/1 60/97/1 88/222/1

f 54/86/1 60/97/1 57/90/1

f 88/222/1 60/97/1 92/224/1

f 81/162/1 92/224/1 60/97/1

f 92/224/1 81/162/1 85/163/1

f 85/132/9 92/223/9 86/133/9

f 88/222/1 92/224/1 86/164/1

f 88/222/1 86/164/1 87/165/1

v 194349 1596.15 -23612.6
vt 1043.65 33.5929
f 108/229/14 68/115/14 121/238/14

v 195837 1596.15 -23612.6
vt 1102.24 33.5929
f 121/238/14 68/115/14 122/239/14

v 203989 1596.15 -23612.6
vt 1423.18 33.5929
f 122/239/14 68/115/14 123/240/14

v 205477 1596.15 -23612.6
vt 1481.77 33.5929
f 123/240/14 68/115/14 124/241/14

v 213629 1596.15 -23612.6
vt 1802.71 33.5929
f 124/241/14 68/115/14 125/242/14

v 215117 1596.15 -23612.6
vt 1861.3 33.5929
f 125/242/14 68/115/14 126/243/14

v 223269 1596.15 -23612.6
vt 2182.24 33.5929
f 126/243/14 68/115/14 127/244/14

v 224757 1596.15 -23612.6
vt 2240.83 33.5929
f 127/244/14 68/115/14 128/245/14

v 226503 1596.15 -23612.6
vt 2309.54 33.5929
f 128/245/14 68/115/14 129/246/14

f 129/246/14 68/115/14 69/114/14

vt -219.557 56.5748
v 226503 653.152 -23612.6
vt -33.5929 19.4488
vt -33.5929 56.5748
f 69/247/10 130/248/10 129/249/10

v 226503 653.152 -28336.1
vt -219.557 19.4488
f 130/248/10 69/247/10 131/250/10

vt 2309.54 56.5748
v 224757 653.152 -28336.1
vt 2240.83 19.4488
vt 2309.54 19.4488
f 69/251/13 132/252/13 131/253/13

vt 2240.83 56.5748
f 132/252/13 69/251/13 70/254/13

vt -1325.09 287.205
vn 0.747238 -2.59962e-19 -0.664556
vt -1325.09 19.4488
vt -1325.09 56.5748
f 3/255/21 132/256/21 70/257/21

vt -1332.17 287.205
f 2/258/21 132/256/21 3/255/21

v 224877 653.152 -28201.8
vt -1332.17 19.4488
f 132/256/21 2/258/21 133/259/21

f 4/153/5 133/152/5 2/155/5

v 224877 653.152 -26086.3
f 133/152/5 4/153/5 134/154/5

v 224757 7454.15 -25966.9
vt 1673.8 287.205
vt 1680.45 19.4488
vt 1680.45 287.205
f 135/260/17 134/261/17 4/262/17

v 224757 653.152 -25966.9
vt 1673.8 19.4488
f 134/261/17 135/260/17 136/263/17

vt -1501.86 287.205
vt -1495.21 19.4488
vt -1495.21 287.205
f 5/264/16 136/265/16 135/266/16

v 224877 653.152 -25847.5
vt -1501.86 19.4488
f 136/265/16 5/264/16 137/267/16

f 6/141/5 137/140/5 5/143/5

v 224877 653.152 -23732
f 137/140/5 6/141/5 138/142/5

vt 1608.26 287.205
vt 1614.91 19.4488
vt 1614.91 287.205
f 8/268/15 138/269/15 6/270/15

vt 1608.26 56.5748
f 128/271/15 138/269/15 8/268/15

v 224757 653.152 -23612.6
vt 1608.26 19.4488
f 138/269/15 128/271/15 139/272/15

vt -2240.83 56.5748
vt -2309.54 19.4488
vt -2240.83 19.4488
f 128/273/8 130/274/8 139/275/8

vt -2309.54 56.5748
f 130/274/8 128/273/8 129/276/8

vt 2245.53 38.295
f 130/246/9 138/277/9 139/245/9

vt 2245.53 121.58
f 138/277/9 130/246/9 137/278/9

vt 2245.53 130.984
f 137/278/9 130/246/9 134/279/9

vt 2245.53 214.27
f 134/279/9 130/246/9 133/280/9

f 131/114/9 133/280/9 130/246/9

f 133/280/9 131/114/9 132/116/9

vt -2240.83 126.282
f 133/2/1 136/281/1 132/3/1

f 136/281/1 133/2/1 134/4/1

vt 2240.83 126.282
f 134/279/9 136/282/9 137/278/9

f 139/8/1 136/281/1 137/5/1

f 139/8/1 132/3/1 136/281/1

v 223269 653.152 -23612.6
vt -2182.24 33.5929
f 140/283/1 132/3/1 139/8/1

v 223269 653.152 -25966.9
vt -2182.24 126.282
f 141/284/1 132/3/1 140/283/1

v 223269 653.152 -28336.1
vt -2182.24 219.557
f 141/284/1 142/285/1 132/3/1

v 223150 653.152 -26086.3
vt -2177.54 130.984
f 143/286/1 142/285/1 141/284/1

v 223150 653.152 -28201.8
vt -2177.54 214.27
f 142/285/1 143/286/1 144/287/1

v 223150 7454.15 -28201.8
f 143/201/10 145/202/10 144/203/10

v 223150 7454.15 -26086.3
f 145/202/10 143/201/10 146/204/10

vt 1447.13 19.4488
v 223269 7454.15 -25966.9
vt 1453.78 287.205
vt 1447.13 287.205
f 143/288/20 147/289/20 146/290/20

vt 1453.78 19.4488
f 147/289/20 143/288/20 141/291/20

vt 2182.24 126.282
vt 2177.54 130.984
v 223150 653.152 -25847.5
vt 2177.54 121.58
f 141/292/9 143/293/9 148/294/9

vt 2177.54 214.27
f 144/295/9 148/294/9 143/293/9

v 223150 653.152 -23732
vt 2177.54 38.295
f 144/295/9 149/296/9 148/294/9

v 215237 653.152 -28201.8
vt 1866 214.27
f 144/295/9 150/297/9 149/296/9

f 142/117/9 150/297/9 144/295/9

v 215117 653.152 -28336.1
f 150/297/9 142/117/9 151/118/9

vt 2182.24 56.5748
vt 1861.3 19.4488
vt 2182.24 19.4488
f 71/298/13 151/299/13 142/300/13

vt 1861.3 56.5748
f 151/299/13 71/298/13 72/301/13

vt -1072.88 287.205
vt -1072.88 19.4488
vt -1072.88 56.5748
f 33/302/21 151/303/21 72/304/21

v 215237 7454.15 -28201.8
vt -1079.95 287.205
f 152/305/21 151/303/21 33/302/21

vt -1079.95 19.4488
f 151/303/21 152/305/21 150/306/21

v 215237 7454.15 -26086.3
f 153/153/5 150/152/5 152/155/5

v 215237 653.152 -26086.3
f 150/152/5 153/153/5 154/154/5

v 215117 7454.15 -25966.9
vt 1405.43 287.205
vt 1412.08 19.4488
vt 1412.08 287.205
f 155/307/17 154/308/17 153/309/17

v 215117 653.152 -25966.9
vt 1405.43 19.4488
f 154/308/17 155/307/17 156/310/17

v 215237 7454.15 -25847.5
vt -1233.49 287.205
vt -1226.84 19.4488
vt -1226.84 287.205
f 157/311/16 156/312/16 155/313/16

v 215237 653.152 -25847.5
vt -1233.49 19.4488
f 156/312/16 157/311/16 158/314/16

v 215237 7454.15 -23732
f 159/141/5 158/140/5 157/143/5

v 215237 653.152 -23732
f 158/140/5 159/141/5 160/142/5

vt 1339.89 287.205
vt 1346.54 19.4488
vt 1346.54 287.205
f 11/315/15 160/316/15 159/317/15

vt 1339.89 56.5748
f 126/318/15 160/316/15 11/315/15

v 215117 653.152 -23612.6
vt 1339.89 19.4488
f 160/316/15 126/318/15 161/319/15

vt -1861.3 56.5748
vt -2182.24 19.4488
vt -1861.3 19.4488
f 126/320/8 140/321/8 161/322/8

vt -2182.24 56.5748
f 140/321/8 126/320/8 127/323/8

vt 1519.32 56.5748
vt 1512.67 19.4488
vt 1519.32 19.4488
f 127/324/20 149/325/20 140/326/20

v 223150 7454.15 -23732
vt 1512.67 287.205
f 149/325/20 127/324/20 162/327/20

vt 1519.32 287.205
f 162/327/20 127/324/20 10/328/20

vt 2240.83 287.205
vt 2182.24 287.205
f 127/298/13 8/329/13 10/330/13

f 8/329/13 127/298/13 128/254/13

f 139/275/8 127/323/8 128/273/8

f 127/323/8 139/275/8 140/321/8

f 147/292/9 10/244/9 8/245/9

v 223150 7454.15 -25847.5
f 163/294/9 10/244/9 147/292/9

f 10/244/9 163/294/9 162/296/9

f 163/78/10 149/79/10 162/80/10

f 149/79/10 163/78/10 148/81/10

vt -1625.72 287.205
vt -1632.37 19.4488
vt -1625.72 19.4488
f 163/331/11 141/332/11 148/333/11

vt -1632.37 287.205
f 141/332/11 163/331/11 147/334/11

vt -2177.54 121.58
f 147/284/1 163/335/1 146/286/1

vt -2177.54 38.295
f 162/336/1 146/286/1 163/335/1

f 162/336/1 145/287/1 146/286/1

vt -1866 38.295
f 162/336/1 159/337/1 145/287/1

f 10/283/1 159/337/1 162/336/1

vt -1861.3 33.5929
f 159/337/1 10/283/1 11/338/1

vt 1866 38.295
vt 1861.3 126.282
f 159/339/9 155/340/9 11/243/9

vt 1866 121.58
f 155/340/9 159/339/9 157/341/9

vt -1866 121.58
f 157/342/1 32/285/1 159/337/1

vt -1866 130.984
f 153/343/1 32/285/1 157/342/1

vt -1866 214.27
f 152/344/1 32/285/1 153/343/1

vt -1861.3 219.557
f 32/285/1 152/344/1 33/345/1

vt 1866 130.984
f 33/118/9 153/346/9 152/297/9

f 33/118/9 155/340/9 153/346/9

f 33/118/9 11/243/9 155/340/9

f 34/119/9 11/243/9 33/118/9

v 213629 7454.15 -25966.9
vt 1802.71 126.282
f 164/347/9 11/243/9 34/119/9

f 164/347/9 12/242/9 11/243/9

v 213510 7454.15 -25847.5
vt 1798.01 121.58
f 165/348/9 12/242/9 164/347/9

v 213510 7454.15 -23732
vt 1798.01 38.295
f 12/242/9 165/348/9 166/349/9

v 213510 653.152 -23732
f 165/78/10 167/79/10 166/80/10

v 213510 653.152 -25847.5
f 167/79/10 165/78/10 168/81/10

vt -1357.35 287.205
v 213629 653.152 -25966.9
vt -1364 19.4488
vt -1357.35 19.4488
f 165/350/11 169/351/11 168/352/11

vt -1364 287.205
f 169/351/11 165/350/11 164/353/11

vt -1802.71 126.282
vt -1798.01 121.58
v 213510 7454.15 -26086.3
vt -1798.01 130.984
f 164/354/1 165/355/1 170/356/1

vt -1798.01 38.295
f 166/357/1 170/356/1 165/355/1

v 213510 7454.15 -28201.8
vt -1798.01 214.27
f 166/357/1 171/358/1 170/356/1

v 205597 7454.15 -23732
vt -1486.47 38.295
f 166/357/1 172/359/1 171/358/1

vt -1802.71 33.5929
f 12/360/1 172/359/1 166/357/1

vt -1481.77 33.5929
f 172/359/1 12/360/1 13/361/1

vt 1071.52 287.205
vn 0.707107 3.11021e-19 0.707107
v 205597 653.152 -23732
vt 1078.17 19.4488
vt 1078.17 287.205
f 13/362/22 173/363/22 172/364/22

vt 1071.52 56.5748
f 124/365/22 173/363/22 13/362/22

v 205477 653.152 -23612.6
vt 1071.52 19.4488
f 173/363/22 124/365/22 174/366/22

vt -1481.77 19.4488
vt -1423.18 56.5748
vt -1481.77 56.5748
f 174/367/8 123/368/8 124/369/8

v 203989 653.152 -23612.6
vt -1423.18 19.4488
f 123/368/8 174/367/8 175/370/8

vt -1423.18 33.5929
v 205477 653.152 -28336.1
vt -1481.77 219.557
f 175/371/1 176/372/1 174/361/1

v 203989 653.152 -25966.9
vt -1423.18 126.282
f 177/373/1 176/372/1 175/371/1

v 203989 653.152 -28336.1
vt -1423.18 219.557
f 177/373/1 178/374/1 176/372/1

v 203870 653.152 -26086.3
vt -1418.48 130.984
f 179/375/1 178/374/1 177/373/1

v 203870 653.152 -28201.8
vt -1418.48 214.27
f 178/374/1 179/375/1 180/376/1

v 203870 7454.15 -28201.8
f 179/201/10 181/202/10 180/203/10

v 203870 7454.15 -26086.3
f 181/202/10 179/201/10 182/204/10

vt 910.397 19.4488
v 203989 7454.15 -25966.9
vt 917.047 287.205
vt 910.397 287.205
f 179/377/20 183/378/20 182/379/20

vt 917.047 19.4488
f 183/378/20 179/377/20 177/380/20

vt 1423.18 126.282
vt 1418.48 130.984
v 203870 653.152 -25847.5
vt 1418.48 121.58
f 177/381/9 179/382/9 184/383/9

vt 1418.48 214.27
f 180/384/9 184/383/9 179/382/9

v 203870 653.152 -23732
vt 1418.48 38.295
f 180/384/9 185/385/9 184/383/9

v 195957 653.152 -28201.8
vt 1106.94 214.27
f 180/384/9 186/386/9 185/385/9

f 178/121/9 186/386/9 180/384/9

v 195837 653.152 -28336.1
f 186/386/9 178/121/9 187/122/9

vt 1423.18 56.5748
vt 1102.24 19.4488
vt 1423.18 19.4488
f 75/387/13 187/388/13 178/389/13

vt 1102.24 56.5748
f 187/388/13 75/387/13 76/390/13

vt -568.441 287.205
vt -568.441 19.4488
vt -568.441 56.5748
f 37/391/21 187/392/21 76/393/21

v 195957 7454.15 -28201.8
vt -575.517 287.205
f 188/394/21 187/392/21 37/391/21

vt -575.517 19.4488
f 187/392/21 188/394/21 186/395/21

v 195957 7454.15 -26086.3
f 189/153/5 186/152/5 188/155/5

v 195957 653.152 -26086.3
f 186/152/5 189/153/5 190/154/5

v 195837 7454.15 -25966.9
vt 868.698 287.205
vt 875.348 19.4488
vt 875.348 287.205
f 191/396/17 190/397/17 189/398/17

v 195837 653.152 -25966.9
vt 868.698 19.4488
f 190/397/17 191/396/17 192/399/17

v 195957 7454.15 -25847.5
vt -696.758 287.205
vt -690.108 19.4488
vt -690.108 287.205
f 193/400/16 192/401/16 191/402/16

v 195957 653.152 -25847.5
vt -696.758 19.4488
f 192/401/16 193/400/16 194/403/16

v 195957 7454.15 -23732
f 195/141/5 194/140/5 193/143/5

v 195957 653.152 -23732
f 194/140/5 195/141/5 196/142/5

vt 803.157 287.205
vt 809.807 19.4488
vt 809.807 287.205
f 15/404/22 196/405/22 195/406/22

vt 803.157 56.5748
f 122/407/22 196/405/22 15/404/22

v 195837 653.152 -23612.6
vt 803.157 19.4488
f 196/405/22 122/407/22 197/408/22

vt -1102.24 56.5748
vt -1102.24 19.4488
f 122/409/8 175/370/8 197/410/8

f 175/370/8 122/409/8 123/368/8

vt 982.588 56.5748
vt 975.938 19.4488
vt 982.588 19.4488
f 123/411/20 185/412/20 175/413/20

v 203870 7454.15 -23732
vt 975.938 287.205
f 185/412/20 123/411/20 198/414/20

vt 982.588 287.205
f 198/414/20 123/411/20 14/415/20

vt 1481.77 287.205
vt 1423.18 287.205
f 123/387/13 13/416/13 14/417/13

vt 1481.77 56.5748
f 13/416/13 123/387/13 124/418/13

f 183/381/9 14/240/9 13/241/9

v 203870 7454.15 -25847.5
f 199/383/9 14/240/9 183/381/9

f 14/240/9 199/383/9 198/385/9

f 199/78/10 185/79/10 198/80/10

f 185/79/10 199/78/10 184/81/10

vt -1088.99 287.205
vt -1095.64 19.4488
vt -1088.99 19.4488
f 199/419/11 177/420/11 184/421/11

vt -1095.64 287.205
f 177/420/11 199/419/11 183/422/11

vt -1418.48 121.58
f 183/373/1 199/423/1 182/375/1

vt -1418.48 38.295
f 198/424/1 182/375/1 199/423/1

f 198/424/1 181/376/1 182/375/1

vt -1106.94 38.295
f 198/424/1 195/425/1 181/376/1

f 14/371/1 195/425/1 198/424/1

vt -1102.24 33.5929
f 195/425/1 14/371/1 15/426/1

vt 1106.94 38.295
vt 1102.24 126.282
f 195/427/9 191/428/9 15/239/9

vt 1106.94 121.58
f 191/428/9 195/427/9 193/429/9

vt -1106.94 121.58
f 193/430/1 36/374/1 195/425/1

vt -1106.94 130.984
f 189/431/1 36/374/1 193/430/1

vt -1106.94 214.27
f 188/432/1 36/374/1 189/431/1

vt -1102.24 219.557
f 36/374/1 188/432/1 37/433/1

vt 1106.94 130.984
f 37/122/9 189/434/9 188/386/9

f 37/122/9 191/428/9 189/434/9

f 37/122/9 15/239/9 191/428/9

f 38/123/9 15/239/9 37/122/9

v 194349 7454.15 -25966.9
vt 1043.65 126.282
f 200/435/9 15/239/9 38/123/9

f 200/435/9 16/238/9 15/239/9

v 194230 7454.15 -25847.5
vt 1038.95 121.58
f 201/436/9 16/238/9 200/435/9

v 194230 7454.15 -23732
vt 1038.95 38.295
f 16/238/9 201/436/9 202/437/9

v 194230 653.152 -23732
f 201/78/10 203/79/10 202/80/10

v 194230 653.152 -25847.5
f 203/79/10 201/78/10 204/81/10

vt -820.621 287.205
v 194349 653.152 -25966.9
vt -827.27 19.4488
vt -820.621 19.4488
f 201/438/11 205/439/11 204/440/11

vt -827.27 287.205
f 205/439/11 201/438/11 200/441/11

vt -1043.65 126.282
vt -1038.95 121.58
v 194230 7454.15 -26086.3
vt -1038.95 130.984
f 200/442/1 201/443/1 206/444/1

vt -1038.95 38.295
f 202/445/1 206/444/1 201/443/1

v 194230 7454.15 -28201.8
vt -1038.95 214.27
f 202/445/1 207/446/1 206/444/1

vt -727.417 38.295
f 202/445/1 106/447/1 207/446/1

vt -1043.65 33.5929
f 16/448/1 106/447/1 202/445/1

f 106/447/1 16/448/1 17/198/1

vt 727.417 38.295
vt 722.715 126.282
f 106/449/9 102/450/9 17/229/9

vt 727.417 121.58
f 102/450/9 106/449/9 104/451/9

vt -727.417 121.58
vt -1043.65 219.557
f 104/452/1 38/453/1 106/447/1

vt -727.417 130.984
f 100/454/1 38/453/1 104/452/1

vt -727.417 214.27
f 98/455/1 38/453/1 100/454/1

f 38/453/1 98/455/1 39/197/1

vt 727.417 130.984
vt 727.417 214.27
f 39/124/9 100/456/9 98/457/9

f 39/124/9 102/450/9 100/456/9

f 39/124/9 17/229/9 102/450/9

f 40/125/9 17/229/9 39/124/9

f 114/209/9 17/229/9 40/125/9

f 114/209/9 18/131/9 17/229/9

f 96/129/9 114/209/9 40/125/9

f 114/209/9 96/129/9 113/210/9

f 114/199/1 116/217/1 113/200/1

vt -722.715 126.282
f 104/452/1 102/458/1 100/454/1

f 106/447/1 38/453/1 207/446/1

vt -857.629 287.205
v 194230 653.152 -28201.8
vt -850.553 19.4488
vt -850.553 287.205
f 38/459/7 208/460/7 207/461/7

v 194349 653.152 -28336.1
vt -857.629 19.4488
f 208/460/7 38/459/7 209/462/7

vt -857.629 56.5748
f 209/462/7 38/459/7 77/463/7

vt -1043.65 287.205
vt -1043.65 56.5748
f 38/464/8 76/409/8 77/465/8

vt -1102.24 287.205
f 76/409/8 38/464/8 37/466/8

vt 1043.65 19.4488
vt 1043.65 56.5748
f 209/467/13 76/390/13 77/468/13

f 76/390/13 209/467/13 187/388/13

f 205/442/1 209/453/1 187/433/1

v 194230 653.152 -26086.3
f 210/444/1 209/453/1 205/442/1

f 209/453/1 210/444/1 208/446/1

vt 1038.95 214.27
vt 1038.95 130.984
f 208/469/9 204/436/9 210/470/9

f 208/469/9 203/437/9 204/436/9

f 208/469/9 99/457/9 203/437/9

f 209/123/9 99/457/9 208/469/9

f 99/457/9 209/123/9 97/124/9

vt 722.715 19.4488
f 77/468/13 97/471/13 209/467/13

f 97/471/13 77/468/13 78/228/13

f 78/228/13 80/127/13 97/471/13

f 80/127/13 78/228/13 79/126/13

f 99/455/1 103/458/1 97/197/1

f 103/458/1 99/455/1 101/454/1

v 194349 653.152 -23612.6
f 101/456/9 211/238/9 99/457/9

f 105/451/9 211/238/9 101/456/9

f 107/449/9 211/238/9 105/451/9

f 211/238/9 107/449/9 109/229/9

f 109/198/1 105/452/1 107/447/1

f 109/198/1 103/458/1 105/452/1

f 109/198/1 97/197/1 103/458/1

f 101/456/9 103/450/9 105/451/9

vt -1043.65 19.4488
f 108/175/8 211/472/8 109/194/8

f 211/472/8 108/175/8 121/465/8

vt 714.222 56.5748
vt 707.572 19.4488
vt 714.222 19.4488
f 121/473/20 203/474/20 211/475/20

vt 707.572 287.205
f 203/474/20 121/473/20 202/476/20

vt 714.222 287.205
f 202/476/20 121/473/20 16/477/20

vt 1102.24 287.205
vt 1043.65 287.205
f 121/468/13 15/478/13 16/479/13

f 15/478/13 121/468/13 122/390/13

f 197/410/8 121/465/8 122/409/8

f 121/465/8 197/410/8 211/472/8

f 211/448/1 187/433/1 197/426/1

f 205/442/1 187/433/1 211/448/1

f 203/445/1 205/442/1 211/448/1

f 205/442/1 203/445/1 204/443/1

f 205/435/9 210/470/9 204/436/9

vt 648.68 287.205
vt 642.031 19.4488
vt 648.68 19.4488
f 200/480/20 210/481/20 205/482/20

vt 642.031 287.205
f 210/481/20 200/480/20 206/483/20

f 200/435/9 207/469/9 206/470/9

f 207/469/9 200/435/9 38/123/9

f 207/202/10 210/201/10 206/204/10

f 210/201/10 207/202/10 208/203/10

f 99/457/9 211/238/9 203/437/9

vt -1102.24 126.282
f 197/426/1 187/433/1 192/484/1

f 186/432/1 192/484/1 187/433/1

f 192/484/1 186/432/1 190/431/1

f 190/434/9 175/240/9 186/386/9

f 194/429/9 175/240/9 190/434/9

f 196/427/9 175/240/9 194/429/9

f 175/240/9 196/427/9 197/239/9

f 197/426/1 194/430/1 196/425/1

f 197/426/1 192/484/1 194/430/1

f 190/434/9 192/428/9 194/429/9

f 186/386/9 175/240/9 185/385/9

f 185/424/1 177/373/1 175/371/1

f 177/373/1 185/424/1 184/423/1

f 193/430/1 191/484/1 189/431/1

f 195/425/1 36/374/1 181/376/1

vt -1109.85 287.205
vn -0.747238 -1.55977e-18 -0.664556
vt -1102.77 19.4488
vt -1102.77 287.205
f 36/485/23 180/486/23 181/487/23

vt -1109.85 19.4488
f 180/486/23 36/485/23 178/488/23

vt -1109.85 56.5748
f 178/488/23 36/485/23 75/489/23

vt -1423.18 287.205
f 36/490/8 74/369/8 75/368/8

vt -1481.77 287.205
f 74/369/8 36/490/8 35/491/8

f 36/121/9 13/241/9 35/120/9

f 183/381/9 13/241/9 36/121/9

f 181/384/9 183/381/9 36/121/9

f 183/381/9 181/384/9 182/382/9

v 205477 7454.15 -25966.9
vt 1481.77 126.282
f 35/120/9 13/241/9 212/492/9

vt 1486.47 38.295
f 172/493/9 212/492/9 13/241/9

v 205597 7454.15 -25847.5
vt 1486.47 121.58
f 212/492/9 172/493/9 213/494/9

v 205597 653.152 -25847.5
f 172/141/5 214/140/5 213/143/5

f 214/140/5 172/141/5 173/142/5

vt -1486.47 121.58
f 174/361/1 214/495/1 173/359/1

v 205477 653.152 -25966.9
vt -1481.77 126.282
f 174/361/1 215/496/1 214/495/1

f 174/361/1 176/372/1 215/496/1

v 205597 653.152 -28201.8
vt -1486.47 214.27
f 216/497/1 215/496/1 176/372/1

v 205597 653.152 -26086.3
vt -1486.47 130.984
f 215/496/1 216/497/1 217/498/1

v 205597 7454.15 -26086.3
f 216/152/5 218/153/5 217/154/5

v 205597 7454.15 -28201.8
f 218/153/5 216/152/5 219/155/5

vt -820.659 19.4488
vn 0.747238 -7.79886e-19 -0.664556
vt -827.734 287.205
vt -827.734 19.4488
f 176/499/24 219/500/24 216/501/24

vt -820.659 287.205
f 219/500/24 176/499/24 35/502/24

vt -820.659 56.5748
f 35/502/24 176/499/24 74/503/24

vt 1481.77 19.4488
f 74/418/13 178/389/13 176/504/13

f 178/389/13 74/418/13 75/387/13

vt 1802.71 56.5748
f 176/504/13 73/505/13 74/418/13

v 213629 653.152 -28336.1
vt 1802.71 19.4488
f 73/505/13 176/504/13 220/506/13

vt 1486.47 214.27
f 216/507/9 220/119/9 176/120/9

v 213510 653.152 -28201.8
vt 1798.01 214.27
f 220/119/9 216/507/9 221/508/9

f 221/508/9 216/507/9 167/349/9

v 213629 653.152 -23612.6
f 216/507/9 222/242/9 167/349/9

vt 1486.47 130.984
f 217/509/9 222/242/9 216/507/9

f 214/494/9 222/242/9 217/509/9

f 173/493/9 222/242/9 214/494/9

f 222/242/9 173/493/9 174/241/9

vt -1802.71 19.4488
f 124/369/8 222/510/8 174/367/8

vt -1802.71 56.5748
f 222/510/8 124/369/8 125/511/8

vt 1250.95 56.5748
vt 1244.3 19.4488
vt 1250.95 19.4488
f 125/512/12 167/513/12 222/514/12

vt 1244.3 287.205
f 167/513/12 125/512/12 166/515/12

vt 1250.95 287.205
f 166/515/12 125/512/12 12/516/12

vt 1861.3 287.205
vt 1802.71 287.205
f 125/505/13 11/517/13 12/518/13

f 11/517/13 125/505/13 126/301/13

f 161/322/8 125/511/8 126/320/8

f 125/511/8 161/322/8 222/510/8

f 222/360/1 151/345/1 161/338/1

f 169/354/1 151/345/1 222/360/1

vt -1802.71 219.557
f 169/354/1 220/519/1 151/345/1

v 213510 653.152 -26086.3
f 223/356/1 220/519/1 169/354/1

f 220/519/1 223/356/1 221/358/1

vt 1798.01 130.984
f 221/508/9 168/348/9 223/520/9

f 221/508/9 167/349/9 168/348/9

f 169/354/1 167/357/1 168/355/1

f 167/357/1 169/354/1 222/360/1

f 169/347/9 223/520/9 168/348/9

vt 1185.41 287.205
vt 1178.76 19.4488
vt 1185.41 19.4488
f 164/521/20 223/522/20 169/523/20

vt 1178.76 287.205
f 223/522/20 164/521/20 170/524/20

f 164/347/9 171/508/9 170/520/9

f 171/508/9 164/347/9 34/119/9

vt -1362.06 287.205
vt -1354.99 19.4488
vt -1354.99 287.205
f 34/525/23 221/526/23 171/527/23

vt -1362.06 19.4488
f 221/526/23 34/525/23 220/528/23

vt -1362.06 56.5748
f 220/528/23 34/525/23 73/529/23

vt -1802.71 287.205
f 34/530/8 72/320/8 73/511/8

vt -1861.3 287.205
f 72/320/8 34/530/8 33/531/8

f 220/506/13 72/301/13 73/505/13

f 72/301/13 220/506/13 151/299/13

f 223/201/10 171/202/10 221/203/10

f 171/202/10 223/201/10 170/204/10

f 172/359/1 34/519/1 171/358/1

f 213/495/1 34/519/1 172/359/1

f 218/498/1 34/519/1 213/495/1

f 219/497/1 34/519/1 218/498/1

f 34/519/1 219/497/1 35/372/1

f 35/120/9 218/509/9 219/507/9

f 35/120/9 212/492/9 218/509/9

vt 1137.06 287.205
vt 1143.71 19.4488
vt 1143.71 287.205
f 212/532/17 217/533/17 218/534/17

vt 1137.06 19.4488
f 217/533/17 212/532/17 215/535/17

vt -965.125 287.205
vt -958.475 19.4488
vt -958.475 287.205
f 213/536/16 215/537/16 212/538/16

vt -965.125 19.4488
f 215/537/16 213/536/16 214/539/16

f 217/509/9 215/492/9 214/494/9

f 213/495/1 212/496/1 218/498/1

vt -1861.3 126.282
f 161/338/1 151/345/1 156/540/1

f 150/344/1 156/540/1 151/345/1

f 156/540/1 150/344/1 154/343/1

f 154/346/9 140/244/9 150/297/9

f 158/341/9 140/244/9 154/346/9

f 160/339/9 140/244/9 158/341/9

f 140/244/9 160/339/9 161/243/9

f 161/338/1 158/342/1 160/337/1

f 161/338/1 156/540/1 158/342/1

f 154/346/9 156/340/9 158/341/9

f 150/297/9 140/244/9 149/296/9

f 149/336/1 141/284/1 140/283/1

f 141/284/1 149/336/1 148/335/1

f 157/342/1 155/540/1 153/343/1

f 159/337/1 32/285/1 145/287/1

vt -1614.28 287.205
vt -1607.21 19.4488
vt -1607.21 287.205
f 32/541/7 144/542/7 145/543/7

vt -1614.28 19.4488
f 144/542/7 32/541/7 142/544/7

vt -1614.28 56.5748
f 142/544/7 32/541/7 71/545/7

vt -2182.24 287.205
f 32/546/8 70/273/8 71/323/8

vt -2240.83 287.205
f 70/273/8 32/546/8 3/547/8

f 32/117/9 8/245/9 3/116/9

f 147/292/9 8/245/9 32/117/9

f 145/295/9 147/292/9 32/117/9

f 147/292/9 145/295/9 146/293/9

f 3/116/9 8/245/9 135/282/9

f 6/277/9 135/282/9 8/245/9

f 135/282/9 6/277/9 5/278/9

f 5/5/1 135/281/1 4/4/1

f 3/116/9 135/282/9 4/279/9

f 3/116/9 4/279/9 2/280/9

f 142/300/13 70/254/13 71/298/13

f 70/254/13 142/300/13 132/252/13

f 139/8/1 137/5/1 138/6/1

vt 111.947 287.205
vt 105.298 19.4488
vt 111.947 19.4488
f 49/548/20 59/549/20 54/550/20

vt 105.298 287.205
f 59/549/20 49/548/20 55/551/20

vt 279.898 130.984
f 49/74/9 44/96/9 55/552/9

f 44/96/9 49/74/9 42/71/9

f 44/202/10 59/201/10 55/204/10

f 59/201/10 44/202/10 45/203/10

f 45/96/9 53/76/9 59/552/9

f 54/74/9 59/552/9 53/76/9

vt -2.38744e-30 42.5542
vn -6.89985e-33 0.730508 -0.682904
vt -2339.55 66.3064
vt -2339.55 42.5542
f 31/553/25 29/554/25 30/555/25

v 167840 8574.15 -28320.5
vt -2.21212e-30 66.3064
f 29/554/25 31/553/25 224/556/25

vt -236.293 315.079
vt -33.3715 331.299
vt -218.942 331.299
f 31/557/10 24/558/10 224/559/10

vt -19.4038 315.079
f 24/558/10 31/557/10 22/560/10

v 167840 11785.2 -29404.6
vt -261.624 457.717
f 24/558/10 225/561/10 224/559/10

vt -3.69875 343.031
f 25/562/10 225/561/10 24/558/10

v 167840 11785.2 -22853.3
vt -3.69875 457.717
f 225/561/10 25/562/10 226/563/10

vt 0 343.031
vt 2339.55 457.717
vt 0 457.717
f 25/564/13 27/565/13 226/566/13

vt 2339.55 343.031
f 27/565/13 25/564/13 26/567/13

vt 2339.55 3.69875
vt 0 261.624
vt 0 3.69875
f 27/568/9 225/569/9 226/570/9

vt 2339.55 261.624
f 225/569/9 27/568/9 28/571/9

v 227265 8872.15 -29404.6
vt -2339.55 343.031
vt -2339.55 457.717
f 227/572/8 225/566/8 28/573/8

v 167840 8872.15 -29404.6
f 225/566/8 227/572/8 228/564/8

vt -2339.55 343.187
vn 9.10746e-33 -0.964235 -0.26505
vt 7.52314e-30 298.923
vt 8.98972e-30 343.187
f 227/574/26 224/575/26 228/576/26

vt -2339.55 298.923
f 224/575/26 227/574/26 29/577/26

vt 261.624 343.031
f 28/36/5 29/39/5 227/578/5

vt -261.624 343.031
f 224/559/10 225/561/10 228/579/10

