# Alias OBJ Model File
# Exported from SketchUp, (c) 2000-2012 Trimble Navigation Limited
# File units = millimeters

mtllib Nhabaove.mtl

g Mesh1 Group1 Nh__c_nh_c_ng1 Model

usemtl Color_I03
v 132781 2172.86 -56085.7
vt -290.796 79.2799
vn 0 0 -1
v 133279 1674.86 -56085.7
vt -310.403 59.6736
v 132781 1674.86 -56085.7
vt -290.796 59.6736
f 1/1/1 2/2/1 3/3/1

v 133279 2172.86 -56085.7
vt -310.403 79.2799
f 2/2/1 1/1/1 4/4/1

usemtl Dirty_Wall
vt -0.674261 0.442842
vn 0 -1 -0
v 133279 2172.86 -56206.7
vt -0.719722 0.455579
vt -0.719722 0.442842
f 1/5/2 5/6/2 4/7/2

v 132781 2172.86 -56206.7
vt -0.674261 0.455579
f 5/6/2 1/5/2 6/8/2

vt 0.384041 0.211969
vn 1 4.41121e-31 4.77297e-14
v 132781 1674.86 -56206.7
vt 0.395087 0.159548
vt 0.395087 0.211969
f 1/9/3 7/10/3 6/11/3

vt 0.384041 0.159548
f 7/10/3 1/9/3 3/12/3

vt 0.719722 0.442842
vn 0 1 -0
vt 0.674261 0.455579
vt 0.674261 0.442842
f 2/13/4 7/14/4 3/15/4

v 133279 1674.86 -56206.7
vt 0.719722 0.455579
f 7/14/4 2/13/4 8/16/4

vt -0.384041 0.159548
vn -1 -4.41121e-31 -4.77297e-14
vt -0.395087 0.211969
vt -0.395087 0.159548
f 2/17/5 5/18/5 8/19/5

vt -0.384041 0.211969
f 5/18/5 2/17/5 4/20/5

v 133494 2971.15 -56206.7
vt -0.739328 0.296
vn -2.50006e-17 -9.63209e-17 -1
vt -0.719722 0.159548
vt -0.719722 0.211969
f 9/21/6 8/22/6 5/23/6

v 133494 159.152 -56206.7
vt -0.739328 4.38818e-17
f 10/24/6 8/22/6 9/21/6

v 130981 1674.86 -56206.7
vt -0.509946 0.159548
f 8/22/6 10/24/6 11/25/6

v 130565 159.152 -56206.7
vt -0.471938 4.38818e-17
f 12/26/6 11/25/6 10/24/6

v 130565 2172.86 -56206.7
vt -0.471938 0.211969
f 11/25/6 12/26/6 13/27/6

usemtl Color_I03
vt -203.538 6.10858e-14
vn -4.71417e-16 -3.58498e-16 -1
v 129034 2172.86 -56206.7
vt -143.248 79.2799
vt -203.538 79.2799
f 12/28/7 14/29/7 13/30/7

v 129034 159.152 -56206.7
vt -143.248 6.10858e-14
f 14/29/7 12/28/7 15/31/7

usemtl Dirty_Wall
vt -0.332146 0.455579
v 129799 159.152 -56228.7
vt -0.402042 0.457895
vt -0.471938 0.455579
f 15/32/2 16/33/2 12/34/2

v 129034 159.152 -56228.7
vt -0.332146 0.457895
f 16/33/2 15/32/2 17/35/2

vt -0.395087 -3.60308e-29
vn -1 -9.4075e-29 -2.62513e-13
v 129034 2172.86 -56228.7
vt -0.397095 0.211969
vt -0.397095 -3.60308e-29
f 15/36/8 18/37/8 17/38/8

f 18/37/8 15/36/8 14/18/8

vt -0.332146 4.38818e-17
v 128782 205.861 -56206.7
vt -0.309204 0.0049168
vt -0.332146 0.211969
f 15/39/6 19/40/6 14/41/6

v 128180 205.861 -56206.7
vt -0.25425 0.0049168
f 19/40/6 15/39/6 20/42/6

v 125759 159.152 -56206.7
vt -0.0332282 4.38818e-17
f 21/43/6 20/42/6 15/39/6

v 125987 1391.43 -56206.7
vt -0.0540169 0.129713
f 20/42/6 21/43/6 22/44/6

v 125759 2971.15 -56206.7
vt -0.0332282 0.296
f 22/44/6 21/43/6 23/45/6

v 125759 159.152 -54970.8
vt -0.28227 0
vn -1 0 -0
vt -0.395087 0.296
vt -0.395087 0
f 24/46/9 23/47/9 21/48/9

v 125759 294.152 -54970.8
vt -0.28227 0.0142105
f 25/49/9 23/47/9 24/46/9

v 125759 431.098 -54721.9
vt -0.25955 0.0286259
f 26/50/9 23/47/9 25/49/9

v 125759 2491.1 -54721.9
vt -0.25955 0.245468
f 27/51/9 23/47/9 26/50/9

v 125759 2491.1 -53764.9
vt -0.172189 0.245468
f 28/52/9 23/47/9 27/51/9

v 125759 2971.15 -52062.7
vt -0.0167967 0.296
f 28/52/9 29/53/9 23/47/9

v 125759 159.152 -52062.7
vt -0.0167967 0
f 29/53/9 28/52/9 30/54/9

v 125759 294.152 -53530.8
vt -0.150818 0.0142105
f 30/54/9 28/52/9 31/55/9

v 125759 431.098 -53764.9
vt -0.172189 0.0286259
f 32/56/9 31/55/9 28/52/9

f 31/55/9 32/56/9 25/49/9

f 25/49/9 32/56/9 26/50/9

usemtl Color_M09
v 125779 489.099 -53822.9
vt -76.5455 17.2087
vn -0.945376 0.325982 1.15556e-19
vt -111.939 14.7933
vt -74.262 14.7933
f 33/57/10 26/58/10 32/59/10

v 125779 489.099 -54663.9
vt -109.656 17.2087
f 26/58/10 33/57/10 34/60/10

usemtl Color_I03
vt -76.5455 12.9901
v 125779 2433.1 -54663.9
vt -109.656 89.5254
vt -109.656 12.9901
f 33/61/9 35/62/9 34/63/9

v 125779 2433.1 -53822.9
vt -76.5455 89.5254
f 35/62/9 33/61/9 36/64/9

usemtl Color_M09
vt -74.8771 10.7065
vn -0.945376 0 -0.325982
vt -77.2925 89.5254
vt -77.2925 12.9901
f 32/65/11 36/66/11 33/67/11

vt -74.8771 91.8089
f 36/66/11 32/65/11 28/68/11

vt -111.939 82.1223
vn -0.945376 -0.325982 -8.05105e-19
vt -76.5455 79.7069
vt -74.262 82.1223
f 27/69/12 36/70/12 28/71/12

vt -109.656 79.7069
f 36/70/12 27/69/12 35/72/12

vt -101.153 91.8089
vn -0.945376 0 0.325982
vt -98.7376 12.9901
vt -98.7376 89.5254
f 27/73/13 34/74/13 35/75/13

vt -101.153 10.7065
f 34/74/13 27/73/13 26/76/13

usemtl Dirty_Wall
v 125759 159.152 -53530.8
vt -0.150818 0
f 25/49/9 37/77/9 31/55/9

f 37/77/9 25/49/9 24/46/9

vt -0.0332282 0
v 125395 294.152 -54970.8
vt 0 0.0142105
vt -0.0332282 0.0142105
f 24/78/1 38/79/1 25/80/1

v 125395 159.152 -54970.8
vt 0 0
f 38/79/1 24/78/1 39/81/1

vt -0.0332282 0.325488
v 125395 159.152 -53530.8
vt 0 0.173909
vt 0 0.325488
f 24/82/2 40/83/2 39/84/2

vt -0.0332282 0.173909
f 40/83/2 24/82/2 37/85/2

f 24/82/2 15/32/2 37/85/2

vt -0.0332282 0.455579
f 15/32/2 24/82/2 21/86/2

vt -0.0332282 0.0193684
f 37/85/2 15/32/2 30/87/2

v 133494 159.152 -52062.7
vt -0.739328 0.0193684
f 30/87/2 15/32/2 41/88/2

f 41/88/2 15/32/2 12/34/2

vt -0.739328 0.455579
f 41/88/2 12/34/2 10/89/2

vt 0.395087 0
vn 1 0 -0
v 133494 2971.15 -52062.7
vt 0.0167967 0.296
vt 0.0167967 0
f 10/90/14 42/91/14 41/92/14

vt 0.395087 0.296
f 42/91/14 10/90/14 9/93/14

v 133813 2971.15 -56525.4
vt -0.768427 0.489134
f 9/89/2 43/94/2 42/88/2

f 23/86/2 43/94/2 9/89/2

v 125440 2971.15 -56525.4
vt -0.00412894 0.489134
f 23/86/2 44/95/2 43/94/2

v 125440 2971.15 -51878.7
vt -0.00412894 0
f 44/95/2 23/86/2 45/96/2

f 29/87/2 45/96/2 23/86/2

v 133813 2971.15 -51878.7
vt -0.768427 0
f 45/96/2 29/87/2 46/97/2

f 46/97/2 29/87/2 42/88/2

v 133494 3226.15 -52062.7
vt 0.739328 0.322842
vn 0 0 1
vt 0.0332282 0.296
vt 0.739328 0.296
f 47/98/15 29/99/15 42/100/15

v 125759 3226.15 -52062.7
vt 0.0332282 0.322842
f 29/99/15 47/98/15 48/101/15

v 125759 3415.15 -52062.7
vt -0.0332282 0.342737
vt -0.739328 0.322842
vt -0.0332282 0.322842
f 49/102/1 47/103/1 48/104/1

v 133494 3415.15 -52062.7
vt -0.739328 0.342737
f 47/103/1 49/102/1 50/105/1

vt 0.0332282 0.0193684
v 133813 3415.15 -51878.7
vt 0.768427 0
vt 0.739328 0.0193684
f 49/106/4 51/107/4 50/108/4

v 125440 3415.15 -51878.7
vt 0.00412894 0
f 49/106/4 52/109/4 51/107/4

v 125440 3415.15 -56525.4
vt 0.00412894 0.489134
f 52/109/4 49/106/4 53/110/4

v 125759 3415.15 -56206.7
vt 0.0332282 0.455579
f 54/111/4 53/110/4 49/106/4

v 133813 3415.15 -56525.4
vt 0.768427 0.489134
f 53/110/4 54/111/4 55/112/4

v 133494 3415.15 -56206.7
vt 0.739328 0.455579
f 55/112/4 54/111/4 56/113/4

v 125759 3226.15 -56206.7
vt 0.739328 0.342737
vt 0.0332282 0.342737
f 57/101/15 56/114/15 54/115/15

v 133494 3226.15 -56206.7
f 56/114/15 57/101/15 58/98/15

f 57/111/4 47/108/4 58/113/4

f 47/108/4 57/111/4 48/106/4

vt 0.395087 0.322842
vt 0.0167967 0.342737
vt 0.0167967 0.322842
f 57/116/14 49/117/14 48/118/14

vt 0.395087 0.342737
f 49/117/14 57/116/14 54/119/14

vt -0.395087 0.322842
vt -0.0167967 0.322842
f 57/120/9 29/53/9 48/121/9

f 29/53/9 57/120/9 23/47/9

f 57/104/1 9/21/1 23/45/1

f 9/21/1 57/104/1 58/103/1

f 47/118/14 9/93/14 58/116/14

f 9/93/14 47/118/14 42/91/14

vt -0.395087 0.342737
f 47/121/9 56/122/9 58/120/9

vt -0.0167967 0.342737
f 56/122/9 47/121/9 50/123/9

f 50/108/4 51/107/4 56/113/4

f 55/112/4 56/113/4 51/107/4

vt 0 0.342737
vt 0.424186 0.296
vt 0.424186 0.342737
f 51/124/14 43/125/14 55/126/14

vt 0 0.296
f 43/125/14 51/124/14 46/127/14

vt 0.768427 0.342737
vt 0.00412894 0.296
vt 0.768427 0.296
f 51/128/15 45/129/15 46/130/15

vt 0.00412894 0.342737
f 45/129/15 51/128/15 52/131/15

vt -0.424186 0.342737
f 53/132/9 45/127/9 52/124/9

vt -0.424186 0.296
f 45/127/9 53/132/9 44/133/9

vt -0.00412894 0.342737
vt -0.768427 0.296
vt -0.00412894 0.296
f 53/134/1 43/135/1 44/136/1

vt -0.768427 0.342737
f 43/135/1 53/134/1 55/137/1

f 46/97/2 42/88/2 43/94/2

f 9/21/6 5/23/6 23/45/6

vt -0.674261 0.211969
f 6/138/6 23/45/6 5/23/6

v 132387 2172.86 -56206.7
vt -0.638294 0.211969
f 59/139/6 23/45/6 6/138/6

v 131889 2172.86 -56206.7
vt -0.592834 0.211969
f 60/140/6 23/45/6 59/139/6

v 131479 2172.86 -56206.7
vt -0.555406 0.211969
f 61/141/6 23/45/6 60/140/6

v 130981 2172.86 -56206.7
vt -0.509946 0.211969
f 62/142/6 23/45/6 61/141/6

f 13/27/6 23/45/6 62/142/6

v 129799 2172.86 -56206.7
vt -0.402042 0.211969
f 63/143/6 23/45/6 13/27/6

f 14/41/6 23/45/6 63/143/6

v 128782 2172.86 -56206.7
vt -0.309204 0.211969
f 64/144/6 23/45/6 14/41/6

v 128180 2172.86 -56206.7
vt -0.25425 0.211969
f 65/145/6 23/45/6 64/144/6

v 127875 2155.43 -56206.7
vt -0.226365 0.210135
f 66/146/6 23/45/6 65/145/6

v 127442 2155.43 -56206.7
vt -0.186838 0.210135
f 67/147/6 23/45/6 66/146/6

v 127425 2155.43 -56206.7
vt -0.185287 0.210135
f 68/148/6 23/45/6 67/147/6

v 126992 2155.43 -56206.7
vt -0.14576 0.210135
f 69/149/6 23/45/6 68/148/6

v 126870 2155.43 -56206.7
vt -0.134623 0.210135
f 70/150/6 23/45/6 69/149/6

v 126437 2155.43 -56206.7
vt -0.0950957 0.210135
f 71/151/6 23/45/6 70/150/6

v 126420 2155.43 -56206.7
vt -0.0935439 0.210135
f 72/152/6 23/45/6 71/151/6

v 125987 2155.43 -56206.7
vt -0.0540169 0.210135
f 73/153/6 23/45/6 72/152/6

f 22/44/6 23/45/6 73/153/6

vt 0.0540169 0.129713
v 126023 1427.11 -56206.7
vt 0.0572741 0.133469
vt 0.0540169 0.210135
f 22/154/15 74/155/15 73/156/15

v 126384 1427.11 -56206.7
vt 0.0902867 0.133469
f 74/155/15 22/154/15 75/157/15

v 126420 1391.43 -56206.7
vt 0.0935439 0.129713
f 76/158/15 75/157/15 22/154/15

vt 0.0935439 0.210135
f 75/157/15 76/158/15 72/159/15

v 126437 1391.43 -56206.7
vt -0.0950957 0.129713
vt -0.0935439 0.129713
f 72/152/6 77/160/6 76/161/6

f 77/160/6 72/152/6 71/151/6

vt 0.0950957 0.129713
v 126473 1427.11 -56206.7
vt 0.0983529 0.133469
vt 0.0950957 0.210135
f 77/162/15 78/163/15 71/164/15

v 126834 1427.11 -56206.7
vt 0.131365 0.133469
f 78/163/15 77/162/15 79/165/15

v 126870 1391.43 -56206.7
vt 0.134623 0.129713
f 80/166/15 79/165/15 77/162/15

vt 0.134623 0.210135
f 79/165/15 80/166/15 70/167/15

v 126992 1391.43 -56206.7
vt -0.14576 0.129713
vt -0.134623 0.129713
f 70/150/6 81/168/6 80/169/6

f 81/168/6 70/150/6 69/149/6

usemtl Color_I03
vt -62.8634 78.5936
v 127425 1391.43 -56206.7
vt -79.9106 48.5149
vt -62.8634 48.5149
f 69/170/1 82/171/1 81/172/1

vt -79.9106 78.5936
f 82/171/1 69/170/1 68/173/1

usemtl Dirty_Wall
vt 0.185287 0.455579
v 126992 2155.43 -56228.7
vt 0.14576 0.457895
vt 0.14576 0.455579
f 68/174/4 83/175/4 69/176/4

v 127425 2155.43 -56228.7
vt 0.185287 0.457895
f 83/175/4 68/174/4 84/177/4

vt 0.395087 0.210135
v 127425 1391.43 -56228.7
vt 0.397095 0.129713
vt 0.397095 0.210135
f 68/178/14 85/179/14 84/180/14

vt 0.395087 0.129713
f 85/179/14 68/178/14 82/181/14

v 127442 1391.43 -56206.7
vt -0.186838 0.129713
vt -0.185287 0.129713
f 68/148/6 86/182/6 82/183/6

f 86/182/6 68/148/6 67/147/6

usemtl Color_I03
vt -80.5799 78.5936
v 127875 1391.43 -56206.7
vt -97.6272 48.5149
vt -80.5799 48.5149
f 67/184/1 87/185/1 86/186/1

vt -97.6272 78.5936
f 87/185/1 67/184/1 66/187/1

usemtl Dirty_Wall
vt 0.226365 0.455579
v 127442 2155.43 -56228.7
vt 0.186838 0.457895
vt 0.186838 0.455579
f 66/188/4 88/189/4 67/190/4

v 127875 2155.43 -56228.7
vt 0.226365 0.457895
f 88/189/4 66/188/4 89/191/4

v 127875 1391.43 -56228.7
f 66/178/14 90/179/14 89/180/14

f 90/179/14 66/178/14 87/181/14

vt -0.226365 0.129713
f 65/145/6 87/192/6 66/146/6

v 128180 1189.36 -56206.7
vt -0.25425 0.108443
f 91/193/6 87/192/6 65/145/6

f 87/192/6 91/193/6 22/44/6

f 20/42/6 22/44/6 91/193/6

v 128180 1189.36 -56228.7
vt -0.397095 0.108443
vn -1 2.93609e-15 -1.31257e-13
vt -0.395087 0.0049168
vt -0.395087 0.108443
f 92/194/16 20/195/16 91/196/16

v 128180 205.861 -56228.7
vt -0.397095 0.0049168
f 20/195/16 92/194/16 93/197/16

usemtl Color_M09
v 128229 254.42 -56228.7
vt -111.565 3.75074
vt -109.653 1.83896
vt -109.653 40.5594
f 94/198/1 93/199/1 92/200/1

v 128782 205.861 -56228.7
vt -133.354 1.83896
f 93/199/1 94/198/1 95/201/1

v 128734 254.42 -56228.7
vt -131.442 3.75074
f 96/202/1 95/201/1 94/198/1

v 128782 1189.36 -56228.7
vt -133.354 40.5594
f 95/201/1 96/202/1 97/203/1

v 128734 1140.8 -56228.7
vt -131.442 38.6477
f 97/203/1 96/202/1 98/204/1

usemtl Dirty_Wall
v 128734 254.42 -56206.7
vt -0.395087 0.0100283
vt -0.397095 0.103332
vt -0.397095 0.0100283
f 99/205/9 98/206/9 96/207/9

v 128734 1140.8 -56206.7
vt -0.395087 0.103332
f 98/206/9 99/205/9 100/208/9

v 128229 1140.8 -56206.7
vt -0.258683 0.455579
vt -0.304772 0.457895
vt -0.304772 0.455579
f 101/209/2 98/210/2 100/211/2

v 128229 1140.8 -56228.7
vt -0.258683 0.457895
f 98/210/2 101/209/2 102/212/2

vt 0.395087 0.103332
vt 0.397095 0.0100283
vt 0.397095 0.103332
f 101/213/14 94/214/14 102/215/14

v 128229 254.42 -56206.7
vt 0.395087 0.0100283
f 94/214/14 101/213/14 103/216/14

vt 0.304772 0.455579
vt 0.258683 0.457895
vt 0.258683 0.455579
f 99/217/4 94/218/4 103/219/4

vt 0.304772 0.457895
f 94/218/4 99/217/4 96/220/4

usemtl Color_M09
vt -111.565 38.6477
f 94/198/1 92/200/1 102/221/1

f 102/221/1 92/200/1 98/204/1

f 97/203/1 98/204/1 92/200/1

v 128229 1237.92 -56228.7
vt -111.565 42.4712
f 92/200/1 104/222/1 97/203/1

v 128180 2172.86 -56228.7
vt -109.653 79.2799
f 104/222/1 92/200/1 105/223/1

usemtl Dirty_Wall
vn -1 -2.93609e-15 -1.31257e-13
f 91/196/17 105/37/17 92/194/17

f 105/37/17 91/196/17 65/18/17

usemtl Color_I03
v 128782 1189.36 -56206.7
f 106/203/1 91/200/1 65/223/1

f 19/201/1 91/200/1 106/203/1

f 91/200/1 19/201/1 20/199/1

usemtl Dirty_Wall
vt -0.25425 0.455579
vt -0.309204 0.457895
vt -0.309204 0.455579
f 20/224/2 95/225/2 19/226/2

vt -0.25425 0.457895
f 95/225/2 20/224/2 93/227/2

vt 0.397095 0.0049168
vt 0.395087 0.108443
vt 0.395087 0.0049168
f 95/228/14 106/229/14 19/230/14

vt 0.397095 0.108443
f 106/229/14 95/228/14 97/231/14

f 97/231/14 64/11/14 106/229/14

v 128782 2172.86 -56228.7
vt 0.397095 0.211969
f 64/11/14 97/231/14 107/232/14

usemtl Color_M09
v 128734 1237.92 -56228.7
vt -131.442 42.4712
vt -133.354 79.2799
f 97/203/1 108/233/1 107/234/1

f 108/233/1 97/203/1 104/222/1

usemtl Dirty_Wall
v 128734 1237.92 -56206.7
f 104/218/4 109/217/4 108/220/4

v 128229 1237.92 -56206.7
f 109/217/4 104/218/4 110/219/4

vt 0.397095 0.113555
v 128229 2124.3 -56206.7
vt 0.395087 0.206858
vt 0.395087 0.113555
f 104/235/14 111/236/14 110/237/14

v 128229 2124.3 -56228.7
vt 0.397095 0.206858
f 111/236/14 104/235/14 112/238/14

usemtl Color_M09
vt -111.565 77.3681
f 104/222/1 105/223/1 112/239/1

v 128734 2124.3 -56228.7
vt -131.442 77.3681
f 112/239/1 105/223/1 113/240/1

f 107/234/1 113/240/1 105/223/1

f 107/234/1 108/233/1 113/240/1

usemtl Dirty_Wall
vt -0.395087 0.113555
vt -0.397095 0.206858
vt -0.397095 0.113555
f 109/241/9 113/242/9 108/243/9

v 128734 2124.3 -56206.7
vt -0.395087 0.206858
f 113/242/9 109/241/9 114/244/9

f 111/209/2 113/210/2 114/211/2

f 113/210/2 111/209/2 112/212/2

vt 0.25425 0.457895
vt 0.309204 0.455579
vt 0.309204 0.457895
f 105/245/4 64/246/4 107/247/4

vt 0.25425 0.455579
f 64/246/4 105/245/4 65/248/4

usemtl Color_I03
f 106/203/1 65/223/1 64/234/1

usemtl Dirty_Wall
vt -0.309204 0.108443
f 14/41/6 106/249/6 64/144/6

f 14/41/6 19/40/6 106/249/6

f 87/192/6 22/44/6 76/161/6

vt -0.0540169 0.455579
v 126420 1391.43 -56228.7
vt -0.0935439 0.457895
vt -0.0935439 0.455579
f 22/250/2 115/251/2 76/252/2

v 125987 1391.43 -56228.7
vt -0.0540169 0.457895
f 115/251/2 22/250/2 116/253/2

vt -0.395087 0.129713
vn -1 -2.57711e-31 -2.62513e-13
v 125987 2155.43 -56228.7
vt -0.397095 0.210135
vt -0.397095 0.129713
f 22/254/18 117/255/18 116/256/18

vt -0.395087 0.210135
f 117/255/18 22/254/18 73/257/18

vt 0.0935439 0.455579
vt 0.0540169 0.457895
vt 0.0540169 0.455579
f 72/258/4 117/259/4 73/260/4

v 126420 2155.43 -56228.7
vt 0.0935439 0.457895
f 117/259/4 72/258/4 118/261/4

vn 1 2.57711e-31 2.62513e-13
f 72/178/19 115/179/19 118/180/19

f 115/179/19 72/178/19 76/181/19

usemtl Color_M09
vt -40.3437 48.5149
v 126384 1427.11 -56228.7
vt -38.939 49.9196
vt -40.3437 78.5936
f 115/262/1 119/263/1 118/264/1

v 126023 1427.11 -56228.7
vt -24.7012 49.9196
f 119/263/1 115/262/1 120/265/1

vt -23.2965 48.5149
f 116/266/1 120/265/1 115/262/1

vt -23.2965 78.5936
f 120/265/1 116/266/1 117/267/1

v 126023 2119.75 -56228.7
vt -24.7012 77.1889
f 120/265/1 117/267/1 121/268/1

v 126384 2119.75 -56228.7
vt -38.939 77.1889
f 121/268/1 117/267/1 122/269/1

f 118/264/1 122/269/1 117/267/1

f 118/264/1 119/263/1 122/269/1

usemtl Dirty_Wall
vt -0.395087 0.133469
vt -0.397095 0.206379
vt -0.397095 0.133469
f 75/270/9 122/271/9 119/272/9

v 126384 2119.75 -56206.7
vt -0.395087 0.206379
f 122/271/9 75/270/9 123/273/9

vt 0.0902867 0.206379
f 75/157/15 72/159/15 123/274/15

v 126023 2119.75 -56206.7
vt 0.0572741 0.206379
f 123/274/15 72/159/15 124/275/15

f 73/156/15 124/275/15 72/159/15

f 73/156/15 74/155/15 124/275/15

vt 0.397095 0.133469
vt 0.395087 0.206379
vt 0.395087 0.133469
f 120/276/14 124/277/14 74/278/14

vt 0.397095 0.206379
f 124/277/14 120/276/14 121/279/14

vt -0.0902867 0.457895
vt -0.0572741 0.455579
vt -0.0572741 0.457895
f 122/280/2 124/281/2 121/282/2

vt -0.0902867 0.455579
f 124/281/2 122/280/2 123/283/2

usemtl Color_I03
f 75/263/1 124/268/1 123/269/1

f 124/268/1 75/263/1 74/265/1

usemtl Dirty_Wall
vt 0.0902867 0.455579
vt 0.0572741 0.457895
vt 0.0572741 0.455579
f 75/284/4 120/285/4 74/286/4

vt 0.0902867 0.457895
f 120/285/4 75/284/4 119/287/4

f 87/192/6 76/161/6 77/160/6

f 87/192/6 77/160/6 80/169/6

vt -0.0950957 0.455579
v 126870 1391.43 -56228.7
vt -0.134623 0.457895
vt -0.134623 0.455579
f 77/288/2 125/289/2 80/290/2

v 126437 1391.43 -56228.7
vt -0.0950957 0.457895
f 125/289/2 77/288/2 126/291/2

v 126437 2155.43 -56228.7
f 77/254/18 127/255/18 126/256/18

f 127/255/18 77/254/18 71/257/18

vt 0.134623 0.455579
vt 0.0950957 0.457895
vt 0.0950957 0.455579
f 70/292/4 127/293/4 71/294/4

v 126870 2155.43 -56228.7
vt 0.134623 0.457895
f 127/293/4 70/292/4 128/295/4

f 70/178/19 125/179/19 128/180/19

f 125/179/19 70/178/19 80/181/19

usemtl Color_M09
vt -58.0603 48.5149
v 126834 1427.11 -56228.7
vt -56.6555 49.9196
vt -58.0603 78.5936
f 125/296/1 129/297/1 128/298/1

v 126473 1427.11 -56228.7
vt -42.4178 49.9196
f 129/297/1 125/296/1 130/299/1

vt -41.013 48.5149
f 126/300/1 130/299/1 125/296/1

vt -41.013 78.5936
f 130/299/1 126/300/1 127/301/1

v 126473 2119.75 -56228.7
vt -42.4178 77.1889
f 130/299/1 127/301/1 131/302/1

v 126834 2119.75 -56228.7
vt -56.6555 77.1889
f 131/302/1 127/301/1 132/303/1

f 128/298/1 132/303/1 127/301/1

f 128/298/1 129/297/1 132/303/1

usemtl Dirty_Wall
f 79/270/9 132/271/9 129/272/9

v 126834 2119.75 -56206.7
f 132/271/9 79/270/9 133/273/9

vt 0.131365 0.206379
f 79/165/15 70/167/15 133/304/15

v 126473 2119.75 -56206.7
vt 0.0983529 0.206379
f 133/304/15 70/167/15 134/305/15

f 71/164/15 134/305/15 70/167/15

f 71/164/15 78/163/15 134/305/15

usemtl Color_I03
f 134/302/1 79/297/1 78/299/1

f 79/297/1 134/302/1 133/303/1

usemtl Dirty_Wall
vt -0.0983529 0.455579
vt -0.131365 0.457895
vt -0.131365 0.455579
f 134/306/2 132/307/2 133/308/2

vt -0.0983529 0.457895
f 132/307/2 134/306/2 131/309/2

f 134/277/14 130/276/14 131/279/14

f 130/276/14 134/277/14 78/278/14

vt 0.131365 0.455579
vt 0.0983529 0.457895
vt 0.0983529 0.455579
f 79/310/4 130/311/4 78/312/4

vt 0.131365 0.457895
f 130/311/4 79/310/4 129/313/4

f 87/192/6 80/169/6 81/168/6

f 87/192/6 81/168/6 82/183/6

vt -0.14576 0.455579
vt -0.185287 0.457895
vt -0.185287 0.455579
f 81/314/2 85/315/2 82/316/2

v 126992 1391.43 -56228.7
vt -0.14576 0.457895
f 85/315/2 81/314/2 135/317/2

f 81/254/9 83/255/9 135/256/9

f 83/255/9 81/254/9 69/257/9

usemtl Color_M09
v 127028 1427.11 -56228.7
vt -64.2682 49.9196
f 136/318/1 135/172/1 83/170/1

f 135/172/1 136/318/1 85/171/1

v 127389 1427.11 -56228.7
vt -78.5059 49.9196
f 137/319/1 85/171/1 136/318/1

f 85/171/1 137/319/1 84/173/1

v 127389 2119.75 -56228.7
vt -78.5059 77.1889
f 84/173/1 137/319/1 138/320/1

usemtl Dirty_Wall
v 127389 1427.11 -56206.7
f 139/270/9 138/271/9 137/272/9

v 127389 2119.75 -56206.7
f 138/271/9 139/270/9 140/273/9

v 127028 2119.75 -56206.7
vt -0.149017 0.455579
vt -0.182029 0.457895
vt -0.182029 0.455579
f 141/321/2 138/322/2 140/323/2

v 127028 2119.75 -56228.7
vt -0.149017 0.457895
f 138/322/2 141/321/2 142/324/2

f 141/277/14 136/276/14 142/279/14

v 127028 1427.11 -56206.7
f 136/276/14 141/277/14 143/278/14

vt 0.182029 0.455579
vt 0.149017 0.457895
vt 0.149017 0.455579
f 139/325/4 136/326/4 143/327/4

vt 0.182029 0.457895
f 136/326/4 139/325/4 137/328/4

usemtl Color_M09
vt -64.2682 77.1889
f 136/318/1 83/170/1 142/329/1

f 142/329/1 83/170/1 138/320/1

f 84/173/1 138/320/1 83/170/1

usemtl Dirty_Wall
f 87/192/6 82/183/6 86/182/6

vt -0.186838 0.455579
vt -0.226365 0.457895
vt -0.226365 0.455579
f 86/330/2 90/331/2 87/332/2

v 127442 1391.43 -56228.7
vt -0.186838 0.457895
f 90/331/2 86/330/2 144/333/2

f 86/254/9 88/255/9 144/256/9

f 88/255/9 86/254/9 67/257/9

usemtl Color_M09
v 127478 1427.11 -56228.7
vt -81.9847 49.9196
f 145/334/1 144/186/1 88/184/1

f 144/186/1 145/334/1 90/185/1

v 127839 1427.11 -56228.7
vt -96.2224 49.9196
f 146/335/1 90/185/1 145/334/1

f 90/185/1 146/335/1 89/187/1

v 127839 2119.75 -56228.7
vt -96.2224 77.1889
f 89/187/1 146/335/1 147/336/1

usemtl Dirty_Wall
v 127839 1427.11 -56206.7
f 148/270/9 147/271/9 146/272/9

v 127839 2119.75 -56206.7
f 147/271/9 148/270/9 149/273/9

v 127478 2119.75 -56206.7
vt -0.190096 0.455579
vt -0.223108 0.457895
vt -0.223108 0.455579
f 150/337/2 147/338/2 149/339/2

v 127478 2119.75 -56228.7
vt -0.190096 0.457895
f 147/338/2 150/337/2 151/340/2

f 150/277/14 145/276/14 151/279/14

v 127478 1427.11 -56206.7
f 145/276/14 150/277/14 152/278/14

vt 0.223108 0.455579
vt 0.190096 0.457895
vt 0.190096 0.455579
f 148/341/4 145/342/4 152/343/4

vt 0.223108 0.457895
f 145/342/4 148/341/4 146/344/4

usemtl Color_M09
vt -81.9847 77.1889
f 145/334/1 88/184/1 151/345/1

f 151/345/1 88/184/1 147/336/1

f 89/187/1 147/336/1 88/184/1

usemtl Color_I03
vt -173.393 79.2799
f 13/30/7 14/29/7 63/346/7

usemtl Dirty_Wall
vt 0.402042 0.455579
vt 0.332146 0.457895
vt 0.332146 0.455579
f 63/347/4 18/348/4 14/349/4

v 129799 2172.86 -56228.7
vt 0.402042 0.457895
f 18/348/4 63/347/4 153/350/4

vt 0.471938 0.455579
f 13/351/4 153/350/4 63/347/4

v 130565 2172.86 -56228.7
vt 0.471938 0.457895
f 153/350/4 13/351/4 154/352/4

vn 1 0 2.62513e-13
v 130565 159.152 -56228.7
vt 0.397095 0
f 13/11/20 155/353/20 154/232/20

f 155/353/20 13/11/20 12/90/20

vt -0.471938 0.457895
f 12/34/2 16/33/2 155/354/2

usemtl Color_M09
v 129799 251.935 -56228.7
vt -173.393 3.65288
vt -203.538 0
vt -173.393 0
f 156/355/1 155/356/1 16/357/1

v 130472 252.283 -56228.7
vt -199.872 3.6666
f 155/356/1 156/355/1 157/358/1

v 129893 252.283 -56228.7
vt -177.06 3.6666
f 157/358/1 156/355/1 158/359/1

f 153/346/1 158/359/1 156/355/1

v 129893 2079.73 -56228.7
vt -177.06 75.6133
f 158/359/1 153/346/1 159/360/1

v 130472 2079.73 -56228.7
vt -199.872 75.6133
f 159/360/1 153/346/1 160/361/1

f 154/30/1 160/361/1 153/346/1

f 154/30/1 157/358/1 160/361/1

f 155/356/1 157/358/1 154/30/1

v 129707 251.935 -56228.7
vt -169.758 3.65288
f 156/355/1 161/362/1 153/346/1

v 129148 251.935 -56228.7
vt -147.75 3.65288
f 161/362/1 156/355/1 162/363/1

f 16/357/1 162/363/1 156/355/1

vt -143.248 0
f 17/364/1 162/363/1 16/357/1

f 162/363/1 17/364/1 18/29/1

v 129148 305.935 -56228.7
vt -147.75 5.77886
f 162/363/1 18/29/1 163/365/1

v 129148 2046.44 -56228.7
vt -147.75 74.3028
f 163/365/1 18/29/1 164/366/1

v 129147 2079.73 -56228.7
vt -147.711 75.6133
f 164/366/1 18/29/1 165/367/1

v 129707 2079.73 -56228.7
vt -169.758 75.6133
f 165/367/1 18/29/1 166/368/1

f 153/346/1 166/368/1 18/29/1

v 129707 305.935 -56228.7
vt -169.758 5.77886
f 153/346/1 167/369/1 166/368/1

f 153/346/1 161/362/1 167/369/1

usemtl Dirty_Wall
f 11/25/6 13/27/6 62/142/6

v 130981 2172.86 -56085.7
f 168/9/14 11/10/14 62/11/14

v 130981 1674.86 -56085.7
f 11/10/14 168/9/14 169/12/14

usemtl Color_I03
vt -219.93 79.2799
v 131479 1674.86 -56085.7
vt -239.536 59.6736
vt -219.93 59.6736
f 168/370/1 170/371/1 169/372/1

v 131479 2172.86 -56085.7
vt -239.536 79.2799
f 170/371/1 168/370/1 171/373/1

usemtl Dirty_Wall
vt -0.509946 0.442842
vt -0.555406 0.455579
vt -0.555406 0.442842
f 168/374/2 61/375/2 171/376/2

vt -0.509946 0.455579
f 61/375/2 168/374/2 62/377/2

f 61/18/9 170/17/9 171/20/9

v 131479 1674.86 -56206.7
f 170/17/9 61/18/9 172/19/9

v 131889 1674.86 -56206.7
vt -0.592834 0.159548
vt -0.555406 0.159548
f 61/141/6 173/378/6 172/379/6

f 173/378/6 61/141/6 60/140/6

v 131889 2172.86 -56085.7
f 174/9/14 173/10/14 60/11/14

v 131889 1674.86 -56085.7
f 173/10/14 174/9/14 175/12/14

usemtl Color_I03
vt -255.678 79.2799
v 132387 1674.86 -56085.7
vt -275.284 59.6736
vt -255.678 59.6736
f 174/380/1 176/381/1 175/382/1

v 132387 2172.86 -56085.7
vt -275.284 79.2799
f 176/381/1 174/380/1 177/383/1

usemtl Dirty_Wall
vt -0.592834 0.442842
vt -0.638294 0.455579
vt -0.638294 0.442842
f 174/384/2 59/385/2 177/386/2

vt -0.592834 0.455579
f 59/385/2 174/384/2 60/387/2

f 59/18/9 176/17/9 177/20/9

v 132387 1674.86 -56206.7
f 176/17/9 59/18/9 178/19/9

vt -0.674261 0.159548
vt -0.638294 0.159548
f 59/139/6 7/388/6 178/389/6

f 7/388/6 59/139/6 6/138/6

f 8/22/6 178/389/6 7/388/6

f 8/22/6 173/378/6 178/389/6

f 8/22/6 172/379/6 173/378/6

f 8/22/6 11/25/6 172/379/6

vt 0.509946 0.455579
vt 0.555406 0.442842
vt 0.555406 0.455579
f 11/390/4 170/391/4 172/392/4

vt 0.509946 0.442842
f 170/391/4 11/390/4 169/393/4

vt 0.592834 0.455579
vt 0.638294 0.442842
vt 0.638294 0.455579
f 173/394/4 176/395/4 178/396/4

vt 0.592834 0.442842
f 176/395/4 173/394/4 175/397/4

vt 0.0332282 0
f 30/398/15 42/100/15 29/99/15

vt 0.739328 0
f 42/100/15 30/398/15 41/399/15

f 37/77/9 30/54/9 31/55/9

vt 0.0332282 0.0142105
f 31/400/15 40/81/15 37/398/15

v 125395 294.152 -53530.8
f 40/81/15 31/400/15 179/79/15

vt 0.0332282 0.173909
f 31/401/4 38/84/4 179/83/4

vt 0.0332282 0.325488
f 38/84/4 31/401/4 25/402/4

f 38/49/9 40/77/9 179/55/9

f 40/77/9 38/49/9 39/46/9

