<?xml version="1.0" encoding="utf-8"?>
<COLLADA xmlns="http://www.collada.org/2005/11/COLLADASchema" version="1.4.1" xmlns:xsi="http://www.w3.org/2001/XMLSchema-instance">
  <asset>
    <contributor>
      <author>Blender User</author>
      <authoring_tool>Blender 3.3.1 commit date:2022-10-04, commit time:18:35, hash:b292cfe5a936</authoring_tool>
    </contributor>
    <created>2022-12-16T15:53:47</created>
    <modified>2022-12-16T15:53:47</modified>
    <unit name="meter" meter="1"/>
    <up_axis>Z_UP</up_axis>
  </asset>
  <library_effects>
    <effect id="FrontColor_002-effect">
      <profile_COMMON>
        <technique sid="common">
          <lambert>
            <emission>
              <color sid="emission">0 0 0 1</color>
            </emission>
            <diffuse>
              <color sid="diffuse">1 1 1 1</color>
            </diffuse>
            <index_of_refraction>
              <float sid="ior">1.45</float>
            </index_of_refraction>
          </lambert>
        </technique>
      </profile_COMMON>
    </effect>
    <effect id="map_gach_lat_via_he_terrazzo_002-effect">
      <profile_COMMON>
        <newparam sid="map_gach_lat_via_he_terrazzo_jpg-surface">
          <surface type="2D">
            <init_from>map_gach_lat_via_he_terrazzo_jpg</init_from>
          </surface>
        </newparam>
        <newparam sid="map_gach_lat_via_he_terrazzo_jpg-sampler">
          <sampler2D>
            <source>map_gach_lat_via_he_terrazzo_jpg-surface</source>
          </sampler2D>
        </newparam>
        <technique sid="common">
          <lambert>
            <emission>
              <color sid="emission">0 0 0 1</color>
            </emission>
            <diffuse>
              <texture texture="map_gach_lat_via_he_terrazzo_jpg-sampler" texcoord="UVMap"/>
            </diffuse>
            <index_of_refraction>
              <float sid="ior">1.45</float>
            </index_of_refraction>
          </lambert>
        </technique>
      </profile_COMMON>
    </effect>
    <effect id="t_i_xu_ng__2__002-effect">
      <profile_COMMON>
        <newparam sid="t_i_xu_ng__2__jpg-surface">
          <surface type="2D">
            <init_from>t_i_xu_ng__2__jpg</init_from>
          </surface>
        </newparam>
        <newparam sid="t_i_xu_ng__2__jpg-sampler">
          <sampler2D>
            <source>t_i_xu_ng__2__jpg-surface</source>
          </sampler2D>
        </newparam>
        <technique sid="common">
          <lambert>
            <emission>
              <color sid="emission">0 0 0 1</color>
            </emission>
            <diffuse>
              <texture texture="t_i_xu_ng__2__jpg-sampler" texcoord="UVMap"/>
            </diffuse>
            <index_of_refraction>
              <float sid="ior">1.45</float>
            </index_of_refraction>
          </lambert>
        </technique>
      </profile_COMMON>
    </effect>
    <effect id="t_i_xu_ng__1__002-effect">
      <profile_COMMON>
        <newparam sid="t_i_xu_ng__1__jpg-surface">
          <surface type="2D">
            <init_from>t_i_xu_ng__1__jpg</init_from>
          </surface>
        </newparam>
        <newparam sid="t_i_xu_ng__1__jpg-sampler">
          <sampler2D>
            <source>t_i_xu_ng__1__jpg-surface</source>
          </sampler2D>
        </newparam>
        <technique sid="common">
          <lambert>
            <emission>
              <color sid="emission">0 0 0 1</color>
            </emission>
            <diffuse>
              <texture texture="t_i_xu_ng__1__jpg-sampler" texcoord="UVMap"/>
            </diffuse>
            <index_of_refraction>
              <float sid="ior">1.45</float>
            </index_of_refraction>
          </lambert>
        </technique>
      </profile_COMMON>
    </effect>
    <effect id="Color_M00_002-effect">
      <profile_COMMON>
        <technique sid="common">
          <lambert>
            <emission>
              <color sid="emission">0 0 0 1</color>
            </emission>
            <diffuse>
              <color sid="diffuse">1 1 1 1</color>
            </diffuse>
            <index_of_refraction>
              <float sid="ior">1.45</float>
            </index_of_refraction>
          </lambert>
        </technique>
      </profile_COMMON>
    </effect>
    <effect id="Color_M02_002-effect">
      <profile_COMMON>
        <technique sid="common">
          <lambert>
            <emission>
              <color sid="emission">0 0 0 1</color>
            </emission>
            <diffuse>
              <color sid="diffuse">0.776471 0.776471 0.776471 1</color>
            </diffuse>
            <index_of_refraction>
              <float sid="ior">1.45</float>
            </index_of_refraction>
          </lambert>
        </technique>
      </profile_COMMON>
    </effect>
    <effect id="mapbetong_mocphat_04_280x280_002-effect">
      <profile_COMMON>
        <newparam sid="mapbetong_mocphat_04_280x280_jpg-surface">
          <surface type="2D">
            <init_from>mapbetong_mocphat_04_280x280_jpg</init_from>
          </surface>
        </newparam>
        <newparam sid="mapbetong_mocphat_04_280x280_jpg-sampler">
          <sampler2D>
            <source>mapbetong_mocphat_04_280x280_jpg-surface</source>
          </sampler2D>
        </newparam>
        <technique sid="common">
          <lambert>
            <emission>
              <color sid="emission">0 0 0 1</color>
            </emission>
            <diffuse>
              <texture texture="mapbetong_mocphat_04_280x280_jpg-sampler" texcoord="UVMap"/>
            </diffuse>
            <index_of_refraction>
              <float sid="ior">1.45</float>
            </index_of_refraction>
          </lambert>
        </technique>
      </profile_COMMON>
    </effect>
  </library_effects>
  <library_images>
    <image id="map_gach_lat_via_he_terrazzo_jpg" name="map_gach_lat_via_he_terrazzo_jpg">
      <init_from>map_gach_lat_via_he_terrazzo.jpg</init_from>
    </image>
    <image id="mapbetong_mocphat_04_280x280_jpg" name="mapbetong_mocphat_04_280x280_jpg">
      <init_from>mapbetong_mocphat_04_280x280.jpg</init_from>
    </image>
    <image id="t_i_xu_ng__1__jpg" name="t_i_xu_ng__1__jpg">
      <init_from>t_i_xu_ng__1_.jpg</init_from>
    </image>
    <image id="t_i_xu_ng__2__jpg" name="t_i_xu_ng__2__jpg">
      <init_from>t_i_xu_ng__2_.jpg</init_from>
    </image>
  </library_images>
  <library_materials>
    <material id="FrontColor_002-material" name="FrontColor.002">
      <instance_effect url="#FrontColor_002-effect"/>
    </material>
    <material id="map_gach_lat_via_he_terrazzo_002-material" name="map_gach_lat_via_he_terrazzo.002">
      <instance_effect url="#map_gach_lat_via_he_terrazzo_002-effect"/>
    </material>
    <material id="t_i_xu_ng__2__002-material" name="t_i_xu_ng__2_.002">
      <instance_effect url="#t_i_xu_ng__2__002-effect"/>
    </material>
    <material id="t_i_xu_ng__1__002-material" name="t_i_xu_ng__1_.002">
      <instance_effect url="#t_i_xu_ng__1__002-effect"/>
    </material>
    <material id="Color_M00_002-material" name="Color_M00.002">
      <instance_effect url="#Color_M00_002-effect"/>
    </material>
    <material id="Color_M02_002-material" name="Color_M02.002">
      <instance_effect url="#Color_M02_002-effect"/>
    </material>
    <material id="mapbetong_mocphat_04_280x280_002-material" name="mapbetong_mocphat_04_280x280.002">
      <instance_effect url="#mapbetong_mocphat_04_280x280_002-effect"/>
    </material>
  </library_materials>
  <library_geometries>
    <geometry id="Sân_trường_002-mesh" name="Sân trường.002">
      <mesh>
        <source id="Sân_trường_002-mesh-positions">
          <float_array id="Sân_trường_002-mesh-positions-array" count="375">49489.2 500 -11459 75266 500 -11459 75266 500 -7825.29 49489.2 500 -7825.29 49489.2 1147 -11459 75266 1147 -11459 49489.2 1147 -7825.29 75266 1147 -7825.29 4621 500 -11459 38857.8 500 -11459 38857.8 500 -7825.29 4621 500 -7825.29 4621 1147 -11459 38857.8 1147 -11459 4621 1147 -7825.29 38857.8 1147 -7825.29 4621 0 -131024 75403 0 -131024 75403 0 0 4621 0 0 4621 500 -131024 75403 500 -131024 4621 500 -11468.6 46074.8 500 -11468.6 46074.8 500 -25681.6 46074.8 500 -39544.9 46114.8 500 -39544.9 46114.8 500 -45336.5 46114.8 500 -53179.5 46114.8 500 -85851.3 75403 500 -85851.3 75403 961 0 75403 500 -11468.6 4621 961 0 75403 1730 -39544.9 75403 604 -39544.9 75403 604 -11468.6 75403 1730 -85851.3 46114.8 2405 -39544.9 46114.8 1144 -39544.9 46186.7 1144 -39544.9 46186.7 896 -39544.9 50339.8 896 -39544.9 50339.8 604 -39544.9 46334.8 1730 -39544.9 46334.8 2405 -39544.9 46114.8 2405 -45336.5 46114.8 604 -39544.9 48990.8 2405 -45336.5 48990.8 2061 -45336.5 48990.8 500 -45336.5 46334.8 2405 -39764.9 46334.8 2405 -45163.5 48990.8 2405 -45163.5 46334.8 1730 -39764.9 75183 1730 -39764.9 75183 1730 -85851.3 75183 1730 -85551.6 46334.8 1730 -85551.6 46334.8 1730 -80817.3 46334.8 1730 -79281 47594.8 1730 -79281 47594.8 1730 -74473 48990.8 1730 -74473 48990.8 1730 -53399.5 49210.8 1730 -53399.5 49210.8 1730 -45163.5 48990.8 1730 -45163.5 46334.8 1730 -45163.5 75183 2561 -85551.6 46334.8 2561 -85551.6 75183 2561 -85851.3 46114.8 2561 -85851.3 46334.8 2561 -85851.3 46114.8 2561 -53179.5 46114.8 2561 -74473 46114.8 2061 -74473 46114.8 502 -74473 46114.8 502 -79281 46114.8 2561 -79281 48990.8 500 -53179.5 48990.8 2061 -53179.5 48990.8 2561 -53179.5 48990.8 2061 -45163.5 49210.8 2061 -45163.5 49210.8 2061 -53399.5 48990.8 2061 -53399.5 48990.8 2061 -74473 48990.8 2561 -74473 48990.8 2561 -53399.5 47594.8 502 -74473 46463.2 2561 -74124.6 46463.2 2561 -53527.9 48642.3 2561 -53527.9 48642.3 2561 -74124.6 46463.2 1689 -74124.6 48642.3 1689 -74124.6 46463.2 1689 -53527.9 48642.3 1689 -53527.9 47594.8 502 -79281 46334.8 502 -79281 46334.8 2561 -79281 46334.8 2561 -80817.3 46074.8 604 -39544.9 46074.8 1144 -27211.9 46074.8 1144 -39544.9 46074.8 604 -27216.2 46074.8 896 -27762.9 46074.8 896 -27211.9 46186.7 1144 -27211.9 46186.7 896 -27211.9 46186.7 896 -27762.9 46348.8 604 -27216.2 46348.8 896 -27762.9 67965 604 -25681.6 67965 604 -11468.6 50339.8 604 -27216.2 50339.8 896 -27216.2 46348.8 896 -27216.2 45407.7 502 -74473 47594.8 1730 -79281 45407.7 502 -79281 47594.8 502 -79281 48990.8 500 -45163.5 46114.8 500 -45163.5</float_array>
          <technique_common>
            <accessor source="#Sân_trường_002-mesh-positions-array" count="125" stride="3">
              <param name="X" type="float"/>
              <param name="Y" type="float"/>
              <param name="Z" type="float"/>
            </accessor>
          </technique_common>
        </source>
        <source id="Sân_trường_002-mesh-normals">
          <float_array id="Sân_trường_002-mesh-normals-array" count="87">0 -1 0 0 0 -1 -1 0 0 0 0 1 1 0 0 0 1 0 0 -1 0 0 0.9991932 -0.04016423 -4.77711e-5 1 0 4.77711e-5 1 0 0 0.8820649 0.4711279 -0.004740059 0.9977003 0.06761425 -0.004750907 0.9999888 0 -0.4895813 0.8719577 0 -0.4770312 0.8788864 0 0 -1 0 0 0 -1 0 0.9991931 -0.04016429 0 0.9991932 -0.04016423 1 -1.56307e-5 0 1.08905e-4 0 1 -1.46018e-6 0 -1 -1 4.18494e-5 0 -1 -3.55558e-5 0 0 0.8820706 0.4711173 0 0.8820672 0.4711236 -0.004750907 0.9999887 0 5.1513e-5 0 -1 1 -1.56935e-5 0</float_array>
          <technique_common>
            <accessor source="#Sân_trường_002-mesh-normals-array" count="29" stride="3">
              <param name="X" type="float"/>
              <param name="Y" type="float"/>
              <param name="Z" type="float"/>
            </accessor>
          </technique_common>
        </source>
        <source id="Sân_trường_002-mesh-map-0">
          <float_array id="Sân_trường_002-mesh-map-0-array" count="1470">-1347.9 250.382 -333.071 107.323 -333.071 250.382 -333.071 0 -1347.9 25.4724 -1347.9 0 -107.323 0 -250.382 25.4724 -250.382 0 1347.9 0 333.071 25.4724 333.071 0 250.382 0 107.323 25.4724 107.323 0 0.865901 7.5665 17.0194 5.28937 17.0194 7.5665 -1347.9 250.382 0 107.323 0 250.382 0 0 -1347.9 25.4724 -1347.9 0 -107.323 0 -250.382 25.4724 -250.382 0 1347.9 0 0 25.4724 0 0 250.382 0 107.323 25.4724 107.323 0 -18.0794 7.11574 -2.72659 5.48628 -2.72659 7.11574 -2514.49 4707.28 272.205 -451.142 272.205 4707.28 -2514.49 0 272.205 -19.685 272.205 0 4.1293 4.04298 4.13408 4.87668 -0.826583 17.2114 -0.263585 -2.44335 4.83152 -2.44335 4.83152 -0.562348 1105.75 4.09449 -451.142 -19.685 2928.83 0 1527.75 15.5906 1527.75 4.09449 2514.49 4.09449 -4.05012 0 -3.35773 0.01497077 -3.35773 0.09270399 -4.13408 0.274225 -4.47791 0.274225 -4.47791 0.224707 1474.64 1333.76 1361.41 1333.76 1370.07 1326.95 1114.41 48.4252 1105.75 75 1105.75 48.4252 2505.83 1114.41 1370.07 1105.75 2514.49 1105.75 16.3526 29.7753 1.48054 7.60732 1.48054 1.9288 2505.83 48.4252 1370.07 81.1417 1370.07 48.4252 16.3526 29.982 16.3526 29.7753 16.3526 29.7753 -4.13408 0 -4.16038 0.296682 -7.60925 0.1770589 -8.89376 0 -4.98777 0 -7.53345 2.87901e-4 4.47791 0.224707 4.13408 0.296682 4.13408 0 -1642.54 61.4567 -1333.76 0 -1333.76 61.4567 1483.3 1326.95 1483.3 1651.2 1474.64 1642.54 1333.76 61.4567 1326.95 75 1326.95 61.4567 1370.07 48.4252 1474.64 48.4252 1474.64 61.4567 1114.41 48.4252 1326.95 75 1114.41 75 1.35457 1.9288 1.48054 1.9288 1.48054 1.9288 1.48054 1.9288 1.48054 7.60732 1.48054 7.60732 1.48054 7.60732 1.35457 7.60732 1.35457 7.60732 2480.87 61.4567 2480.87 81.1417 1651.2 81.1417 -0.29227 22.137 0.555201 22.137 -0.29227 22.137 -1474.64 81.1417 -1361.41 61.4567 -1361.41 81.1417 1361.41 2480.87 1375.12 2467.15 1474.64 2480.87 1375.12 2467.15 1361.41 2480.87 1375.12 1656.26 1361.41 1642.54 1375.12 1656.26 1361.41 2480.87 1375.12 1656.26 1361.41 1642.54 1474.64 1642.54 1375.12 1656.26 1474.64 1642.54 1460.92 1656.26 1460.92 1656.26 1474.64 1642.54 1474.64 2480.87 1474.64 2480.87 1474.64 1642.54 1474.64 1651.2 1651.2 61.4567 1642.54 81.1417 1642.54 61.4567 1474.64 2480.87 1460.92 2467.15 1460.92 1656.26 1474.64 2480.87 1375.12 2467.15 1460.92 2467.15 1375.12 81.1417 1460.92 46.811 1460.92 81.1417 1656.26 81.1417 2467.15 46.811 2467.15 81.1417 -1460.92 81.1417 -1375.12 46.811 -1375.12 81.1417 -2467.15 81.1417 -1656.26 46.811 -1656.26 81.1417 1375.12 1656.26 1460.92 2467.15 1375.12 2467.15 0.555201 22.137 0.555201 25.452 0.555201 22.137 0.555201 25.452 -0.166294 25.452 0.555201 25.452 1361.41 0.07874017 1370.07 0.07874017 1370.07 48.4252 1361.41 2670.16 1370.07 2670.16 1370.07 2730.64 2670.16 48.4252 2730.64 81.1417 2670.16 81.1417 2917.03 81.1417 2730.64 48.4252 2917.03 48.4252 1370.07 2917.03 2505.83 2928.83 1370.07 2928.83 0.555201 22.137 0.555201 25.452 -0.166294 25.452 1361.41 1333.76 1474.64 1642.54 1361.41 1642.54 -1361.41 0 -1359.83 4.09449 -1361.41 4.09449 -1.94916 0.05700439 -3.35773 0.09270399 -3.35773 0.01497077 -1.27203 -3.14946 -1.27203 -3.89552 -1.26768 -3.89552 -1.26526 -3.18279 -1.27203 -3.18219 -1.26526 -3.18219 -1.27203 -3.18279 -1.26526 -3.14946 -1.26526 -3.18279 1370.62 549.129 1370.62 573.53 1364.24 573.53 6.74632 2.04734 7.63555 0.001382529 7.63555 4.04298 4.00028 2.38454 6.61089 2.60542 3.98745 2.60542 -0.001148164 8.123101 -1.70034 4.97195 -0.001148164 4.97195 2514.49 0 2221.65 4.09449 1359.83 0 -1.52347 -3.89552 -1.52347 -3.14901 -1.52347 -3.14972 -1.26768 -3.53332 -1.27203 -3.53332 -1.27203 -3.53392 -1.26526 -3.53332 -1.26768 -3.53463 -1.26526 -3.53463 -1.27863 -3.14978 -1.27863 -3.15039 -1.27863 -3.18372 4.16205 2.34695 4.16205 2.26825 4.63919 2.26825 -641.885 15.5906 -620.361 4.09449 -620.361 15.5906 -1.28185 -3.14972 -1.52347 -3.14901 -1.28185 -3.14901 2514.49 18.1496 -272.205 -19.685 2514.49 -19.685 -0.37812 0 -4707.28 -19.685 451.142 -19.685 0.555201 22.137 -0.697163 25.452 -0.697164 22.137 1787.7 19.7638 1873.81 19.7638 1873.81 68.1102 -1787.7 2932.01 -1873.81 3121.3 -1873.81 2932.01 -1873.81 19.7638 -1787.7 19.7638 -1873.81 68.1102 3121.3 19.7638 2932.01 68.1102 2932.01 19.7638 -1928.77 2093.68 -1815.54 1778.09 -1815.54 2093.68 -1928.77 81.1417 -1928.77 19.685 -1815.54 19.685 2093.68 81.1417 1778.09 19.685 2093.68 19.685 -0.292273 7.45563 1.35457 1.9288 1.35457 7.45563 1928.77 19.685 1928.77 81.1417 1815.54 19.685 -1347.9 250.382 -1347.9 107.323 -333.071 107.323 -333.071 0 -333.071 25.4724 -1347.9 25.4724 -107.323 0 -107.323 25.4724 -250.382 25.4724 1347.9 0 1347.9 25.4724 333.071 25.4724 250.382 0 250.382 25.4724 107.323 25.4724 0.865901 7.5665 0.865901 5.28937 17.0194 5.28937 -1347.9 250.382 -1347.9 107.323 0 107.323 0 0 0 25.4724 -1347.9 25.4724 -107.323 0 -107.323 25.4724 -250.382 25.4724 1347.9 0 1347.9 25.4724 0 25.4724 250.382 0 250.382 25.4724 107.323 25.4724 -18.0794 7.11574 -18.0794 5.48628 -2.72659 5.48628 -2514.49 4707.28 -2514.49 -451.142 272.205 -451.142 -2514.49 0 -2514.49 -19.685 272.205 -19.685 -0.826583 17.2114 -0.826583 0.001382529 4.1293 0.001382529 4.1293 0.001382529 4.1293 2.04734 -0.826583 17.2114 4.1293 2.04734 4.1293 4.04298 -0.826583 17.2114 7.63555 10.7088 7.63555 17.2114 4.13408 10.7088 7.63555 17.2114 -0.826583 17.2114 4.13408 10.7088 4.13408 4.87668 4.13408 6.00568 -0.826583 17.2114 4.13408 6.00568 4.13408 10.7088 -0.826583 17.2114 4.1293 4.04298 4.13408 4.04298 4.13408 4.87668 4.83152 -0.562348 -3.86834 -0.562348 -0.263585 -2.44335 -3.86834 -0.562348 -3.86834 -2.44335 -0.263585 -2.44335 2928.83 48.4252 1105.75 48.4252 1105.75 4.09449 1105.75 4.09449 0.37812 4.09449 0.37812 0 0.37812 0 -451.142 18.1496 -451.142 -19.685 -451.142 -19.685 4707.28 -19.685 2928.83 0 4707.28 -19.685 4707.28 0 2928.83 0 2928.83 0 2928.83 48.4252 1105.75 4.09449 1105.75 4.09449 0.37812 0 -451.142 -19.685 1370.07 75 1361.41 75 1370.07 48.4252 1361.41 75 1361.41 25.3543 1370.07 48.4252 1364.24 25.3543 1364.24 15.5906 1370.07 48.4252 1364.24 15.5906 1527.75 15.5906 1370.07 48.4252 1361.41 25.3543 1364.24 25.3543 1370.07 48.4252 2514.49 4.09449 2514.49 48.4252 1527.75 15.5906 2514.49 48.4252 1370.07 48.4252 1527.75 15.5906 -3.35773 0.274225 -4.05012 0.274225 -3.35773 0.09270399 -4.05012 0.274225 -4.05012 0 -3.35773 0.09270399 -4.05012 0 -3.35773 0 -3.35773 0.01497077 -4.47791 0 -4.13408 0 -4.47791 0.224707 -4.13408 0 -4.13408 0.274225 -4.47791 0.224707 1361.41 1333.76 1361.41 1105.75 1370.07 1114.41 1361.41 1105.75 1370.07 1105.75 1370.07 1114.41 1370.07 1114.41 1370.07 1326.95 1361.41 1333.76 1474.64 1326.95 1474.64 1333.76 1370.07 1326.95 1114.41 48.4252 1114.41 75 1105.75 75 2505.83 1114.41 1370.07 1114.41 1370.07 1105.75 2514.49 1105.75 2514.49 2928.83 2505.83 2917.03 2514.49 2928.83 2505.83 2928.83 2505.83 2917.03 2505.83 2917.03 2505.83 1114.41 2514.49 1105.75 -0.166299 -1.79338 16.3526 -1.79331 1.48054 1.9288 16.3526 -1.79331 16.3526 29.7753 1.48054 1.9288 16.3526 29.7753 -0.166293 29.7754 0.555201 25.452 -0.166293 29.7754 -0.166294 26.5113 0.555201 25.452 -0.166294 26.5113 -0.166294 25.452 0.555201 25.452 0.555201 25.452 0.555201 22.137 1.35457 22.137 1.35457 22.137 1.35457 7.60732 1.48054 7.60732 1.48054 1.9288 1.35457 1.9288 -0.166299 -1.79338 1.35457 1.9288 -0.166299 1.92879 -0.166299 -1.79338 16.3526 29.7753 0.555201 25.452 1.35457 22.137 16.3526 29.7753 1.35457 22.137 1.48054 7.60732 2505.83 48.4252 2505.83 81.1417 1370.07 81.1417 16.3526 29.982 16.3526 29.982 16.3526 29.7753 -7.63555 0.1770589 -7.63555 0 -7.60925 0.1770589 -7.63555 0 -4.13408 0 -7.60925 0.1770589 -4.13408 0 -4.13408 0.296682 -4.16038 0.296682 -4.16038 0.296682 -7.60925 0.296682 -7.60925 0.1770589 -4.98777 0 -4.98777 0.296682 -7.53345 0.296682 -7.53345 0.296682 -7.53345 0.224707 -4.98777 0 -7.53345 0.224707 -7.53345 2.87901e-4 -4.98777 0 -8.10825 0.296682 -8.89376 0.296682 -8.10825 2.87901e-4 -8.89376 0.296682 -8.89376 0 -8.10825 2.87901e-4 -7.53345 2.87901e-4 -8.10825 2.87901e-4 -8.89376 0 4.47791 0.224707 4.47791 0.296682 4.13408 0.296682 -1642.54 61.4567 -1642.54 0 -1333.76 0 1474.64 1651.2 1474.64 1642.54 1483.3 1651.2 1474.64 1642.54 1474.64 1333.76 1483.3 1326.95 1474.64 1333.76 1474.64 1326.95 1483.3 1326.95 1333.76 61.4567 1333.76 75 1326.95 75 1474.64 75 1370.07 75 1474.64 61.4567 1370.07 75 1370.07 48.4252 1474.64 61.4567 1114.41 48.4252 1326.95 48.4252 1326.95 75 1.35457 1.9288 1.35457 1.9288 1.48054 1.9288 1.48054 1.9288 1.48054 1.9288 1.48054 7.60732 1.48054 7.60732 1.48054 7.60732 1.35457 7.60732 1651.2 81.1417 1651.2 61.4567 2480.87 61.4567 1651.2 61.4567 1651.2 48.4252 2480.87 61.4567 1651.2 48.4252 2480.87 48.4252 2480.87 61.4567 -0.29227 22.137 1.35457 22.137 0.555201 22.137 1.35457 22.137 1.35457 22.137 0.555201 22.137 0.555201 22.137 0.555201 22.137 -0.29227 22.137 -1474.64 81.1417 -1474.64 61.4567 -1361.41 61.4567 1651.2 61.4567 1651.2 81.1417 1642.54 81.1417 1375.12 81.1417 1375.12 46.811 1460.92 46.811 1656.26 81.1417 1656.26 46.811 2467.15 46.811 -1460.92 81.1417 -1460.92 46.811 -1375.12 46.811 -2467.15 81.1417 -2467.15 46.811 -1656.26 46.811 1375.12 1656.26 1460.92 1656.26 1460.92 2467.15 0.555201 22.137 0.555201 25.452 0.555201 25.452 0.555201 25.452 -0.166294 25.452 -0.166294 25.452 1370.07 48.4252 1370.07 81.1417 1361.41 81.1417 1361.41 81.1417 1361.41 0.07874017 1370.07 48.4252 1370.07 2928.83 1361.41 2928.83 1370.07 2917.03 1361.41 2928.83 1361.41 2670.16 1370.07 2730.64 1370.07 2917.03 1361.41 2928.83 1370.07 2730.64 2670.16 48.4252 2730.64 48.4252 2730.64 81.1417 2917.03 81.1417 2730.64 81.1417 2730.64 48.4252 1370.07 2917.03 2505.83 2917.03 2505.83 2928.83 -0.166294 25.452 -0.292269 25.452 -0.29227 22.137 -0.29227 22.137 0.555201 22.137 -0.166294 25.452 1361.41 1333.76 1474.64 1333.76 1474.64 1642.54 -1361.41 0 -1359.83 0 -1359.83 4.09449 -1.88329 0.05700439 -1.88329 0.09270399 -1.94916 0.05700439 -1.88329 0.09270399 -3.35773 0.09270399 -1.94916 0.05700439 -3.35773 0.01497077 -3.35773 0 -1.8838 0.01497077 -3.35773 0 -1.70034 0 -1.8838 0.01497077 -1.8838 0.01497077 -1.94916 0.05700439 -3.35773 0.01497077 -1.26768 -3.89552 -1.26526 -3.89552 -1.26526 -3.14946 -1.26526 -3.14946 -1.27203 -3.14946 -1.26768 -3.89552 -1.26526 -3.18279 -1.27203 -3.18279 -1.27203 -3.18219 -1.27203 -3.18279 -1.27203 -3.14946 -1.26526 -3.14946 1364.24 573.53 1359.83 573.53 1359.83 549.129 1359.83 549.129 1370.62 549.129 1364.24 573.53 4.16205 2.26825 4.1293 2.26825 6.74632 2.04734 6.74632 2.04734 6.74632 0.001382529 7.63555 0.001382529 7.63555 4.04298 4.63919 4.04298 6.74632 2.04734 4.63919 4.04298 4.63919 2.26825 6.74632 2.04734 4.63919 2.26825 4.16205 2.26825 6.74632 2.04734 -0.001148164 8.123101 -1.70034 8.123101 -1.70034 4.97195 2514.49 0 2514.49 4.09449 2221.65 4.09449 -1.52347 -3.89552 -1.52347 -3.89481 -1.52347 -3.14901 -1.52347 -3.53392 -1.52347 -3.53463 -1.27203 -3.53392 -1.52347 -3.53463 -1.26768 -3.53463 -1.27203 -3.53392 -1.26768 -3.53463 -1.26768 -3.53332 -1.27203 -3.53392 -1.26526 -3.53332 -1.26768 -3.53332 -1.26768 -3.53463 -1.27863 -3.89645 -1.27863 -3.89584 -1.27863 -3.18372 -1.27863 -3.89584 -1.27863 -3.14978 -1.27863 -3.18372 4.63919 2.26825 4.63919 4.04298 4.16205 2.34695 4.63919 4.04298 4.14268 4.04298 4.16205 2.34695 4.14268 4.04298 4.14268 2.34695 4.16205 2.34695 -1.28185 -3.14972 -1.52347 -3.14972 -1.52347 -3.14901 2514.49 18.1496 -272.205 18.1496 -272.205 -19.685 -0.37812 0 -4707.28 0 -4707.28 -19.685 451.142 -19.685 451.142 18.1496 -0.37812 0 0.555201 22.137 0.555201 25.452 -0.697163 25.452 -1787.7 2932.01 -1787.7 3121.3 -1873.81 3121.3 3121.3 19.7638 3121.3 68.1102 2932.01 68.1102 -1928.77 2093.68 -1928.77 1778.09 -1815.54 1778.09 2093.68 81.1417 1778.09 81.1417 1778.09 19.685 -0.292273 7.45563 -0.292274 1.92879 1.35457 1.9288</float_array>
          <technique_common>
            <accessor source="#Sân_trường_002-mesh-map-0-array" count="735" stride="2">
              <param name="S" type="float"/>
              <param name="T" type="float"/>
            </accessor>
          </technique_common>
        </source>
        <vertices id="Sân_trường_002-mesh-vertices">
          <input semantic="POSITION" source="#Sân_trường_002-mesh-positions"/>
        </vertices>
        <triangles material="FrontColor_002-material" count="80">
          <input semantic="VERTEX" source="#Sân_trường_002-mesh-vertices" offset="0"/>
          <input semantic="NORMAL" source="#Sân_trường_002-mesh-normals" offset="1"/>
          <input semantic="TEXCOORD" source="#Sân_trường_002-mesh-map-0" offset="2" set="0"/>
          <p>1 0 0 3 0 1 0 0 2 0 1 3 5 1 4 1 1 5 3 2 6 4 2 7 0 2 8 2 3 9 6 3 10 3 3 11 1 4 12 7 4 13 2 4 14 9 0 18 11 0 19 8 0 20 8 1 21 13 1 22 9 1 23 11 2 24 12 2 25 8 2 26 10 3 27 14 3 28 11 3 29 9 4 30 15 4 31 10 4 32 17 6 36 19 6 37 16 6 38 21 1 39 16 1 40 20 1 41 35 4 48 18 4 49 30 4 50 54 4 63 45 4 64 44 4 65 81 2 87 50 2 88 49 2 89 49 4 93 53 4 94 83 4 95 54 4 99 52 4 100 51 4 101 87 4 111 88 4 112 89 4 113 88 1 117 76 1 118 75 1 119 86 4 141 82 4 142 81 4 143 92 4 153 95 4 154 91 4 155 93 1 156 97 1 157 92 1 158 60 4 177 102 4 178 101 4 179 70 4 180 59 4 181 58 4 182 27 5 189 80 5 190 28 5 191 26 1 192 103 1 193 47 1 194 32 3 219 115 3 220 23 3 221 113 2 237 112 2 238 118 2 239 31 3 243 19 3 244 18 3 245 22 2 246 16 2 247 19 2 248 119 3 252 90 3 253 62 3 254 119 0 255 122 0 256 90 0 257 122 1 258 121 1 259 120 1 260 122 4 261 62 4 262 90 4 263 80 0 264 124 0 265 28 0 266 81 1 267 80 1 268 28 1 269 81 4 270 123 4 271 80 4 272 123 3 276 83 3 277 124 3 278 1 0 279 2 0 280 3 0 281 0 1 282 4 1 283 5 1 284 3 2 285 6 2 286 4 2 287 2 3 288 7 3 289 6 3 290 1 4 291 5 4 292 7 4 293 9 0 297 10 0 298 11 0 299 8 1 300 12 1 301 13 1 302 11 2 303 14 2 304 12 2 305 10 3 306 15 3 307 14 3 308 9 4 309 13 4 310 15 4 311 17 15 315 18 15 316 19 15 317 21 16 318 17 16 319 16 16 320 37 4 351 34 4 352 35 4 353 35 4 354 36 4 355 32 4 356 32 4 357 31 4 358 18 4 359 18 19 360 17 19 361 30 19 362 17 4 363 21 4 364 30 4 365 30 4 366 37 4 367 35 4 368 35 4 369 32 4 370 18 4 371 54 4 420 51 4 421 45 4 422 81 2 507 80 2 508 50 2 509 49 4 519 48 4 520 53 4 521 54 4 528 68 4 529 52 4 530 89 4 540 86 4 541 87 4 542 86 4 543 64 4 544 87 4 545 64 4 546 63 4 547 87 4 548 88 1 558 87 1 559 76 1 560 86 4 561 89 4 562 82 4 563 92 4 567 97 4 568 95 4 569 93 1 570 98 1 571 97 1 572 60 4 600 59 4 601 102 4 602 70 4 603 102 4 604 59 4 605 27 5 615 50 5 616 80 5 617 26 1 618 25 1 619 103 1 620 32 3 672 36 3 673 115 3 674 31 3 708 33 3 709 19 3 710 22 2 711 20 2 712 16 2 713 19 2 714 33 2 715 22 2 716 119 0 720 121 0 721 122 0 722 122 4 723 120 4 724 62 4 725 80 0 726 123 0 727 124 0 728 81 4 729 83 4 730 123 4 731</p>
        </triangles>
        <triangles material="map_gach_lat_via_he_terrazzo_002-material" count="4">
          <input semantic="VERTEX" source="#Sân_trường_002-mesh-vertices" offset="0"/>
          <input semantic="NORMAL" source="#Sân_trường_002-mesh-normals" offset="1"/>
          <input semantic="TEXCOORD" source="#Sân_trường_002-mesh-map-0" offset="2" set="0"/>
          <p>4 5 15 7 5 16 5 5 17 12 5 33 15 5 34 13 5 35 4 5 294 6 5 295 7 5 296 12 5 312 14 5 313 15 5 314</p>
        </triangles>
        <triangles material="t_i_xu_ng__2__002-material" count="84">
          <input semantic="VERTEX" source="#Sân_trường_002-mesh-vertices" offset="0"/>
          <input semantic="NORMAL" source="#Sân_trường_002-mesh-normals" offset="1"/>
          <input semantic="TEXCOORD" source="#Sân_trường_002-mesh-map-0" offset="2" set="0"/>
          <p>25 5 42 27 5 43 20 5 44 27 2 54 47 2 55 39 2 56 46 1 57 48 1 58 49 1 59 57 5 69 65 5 70 66 5 71 56 4 75 69 4 76 57 4 77 29 1 78 73 1 79 56 1 80 29 2 81 28 2 82 77 2 83 81 3 84 74 3 85 28 3 86 83 3 102 66 3 103 84 3 104 84 4 105 65 4 106 85 4 107 85 1 108 64 1 109 86 1 110 76 1 114 62 1 115 77 1 116 62 2 165 99 2 166 90 2 167 61 3 168 100 3 169 99 3 170 90 5 186 99 5 187 100 5 188 107 2 195 105 2 196 103 2 197 114 5 210 36 5 211 35 5 212 24 11 213 114 11 214 106 11 215 115 12 216 24 12 217 23 12 218 113 5 234 118 5 235 117 5 236 62 13 249 121 13 250 119 13 251 28 14 273 83 14 274 81 14 275 20 5 321 22 5 322 23 5 323 23 5 324 24 5 325 20 5 326 24 5 327 25 5 328 20 5 329 30 5 330 21 5 331 29 5 332 21 5 333 20 5 334 29 5 335 27 5 336 28 5 337 20 5 338 28 5 339 29 5 340 20 5 341 25 5 342 26 5 343 27 5 344 38 2 393 46 2 394 39 2 395 46 2 396 27 2 397 39 2 398 27 2 399 26 2 400 47 2 401 50 1 402 27 1 403 49 1 404 27 21 405 46 21 406 49 21 407 54 5 435 55 5 436 66 5 437 55 5 438 57 5 439 66 5 440 57 5 441 58 5 442 61 5 443 58 5 444 59 5 445 61 5 446 59 5 447 60 5 448 61 5 449 61 5 450 62 5 451 63 5 452 63 5 453 64 5 454 65 5 455 66 5 456 67 5 457 54 5 458 67 5 459 68 5 460 54 5 461 57 5 462 61 5 463 63 5 464 57 5 465 63 5 466 65 5 467 56 4 471 71 4 472 69 4 473 37 1 474 30 1 475 56 1 476 30 1 477 29 1 478 56 1 479 29 1 480 72 1 481 73 1 482 73 1 483 71 1 484 56 1 485 28 2 486 74 2 487 75 2 488 75 2 489 76 2 490 28 2 491 76 2 492 77 2 493 28 2 494 79 2 495 72 2 496 78 2 497 72 2 498 29 2 499 78 2 500 77 2 501 78 2 502 29 2 503 81 3 504 82 3 505 74 3 506 83 3 531 67 3 532 66 3 533 84 4 534 66 4 535 65 4 536 85 1 537 65 1 538 64 1 539 76 1 549 87 1 550 62 1 551 87 1 552 63 1 553 62 1 554 62 1 555 90 1 556 77 1 557 62 2 579 61 2 580 99 2 581 61 3 582 60 3 583 100 3 584 100 5 609 78 5 610 77 5 611 77 5 612 90 5 613 100 5 614 108 2 621 104 2 622 107 2 623 104 22 624 105 22 625 107 22 626 103 2 627 25 2 628 106 2 629 25 2 630 24 2 631 106 2 632 106 23 633 107 23 634 103 23 635 112 5 654 106 5 655 114 5 656 114 5 657 115 5 658 36 5 659 35 5 660 43 5 661 114 5 662 43 5 663 116 5 664 114 5 665 116 5 666 112 5 667 114 5 668 115 26 669 114 26 670 24 26 671 117 5 696 42 5 697 113 5 698 42 5 699 41 5 700 113 5 701 41 5 702 111 5 703 113 5 704 62 13 717 120 13 718 121 13 719 28 14 732 124 14 733 83 14 734</p>
        </triangles>
        <triangles material="t_i_xu_ng__1__002-material" count="3">
          <input semantic="VERTEX" source="#Sân_trường_002-mesh-vertices" offset="0"/>
          <input semantic="NORMAL" source="#Sân_trường_002-mesh-normals" offset="1"/>
          <input semantic="TEXCOORD" source="#Sân_trường_002-mesh-map-0" offset="2" set="0"/>
          <p>23 7 45 22 7 46 33 7 47 33 17 345 31 17 346 23 17 347 31 18 348 32 18 349 23 18 350</p>
        </triangles>
        <triangles material="Color_M00_002-material" count="52">
          <input semantic="VERTEX" source="#Sân_trường_002-mesh-vertices" offset="0"/>
          <input semantic="NORMAL" source="#Sân_trường_002-mesh-normals" offset="1"/>
          <input semantic="TEXCOORD" source="#Sân_trường_002-mesh-map-0" offset="2" set="0"/>
          <p>42 3 51 43 3 52 35 3 53 48 5 60 46 5 61 52 5 62 55 5 66 44 5 67 34 5 68 57 3 72 70 3 73 58 3 74 84 5 90 85 5 91 81 5 92 68 3 96 67 3 97 83 3 98 75 5 120 91 5 121 88 5 122 91 5 123 75 5 124 92 5 125 74 5 126 92 5 127 75 5 128 92 5 129 74 5 130 82 5 131 92 5 132 82 5 133 93 5 134 93 5 135 82 5 136 88 5 137 88 8 138 82 9 139 89 9 140 88 5 144 94 5 145 93 5 146 88 5 147 91 5 148 94 5 149 91 3 150 96 3 151 94 3 152 94 2 159 98 2 160 93 2 161 78 3 171 100 3 172 60 3 173 79 5 174 101 5 175 102 5 176 70 5 183 71 5 184 73 5 185 112 10 207 113 10 208 111 10 209 45 3 372 38 3 373 44 3 374 38 3 375 39 3 376 44 3 377 40 20 378 41 20 379 44 20 380 41 3 381 42 3 382 44 3 383 39 3 384 40 3 385 44 3 386 35 3 387 34 3 388 42 3 389 34 3 390 44 3 391 42 3 392 46 5 408 38 5 409 51 5 410 38 5 411 45 5 412 51 5 413 51 5 414 52 5 415 46 5 416 53 5 417 48 5 418 52 5 419 55 5 423 54 5 424 44 5 425 34 5 426 37 5 427 57 5 428 37 5 429 56 5 430 57 5 431 57 5 432 55 5 433 34 5 434 57 3 468 69 3 469 70 3 470 86 5 510 81 5 511 85 5 512 81 5 513 49 5 514 84 5 515 49 5 516 83 5 517 84 5 518 53 3 522 52 3 523 83 3 524 52 3 525 68 3 526 83 3 527 91 3 564 95 3 565 96 3 566 94 2 573 96 2 574 98 2 575 60 3 585 101 3 586 79 3 587 79 3 588 78 3 589 60 3 590 73 5 591 72 5 592 70 5 593 72 5 594 79 5 595 102 5 596 70 5 597 72 5 598 102 5 599 70 5 606 69 5 607 71 5 608 111 24 648 107 24 649 106 24 650 106 25 651 112 25 652 111 25 653</p>
        </triangles>
        <triangles material="Color_M02_002-material" count="2">
          <input semantic="VERTEX" source="#Sân_trường_002-mesh-vertices" offset="0"/>
          <input semantic="NORMAL" source="#Sân_trường_002-mesh-normals" offset="1"/>
          <input semantic="TEXCOORD" source="#Sân_trường_002-mesh-map-0" offset="2" set="0"/>
          <p>97 5 162 96 5 163 95 5 164 97 5 576 98 5 577 96 5 578</p>
        </triangles>
        <triangles material="mapbetong_mocphat_04_280x280_002-material" count="20">
          <input semantic="VERTEX" source="#Sân_trường_002-mesh-vertices" offset="0"/>
          <input semantic="NORMAL" source="#Sân_trường_002-mesh-normals" offset="1"/>
          <input semantic="TEXCOORD" source="#Sân_trường_002-mesh-map-0" offset="2" set="0"/>
          <p>109 5 198 40 5 199 39 5 200 108 3 201 109 3 202 104 3 203 111 0 204 108 0 205 107 0 206 43 4 222 117 4 223 116 4 224 39 1 225 40 1 226 41 1 227 105 1 228 47 1 229 103 1 230 109 4 231 110 4 232 111 4 233 112 3 240 117 3 241 118 3 242 39 5 636 105 5 637 104 5 638 104 5 639 109 5 640 39 5 641 108 3 642 110 3 643 109 3 644 111 0 645 110 0 646 108 0 647 43 4 675 42 4 676 117 4 677 42 1 678 43 1 679 41 1 680 43 1 681 47 1 682 41 1 683 47 27 684 39 27 685 41 27 686 105 1 687 39 1 688 47 1 689 41 4 690 40 4 691 111 4 692 40 28 693 109 28 694 111 28 695 112 3 705 116 3 706 117 3 707</p>
        </triangles>
      </mesh>
    </geometry>
  </library_geometries>
  <library_visual_scenes>
    <visual_scene id="Scene" name="Scene">
      <node id="Sân_trường" name="Sân trường" type="NODE">
        <matrix sid="transform">0.005 0 0 0 0 -8.14603e-10 -0.005 0 0 0.005 -8.14603e-10 0 0 0 0 1</matrix>
        <instance_geometry url="#Sân_trường_002-mesh" name="Sân trường">
          <bind_material>
            <technique_common>
              <instance_material symbol="FrontColor_002-material" target="#FrontColor_002-material">
                <bind_vertex_input semantic="UVMap" input_semantic="TEXCOORD" input_set="0"/>
              </instance_material>
              <instance_material symbol="map_gach_lat_via_he_terrazzo_002-material" target="#map_gach_lat_via_he_terrazzo_002-material">
                <bind_vertex_input semantic="UVMap" input_semantic="TEXCOORD" input_set="0"/>
              </instance_material>
              <instance_material symbol="t_i_xu_ng__2__002-material" target="#t_i_xu_ng__2__002-material">
                <bind_vertex_input semantic="UVMap" input_semantic="TEXCOORD" input_set="0"/>
              </instance_material>
              <instance_material symbol="t_i_xu_ng__1__002-material" target="#t_i_xu_ng__1__002-material">
                <bind_vertex_input semantic="UVMap" input_semantic="TEXCOORD" input_set="0"/>
              </instance_material>
              <instance_material symbol="Color_M00_002-material" target="#Color_M00_002-material">
                <bind_vertex_input semantic="UVMap" input_semantic="TEXCOORD" input_set="0"/>
              </instance_material>
              <instance_material symbol="Color_M02_002-material" target="#Color_M02_002-material">
                <bind_vertex_input semantic="UVMap" input_semantic="TEXCOORD" input_set="0"/>
              </instance_material>
              <instance_material symbol="mapbetong_mocphat_04_280x280_002-material" target="#mapbetong_mocphat_04_280x280_002-material">
                <bind_vertex_input semantic="UVMap" input_semantic="TEXCOORD" input_set="0"/>
              </instance_material>
            </technique_common>
          </bind_material>
        </instance_geometry>
      </node>
    </visual_scene>
  </library_visual_scenes>
  <scene>
    <instance_visual_scene url="#Scene"/>
  </scene>
</COLLADA>