# Alias OBJ Model File
# Exported from SketchUp, (c) 2000-2012 Trimble Navigation Limited
# File units = millimeters

mtllib Dat1.mtl

g Mesh1 Group2 Group1 Model

usemtl _auto_8
v 227265 159.152 -29189.3
vt 23.8192 0
vn 0 1 -0
v 2.31012e-11 159.152 -51948.6
vt 0 1.89661
v 2.31012e-11 159.152 -29189.3
vt 0 0
f 1/1/1 2/2/1 3/3/1

v 81236.6 159.152 -51948.6
vt 8.51425 1.89661
f 2/2/1 1/1/1 4/4/1

v 176745 159.152 -52004.8
vt 18.5243 1.90129
f 4/4/1 1/1/1 5/5/1

v 227265 159.152 -52031.9
vt 23.8192 1.90355
f 5/5/1 1/1/1 6/6/1

g Mesh2 Group3 Group1 Model

usemtl map_gach_lat_via_he_terrazzo
v 227265 159.152 -52018.4
vt 26.9328 0.0156424
v 0 159.152 -205319
vt 0 34.3881
v 0 159.152 -51948.6
vt 0 2.58982e-15
f 7/7/1 8/8/1 9/9/1

v 227265 159.152 -205319
vt 26.9328 34.3881
f 8/8/1 7/7/1 10/10/1

g Mesh3 Group4 Group1 Model

usemtl _auto_8
v 227265 159.152 -0
v 6.93035e-11 159.152 -22759.3
v 6.93035e-11 159.152 -0
f 11/1/1 12/2/1 13/3/1

v 81236.6 159.152 -22759.3
f 12/2/1 11/1/1 14/4/1

v 176745 159.152 -22815.4
f 14/4/1 11/1/1 15/5/1

v 227265 159.152 -22842.6
f 15/5/1 11/1/1 16/6/1

