# Alias OBJ Model File
# Exported from SketchUp, (c) 2000-2012 Trimble Navigation Limited
# File units = millimeters

mtllib Ngoaicanh10.mtl

g Mesh1 Group1 Model

usemtl Color_M07
v 67767.1 159.152 -144546
vt -6.82121e-13 702.192
vn 6.94319e-17 -1 -4.36379e-17
v 56557.4 159.152 -162381
vt -441.327 -1.33716e-30
v 67767.1 159.152 -162381
vt 4.25509e-30 -2.67432e-30
f 1/1/1 2/2/1 3/3/1

v 56557.4 159.152 -144546
vt -441.327 702.192
f 2/2/1 1/1/1 4/4/1

v 67767.1 3469.95 -144546
vt -6.30949e-13 130.346
vn 1.03041e-15 0 1
vt -441.327 0
vt -6.30949e-13 0
f 5/5/2 4/6/2 1/7/2

v 56557.4 3469.95 -144546
vt -441.327 130.346
f 4/6/2 5/5/2 6/8/2

v 56557.4 3469.95 -162381
vn 0 -1 0
f 7/6/3 5/1/3 6/4/3

v 67767.1 3469.95 -162381
vt 0 0
f 5/1/3 7/6/3 8/9/3

vt 0 6.12843e-14
vn -1.03041e-15 -6.83589e-32 -1
vt 441.327 130.346
vt 0 130.346
f 3/10/4 7/11/4 8/12/4

vt 441.327 -2.19851e-45
f 7/11/4 3/10/4 2/13/4

vt 702.192 0
vn -1 0 6.47611e-16
vt 2.01101e-13 130.346
vt 2.01101e-13 0
f 4/14/5 7/15/5 2/16/5

vt 702.192 130.346
f 7/15/5 4/14/5 6/17/5

v 56557.4 6780.75 -162381
vt 2.01101e-13 260.693
f 6/17/5 9/18/5 7/15/5

v 56557.4 6780.75 -144546
vt 702.192 260.693
f 9/18/5 6/17/5 10/19/5

v 67767.1 6780.75 -144546
vt -6.30949e-13 260.693
vt -441.327 260.693
f 6/8/2 11/20/2 10/21/2

f 11/20/2 6/8/2 5/5/2

vt -702.192 130.346
vn 1 0 -9.71417e-16
v 67767.1 4105.95 -146901
vt -609.442 155.386
vt -702.192 260.693
f 5/22/6 12/23/6 11/24/6

v 67767.1 4105.95 -153105
vt -365.22 155.386
f 5/22/6 13/25/6 12/23/6

v 67767.1 4109.02 -153822
vt -336.972 155.507
f 5/22/6 14/26/6 13/25/6

v 67767.1 4109.02 -160025
vt -92.7494 155.507
f 5/22/6 15/27/6 14/26/6

f 8/12/6 15/27/6 5/22/6

v 67767.1 5679.95 -160025
vt -92.7494 217.354
f 15/27/6 8/12/6 16/28/6

v 67767.1 6780.75 -162381
vt 0 260.693
f 17/29/6 16/28/6 8/12/6

f 16/28/6 17/29/6 11/24/6

f 11/1/3 9/6/3 17/9/3

f 9/6/3 11/1/3 10/4/3

v 67767.1 10091.6 -144546
vt -6.30949e-13 391.039
f 18/30/2 10/21/2 11/20/2

v 56557.4 10091.6 -144546
vt -441.327 391.039
f 10/21/2 18/30/2 19/31/2

v 56557.4 10091.6 -162381
f 20/6/3 18/1/3 19/4/3

v 67767.1 10091.6 -162381
f 18/1/3 20/6/3 21/9/3

vn -1.03041e-15 0 -1
vt 441.327 391.039
vt 0 391.039
f 17/29/7 20/32/7 21/33/7

vt 441.327 260.693
f 20/32/7 17/29/7 9/34/7

f 8/12/7 9/34/7 17/29/7

f 9/34/7 8/12/7 7/11/7

vt 2.01101e-13 391.039
f 10/19/5 20/35/5 9/18/5

vt 702.192 391.039
f 20/35/5 10/19/5 19/36/5

v 56557.4 13402.4 -162381
vt 2.01101e-13 521.386
f 19/36/5 22/37/5 20/35/5

v 56557.4 13402.4 -144546
vt 702.192 521.386
f 22/37/5 19/36/5 23/38/5

vn 1.03041e-15 -7.83848e-46 1
v 67767.1 13402.4 -144546
vt -6.30949e-13 521.386
vt -441.327 521.386
f 19/31/8 24/39/8 23/40/8

f 24/39/8 19/31/8 18/30/8

vt -702.192 391.039
v 67767.1 10727.6 -146901
vt -609.442 416.079
vt -702.192 521.386
f 18/41/6 25/42/6 24/43/6

v 67767.1 10727.6 -153105
vt -365.22 416.079
f 18/41/6 26/44/6 25/42/6

v 67767.1 10730.6 -153822
vt -336.972 416.2
f 18/41/6 27/45/6 26/44/6

v 67767.1 10730.6 -160025
vt -92.7494 416.2
f 18/41/6 28/46/6 27/45/6

f 21/33/6 28/46/6 18/41/6

v 67767.1 12301.6 -160025
vt -92.7494 478.047
f 28/46/6 21/33/6 29/47/6

v 67767.1 13402.4 -162381
vt 0 521.386
f 30/48/6 29/47/6 21/33/6

f 29/47/6 30/48/6 24/43/6

f 24/1/3 22/6/3 30/9/3

f 22/6/3 24/1/3 23/4/3

v 67767.1 16713.2 -144546
vt -6.30949e-13 651.732
vn 1.03041e-15 -1.10317e-31 1
f 31/49/9 23/40/9 24/39/9

v 56557.4 16713.2 -144546
vt -441.327 651.732
f 23/40/9 31/49/9 32/50/9

v 56557.4 16713.2 -162381
f 33/6/3 31/1/3 32/4/3

v 67767.1 16713.2 -162381
f 31/1/3 33/6/3 34/9/3

vn -1.03041e-15 -1.10317e-31 -1
vt 441.327 651.732
vt 0 651.732
f 30/48/10 33/51/10 34/52/10

vt 441.327 521.386
f 33/51/10 30/48/10 22/53/10

vn -1.03041e-15 -1.5677e-45 -1
f 21/33/11 22/53/11 30/48/11

f 22/53/11 21/33/11 20/32/11

vt 2.01101e-13 651.732
f 23/38/5 33/54/5 22/37/5

vt 702.192 651.732
f 33/54/5 23/38/5 32/55/5

v 56557.4 20024 -162381
vt 2.01101e-13 782.079
f 32/55/5 35/56/5 33/54/5

v 56557.4 20024 -144546
vt 702.192 782.079
f 35/56/5 32/55/5 36/57/5

v 67767.1 20024 -144546
vt -6.30949e-13 782.079
vt -441.327 782.079
f 32/50/2 37/58/2 36/59/2

f 37/58/2 32/50/2 31/49/2

vt -702.192 651.732
v 67767.1 17349.2 -146901
vt -609.442 676.772
vt -702.192 782.079
f 31/60/6 38/61/6 37/62/6

v 67767.1 17349.2 -153105
vt -365.22 676.772
f 31/60/6 39/63/6 38/61/6

v 67767.1 17352.2 -153822
vt -336.972 676.892
f 31/60/6 40/64/6 39/63/6

v 67767.1 17352.2 -160025
vt -92.7494 676.892
f 31/60/6 41/65/6 40/64/6

f 34/52/6 41/65/6 31/60/6

v 67767.1 18923.2 -160025
vt -92.7494 738.74
f 41/65/6 34/52/6 42/66/6

v 67767.1 20024 -162381
vt 0 782.079
f 43/67/6 42/66/6 34/52/6

f 42/66/6 43/67/6 37/62/6

f 37/1/3 35/6/3 43/9/3

f 35/6/3 37/1/3 36/4/3

v 67767.1 23334.8 -144546
vt -6.30949e-13 912.425
f 44/68/2 36/59/2 37/58/2

v 56557.4 23334.8 -144546
vt -441.327 912.425
f 36/59/2 44/68/2 45/69/2

v 56557.4 23334.8 -162381
f 46/6/3 44/1/3 45/4/3

v 67767.1 23334.8 -162381
f 44/1/3 46/6/3 47/9/3

vt 441.327 912.425
vt 0 912.425
f 43/67/7 46/70/7 47/71/7

vt 441.327 782.079
f 46/70/7 43/67/7 35/72/7

f 34/52/7 35/72/7 43/67/7

f 35/72/7 34/52/7 33/51/7

vt 2.01101e-13 912.425
f 36/57/5 46/73/5 35/56/5

vt 702.192 912.425
f 46/73/5 36/57/5 45/74/5

v 56557.4 26645.6 -162381
vt 2.01101e-13 1042.77
f 45/74/5 48/75/5 46/73/5

v 56557.4 26645.6 -144546
vt 702.192 1042.77
f 48/75/5 45/74/5 49/76/5

vn 1.03041e-15 1.5677e-45 1
v 67767.1 26645.6 -144546
vt -6.30949e-13 1042.77
vt -441.327 1042.77
f 45/69/12 50/77/12 49/78/12

f 50/77/12 45/69/12 44/68/12

vt -702.192 912.425
v 67767.1 23970.8 -146901
vt -609.442 937.465
vt -702.192 1042.77
f 44/79/6 51/80/6 50/81/6

v 67767.1 23970.8 -153105
vt -365.22 937.465
f 44/79/6 52/82/6 51/80/6

v 67767.1 23973.8 -153822
vt -336.972 937.585
f 44/79/6 53/83/6 52/82/6

v 67767.1 23973.8 -160025
vt -92.7494 937.585
f 44/79/6 54/84/6 53/83/6

f 47/71/6 54/84/6 44/79/6

v 67767.1 25544.8 -160025
vt -92.7494 999.433
f 54/84/6 47/71/6 55/85/6

v 67767.1 26645.6 -162381
vt 0 1042.77
f 56/86/6 55/85/6 47/71/6

f 55/85/6 56/86/6 50/81/6

f 50/1/3 48/6/3 56/9/3

f 48/6/3 50/1/3 49/4/3

v 67767.1 29956.4 -144546
vt -6.30949e-13 1173.12
f 57/87/9 49/78/9 50/77/9

v 56557.4 29956.4 -144546
vt -441.327 1173.12
f 49/78/9 57/87/9 58/88/9

v 56557.4 29956.4 -162381
f 59/6/3 57/1/3 58/4/3

v 67767.1 29956.4 -162381
f 57/1/3 59/6/3 60/9/3

vt 441.327 1173.12
vt 0 1173.12
f 56/86/10 59/89/10 60/90/10

vt 441.327 1042.77
f 59/89/10 56/86/10 48/91/10

vn -1.03041e-15 3.13539e-45 -1
f 47/71/13 48/91/13 56/86/13

f 48/91/13 47/71/13 46/70/13

vt 2.01101e-13 1173.12
f 49/76/5 59/92/5 48/75/5

vt 702.192 1173.12
f 59/92/5 49/76/5 58/93/5

v 56557.4 33267.2 -162381
vt 2.01101e-13 1303.46
f 58/93/5 61/94/5 59/92/5

v 56557.4 33267.2 -144546
vt 702.192 1303.46
f 61/94/5 58/93/5 62/95/5

vn 1.03041e-15 1.10317e-31 1
v 67767.1 33267.2 -144546
vt -6.30949e-13 1303.46
vt -441.327 1303.46
f 58/88/14 63/96/14 62/97/14

f 63/96/14 58/88/14 57/87/14

vt -702.192 1173.12
v 67767.1 30592.4 -146901
vt -609.442 1198.16
vt -702.192 1303.46
f 57/98/6 64/99/6 63/100/6

v 67767.1 30592.4 -153105
vt -365.22 1198.16
f 57/98/6 65/101/6 64/99/6

v 67767.1 30595.4 -153822
vt -336.972 1198.28
f 57/98/6 66/102/6 65/101/6

v 67767.1 30595.4 -160025
vt -92.7494 1198.28
f 57/98/6 67/103/6 66/102/6

f 60/90/6 67/103/6 57/98/6

v 67767.1 32166.4 -160025
vt -92.7494 1260.13
f 67/103/6 60/90/6 68/104/6

v 67767.1 33267.2 -162381
vt 0 1303.46
f 69/105/6 68/104/6 60/90/6

f 68/104/6 69/105/6 63/100/6

f 63/1/3 61/6/3 69/9/3

f 61/6/3 63/1/3 62/4/3

v 67767.1 36578 -144546
vt -6.30949e-13 1433.81
f 70/106/14 62/97/14 63/96/14

v 56557.4 36578 -144546
vt -441.327 1433.81
f 62/97/14 70/106/14 71/107/14

v 56557.4 36578 -162381
f 72/6/3 70/1/3 71/4/3

v 67767.1 36578 -162381
f 70/1/3 72/6/3 73/9/3

vn -1.03041e-15 1.10317e-31 -1
vt 441.327 1433.81
vt 0 1433.81
f 69/105/15 72/108/15 73/109/15

vt 441.327 1303.46
f 72/108/15 69/105/15 61/110/15

f 60/90/15 61/110/15 69/105/15

f 61/110/15 60/90/15 59/89/15

vt 2.01101e-13 1433.81
f 62/95/5 72/111/5 61/94/5

vt 702.192 1433.81
f 72/111/5 62/95/5 71/112/5

v 56557.4 39888.8 -162381
vt 2.01101e-13 1564.16
f 71/112/5 74/113/5 72/111/5

v 56557.4 39888.8 -144546
vt 702.192 1564.16
f 74/113/5 71/112/5 75/114/5

v 67767.1 39888.8 -144546
vt -6.30949e-13 1564.16
vt -441.327 1564.16
f 71/107/9 76/115/9 75/116/9

f 76/115/9 71/107/9 70/106/9

vt -702.192 1433.81
v 67767.1 37214 -146901
vt -609.442 1458.85
vt -702.192 1564.16
f 70/117/6 77/118/6 76/119/6

v 67767.1 37214 -153105
vt -365.22 1458.85
f 70/117/6 78/120/6 77/118/6

v 67767.1 37217 -153822
vt -336.972 1458.97
f 70/117/6 79/121/6 78/120/6

v 67767.1 37217 -160025
vt -92.7494 1458.97
f 70/117/6 80/122/6 79/121/6

f 73/109/6 80/122/6 70/117/6

v 67767.1 38788 -160025
vt -92.7494 1520.82
f 80/122/6 73/109/6 81/123/6

v 67767.1 39888.8 -162381
vt 0 1564.16
f 82/124/6 81/123/6 73/109/6

f 81/123/6 82/124/6 76/119/6

vt 441.327 0
vn 0 1 -0
vt 6.82121e-13 702.192
f 74/125/16 76/126/16 82/9/16

vt 441.327 702.192
f 76/126/16 74/125/16 75/127/16

vt 702.192 909.59
vn -0.763676 0.645599 3.93274e-15
v 57659.8 41192.8 -161279
vt 43.4008 976.816
vt -1.78581e-12 909.59
f 75/128/17 83/129/17 74/130/17

v 57659.8 41192.8 -145648
vt 658.791 976.816
f 83/129/17 75/128/17 84/131/17

vt -441.327 741.176
vn 5.85139e-15 0.645599 0.763676
v 66664.7 41192.8 -145648
vt -43.4008 808.401
vt -397.926 808.401
f 75/132/18 85/133/18 84/134/18

vt -5.28769e-12 741.176
f 85/133/18 75/132/18 76/135/18

vt -702.192 1194.51
vn 0.763676 0.645599 4.35658e-15
v 66664.7 41192.8 -161279
vt -43.4008 1261.74
vt -658.791 1261.74
f 76/136/19 86/137/19 85/138/19

vt 0 1194.51
f 86/137/19 76/136/19 82/139/19

vt 8.07794e-28 1194.51
vn 5.62409e-15 0.645599 -0.763676
vt 397.926 1261.74
vt 43.4008 1261.74
f 82/140/20 83/141/20 86/142/20

vt 441.327 1194.51
f 83/141/20 82/140/20 74/143/20

vt 441.327 1564.16
f 73/109/10 74/144/10 82/124/10

f 74/144/10 73/109/10 72/108/10

vt 397.926 43.4008
vn -1.60337e-15 1 -9.23697e-16
vt 43.4008 658.791
vt 43.4008 43.4008
f 83/145/21 85/146/21 86/147/21

vt 397.926 658.791
f 85/146/21 83/145/21 84/148/21

v 67767.1 38788 -153822
vt -336.972 1520.82
f 81/123/6 76/119/6 87/149/6

v 67767.1 38788 -153105
vt -365.22 1520.82
f 87/149/6 76/119/6 88/150/6

v 67767.1 38788 -146901
vt -609.442 1520.82
f 88/150/6 76/119/6 89/151/6

f 89/151/6 76/119/6 77/118/6

usemtl Color_I03
vn 1 0 -9.31012e-16
f 78/120/22 89/151/22 77/118/22

f 89/151/22 78/120/22 88/150/22

usemtl Color_M07
f 78/120/6 79/121/6 88/150/6

f 87/149/6 88/150/6 79/121/6

usemtl Color_I03
vn 1 0 -1.86202e-15
f 80/122/23 87/149/23 79/121/23

f 87/149/23 80/122/23 81/123/23

usemtl Color_M07
v 67767.1 35477.2 -160025
vt -92.7494 1390.47
f 90/152/6 73/109/6 70/117/6

f 73/109/6 90/152/6 69/105/6

v 67767.1 33906.2 -160025
vt -92.7494 1328.62
f 91/153/6 69/105/6 90/152/6

f 69/105/6 91/153/6 63/100/6

v 67767.1 33906.2 -153822
vt -336.972 1328.62
f 63/100/6 91/153/6 92/154/6

usemtl Color_I03
v 67767.1 35477.2 -153822
vt -336.972 1390.47
f 91/153/23 93/155/23 92/154/23

f 93/155/23 91/153/23 90/152/23

usemtl Color_M07
f 90/152/6 70/117/6 93/155/6

v 67767.1 35477.2 -153105
vt -365.22 1390.47
f 93/155/6 70/117/6 94/156/6

v 67767.1 35477.2 -146901
vt -609.442 1390.47
f 94/156/6 70/117/6 95/157/6

v 67767.1 33903.2 -146901
vt -609.442 1328.5
f 95/157/6 70/117/6 96/158/6

f 63/100/6 96/158/6 70/117/6

v 67767.1 33903.2 -153105
vt -365.22 1328.5
f 63/100/6 97/159/6 96/158/6

f 63/100/6 92/154/6 97/159/6

f 97/159/6 92/154/6 94/156/6

f 93/155/6 94/156/6 92/154/6

usemtl Color_I03
f 95/157/22 97/159/22 94/156/22

f 97/159/22 95/157/22 96/158/22

usemtl Color_M07
v 67767.1 32166.4 -153822
vt -336.972 1260.13
f 68/104/6 63/100/6 98/160/6

v 67767.1 32166.4 -153105
vt -365.22 1260.13
f 98/160/6 63/100/6 99/161/6

v 67767.1 32166.4 -146901
vt -609.442 1260.13
f 99/161/6 63/100/6 100/162/6

f 100/162/6 63/100/6 64/99/6

usemtl Color_I03
f 65/101/22 100/162/22 64/99/22

f 100/162/22 65/101/22 99/161/22

usemtl Color_M07
f 65/101/6 66/102/6 99/161/6

f 98/160/6 99/161/6 66/102/6

usemtl Color_I03
f 67/103/23 98/160/23 66/102/23

f 98/160/23 67/103/23 68/104/23

usemtl Color_M07
v 67767.1 28855.6 -160025
vt -92.7494 1129.78
f 101/163/6 60/90/6 57/98/6

f 60/90/6 101/163/6 56/86/6

v 67767.1 27284.6 -160025
vt -92.7494 1067.93
f 102/164/6 56/86/6 101/163/6

f 56/86/6 102/164/6 50/81/6

v 67767.1 27284.6 -153822
vt -336.972 1067.93
f 50/81/6 102/164/6 103/165/6

usemtl Color_I03
v 67767.1 28855.6 -153822
vt -336.972 1129.78
f 102/164/23 104/166/23 103/165/23

f 104/166/23 102/164/23 101/163/23

usemtl Color_M07
f 101/163/6 57/98/6 104/166/6

v 67767.1 28855.6 -153105
vt -365.22 1129.78
f 104/166/6 57/98/6 105/167/6

v 67767.1 28855.6 -146901
vt -609.442 1129.78
f 105/167/6 57/98/6 106/168/6

v 67767.1 27281.6 -146901
vt -609.442 1067.81
f 106/168/6 57/98/6 107/169/6

f 50/81/6 107/169/6 57/98/6

v 67767.1 27281.6 -153105
vt -365.22 1067.81
f 50/81/6 108/170/6 107/169/6

f 50/81/6 103/165/6 108/170/6

f 108/170/6 103/165/6 105/167/6

f 104/166/6 105/167/6 103/165/6

usemtl Color_I03
f 106/168/22 108/170/22 105/167/22

f 108/170/22 106/168/22 107/169/22

usemtl Color_M07
v 67767.1 25544.8 -153822
vt -336.972 999.433
f 55/85/6 50/81/6 109/171/6

v 67767.1 25544.8 -153105
vt -365.22 999.433
f 109/171/6 50/81/6 110/172/6

v 67767.1 25544.8 -146901
vt -609.442 999.433
f 110/172/6 50/81/6 111/173/6

f 111/173/6 50/81/6 51/80/6

usemtl Color_I03
f 52/82/22 111/173/22 51/80/22

f 111/173/22 52/82/22 110/172/22

usemtl Color_M07
f 52/82/6 53/83/6 110/172/6

f 109/171/6 110/172/6 53/83/6

usemtl Color_I03
f 54/84/23 109/171/23 53/83/23

f 109/171/23 54/84/23 55/85/23

usemtl Color_M07
v 67767.1 22234 -160025
vt -92.7494 869.087
f 112/174/6 47/71/6 44/79/6

f 47/71/6 112/174/6 43/67/6

v 67767.1 20663 -160025
vt -92.7494 807.239
f 113/175/6 43/67/6 112/174/6

f 43/67/6 113/175/6 37/62/6

v 67767.1 20663 -153822
vt -336.972 807.239
f 37/62/6 113/175/6 114/176/6

usemtl Color_I03
v 67767.1 22234 -153822
vt -336.972 869.087
f 113/175/23 115/177/23 114/176/23

f 115/177/23 113/175/23 112/174/23

usemtl Color_M07
f 112/174/6 44/79/6 115/177/6

v 67767.1 22234 -153105
vt -365.22 869.087
f 115/177/6 44/79/6 116/178/6

v 67767.1 22234 -146901
vt -609.442 869.087
f 116/178/6 44/79/6 117/179/6

v 67767.1 20660 -146901
vt -609.442 807.118
f 117/179/6 44/79/6 118/180/6

f 37/62/6 118/180/6 44/79/6

v 67767.1 20660 -153105
vt -365.22 807.118
f 37/62/6 119/181/6 118/180/6

f 37/62/6 114/176/6 119/181/6

f 119/181/6 114/176/6 116/178/6

f 115/177/6 116/178/6 114/176/6

usemtl Color_I03
f 117/179/22 119/181/22 116/178/22

f 119/181/22 117/179/22 118/180/22

usemtl Color_M07
v 67767.1 18923.2 -153822
vt -336.972 738.74
f 42/66/6 37/62/6 120/182/6

v 67767.1 18923.2 -153105
vt -365.22 738.74
f 120/182/6 37/62/6 121/183/6

v 67767.1 18923.2 -146901
vt -609.442 738.74
f 121/183/6 37/62/6 122/184/6

f 122/184/6 37/62/6 38/61/6

usemtl Color_I03
f 39/63/22 122/184/22 38/61/22

f 122/184/22 39/63/22 121/183/22

usemtl Color_M07
f 39/63/6 40/64/6 121/183/6

f 120/182/6 121/183/6 40/64/6

usemtl Color_I03
f 41/65/23 120/182/23 40/64/23

f 120/182/23 41/65/23 42/66/23

usemtl Color_M07
v 67767.1 15612.4 -160025
vt -92.7494 608.394
f 123/185/6 34/52/6 31/60/6

f 34/52/6 123/185/6 30/48/6

v 67767.1 14041.4 -160025
vt -92.7494 546.546
f 124/186/6 30/48/6 123/185/6

f 30/48/6 124/186/6 24/43/6

v 67767.1 14041.4 -153822
vt -336.972 546.546
f 24/43/6 124/186/6 125/187/6

usemtl Color_I03
v 67767.1 15612.4 -153822
vt -336.972 608.394
f 124/186/23 126/188/23 125/187/23

f 126/188/23 124/186/23 123/185/23

usemtl Color_M07
f 123/185/6 31/60/6 126/188/6

v 67767.1 15612.4 -153105
vt -365.22 608.394
f 126/188/6 31/60/6 127/189/6

v 67767.1 15612.4 -146901
vt -609.442 608.394
f 127/189/6 31/60/6 128/190/6

v 67767.1 14038.4 -146901
vt -609.442 546.425
f 128/190/6 31/60/6 129/191/6

f 24/43/6 129/191/6 31/60/6

v 67767.1 14038.4 -153105
vt -365.22 546.425
f 24/43/6 130/192/6 129/191/6

f 24/43/6 125/187/6 130/192/6

f 130/192/6 125/187/6 127/189/6

f 126/188/6 127/189/6 125/187/6

usemtl Color_I03
f 128/190/22 130/192/22 127/189/22

f 130/192/22 128/190/22 129/191/22

usemtl Color_M07
v 67767.1 12301.6 -153822
vt -336.972 478.047
f 29/47/6 24/43/6 131/193/6

v 67767.1 12301.6 -153105
vt -365.22 478.047
f 131/193/6 24/43/6 132/194/6

v 67767.1 12301.6 -146901
vt -609.442 478.047
f 132/194/6 24/43/6 133/195/6

f 133/195/6 24/43/6 25/42/6

usemtl Color_I03
f 26/44/22 133/195/22 25/42/22

f 133/195/22 26/44/22 132/194/22

usemtl Color_M07
f 26/44/6 27/45/6 132/194/6

f 131/193/6 132/194/6 27/45/6

usemtl Color_I03
f 28/46/23 131/193/23 27/45/23

f 131/193/23 28/46/23 29/47/23

usemtl Color_M07
v 67767.1 8990.75 -160025
vt -92.7494 347.701
f 134/196/6 21/33/6 18/41/6

f 21/33/6 134/196/6 17/29/6

v 67767.1 7419.82 -160025
vt -92.7494 285.853
f 135/197/6 17/29/6 134/196/6

f 17/29/6 135/197/6 11/24/6

v 67767.1 7419.82 -153822
vt -336.972 285.853
f 11/24/6 135/197/6 136/198/6

usemtl Color_I03
v 67767.1 8990.75 -153822
vt -336.972 347.701
f 135/197/23 137/199/23 136/198/23

f 137/199/23 135/197/23 134/196/23

usemtl Color_M07
f 134/196/6 18/41/6 137/199/6

v 67767.1 8990.75 -153105
vt -365.22 347.701
f 137/199/6 18/41/6 138/200/6

v 67767.1 8990.75 -146901
vt -609.442 347.701
f 138/200/6 18/41/6 139/201/6

v 67767.1 7416.75 -146901
vt -609.442 285.732
f 139/201/6 18/41/6 140/202/6

f 11/24/6 140/202/6 18/41/6

v 67767.1 7416.75 -153105
vt -365.22 285.732
f 11/24/6 141/203/6 140/202/6

f 11/24/6 136/198/6 141/203/6

f 141/203/6 136/198/6 138/200/6

f 137/199/6 138/200/6 136/198/6

usemtl Color_I03
f 139/201/22 141/203/22 138/200/22

f 141/203/22 139/201/22 140/202/22

usemtl Color_M07
v 67767.1 5679.95 -153822
vt -336.972 217.354
f 16/28/6 11/24/6 142/204/6

v 67767.1 5679.95 -153105
vt -365.22 217.354
f 142/204/6 11/24/6 143/205/6

v 67767.1 5679.95 -146901
vt -609.442 217.354
f 143/205/6 11/24/6 144/206/6

f 144/206/6 11/24/6 12/23/6

usemtl Color_I03
f 13/25/22 144/206/22 12/23/22

f 144/206/22 13/25/22 143/205/22

usemtl Color_M07
f 13/25/6 14/26/6 143/205/6

f 142/204/6 143/205/6 14/26/6

usemtl Color_I03
f 15/27/23 142/204/23 14/26/23

f 142/204/23 15/27/23 16/28/23

usemtl Color_M07
v 67767.1 2369.15 -160025
vt -92.7494 87.0079
vn 1 -1.24763e-31 -9.71417e-16
f 145/207/24 8/12/24 5/22/24

f 8/12/24 145/207/24 3/10/24

v 67767.1 798.221 -160025
vt -92.7494 25.1602
f 146/208/24 3/10/24 145/207/24

vt -702.192 -7.35507e-44
f 3/10/24 146/208/24 1/209/24

v 67767.1 798.221 -153822
vt -336.972 25.1602
f 1/209/24 146/208/24 147/210/24

usemtl Color_I03
v 67767.1 2369.15 -153822
vt -336.972 87.0079
f 146/208/23 148/211/23 147/210/23

f 148/211/23 146/208/23 145/207/23

usemtl Color_M07
f 145/207/24 5/22/24 148/211/24

v 67767.1 2369.15 -153105
vt -365.22 87.0079
f 148/211/24 5/22/24 149/212/24

v 67767.1 2369.15 -146901
vt -609.442 87.0079
f 149/212/24 5/22/24 150/213/24

v 67767.1 795.152 -146901
vt -609.442 25.0394
f 150/213/24 5/22/24 151/214/24

f 1/209/24 151/214/24 5/22/24

v 67767.1 795.152 -153105
vt -365.22 25.0394
f 1/209/24 152/215/24 151/214/24

f 1/209/24 147/210/24 152/215/24

f 152/215/24 147/210/24 149/212/24

f 148/211/24 149/212/24 147/210/24

usemtl Color_I03
f 150/213/22 152/215/22 149/212/22

f 152/215/22 150/213/22 151/214/22

