# Alias OBJ Model File
# Exported from SketchUp, (c) 2000-2012 Trimble Navigation Limited
# File units = millimeters

mtllib Nhaxe.mtl

g Mesh1 Group2 Group1 Model

usemtl wall__56_
v 113522 2659.15 -60640.9
vt -0.940594 6.18812
vn -1 7.74993e-15 -1.15055e-13
v 113522 959.152 -60560.9
vt -0.742574 1.9802
v 113522 2659.15 -60560.9
vt -0.742574 6.18812
f 1/1/1 2/2/1 3/3/1

v 113522 959.152 -60640.9
vt -0.940594 1.9802
f 2/2/1 1/1/1 4/4/1

v 113522 959.152 -60670.9
vt 7.9703 1.01485
vn -2.43481e-14 1 2.96049e-14
vt 7.9703 0.742574
vt 7.9703 0.940594
f 5/5/2 2/6/2 4/7/2

v 112322 959.152 -60670.9
vt 5 1.01485
f 6/8/2 2/6/2 5/5/2

v 114472 959.152 -60440.9
vt 10.3218 0.445545
f 6/8/2 7/9/2 2/6/2

v 112322 959.152 -60440.9
vt 5 0.445545
f 7/9/2 6/8/2 8/10/2

usemtl Dirty_Wall
vt -0.0374274 0.0842105
vn -1 0 -0
v 112322 939.152 -60440.9
vt -0.0164315 0.0821053
vt -0.0164315 0.0842105
f 6/11/3 9/12/3 8/13/3

v 112322 939.152 -60460.9
vt -0.0182573 0.0821053
f 9/12/3 6/11/3 10/14/3

v 112322 939.152 -60640.9
vt -0.0346888 0.0821053
f 10/14/3 6/11/3 11/15/3

v 112322 939.152 -60670.9
vt -0.0374274 0.0821053
f 11/15/3 6/11/3 12/16/3

usemtl wall__56_
vt -0.940594 1.93069
vn -1 -1.07607e-14 -4.19571e-13
v 112322 859.152 -60460.9
vt -0.49505 1.73267
vt -0.49505 1.93069
f 11/17/4 13/18/4 10/19/4

v 112322 859.152 -60560.9
vt -0.742574 1.73267
f 13/18/4 11/17/4 14/20/4

v 112322 159.152 -60560.9
vt -0.742574 -5.38034e-14
f 14/20/4 11/17/4 15/21/4

v 112322 159.152 -60640.9
vt -0.940594 1.80023e-14
f 15/21/4 11/17/4 16/22/4

usemtl Dirty_Wall
vt -0.184398 0.04
vn -9.31704e-16 -1 1.97587e-15
v 114352 159.152 -60560.9
vt -0.36971 0.0315789
vt -0.184398 0.0315789
f 16/23/5 17/24/5 15/25/5

v 112722 159.152 -62480.9
vt -0.220913 0.233684
f 17/24/5 16/23/5 18/26/5

v 112722 159.152 -62560.9
vt -0.220913 0.242105
f 16/23/5 19/27/5 18/26/5

v 111522 159.152 -60640.9
vt -0.111369 0.04
f 20/28/5 19/27/5 16/23/5

v 110602 159.152 -60560.9
vt -0.0273859 0.0315789
f 21/29/5 19/27/5 20/28/5

v 110602 159.152 -62560.9
vt -0.0273859 0.242105
f 19/27/5 21/29/5 22/30/5

usemtl wall__56_
vt -0.742574 -6.43287e-16
vn -1 -8.66294e-16 -3.60956e-16
v 110602 2659.15 -62560.9
vt -5.69307 6.18812
vt -5.69307 -6.43287e-16
f 21/31/6 23/32/6 22/33/6

v 110602 2659.15 -60560.9
f 23/32/6 21/31/6 24/3/6

vt 0.742574 1.30986e-14
vn 0 0 1
v 111522 2659.15 -60560.9
vt 3.0198 6.18812
vt 0.742574 6.18812
f 21/34/7 25/35/7 24/36/7

v 111522 159.152 -60560.9
vt 3.0198 1.30986e-14
f 25/35/7 21/34/7 26/37/7

usemtl Dirty_Wall
vt -0.111369 0.0315789
f 21/29/5 20/28/5 26/38/5

usemtl wall__56_
vt 0.940594 8.48764e-14
vn 1 -6.06406e-15 1.53406e-12
vt 0.742574 1.83122e-14
f 20/39/8 25/36/8 26/40/8

v 111522 2659.15 -60640.9
vt 0.940594 6.18812
f 25/36/8 20/39/8 27/41/8

v 114952 2659.15 -60260.9
vt -11.5099 0
vn 0 -1 -0
vt -3.0198 0.742574
vt -3.0198 0.940594
f 28/42/9 25/43/9 27/44/9

vt -0.742574 0.742574
f 28/42/9 24/45/9 25/43/9

v 110302 2659.15 -60260.9
vt 0 1.42953e-14
f 24/45/9 28/42/9 29/46/9

v 114952 2859.15 -60260.9
vt 11.5099 6.68317
vn -6.20999e-16 -1.44382e-14 1
vt -8.87735e-30 6.18812
vt 11.5099 6.18812
f 30/47/10 29/48/10 28/49/10

v 110302 2859.15 -60260.9
vt 1.07215e-14 6.68317
f 29/48/10 30/47/10 31/50/10

v 110602 2859.15 -60560.9
vt 0.742574 0.742574
vn -4.69631e-15 1 -8.26033e-15
vt 4.21077e-14 -5.52052e-14
vt 11.5099 -5.52052e-14
f 32/51/11 31/52/11 30/53/11

v 110302 2859.15 -62860.9
vt 4.21077e-14 6.43564
f 31/52/11 32/51/11 33/54/11

v 110602 2859.15 -62560.9
vt 0.742574 5.69307
f 34/55/11 33/54/11 32/51/11

v 114952 2859.15 -62860.9
vt 11.5099 6.43564
f 33/54/11 34/55/11 35/56/11

v 114352 2859.15 -62560.9
vt 10.0248 5.69307
f 35/56/11 34/55/11 36/57/11

v 110602 3159.15 -62560.9
vt -0.742574 7.42574
vn 0 0 -1
vt -10.0248 6.68317
vt -0.742574 6.68317
f 37/58/12 36/59/12 34/60/12

v 114352 3159.15 -62560.9
vt -10.0248 7.42574
f 36/59/12 37/58/12 38/61/12

vn 0 1 -0
v 114352 3159.15 -60560.9
vt 10.0248 0.742574
f 37/55/13 39/62/13 38/57/13

v 110602 3159.15 -60560.9
f 39/62/13 37/55/13 40/51/13

vt -5.69307 7.42574
f 37/63/3 32/60/3 40/58/3

vt -5.69307 6.68317
f 32/60/3 37/63/3 34/64/3

v 114352 2859.15 -60560.9
vt 10.0248 6.68317
vt 0.742574 7.42574
vt 0.742574 6.68317
f 41/65/7 40/66/7 32/67/7

vt 10.0248 7.42574
f 40/66/7 41/65/7 39/68/7

vt 5.69307 6.68317
vn 1 0 -0
f 36/69/14 39/66/14 41/67/14

vt 5.69307 7.42574
f 39/66/14 36/69/14 38/70/14

f 41/62/11 30/53/11 36/57/11

f 32/51/11 30/53/11 41/62/11

f 35/56/11 36/57/11 30/53/11

vt 3.83498e-14 6.68317
vn 1 2.16573e-14 3.3319e-15
v 114952 2659.15 -62860.9
vt 6.43564 6.18812
vt 6.43564 6.68317
f 30/71/15 42/72/15 35/73/15

vt 3.83498e-14 6.18812
f 42/72/15 30/71/15 28/74/15

v 114342 2659.15 -60640.9
vt -10 0.940594
vt -11.5099 6.43564
f 43/75/9 42/76/9 28/42/9

v 114342 2659.15 -62480.9
vt -10 5.49505
f 44/77/9 42/76/9 43/75/9

v 113742 2659.15 -62480.9
vt -8.51485 5.49505
f 45/78/9 42/76/9 44/77/9

v 113742 2659.15 -62560.9
vt -8.51485 5.69307
f 46/79/9 42/76/9 45/78/9

v 113522 2659.15 -62560.9
vt -7.9703 5.69307
f 47/80/9 42/76/9 46/79/9

v 111522 2659.15 -62480.9
vt -3.0198 5.49505
f 48/81/9 42/76/9 47/80/9

v 111522 2659.15 -62560.9
vt -3.0198 5.69307
f 49/82/9 42/76/9 48/81/9

vt -0.742574 5.69307
f 23/83/9 42/76/9 49/82/9

v 110302 2659.15 -62860.9
vt 0 6.43564
f 23/83/9 50/84/9 42/76/9

f 50/84/9 23/83/9 29/46/9

f 29/46/9 23/83/9 24/45/9

vt -1.42953e-14 6.18812
vn -1 2.16573e-14 -1.80364e-28
vt -6.43564 6.68317
vt -6.43564 6.18812
f 29/85/16 33/86/16 50/87/16

vt -1.93377e-42 6.68317
f 33/86/16 29/85/16 31/88/16

vt -8.72319e-15 6.68317
vn 3.105e-16 -2.16573e-14 -1
vt -11.5099 6.18812
vt 1.99826e-15 6.18812
f 33/89/17 42/90/17 50/91/17

vt -11.5099 6.68317
f 42/90/17 33/89/17 35/92/17

v 111522 959.152 -62560.9
vt -3.0198 1.9802
vn 4.08942e-16 -5.08819e-16 -1
vt -3.0198 6.18812
f 51/93/18 23/3/18 49/94/18

v 111522 859.152 -62560.9
vt -3.0198 1.73267
f 52/95/18 23/3/18 51/93/18

vt -0.742574 -8.45139e-15
f 52/95/18 22/96/18 23/3/18

vt -5.9901 -8.45139e-15
f 22/96/18 52/95/18 19/97/18

v 112722 859.152 -62560.9
vt -5.9901 1.73267
f 53/98/18 19/97/18 52/95/18

v 112722 959.152 -62480.9
vt 5.49505 1.9802
vn 1 1.82985e-14 6.12136e-13
vt 5.69307 -1.0961e-13
vt 5.69307 1.73267
f 54/99/19 19/100/19 53/101/19

vt 5.49505 -4.3346e-14
f 19/100/19 54/99/19 18/102/19

v 112722 959.152 -62660.9
vt 5.94059 1.9802
f 54/99/19 53/101/19 55/103/19

v 112722 859.152 -62660.9
vt 5.94059 1.73267
f 55/103/19 53/101/19 56/104/19

vt -5.9901 5.94059
vt -5.9901 5.69307
f 52/82/9 56/105/9 53/106/9

v 111522 859.152 -62660.9
vt -3.0198 5.94059
f 56/105/9 52/82/9 57/107/9

vt -5.69307 1.73267
v 111522 959.152 -62660.9
vt -5.94059 1.9802
vt -5.94059 1.73267
f 52/108/3 58/109/3 57/110/3

vt -5.69307 1.9802
f 58/109/3 52/108/3 51/111/3

vt 3.0198 5.69307
v 112722 959.152 -62450.9
vt 5.9901 5.42079
vt 3.0198 5.94059
f 51/112/13 59/113/13 58/114/13

v 111522 959.152 -62450.9
vt 3.0198 5.42079
f 59/113/13 51/112/13 60/115/13

vt 5.69307 1.9802
vn 1 -2.3382e-14 8.57162e-13
v 111522 2659.15 -62450.9
vt 5.42079 6.18812
vt 5.42079 1.9802
f 51/116/20 61/117/20 60/118/20

vt 5.49505 6.18812
f 61/117/20 51/116/20 48/119/20

vt 5.69307 6.18812
f 48/119/20 51/116/20 49/120/20

vt 5.9901 5.49505
f 58/114/13 59/113/13 54/121/13

vt 5.9901 5.94059
f 58/114/13 54/121/13 55/122/13

vt -5.9901 1.9802
f 56/98/12 58/93/12 55/123/12

f 58/93/12 56/98/12 57/95/12

v 113522 2659.15 -62480.9
vt -7.9703 5.49505
f 48/81/9 47/80/9 62/124/9

vn -1 4.66342e-15 -3.85534e-13
v 113522 159.152 -62480.9
vt -5.49505 3.71977e-14
vt -5.49505 6.18812
f 47/32/21 63/125/21 62/126/21

v 113522 159.152 -62560.9
vt -5.69307 3.71688e-14
f 63/125/21 47/32/21 64/127/21

v 113522 959.152 -62560.9
f 64/127/21 47/32/21 65/111/21

vt -7.9703 6.18812
v 113742 959.152 -62560.9
vt -8.51485 1.9802
vt -7.9703 1.9802
f 47/128/12 66/129/12 65/130/12

vt -8.51485 6.18812
f 66/129/12 47/128/12 46/131/12

vn 1 2.54792e-15 -7.86315e-27
v 113742 959.152 -62480.9
f 46/120/22 67/99/22 66/116/22

f 67/99/22 46/120/22 45/119/22

v 114342 959.152 -62480.9
vt 10 5.49505
vt 8.51485 5.69307
vt 8.51485 5.49505
f 68/132/2 66/133/2 67/134/2

v 114472 959.152 -62680.9
vt 10.3218 5.9901
f 69/135/2 66/133/2 68/132/2

v 113522 959.152 -62680.9
vt 7.9703 5.9901
f 70/136/2 66/133/2 69/135/2

vt 7.9703 5.69307
f 66/133/2 70/136/2 65/137/2

v 113522 859.152 -62560.9
f 70/123/21 71/108/21 65/111/21

v 113522 939.152 -62660.9
vt -5.94059 1.93069
f 71/108/21 70/123/21 72/138/21

v 113522 939.152 -62680.9
vt -5.9901 1.93069
f 72/138/21 70/123/21 73/139/21

v 114472 939.152 -62680.9
vt -10.3218 1.93069
vt -7.9703 1.93069
f 70/130/12 74/140/12 73/141/12

vt -10.3218 1.9802
f 74/140/12 70/130/12 69/142/12

vt 0.445545 1.9802
vt 5.9901 1.93069
vt 5.9901 1.9802
f 7/143/14 74/144/14 69/145/14

v 114472 939.152 -60440.9
vt 0.445545 1.93069
f 74/144/14 7/143/14 75/146/14

vt 10.3218 1.9802
vt 5 1.93069
vt 10.3218 1.93069
f 7/147/7 9/148/7 75/149/7

vt 5 1.9802
f 9/148/7 7/147/7 8/150/7

vt -5 0.445545
v 114452 939.152 -60460.9
vt -10.2723 0.49505
vt -10.3218 0.445545
f 9/151/9 76/152/9 75/153/9

vt -5 0.49505
f 76/152/9 9/151/9 10/154/9

vt 5 1.73267
vt 10.2723 1.93069
f 13/155/7 76/156/7 10/148/7

v 114452 859.152 -60460.9
vt 10.2723 1.73267
f 76/156/7 13/155/7 77/157/7

v 114352 859.152 -60560.9
vt -10.0248 0.742574
f 13/154/9 78/158/9 77/152/9

vt -5 0.742574
f 78/158/9 13/154/9 14/159/9

vt 5 0
vt 10.0248 1.73267
f 15/160/7 78/161/7 14/155/7

vt 10.0248 0
f 78/161/7 15/160/7 17/162/7

v 114352 159.152 -62560.9
vt 5.69307 0
vt 0.742574 1.73267
vt 0.742574 0
f 79/163/14 78/164/14 17/165/14

v 114352 859.152 -62560.9
f 78/164/14 79/163/14 80/101/14

vt -10.0248 0
vt -7.9703 1.73267
vt -10.0248 1.73267
f 79/166/12 71/167/12 80/168/12

vt -7.9703 0
f 71/167/12 79/166/12 64/169/12

usemtl Dirty_Wall
vt -0.293942 0.242105
vt -0.36971 0.242105
f 17/24/5 64/170/5 79/171/5

vt -0.293942 0.233684
f 17/24/5 63/172/5 64/170/5

f 17/24/5 18/26/5 63/172/5

usemtl wall__56_
f 64/127/21 65/111/21 71/108/21

v 114452 859.152 -62660.9
vt -10.2723 5.94059
vt -10.0248 5.69307
f 71/80/9 81/173/9 80/174/9

v 113522 859.152 -62660.9
vt -7.9703 5.94059
f 81/173/9 71/80/9 82/175/9

f 82/110/21 71/108/21 72/138/21

vt -10.2723 1.73267
f 72/141/12 81/176/12 82/167/12

v 114452 939.152 -62660.9
vt -10.2723 1.93069
f 81/176/12 72/141/12 83/177/12

vt -10.3218 5.9901
f 72/175/9 74/178/9 83/173/9

vt -7.9703 5.9901
f 74/178/9 72/175/9 73/179/9

f 83/173/9 74/178/9 76/152/9

f 75/153/9 76/152/9 74/178/9

vt 0.49505 1.93069
vt 5.94059 1.93069
f 76/180/14 81/104/14 83/181/14

vt 0.49505 1.73267
f 81/104/14 76/180/14 77/182/14

f 77/152/9 78/158/9 81/173/9

f 80/174/9 81/173/9 78/158/9

f 69/135/2 68/132/2 7/9/2

v 114342 959.152 -60640.9
vt 10 0.940594
f 84/183/2 7/9/2 68/132/2

v 113742 959.152 -60640.9
vt 8.51485 0.940594
f 85/184/2 7/9/2 84/183/2

v 113742 959.152 -60560.9
vt 8.51485 0.742574
f 86/185/2 7/9/2 85/184/2

f 2/6/2 7/9/2 86/185/2

vt 8.51485 1.9802
vt 7.9703 6.18812
vt 7.9703 1.9802
f 86/186/7 3/187/7 2/188/7

v 113742 2659.15 -60560.9
vt 8.51485 6.18812
f 3/187/7 86/186/7 87/189/7

vt 0.940594 1.9802
vn 1 2.54792e-15 1.32313e-27
vt 0.742574 1.9802
f 85/190/23 87/36/23 86/191/23

v 113742 2659.15 -60640.9
f 87/36/23 85/190/23 88/41/23

vt -8.51485 0.742574
vt -8.51485 0.940594
f 43/75/9 87/192/9 88/193/9

f 28/42/9 87/192/9 43/75/9

vt -7.9703 0.742574
f 28/42/9 3/194/9 87/192/9

f 28/42/9 27/44/9 3/194/9

vt -7.9703 0.940594
f 1/195/9 3/194/9 27/44/9

g Mesh2 Group3 Group1 Model

usemtl Color_I03
v 112262 2599.15 -60640.9
vt 29.1339 96.063
vn -3.82188e-14 -7.59907e-15 1
v 111582 2219.15 -60640.9
vt 2.3622 81.1024
v 112262 2219.15 -60640.9
vt 29.1339 81.1024
f 89/196/24 90/197/24 91/198/24

v 111582 2599.15 -60640.9
vt 2.3622 96.063
f 90/197/24 89/196/24 92/199/24

usemtl Color_M09
vn 1.66744e-28 1.15506e-14 1
v 112322 2659.15 -60640.9
vt 31.4961 98.4252
f 89/196/25 93/200/25 92/199/25

f 91/198/25 93/200/25 89/196/25

v 112322 2159.15 -60640.9
vt 31.4961 78.7402
f 91/198/25 94/201/25 93/200/25

v 111522 2159.15 -60640.9
vt 3.83693e-13 78.7402
f 94/201/25 91/198/25 95/202/25

f 90/197/25 95/202/25 91/198/25

v 111522 2659.15 -60640.9
vt 4.77485e-12 98.4252
f 95/202/25 90/197/25 96/203/25

f 96/203/25 90/197/25 92/199/25

f 96/203/25 92/199/25 93/200/25

usemtl Dirty_Wall
v 112322 2659.15 -60670.9
vt 0.073029 0.00315789
vn 9.02389e-15 1 8.33307e-29
vt 9.01191e-15 3.64755e-15
vt 0.073029 3.64755e-15
f 97/204/26 96/205/26 93/206/26

v 111522 2659.15 -60670.9
vt 8.97896e-15 0.00315789
f 96/205/26 97/204/26 98/207/26

v 111522 2159.15 -60670.9
vt -0.00273859 0.210526
vn -1 2.23432e-13 1.80478e-14
vt -3.16323e-15 0.263158
vt -0.00273859 0.263158
f 99/208/27 96/209/27 98/210/27

vt -2.63603e-15 0.210526
f 96/209/27 99/208/27 95/211/27

vn -1 -3.6637e-14 2.40637e-14
vt -3.16323e-15 2.83073e-15
f 99/208/28 20/212/28 95/211/28

v 111522 159.152 -60670.9
vt -0.00273859 2.83195e-15
f 20/212/28 99/208/28 100/213/28

usemtl Color_M09
vt 3.2685e-12 1.05874e-12
vn 9.56174e-16 -2.96414e-15 1
v 111582 219.152 -60640.9
vt 2.3622 2.3622
f 20/214/29 101/215/29 95/202/29

v 112322 159.152 -60640.9
vt 31.4961 1.14211e-12
f 101/215/29 20/214/29 102/216/29

v 112262 219.152 -60640.9
vt 29.1339 2.3622
f 101/215/29 102/216/29 103/217/29

v 112322 959.152 -60640.9
vt 31.4961 31.4961
f 104/218/29 103/217/29 102/216/29

v 112262 2099.15 -60640.9
vt 29.1339 76.378
f 103/217/29 104/218/29 105/219/29

f 105/219/29 104/218/29 94/201/29

vn -3.36892e-14 -2.40637e-15 1
v 112382 1019.15 -60640.9
vt 33.8583 33.8583
f 104/218/30 106/220/30 94/201/30

v 112862 1019.15 -60640.9
vt 52.7559 33.8583
f 106/220/30 104/218/30 107/221/30

v 112922 959.152 -60640.9
vt 55.1181 31.4961
f 108/222/30 107/221/30 104/218/30

v 112922 2159.15 -60640.9
vt 55.1181 78.7402
f 107/221/30 108/222/30 109/223/30

vn 9.62549e-15 -1.9707e-28 1
v 112982 1019.15 -60640.9
vt 57.4803 33.8583
f 108/222/31 110/224/31 109/223/31

v 113462 1019.15 -60640.9
vt 76.378 33.8583
f 110/224/31 108/222/31 111/225/31

v 113522 959.152 -60640.9
vt 78.7402 31.4961
f 112/226/31 111/225/31 108/222/31

v 113522 2159.15 -60640.9
vt 78.7402 78.7402
f 111/225/31 112/226/31 113/227/31

v 113522 959.152 -60670.9
vt 1.1811 31.4961
vn 1 -2.49661e-14 1.20319e-14
vt 1.62951e-12 78.7402
vt 1.62951e-12 31.4961
f 114/228/32 113/229/32 112/230/32

v 113522 2159.15 -60670.9
vt 1.1811 78.7402
f 113/229/32 114/228/32 115/231/32

v 113522 2659.15 -60670.9
vt 1.1811 98.4252
vn 1 5.05338e-15 1.20319e-14
f 116/232/33 113/229/33 115/231/33

v 113522 2659.15 -60640.9
vt 9.4739e-13 98.4252
f 113/229/33 116/232/33 117/233/33

vt 31.4961 1.1811
vn 4.51195e-15 1 9.45953e-29
vt 78.7402 9.31056e-27
vt 78.7402 1.1811
f 97/234/34 117/235/34 116/236/34

vt 31.4961 1.36424e-12
f 117/235/34 97/234/34 93/237/34

vn -1.9251e-14 -3.85019e-15 1
v 112382 2599.15 -60640.9
vt 33.8583 96.063
vt 78.7402 98.4252
f 93/200/35 118/238/35 117/239/35

v 112382 2219.15 -60640.9
vt 33.8583 81.1024
f 93/200/35 119/240/35 118/238/35

f 94/201/35 119/240/35 93/200/35

v 113462 2219.15 -60640.9
vt 76.378 81.1024
f 119/240/35 94/201/35 120/241/35

f 109/223/35 120/241/35 94/201/35

f 113/227/35 120/241/35 109/223/35

f 120/241/35 113/227/35 117/239/35

v 113462 2599.15 -60640.9
vt 76.378 96.063
f 120/241/35 117/239/35 121/242/35

f 121/242/35 117/239/35 118/238/35

usemtl Color_I03
vn -1.60425e-14 2.21054e-28 1
f 119/240/36 121/242/36 118/238/36

f 121/242/36 119/240/36 120/241/36

usemtl Color_M09
v 112982 2099.15 -60640.9
vt 57.4803 76.378
f 109/223/31 122/243/31 113/227/31

f 109/223/31 110/224/31 122/243/31

usemtl Color_I03
vn 1.20319e-14 -1.93159e-28 1
v 113462 2099.15 -60640.9
vt 76.378 76.378
f 110/224/37 123/244/37 122/243/37

f 123/244/37 110/224/37 111/225/37

usemtl Color_M09
f 111/225/31 113/227/31 123/244/31

f 123/244/31 113/227/31 122/243/31

v 112382 2099.15 -60640.9
vt 33.8583 76.378
f 94/201/30 124/245/30 109/223/30

f 94/201/30 106/220/30 124/245/30

usemtl Color_I03
vn -4.81274e-14 7.92094e-28 1
v 112862 2099.15 -60640.9
vt 52.7559 76.378
f 106/220/38 125/246/38 124/245/38

f 125/246/38 106/220/38 107/221/38

usemtl Color_M09
f 107/221/30 109/223/30 125/246/30

f 125/246/30 109/223/30 124/245/30

usemtl Dirty_Wall
vt -0.182573 6.83916e-16
vn -4.38411e-14 -1 1.35358e-14
v 112922 959.152 -60670.9
vt -0.127801 0.00315789
vt -0.182573 0.00315789
f 112/247/39 126/248/39 114/249/39

vt -0.127801 7.59907e-17
f 126/248/39 112/247/39 108/250/39

vt -0.127801 4.55944e-16
vn -8.2719e-15 -1 9.02389e-15
v 112322 959.152 -60670.9
vt -0.073029 0.00315789
f 108/251/40 127/252/40 126/248/40

vt -0.073029 2.88765e-15
f 127/252/40 108/251/40 104/253/40

vt 1.195e-14 0.0842105
vn 1 -1.98526e-14 1.20319e-13
v 112322 159.152 -60670.9
vt 0.00273859 4.72665e-15
vt 0.00273859 0.0842105
f 104/254/41 128/255/41 127/256/41

vt 1.195e-14 4.72543e-15
f 128/255/41 104/254/41 102/257/41

usemtl Color_M09
v 111582 2099.15 -60640.9
vt 2.3622 76.378
f 105/219/29 94/201/29 129/258/29

f 95/202/29 129/258/29 94/201/29

f 95/202/29 101/215/29 129/258/29

usemtl Color_I03
vn -3.82188e-14 -1.53598e-15 1
f 101/215/42 105/219/42 129/258/42

f 105/219/42 101/215/42 103/217/42

g Mesh3 Group3 Group1 Model

v 111582 1019.15 -62480.9
vt -2.3622 33.8583
vn 1.80478e-14 -2.68703e-28 -1
v 112062 2099.15 -62480.9
vt -21.2598 76.378
v 112062 1019.15 -62480.9
vt -21.2598 33.8583
f 130/259/43 131/260/43 132/261/43

v 111582 2099.15 -62480.9
vt -2.3622 76.378
f 131/260/43 130/259/43 133/262/43

usemtl Color_M09
vn 9.62549e-15 2.40637e-15 -1
v 111522 2159.15 -62480.9
vt 3.98851e-13 78.7402
f 130/259/44 134/263/44 133/262/44

v 111522 959.152 -62480.9
vt 6.68858e-13 31.4961
f 130/259/44 135/264/44 134/263/44

v 112122 959.152 -62480.9
vt -23.622 31.4961
f 135/264/44 130/259/44 136/265/44

f 136/265/44 130/259/44 132/261/44

v 112122 2159.15 -62480.9
vt -23.622 78.7402
f 132/261/44 137/266/44 136/265/44

f 137/266/44 132/261/44 131/260/44

f 137/266/44 131/260/44 133/262/44

f 133/262/44 134/263/44 137/266/44

v 112662 2219.15 -62480.9
vt -44.8819 81.1024
vn 1.68446e-14 -1.9251e-15 -1
vt 9.21811e-13 78.7402
f 138/267/45 137/266/45 134/268/45

v 112722 2159.15 -62480.9
vt -47.2441 78.7402
f 138/267/45 139/269/45 137/266/45

v 112722 2659.15 -62480.9
vt -47.2441 98.4252
f 139/269/45 138/267/45 140/270/45

v 112662 2599.15 -62480.9
vt -44.8819 96.063
f 140/270/45 138/267/45 141/271/45

usemtl Color_I03
v 111582 2219.15 -62480.9
vt -2.3622 81.1024
vn 1.60425e-14 -2.0195e-28 -1
f 142/272/46 141/271/46 138/267/46

v 111582 2599.15 -62480.9
vt -2.3622 96.063
f 141/271/46 142/272/46 143/273/46

usemtl Color_M09
vt 1.23161e-14 98.4252
f 142/272/45 48/274/45 143/273/45

f 142/272/45 134/268/45 48/274/45

f 134/268/45 142/272/45 138/267/45

vt -72.4409 78.7402
vn -1 4.43976e-14 -4.21115e-14
v 111522 2659.15 -62450.9
vt -71.2598 98.4252
vt -72.4409 98.4252
f 134/275/47 144/276/47 48/277/47

v 111522 2159.15 -62450.9
vt -71.2598 78.7402
f 144/276/47 134/275/47 145/278/47

v 111522 959.152 -62450.9
vt 71.2598 31.4961
vn 1 -5.71513e-15 1.20319e-14
vt 72.4409 78.7402
vt 71.2598 78.7402
f 146/279/48 134/280/48 145/281/48

vt 72.4409 31.4961
f 134/280/48 146/279/48 135/282/48

vt -4.59484e-13 72.4409
vn 1.36862e-14 -1 2.07966e-28
v 112122 959.152 -62450.9
vt -23.622 71.2598
vt -4.45273e-13 71.2598
f 135/283/49 147/284/49 146/285/49

vt -23.622 72.4409
f 147/284/49 135/283/49 136/286/49

vn -1.97774e-14 -1 7.51991e-15
v 112722 959.152 -62450.9
vt -47.2441 71.2598
f 136/286/50 148/287/50 147/284/50

vt -47.2441 72.4409
f 148/287/50 136/286/50 54/288/50

v 112662 1019.15 -62480.9
vt -44.8819 33.8583
vn 2.40637e-14 -1.41645e-27 -1
vt -47.2441 31.4961
f 149/289/51 54/290/51 136/265/51

f 54/290/51 149/289/51 139/269/51

v 112662 2099.15 -62480.9
vt -44.8819 76.378
f 139/269/51 149/289/51 150/291/51

usemtl Color_I03
v 112182 1019.15 -62480.9
vt -25.9843 33.8583
vn 9.02389e-15 1.33687e-15 -1
f 151/292/52 150/291/52 149/289/52

v 112182 2099.15 -62480.9
vt -25.9843 76.378
f 150/291/52 151/292/52 152/293/52

usemtl Color_M09
f 151/292/51 137/266/51 152/293/51

f 151/292/51 136/265/51 137/266/51

f 136/265/51 151/292/51 149/289/51

f 152/293/51 137/266/51 139/269/51

f 139/269/51 150/291/51 152/293/51

v 112782 2099.15 -62480.9
vt -49.6063 76.378
vn 1.08287e-14 -7.44129e-28 -1
f 153/294/53 54/290/53 139/269/53

v 112782 219.152 -62480.9
vt -49.6063 2.3622
f 154/295/53 54/290/53 153/294/53

vt -47.2441 1.05396e-12
f 154/295/53 18/296/53 54/290/53

v 113462 219.152 -62480.9
vt -76.378 2.3622
f 18/296/53 154/295/53 155/297/53

usemtl Color_I03
vn 1.48629e-14 7.67991e-16 -1
v 113462 2099.15 -62480.9
vt -76.378 76.378
f 154/295/54 156/298/54 155/297/54

f 156/298/54 154/295/54 153/294/54

usemtl Color_M09
v 113522 2159.15 -62480.9
vt -78.7402 78.7402
f 157/299/53 156/298/53 153/294/53

f 157/299/53 155/297/53 156/298/53

vt -78.7402 4.5895e-16
f 63/300/53 155/297/53 157/299/53

f 155/297/53 63/300/53 18/296/53

vn 1 -6.73803e-14 -4.47435e-14
v 113522 159.152 -62450.9
vt 71.2598 5.30553e-12
vt 72.4409 5.30599e-12
f 157/280/55 158/301/55 63/302/55

v 113522 2159.15 -62450.9
f 158/301/55 157/280/55 159/281/55

vn 1 1.9251e-13 1.54008e-14
v 113522 2659.15 -62450.9
vt 71.2598 98.4252
f 157/280/56 160/303/56 159/281/56

v 113522 2659.15 -62480.9
vt 72.4409 98.4252
f 160/303/56 157/280/56 161/304/56

vn 1.08287e-14 9.57118e-28 -1
v 113462 2219.15 -62480.9
vt -76.378 81.1024
vt -78.7402 98.4252
f 157/299/57 162/305/57 161/306/57

f 162/305/57 157/299/57 139/269/57

f 153/294/53 139/269/53 157/299/53

v 112782 2219.15 -62480.9
vt -49.6063 81.1024
f 139/269/57 163/307/57 162/305/57

f 163/307/57 139/269/57 140/270/57

v 112782 2599.15 -62480.9
vt -49.6063 96.063
f 163/307/57 140/270/57 164/308/57

f 164/308/57 140/270/57 161/306/57

vt 47.2441 72.4409
vn 1.71454e-14 1 1.33573e-28
vt 78.7402 71.2598
vt 78.7402 72.4409
f 140/309/58 160/310/58 161/311/58

v 112722 2659.15 -62450.9
vt 47.2441 71.2598
f 160/310/58 140/309/58 165/312/58

vt -1.36779e-12 72.4409
vn 2.61693e-14 1 9.71884e-28
f 48/313/59 165/312/59 140/309/59

vt -1.45306e-12 71.2598
f 165/312/59 48/313/59 144/314/59

f 143/273/45 48/274/45 140/270/45

f 140/270/45 141/271/45 143/273/45

v 113462 2599.15 -62480.9
vt -76.378 96.063
f 161/306/57 166/315/57 164/308/57

f 161/306/57 162/305/57 166/315/57

usemtl Color_I03
vn 1.48629e-14 -3.79953e-15 -1
f 163/307/60 166/315/60 162/305/60

f 166/315/60 163/307/60 164/308/60

usemtl Color_M09
v 112722 159.152 -62450.9
vt -71.2598 1.78358e-12
vn -1 1.54534e-14 5.11354e-14
vt -72.4409 31.4961
vt -72.4409 1.78404e-12
f 167/316/61 54/317/61 18/318/61

vt -71.2598 31.4961
f 54/317/61 167/316/61 148/319/61

g Mesh4 Group3 Group1 Model

vt 111.024 1.87714e-11
vn -1.79884e-13 1 1.79167e-13
v 113742 2659.15 -60670.9
vt 87.4016 1.1811
v 113742 2659.15 -60640.9
vt 87.4016 1.87714e-11
f 43/320/62 168/321/62 169/322/62

v 114312 2659.15 -60670.9
vt 109.843 1.1811
f 168/321/62 43/320/62 170/323/62

v 114312 2659.15 -62450.9
vt 109.843 71.2598
f 170/323/62 43/320/62 171/324/62

vt 111.024 72.4409
f 44/325/62 171/324/62 43/320/62

vt 87.4016 72.4409
f 45/326/62 171/324/62 44/325/62

v 113742 2659.15 -62450.9
vt 87.4016 71.2598
f 171/324/62 45/326/62 172/327/62

vn -1 -1.6771e-14 -1.09317e-26
v 113742 959.152 -62450.9
f 45/277/63 173/319/63 172/276/63

v 113742 959.152 -62480.9
f 173/319/63 45/277/63 174/317/63

v 113742 2159.15 -62480.9
f 174/317/63 45/277/63 175/275/63

v 113802 2219.15 -62480.9
vt -89.7638 81.1024
vn 0 3.05311e-16 -1
vt -87.4016 78.7402
vt -87.4016 98.4252
f 176/328/64 175/329/64 45/330/64

v 114342 2159.15 -62480.9
vt -111.024 78.7402
f 175/329/64 176/328/64 177/331/64

v 114282 2219.15 -62480.9
vt -108.661 81.1024
f 177/331/64 176/328/64 178/332/64

usemtl Color_I03
v 114282 2599.15 -62480.9
vt -108.661 96.063
f 176/328/12 179/333/12 178/332/12

v 113802 2599.15 -62480.9
vt -89.7638 96.063
f 179/333/12 176/328/12 180/334/12

usemtl Color_M09
f 176/328/64 45/330/64 180/334/64

f 180/334/64 45/330/64 179/333/64

vt -111.024 98.4252
f 179/333/64 45/330/64 44/335/64

f 44/335/64 178/332/64 179/333/64

f 178/332/64 44/335/64 177/331/64

vn 1 8.64402e-14 -1.6681e-13
v 114342 2159.15 -62450.9
f 44/304/65 181/281/65 177/280/65

v 114342 2219.15 -62390.9
vt 68.8976 81.1024
f 44/304/65 182/336/65 181/281/65

v 114342 2599.15 -62390.9
vt 68.8976 96.063
f 44/304/65 183/337/65 182/336/65

v 114342 2599.15 -61310.9
vt 26.378 96.063
f 44/304/65 184/338/65 183/337/65

v 114342 2659.15 -61250.9
vt 24.0157 98.4252
f 185/339/65 184/338/65 44/304/65

v 114342 2159.15 -61250.9
vt 24.0157 78.7402
f 184/338/65 185/339/65 186/340/65

v 114342 2219.15 -61190.9
vt 21.6535 81.1024
vn 1 8.13354e-14 2.67705e-13
f 187/341/66 186/340/66 185/339/66

v 114342 2219.15 -60730.9
vt 3.54331 81.1024
f 188/342/66 186/340/66 187/341/66

v 114342 2159.15 -60640.9
vt 3.08584e-11 78.7402
f 188/342/66 189/343/66 186/340/66

vt 3.08584e-11 98.4252
f 189/343/66 188/342/66 43/344/66

v 114342 2599.15 -60730.9
vt 3.54331 96.063
f 43/344/66 188/342/66 190/345/66

usemtl Color_I03
vn 1 1.51981e-14 1.2398e-13
v 114342 2599.15 -61190.9
vt 21.6535 96.063
f 188/342/67 191/346/67 190/345/67

f 191/346/67 188/342/67 187/341/67

usemtl Color_M09
f 185/339/66 191/346/66 187/341/66

f 185/339/66 190/345/66 191/346/66

f 190/345/66 185/339/66 43/344/66

vt 111.024 24.0157
f 44/325/62 43/320/62 185/347/62

v 114282 2219.15 -60640.9
vt 108.661 81.1024
vn 0 -3.05311e-16 1
vt 111.024 78.7402
vt 111.024 98.4252
f 192/348/68 189/349/68 43/350/68

v 113742 2159.15 -60640.9
vt 87.4016 78.7402
f 189/349/68 192/348/68 193/351/68

v 113802 2219.15 -60640.9
vt 89.7638 81.1024
f 194/352/68 193/351/68 192/348/68

vt 87.4016 98.4252
f 193/351/68 194/352/68 169/353/68

v 113802 2599.15 -60640.9
vt 89.7638 96.063
f 169/353/68 194/352/68 195/354/68

usemtl Color_I03
vn 1.02765e-29 3.44333e-15 1
v 114282 2599.15 -60640.9
vt 108.661 96.063
f 194/352/69 196/355/69 195/354/69

f 196/355/69 194/352/69 192/348/69

usemtl Color_M09
f 192/348/68 43/350/68 196/355/68

f 196/355/68 43/350/68 195/354/68

f 169/353/68 195/354/68 43/350/68

usemtl Dirty_Wall
vn -1 2.19461e-13 6.7004e-29
vt -2.63603e-15 0.263158
f 168/210/70 193/211/70 169/356/70

v 113742 2159.15 -60670.9
f 193/211/70 168/210/70 197/208/70

vn -1 -9.14421e-14 -1.70534e-28
vt -2.63603e-15 0.0842105
f 197/208/71 85/357/71 193/211/71

v 113742 959.152 -60670.9
vt -0.00273859 0.0842105
f 85/357/71 197/208/71 198/358/71

usemtl Color_M09
v 114316 959.152 -60670.9
vt -110.023 1.1811
vn 1.60824e-13 -1 -1.18814e-13
vt -87.4016 4.87904e-12
vt -87.4016 1.1811
f 199/359/72 85/360/72 198/361/72

vt -111.024 4.87904e-12
f 85/360/72 199/359/72 84/362/72

v 114342 959.152 -62480.9
vt -111.024 72.4409
f 84/362/72 199/359/72 200/363/72

v 114316 959.152 -62450.9
vt -110.023 71.2598
f 201/364/72 200/363/72 199/359/72

vt -87.4016 71.2598
f 173/365/72 200/363/72 201/364/72

vt -87.4016 72.4409
f 200/363/72 173/365/72 174/366/72

vt -87.4016 31.4961
vn -4.32174e-30 3.00796e-16 -1
v 113802 1019.15 -62480.9
vt -89.7638 33.8583
vt -111.024 31.4961
f 174/367/73 202/368/73 200/369/73

f 202/368/73 174/367/73 175/329/73

v 113802 2099.15 -62480.9
vt -89.7638 76.378
f 202/368/73 175/329/73 203/370/73

v 114282 2099.15 -62480.9
vt -108.661 76.378
f 203/370/73 175/329/73 204/371/73

f 177/331/73 204/371/73 175/329/73

v 114282 1019.15 -62480.9
vt -108.661 33.8583
f 177/331/73 205/372/73 204/371/73

f 200/369/73 205/372/73 177/331/73

f 205/372/73 200/369/73 202/368/73

usemtl Color_I03
vn 0 3.34218e-16 -1
f 203/370/74 205/372/74 202/368/74

f 205/372/74 203/370/74 204/371/74

usemtl Color_M09
vn 1 5.9415e-14 -3.47559e-13
f 181/281/75 200/282/75 177/280/75

v 114342 1019.15 -62390.9
vt 68.8976 33.8583
f 206/373/75 200/282/75 181/281/75

v 114342 1019.15 -61910.9
vt 50 33.8583
f 207/374/75 200/282/75 206/373/75

v 114342 959.152 -61850.9
vt 47.6378 31.4961
f 207/374/75 208/375/75 200/282/75

v 114342 2099.15 -61910.9
vt 50 76.378
f 208/375/75 207/374/75 209/376/75

usemtl Color_I03
vn 1 -5.68171e-15 1.24079e-13
v 114342 2099.15 -62390.9
vt 68.8976 76.378
f 207/374/76 210/377/76 209/376/76

f 210/377/76 207/374/76 206/373/76

usemtl Color_M09
f 181/281/75 210/377/75 206/373/75

f 181/281/75 209/376/75 210/377/75

v 114342 2159.15 -61850.9
vt 47.6378 78.7402
f 211/378/75 209/376/75 181/281/75

f 209/376/75 211/378/75 208/375/75

v 114342 1019.15 -61790.9
vt 45.2756 33.8583
vn 1 -4.44089e-16 1.2463e-13
f 212/379/77 208/375/77 211/378/77

v 114342 1019.15 -61310.9
vt 26.378 33.8583
f 213/380/77 208/375/77 212/379/77

v 114342 959.152 -61250.9
vt 24.0157 31.4961
f 213/380/77 214/381/77 208/375/77

v 114342 2099.15 -61310.9
vt 26.378 76.378
f 214/381/77 213/380/77 215/382/77

usemtl Color_I03
vn 1 -3.34218e-15 1.18815e-13
v 114342 2099.15 -61790.9
vt 45.2756 76.378
f 213/380/78 216/383/78 215/382/78

f 216/383/78 213/380/78 212/379/78

usemtl Color_M09
f 211/378/77 216/383/77 212/379/77

f 211/378/77 215/382/77 216/383/77

f 186/340/77 215/382/77 211/378/77

f 215/382/77 186/340/77 214/381/77

v 114342 1019.15 -61190.9
vt 21.6535 33.8583
vn 1 3.18844e-14 1.74784e-13
f 217/384/79 214/381/79 186/340/79

v 114342 1019.15 -60730.9
vt 3.54331 33.8583
f 218/385/79 214/381/79 217/384/79

vt 2.0542e-11 31.4961
f 218/385/79 84/386/79 214/381/79

vt 2.0542e-11 78.7402
f 84/386/79 218/385/79 189/387/79

v 114342 2099.15 -60730.9
vt 3.54331 76.378
f 189/387/79 218/385/79 219/388/79

usemtl Color_I03
vn 1 -3.34218e-15 1.17703e-13
v 114342 2099.15 -61190.9
vt 21.6535 76.378
f 218/385/80 220/389/80 219/388/80

f 220/389/80 218/385/80 217/384/80

usemtl Color_M09
f 186/340/79 220/389/79 217/384/79

f 186/340/79 219/388/79 220/389/79

f 219/388/79 186/340/79 189/387/79

vn 2.19151e-30 -1.50398e-16 1
v 114282 1019.15 -60640.9
vt 108.661 33.8583
vt 111.024 31.4961
f 189/349/81 221/390/81 84/391/81

v 114282 2099.15 -60640.9
vt 108.661 76.378
f 221/390/81 189/349/81 222/392/81

v 113802 2099.15 -60640.9
vt 89.7638 76.378
f 222/392/81 189/349/81 223/393/81

f 193/351/81 223/393/81 189/349/81

v 113802 1019.15 -60640.9
vt 89.7638 33.8583
f 193/351/81 224/394/81 223/393/81

vt 87.4016 31.4961
f 85/395/81 224/394/81 193/351/81

f 224/394/81 85/395/81 84/391/81

f 224/394/81 84/391/81 221/390/81

usemtl Color_I03
vn 0 -5.43105e-16 1
f 222/392/82 224/394/82 221/390/82

f 224/394/82 222/392/82 223/393/82

usemtl Color_M09
vt -111.024 24.0157
f 84/362/72 200/363/72 214/396/72

vt -111.024 47.6378
f 214/396/72 200/363/72 208/397/72

v 114342 2219.15 -61310.9
vt 26.378 81.1024
f 225/398/65 186/340/65 211/378/65

f 186/340/65 225/398/65 184/338/65

usemtl Color_I03
vn 1 8.54895e-15 1.2199e-13
f 225/398/83 183/337/83 184/338/83

f 183/337/83 225/398/83 182/336/83

usemtl Color_M09
f 225/398/65 211/378/65 182/336/65

f 182/336/65 211/378/65 181/281/65

