# Alias OBJ Model File
# Exported from SketchUp, (c) 2000-2012 Trimble Navigation Limited
# File units = millimeters

mtllib Gờ đất.mtl

g Mesh1 Group2 Group1 Model

usemtl map_gach_lat_via_he_terrazzo
v 132837 1821.15 -116015
vt -66.4432 1.70987
vn -1 0 -0
v 132837 159.152 -97617.9
vt -58.1934 0.964574
v 132837 1821.15 -97617.9
vt -58.1934 1.70987
f 1/1/1 2/2/1 3/3/1

v 132837 159.152 -116015
vt -66.4432 0.964574
f 2/2/1 1/1/1 4/4/1

vt -33.4552 1.70987
vn 0 0 -1
v 136187 159.152 -116015
vt -34.9575 0.964574
vt -33.4552 0.964574
f 1/5/2 5/6/2 4/7/2

v 136187 1821.15 -116015
vt -34.9575 1.70987
f 5/6/2 1/5/2 6/8/2

vt 33.4552 66.4432
vn 0 1 -0
v 133643 1821.15 -115209
vt 33.8168 66.0817
vt 34.9575 66.4432
f 1/9/3 7/10/3 6/11/3

v 133643 1821.15 -98424.2
vt 33.8168 58.555
f 7/10/3 1/9/3 8/12/3

vt 33.4552 58.1934
f 3/13/3 8/12/3 1/9/3

v 136187 1821.15 -97617.9
vt 34.9575 58.1934
f 8/12/3 3/13/3 9/14/3

vt 33.4552 0.964574
vn 0 0 1
vt 34.9575 1.70987
vt 33.4552 1.70987
f 2/15/4 9/16/4 3/17/4

v 136187 159.152 -97617.9
vt 34.9575 0.964574
f 9/16/4 2/15/4 10/18/4

vt 66.4432 0.964574
vn 1 0 -0
vt 58.1934 1.70987
vt 58.1934 0.964574
f 5/19/5 9/20/5 10/21/5

vt 66.4432 1.70987
f 9/20/5 5/19/5 6/22/5

v 135380 1821.15 -115209
vt 34.5959 66.0817
f 6/11/3 11/23/3 9/14/3

f 6/11/3 7/10/3 11/23/3

v 133643 1208.15 -115209
vt 33.8168 1.43498
vt 34.5959 1.70987
vt 33.8168 1.70987
f 12/24/4 11/25/4 7/26/4

v 135380 1208.15 -115209
vt 34.5959 1.43498
f 11/25/4 12/24/4 13/27/4

v 135380 1208.15 -98424.2
vt 34.5959 58.555
f 12/10/3 14/28/3 13/23/3

v 133643 1208.15 -98424.2
f 14/28/3 12/10/3 15/12/3

vt 66.0817 1.43498
vt 58.555 1.70987
vt 58.555 1.43498
f 12/29/5 8/30/5 15/31/5

vt 66.0817 1.70987
f 8/30/5 12/29/5 7/32/5

vt -33.8168 1.70987
vt -34.5959 1.43498
vt -33.8168 1.43498
f 8/33/2 14/34/2 15/35/2

v 135380 1821.15 -98424.2
vt -34.5959 1.70987
f 14/34/2 8/33/2 16/36/2

f 8/12/3 9/14/3 16/28/3

f 16/28/3 9/14/3 11/23/3

vt -66.0817 1.70987
vt -58.555 1.43498
vt -58.555 1.70987
f 11/37/1 14/38/1 16/39/1

vt -66.0817 1.43498
f 14/38/1 11/37/1 13/40/1

g Mesh2 Group1 Model

usemtl FrontColor
v 114749 159.152 -51948.6
vt -1426.96 138.571
vn 0 -1 -0
v 78504.5 159.152 -48428.9
vt 0 0
v 78504.5 159.152 -51948.6
vt 0 138.571
f 17/41/6 18/42/6 19/43/6

v 114749 159.152 -48428.9
vt -1426.96 0
f 18/42/6 17/41/6 20/44/6

usemtl map_gach_lat_via_he_terrazzo
vt 37.714 0.964574
vn 1 -3.82516e-15 -8.6626e-16
v 114749 1037.15 -48428.9
vt 36.1356 1.3583
vt 36.1356 0.964574
f 17/45/7 21/46/7 20/47/7

v 114749 1037.15 -52062.7
vt 37.7651 1.3583
f 21/46/7 17/45/7 22/48/7

v 114749 159.152 -52062.7
vt 37.7651 0.964574
f 22/48/7 17/45/7 23/49/7

usemtl FrontColor
vt -1426.96 143.06
f 19/43/6 23/50/6 17/41/6

v 78504.5 159.152 -52062.7
vt 0 143.06
f 23/50/6 19/43/6 24/51/6

usemtl map_gach_lat_via_he_terrazzo
vt -37.714 0.964574
v 78504.5 1037.15 -52062.7
vt -37.7651 1.3583
vt -37.7651 0.964574
f 19/52/1 25/53/1 24/54/1

vt -36.1356 0.964574
f 18/55/1 25/53/1 19/52/1

v 78504.5 1037.15 -48428.9
vt -36.1356 1.3583
f 25/53/1 18/55/1 26/56/1

vt 11.9126 0.964574
vt 28.1658 1.3583
vt 11.9126 1.3583
f 18/57/4 21/58/4 26/59/4

vt 28.1658 0.964574
f 21/58/4 18/57/4 20/60/4

vt -2.72659 5.48628
vt -18.9798 7.11574
vt -18.9798 5.48628
f 21/61/3 25/62/3 26/63/3

vt -2.72659 7.11574
f 25/62/3 21/61/3 22/64/3

vt -28.1658 0.964574
vt -11.9126 1.3583
vt -28.1658 1.3583
f 23/65/2 25/66/2 22/67/2

vt -11.9126 0.964574
f 25/66/2 23/65/2 24/68/2

g Mesh3 Group1 Model

v 159318 1037.15 -48428.9
vt -2.86739 5.48628
v 125395 1037.15 -52062.7
vt -18.0794 7.11574
v 125395 1037.15 -48428.9
vt -18.0794 5.48628
f 27/69/3 28/70/3 29/71/3

v 159318 1037.15 -52062.7
vt -2.86739 7.11574
f 28/70/3 27/69/3 30/72/3

vn 1 7.65032e-15 1.73252e-15
v 159318 159.152 -51948.6
f 27/46/8 31/45/8 30/48/8

v 159318 159.152 -48428.9
f 31/45/8 27/46/8 32/47/8

vt 48.1518 1.3583
v 125395 159.152 -48428.9
vt 32.9398 0.964574
vt 48.1518 0.964574
f 27/73/4 33/74/4 32/75/4

vt 32.9398 1.3583
f 33/74/4 27/73/4 29/76/4

f 28/53/1 33/55/1 29/56/1

v 125395 159.152 -51948.6
f 33/55/1 28/53/1 34/52/1

v 125395 159.152 -52062.7
f 34/52/1 28/53/1 35/54/1

vt -32.9398 1.3583
v 159318 159.152 -52062.7
vt -48.1518 0.964574
vt -32.9398 0.964574
f 28/77/2 36/78/2 35/79/2

vt -48.1518 1.3583
f 36/78/2 28/77/2 30/80/2

f 30/48/8 31/45/8 36/49/8

usemtl FrontColor
vt -1846.09 138.571
vt -3181.63 143.06
vt -3181.63 138.571
f 34/81/6 36/82/6 31/83/6

vt -1846.09 143.06
f 36/82/6 34/81/6 35/84/6

vt -1846.09 0
f 31/83/6 33/85/6 34/81/6

vt -3181.63 0
f 33/85/6 31/83/6 32/86/6

