# Alias OBJ Model File
# Exported from SketchUp, (c) 2000-2012 Trimble Navigation Limited
# File units = millimeters

mtllib Hàng rào trái.mtl

g Mesh1 Group2 Group1 H_ng_d_o_tr_i1 Model

usemtl FrontColor
v 110182 1370.02 -51546.6
vt -13.7351 13.1052
vn -1 -9.83876e-15 -0
v 110182 1037.15 -51197.7
vt 0 -1.39817e-27
v 110182 1370.02 -51197.7
vt 0 13.1052
f 1/1/1 2/2/1 3/3/1

v 110182 1037.15 -51546.6
vt -13.7351 -1.39817e-27
f 2/2/1 1/1/1 4/4/1

vt -1.42109e-14 13.1052
vn 0 0 -1
v 113987 1037.15 -51546.6
vt -149.803 1.47082e-12
vt -1.42109e-13 0
f 1/5/2 5/6/2 4/7/2

v 113987 1370.02 -51546.6
vt -149.803 13.1052
f 5/6/2 1/5/2 6/8/2

vt 1.43149e-13 13.7351
vn -9.83876e-15 1 -0
v 113987 1370.02 -51197.7
vt 149.803 0
vt 149.803 13.7351
f 1/9/3 7/10/3 6/11/3

vt 1.43149e-13 0
f 7/10/3 1/9/3 3/12/3

vt 1.42109e-14 13.1052
vn 0 0 1
v 113987 1037.15 -51197.7
vt 149.803 1.47082e-12
vt 149.803 13.1052
f 3/13/4 8/14/4 7/15/4

vt 1.42109e-13 0
f 8/14/4 3/13/4 2/16/4

vn 9.83876e-15 -1 -0
vt -149.803 13.7351
vt -149.803 0
f 2/7/5 5/17/5 8/18/5

vt -1.42109e-13 13.7351
f 5/17/5 2/7/5 4/19/5

vt 13.7351 -3.05333e-15
vn 1 9.83876e-15 -0
vt 0 -3.05333e-15
f 5/20/6 7/3/6 8/21/6

vt 13.7351 13.1052
f 7/3/6 5/20/6 6/22/6

g Mesh2 Group4 Group3 Group1 H_ng_d_o_tr_i1 Model

v 109986 1583.59 -51401.1
vn -1 -8.7464e-16 -0
v 109986 1550.92 -51378.1
v 109986 1583.59 -51378.1
f 9/1/7 10/2/7 11/3/7

v 109986 1550.92 -51401.1
f 10/2/7 9/1/7 12/4/7

v 114186 1550.92 -51401.1
f 9/5/2 13/6/2 12/7/2

v 114186 1583.59 -51401.1
f 13/6/2 9/5/2 14/8/2

vn -1.10675e-13 1 -0
v 114186 1583.59 -51378.1
f 9/9/8 15/10/8 14/11/8

f 15/10/8 9/9/8 11/12/8

v 114186 1550.92 -51378.1
f 11/13/4 16/14/4 15/15/4

f 16/14/4 11/13/4 10/16/4

vn 1.10675e-13 -1 -0
f 10/7/9 13/17/9 16/18/9

f 13/17/9 10/7/9 12/19/9

vn 1 8.7464e-16 -0
f 13/20/10 15/3/10 16/21/10

f 15/3/10 13/20/10 14/22/10

g Mesh3 Group5 Group3 Group1 H_ng_d_o_tr_i1 Model

v 109986 2145.59 -51401.1
v 109986 2112.93 -51378.1
v 109986 2145.59 -51378.1
f 17/1/7 18/2/7 19/3/7

v 109986 2112.93 -51401.1
f 18/2/7 17/1/7 20/4/7

v 114186 2112.93 -51401.1
f 17/5/2 21/6/2 20/7/2

v 114186 2145.59 -51401.1
f 21/6/2 17/5/2 22/8/2

v 114186 2145.59 -51378.1
f 17/9/8 23/10/8 22/11/8

f 23/10/8 17/9/8 19/12/8

v 114186 2112.93 -51378.1
f 19/13/4 24/14/4 23/15/4

f 24/14/4 19/13/4 18/16/4

f 18/7/9 21/17/9 24/18/9

f 21/17/9 18/7/9 20/19/9

f 21/20/10 23/3/10 24/21/10

f 23/3/10 21/20/10 22/22/10

g Mesh4 Group6 Group3 Group1 H_ng_d_o_tr_i1 Model

v 109986 2559.27 -51401.1
v 109986 2526.6 -51378.1
v 109986 2559.27 -51378.1
f 25/1/7 26/2/7 27/3/7

v 109986 2526.6 -51401.1
f 26/2/7 25/1/7 28/4/7

v 114186 2526.6 -51401.1
f 25/5/2 29/6/2 28/7/2

v 114186 2559.27 -51401.1
f 29/6/2 25/5/2 30/8/2

v 114186 2559.27 -51378.1
f 25/9/8 31/10/8 30/11/8

f 31/10/8 25/9/8 27/12/8

v 114186 2526.6 -51378.1
f 27/13/4 32/14/4 31/15/4

f 32/14/4 27/13/4 26/16/4

f 26/7/9 29/17/9 32/18/9

f 29/17/9 26/7/9 28/19/9

f 29/20/10 31/3/10 32/21/10

f 31/3/10 29/20/10 30/22/10

g Mesh5 Group7 Group3 Group1 H_ng_d_o_tr_i1 Model

v 109986 1779.92 -51401.1
v 109986 1747.26 -51378.1
v 109986 1779.92 -51378.1
f 33/1/7 34/2/7 35/3/7

v 109986 1747.26 -51401.1
f 34/2/7 33/1/7 36/4/7

v 114186 1747.26 -51401.1
f 33/5/2 37/6/2 36/7/2

v 114186 1779.92 -51401.1
f 37/6/2 33/5/2 38/8/2

v 114186 1779.92 -51378.1
f 33/9/8 39/10/8 38/11/8

f 39/10/8 33/9/8 35/12/8

v 114186 1747.26 -51378.1
f 35/13/4 40/14/4 39/15/4

f 40/14/4 35/13/4 34/16/4

f 34/7/9 37/17/9 40/18/9

f 37/17/9 34/7/9 36/19/9

f 37/20/10 39/3/10 40/21/10

f 39/3/10 37/20/10 38/22/10

g Mesh6 Group8 Group3 Group1 H_ng_d_o_tr_i1 Model

v 109986 2347.93 -51401.1
v 109986 2315.27 -51378.1
v 109986 2347.93 -51378.1
f 41/1/7 42/2/7 43/3/7

v 109986 2315.27 -51401.1
f 42/2/7 41/1/7 44/4/7

v 114186 2315.27 -51401.1
f 41/5/2 45/6/2 44/7/2

v 114186 2347.93 -51401.1
f 45/6/2 41/5/2 46/8/2

v 114186 2347.93 -51378.1
f 41/9/8 47/10/8 46/11/8

f 47/10/8 41/9/8 43/12/8

v 114186 2315.27 -51378.1
f 43/13/4 48/14/4 47/15/4

f 48/14/4 43/13/4 42/16/4

f 42/7/9 45/17/9 48/18/9

f 45/17/9 42/7/9 44/19/9

f 45/20/10 47/3/10 48/21/10

f 47/3/10 45/20/10 46/22/10

g Mesh7 Group9 Group3 Group1 H_ng_d_o_tr_i1 Model

v 109986 1964.26 -51401.1
v 109986 1931.59 -51378.1
v 109986 1964.26 -51378.1
f 49/1/7 50/2/7 51/3/7

v 109986 1931.59 -51401.1
f 50/2/7 49/1/7 52/4/7

v 114186 1931.59 -51401.1
f 49/5/2 53/6/2 52/7/2

v 114186 1964.26 -51401.1
f 53/6/2 49/5/2 54/8/2

v 114186 1964.26 -51378.1
f 49/9/8 55/10/8 54/11/8

f 55/10/8 49/9/8 51/12/8

v 114186 1931.59 -51378.1
f 51/13/4 56/14/4 55/15/4

f 56/14/4 51/13/4 50/16/4

f 50/7/9 53/17/9 56/18/9

f 53/17/9 50/7/9 52/19/9

f 53/20/10 55/3/10 56/21/10

f 55/3/10 53/20/10 54/22/10

g Mesh8 Group10 Group1 H_ng_d_o_tr_i1 Model

v 114749 1037.15 -51747.9
vt -29.9213 29.2126
vn 0 -1 -0
v 113989 1037.15 -51005.9
vt 0 0
v 113989 1037.15 -51747.9
vt 0 29.2126
f 57/23/11 58/24/11 59/25/11

v 114749 1037.15 -51005.9
vt -29.9213 0
f 58/24/11 57/23/11 60/26/11

vt 29.2126 0
vn 1 0 -0
v 114749 1375.15 -51005.9
vt 0 13.3071
f 57/27/12 61/28/12 60/24/12

v 114749 1375.15 -51747.9
vt 29.2126 13.3071
f 61/28/12 57/27/12 62/29/12

v 113989 1375.15 -51747.9
vt -29.9213 13.3071
f 57/26/2 63/28/2 62/30/2

f 63/28/2 57/26/2 59/24/2

vn -1 0 -0
vt -29.2126 13.3071
vt -29.2126 0
f 58/24/13 63/31/13 59/32/13

v 113989 1375.15 -51005.9
f 63/31/13 58/24/13 64/28/13

vt 29.9213 13.3071
f 58/24/4 61/33/4 64/28/4

vt 29.9213 0
f 61/33/4 58/24/4 60/34/4

v 114186 1375.15 -51202.4
vt 7.73875 7.73875
vn 0 1 -0
f 65/35/14 64/24/14 61/34/14

f 64/24/14 65/35/14 63/25/14

v 114186 1375.15 -51551.3
vt 7.73875 21.4738
f 66/36/14 63/25/14 65/35/14

vt 29.9213 29.2126
f 63/25/14 66/36/14 62/37/14

v 114553 1375.15 -51551.3
vt 22.1825 21.4738
f 62/37/14 66/36/14 67/38/14

v 114186 2730.15 -51551.3
vt -7.73875 66.6535
vt -22.1825 13.3071
vt -7.73875 13.3071
f 68/39/2 67/40/2 66/41/2

v 114553 2730.15 -51551.3
vt -22.1825 66.6535
f 67/40/2 68/39/2 69/42/2

v 114553 2730.15 -51202.4
vt 22.1825 7.73875
f 68/36/14 70/43/14 69/38/14

v 114186 2730.15 -51202.4
f 70/43/14 68/36/14 71/35/14

vt -21.4738 66.6535
f 68/44/13 65/41/13 71/39/13

vt -21.4738 13.3071
f 65/41/13 68/44/13 66/45/13

vt 7.73875 13.3071
vt 22.1825 66.6535
vt 7.73875 66.6535
f 65/46/4 70/47/4 71/48/4

v 114553 1375.15 -51202.4
vt 22.1825 13.3071
f 70/47/4 65/46/4 72/49/4

f 65/35/14 61/34/14 72/43/14

f 72/43/14 61/34/14 67/38/14

f 62/37/14 67/38/14 61/34/14

vt 21.4738 13.3071
f 67/50/12 70/48/12 72/46/12

vt 21.4738 66.6535
f 70/48/12 67/50/12 69/51/12

g Mesh9 Group10 Group1 H_ng_d_o_tr_i1 Model

v 114749 2733.06 -51747.9
v 113989 2733.06 -51005.9
v 113989 2733.06 -51747.9
f 73/23/11 74/24/11 75/25/11

v 114749 2733.06 -51005.9
f 74/24/11 73/23/11 76/26/11

vt 29.2126 66.768
v 114749 2829.06 -51005.9
vt 0 70.5476
vt 0 66.768
f 73/52/12 77/53/12 76/54/12

v 114749 2829.06 -51747.9
vt 29.2126 70.5476
f 77/53/12 73/52/12 78/55/12

vt -29.9213 66.768
v 113989 2829.06 -51747.9
vt -29.9213 70.5476
f 73/56/2 79/53/2 78/57/2

f 79/53/2 73/56/2 75/54/2

vt -29.2126 70.5476
vt -29.2126 66.768
f 74/54/13 79/58/13 75/59/13

v 113989 2829.06 -51005.9
f 79/58/13 74/54/13 80/53/13

vt 29.9213 70.5476
f 74/54/4 77/60/4 80/53/4

vt 29.9213 66.768
f 77/60/4 74/54/4 76/61/4

f 77/34/14 79/25/14 80/24/14

f 79/25/14 77/34/14 78/37/14

g Mesh10 Group11 Group1 H_ng_d_o_tr_i1 Model

v 82779.8 1037.15 -51693.2
v 82019.8 1037.15 -50951.2
v 82019.8 1037.15 -51693.2
f 81/23/11 82/24/11 83/25/11

v 82779.8 1037.15 -50951.2
f 82/24/11 81/23/11 84/26/11

v 82779.8 1375.15 -50951.2
f 81/27/12 85/28/12 84/24/12

v 82779.8 1375.15 -51693.2
f 85/28/12 81/27/12 86/29/12

v 82019.8 1375.15 -51693.2
f 81/26/2 87/28/2 86/30/2

f 87/28/2 81/26/2 83/24/2

f 82/24/13 87/31/13 83/32/13

v 82019.8 1375.15 -50951.2
f 87/31/13 82/24/13 88/28/13

f 82/24/4 85/33/4 88/28/4

f 85/33/4 82/24/4 84/34/4

v 82216.4 1375.15 -51147.7
f 89/35/14 88/24/14 85/34/14

f 88/24/14 89/35/14 87/25/14

v 82216.4 1375.15 -51496.6
f 90/36/14 87/25/14 89/35/14

f 87/25/14 90/36/14 86/37/14

v 82583.2 1375.15 -51496.6
f 86/37/14 90/36/14 91/38/14

v 82216.4 2730.15 -51496.6
f 92/39/2 91/40/2 90/41/2

v 82583.2 2730.15 -51496.6
f 91/40/2 92/39/2 93/42/2

v 82583.2 2730.15 -51147.7
f 92/36/14 94/43/14 93/38/14

v 82216.4 2730.15 -51147.7
f 94/43/14 92/36/14 95/35/14

f 92/44/13 89/41/13 95/39/13

f 89/41/13 92/44/13 90/45/13

f 89/46/4 94/47/4 95/48/4

v 82583.2 1375.15 -51147.7
f 94/47/4 89/46/4 96/49/4

f 89/35/14 85/34/14 96/43/14

f 96/43/14 85/34/14 91/38/14

f 86/37/14 91/38/14 85/34/14

f 91/50/12 94/48/12 96/46/12

f 94/48/12 91/50/12 93/51/12

g Mesh11 Group11 Group1 H_ng_d_o_tr_i1 Model

v 82779.8 2733.06 -51693.2
v 82779.8 2829.06 -50951.2
v 82779.8 2733.06 -50951.2
f 97/52/12 98/53/12 99/54/12

v 82779.8 2829.06 -51693.2
f 98/53/12 97/52/12 100/55/12

v 82019.8 2829.06 -51693.2
f 97/56/2 101/53/2 100/57/2

v 82019.8 2733.06 -51693.2
f 101/53/2 97/56/2 102/54/2

v 82019.8 2733.06 -50951.2
f 97/23/11 103/24/11 102/25/11

f 103/24/11 97/23/11 99/26/11

f 98/60/4 103/54/4 99/61/4

v 82019.8 2829.06 -50951.2
f 103/54/4 98/60/4 104/53/4

f 98/34/14 101/25/14 104/24/14

f 101/25/14 98/34/14 100/37/14

f 101/58/13 103/54/13 104/53/13

f 103/54/13 101/58/13 102/59/13

g Mesh12 Group12 Group1 H_ng_d_o_tr_i1 Model

v 82779.8 1370.02 -51491.9
v 82779.8 1037.15 -51143
v 82779.8 1370.02 -51143
f 105/1/1 106/2/1 107/3/1

v 82779.8 1037.15 -51491.9
f 106/2/1 105/1/1 108/4/1

v 86584.8 1037.15 -51491.9
f 105/5/2 109/6/2 108/7/2

v 86584.8 1370.02 -51491.9
f 109/6/2 105/5/2 110/8/2

v 86584.8 1370.02 -51143
f 105/9/3 111/10/3 110/11/3

f 111/10/3 105/9/3 107/12/3

v 86584.8 1037.15 -51143
f 107/13/4 112/14/4 111/15/4

f 112/14/4 107/13/4 106/16/4

f 106/7/5 109/17/5 112/18/5

f 109/17/5 106/7/5 108/19/5

f 109/20/6 111/3/6 112/21/6

f 111/3/6 109/20/6 110/22/6

g Mesh13 Group13 Group1 H_ng_d_o_tr_i1 Model

v 96481 1037.15 -51693.2
v 95721 1037.15 -50951.2
v 95721 1037.15 -51693.2
f 113/23/11 114/24/11 115/25/11

v 96481 1037.15 -50951.2
f 114/24/11 113/23/11 116/26/11

v 96481 1375.15 -50951.2
f 113/27/12 117/28/12 116/24/12

v 96481 1375.15 -51693.2
f 117/28/12 113/27/12 118/29/12

v 95721 1375.15 -51693.2
f 113/26/2 119/28/2 118/30/2

f 119/28/2 113/26/2 115/24/2

f 114/24/13 119/31/13 115/32/13

v 95721 1375.15 -50951.2
f 119/31/13 114/24/13 120/28/13

f 114/24/4 117/33/4 120/28/4

f 117/33/4 114/24/4 116/34/4

v 95917.5 1375.15 -51147.7
f 121/35/14 120/24/14 117/34/14

f 120/24/14 121/35/14 119/25/14

v 95917.5 1375.15 -51496.6
f 122/36/14 119/25/14 121/35/14

f 119/25/14 122/36/14 118/37/14

v 96284.4 1375.15 -51496.6
f 118/37/14 122/36/14 123/38/14

v 95917.5 2730.15 -51496.6
f 124/39/2 123/40/2 122/41/2

v 96284.4 2730.15 -51496.6
f 123/40/2 124/39/2 125/42/2

v 96284.4 2730.15 -51147.7
f 124/36/14 126/43/14 125/38/14

v 95917.5 2730.15 -51147.7
f 126/43/14 124/36/14 127/35/14

f 124/44/13 121/41/13 127/39/13

f 121/41/13 124/44/13 122/45/13

f 121/46/4 126/47/4 127/48/4

v 96284.4 1375.15 -51147.7
f 126/47/4 121/46/4 128/49/4

f 121/35/14 117/34/14 128/43/14

f 128/43/14 117/34/14 123/38/14

f 118/37/14 123/38/14 117/34/14

f 123/50/12 126/48/12 128/46/12

f 126/48/12 123/50/12 125/51/12

g Mesh14 Group13 Group1 H_ng_d_o_tr_i1 Model

v 96481 2733.06 -51693.2
v 95721 2733.06 -50951.2
v 95721 2733.06 -51693.2
f 129/23/11 130/24/11 131/25/11

v 96481 2733.06 -50951.2
f 130/24/11 129/23/11 132/26/11

v 96481 2829.06 -50951.2
f 129/52/12 133/53/12 132/54/12

v 96481 2829.06 -51693.2
f 133/53/12 129/52/12 134/55/12

v 95721 2829.06 -51693.2
f 129/56/2 135/53/2 134/57/2

f 135/53/2 129/56/2 131/54/2

f 130/54/13 135/58/13 131/59/13

v 95721 2829.06 -50951.2
f 135/58/13 130/54/13 136/53/13

f 130/54/4 133/60/4 136/53/4

f 133/60/4 130/54/4 132/61/4

f 133/34/14 135/25/14 136/24/14

f 135/25/14 133/34/14 134/37/14

g Mesh15 Group15 Group14 Group1 H_ng_d_o_tr_i1 Model

v 91717.4 1583.59 -51346.4
v 91717.4 1550.92 -51323.4
v 91717.4 1583.59 -51323.4
f 137/1/7 138/2/7 139/3/7

v 91717.4 1550.92 -51346.4
f 138/2/7 137/1/7 140/4/7

v 95917.5 1550.92 -51346.4
f 137/5/2 141/6/2 140/7/2

v 95917.5 1583.59 -51346.4
f 141/6/2 137/5/2 142/8/2

v 95917.5 1583.59 -51323.4
f 137/9/8 143/10/8 142/11/8

f 143/10/8 137/9/8 139/12/8

v 95917.5 1550.92 -51323.4
f 139/13/4 144/14/4 143/15/4

f 144/14/4 139/13/4 138/16/4

f 138/7/9 141/17/9 144/18/9

f 141/17/9 138/7/9 140/19/9

f 141/20/10 143/3/10 144/21/10

f 143/3/10 141/20/10 142/22/10

g Mesh16 Group16 Group14 Group1 H_ng_d_o_tr_i1 Model

v 91717.4 2145.59 -51346.4
v 91717.4 2112.93 -51323.4
v 91717.4 2145.59 -51323.4
f 145/1/7 146/2/7 147/3/7

v 91717.4 2112.93 -51346.4
f 146/2/7 145/1/7 148/4/7

v 95917.5 2112.93 -51346.4
f 145/5/2 149/6/2 148/7/2

v 95917.5 2145.59 -51346.4
f 149/6/2 145/5/2 150/8/2

v 95917.5 2145.59 -51323.4
f 145/9/8 151/10/8 150/11/8

f 151/10/8 145/9/8 147/12/8

v 95917.5 2112.93 -51323.4
f 147/13/4 152/14/4 151/15/4

f 152/14/4 147/13/4 146/16/4

f 146/7/9 149/17/9 152/18/9

f 149/17/9 146/7/9 148/19/9

f 149/20/10 151/3/10 152/21/10

f 151/3/10 149/20/10 150/22/10

g Mesh17 Group17 Group14 Group1 H_ng_d_o_tr_i1 Model

v 91717.4 2559.27 -51346.4
v 91717.4 2526.6 -51323.4
v 91717.4 2559.27 -51323.4
f 153/1/7 154/2/7 155/3/7

v 91717.4 2526.6 -51346.4
f 154/2/7 153/1/7 156/4/7

v 95917.5 2526.6 -51346.4
f 153/5/2 157/6/2 156/7/2

v 95917.5 2559.27 -51346.4
f 157/6/2 153/5/2 158/8/2

v 95917.5 2559.27 -51323.4
f 153/9/8 159/10/8 158/11/8

f 159/10/8 153/9/8 155/12/8

v 95917.5 2526.6 -51323.4
f 155/13/4 160/14/4 159/15/4

f 160/14/4 155/13/4 154/16/4

f 154/7/9 157/17/9 160/18/9

f 157/17/9 154/7/9 156/19/9

f 157/20/10 159/3/10 160/21/10

f 159/3/10 157/20/10 158/22/10

g Mesh18 Group18 Group14 Group1 H_ng_d_o_tr_i1 Model

v 91717.4 1779.92 -51346.4
v 91717.4 1747.26 -51323.4
v 91717.4 1779.92 -51323.4
f 161/1/7 162/2/7 163/3/7

v 91717.4 1747.26 -51346.4
f 162/2/7 161/1/7 164/4/7

v 95917.5 1747.26 -51346.4
f 161/5/2 165/6/2 164/7/2

v 95917.5 1779.92 -51346.4
f 165/6/2 161/5/2 166/8/2

v 95917.5 1779.92 -51323.4
f 161/9/8 167/10/8 166/11/8

f 167/10/8 161/9/8 163/12/8

v 95917.5 1747.26 -51323.4
f 163/13/4 168/14/4 167/15/4

f 168/14/4 163/13/4 162/16/4

f 162/7/9 165/17/9 168/18/9

f 165/17/9 162/7/9 164/19/9

f 165/20/10 167/3/10 168/21/10

f 167/3/10 165/20/10 166/22/10

g Mesh19 Group19 Group14 Group1 H_ng_d_o_tr_i1 Model

v 91717.4 2347.93 -51346.4
v 91717.4 2315.27 -51323.4
v 91717.4 2347.93 -51323.4
f 169/1/7 170/2/7 171/3/7

v 91717.4 2315.27 -51346.4
f 170/2/7 169/1/7 172/4/7

v 95917.5 2315.27 -51346.4
f 169/5/2 173/6/2 172/7/2

v 95917.5 2347.93 -51346.4
f 173/6/2 169/5/2 174/8/2

v 95917.5 2347.93 -51323.4
f 169/9/8 175/10/8 174/11/8

f 175/10/8 169/9/8 171/12/8

v 95917.5 2315.27 -51323.4
f 171/13/4 176/14/4 175/15/4

f 176/14/4 171/13/4 170/16/4

f 170/7/9 173/17/9 176/18/9

f 173/17/9 170/7/9 172/19/9

f 173/20/10 175/3/10 176/21/10

f 175/3/10 173/20/10 174/22/10

g Mesh20 Group20 Group14 Group1 H_ng_d_o_tr_i1 Model

v 91717.4 1964.26 -51346.4
v 91717.4 1931.59 -51323.4
v 91717.4 1964.26 -51323.4
f 177/1/7 178/2/7 179/3/7

v 91717.4 1931.59 -51346.4
f 178/2/7 177/1/7 180/4/7

v 95917.5 1931.59 -51346.4
f 177/5/2 181/6/2 180/7/2

v 95917.5 1964.26 -51346.4
f 181/6/2 177/5/2 182/8/2

v 95917.5 1964.26 -51323.4
f 177/9/8 183/10/8 182/11/8

f 183/10/8 177/9/8 179/12/8

v 95917.5 1931.59 -51323.4
f 179/13/4 184/14/4 183/15/4

f 184/14/4 179/13/4 178/16/4

f 178/7/9 181/17/9 184/18/9

f 181/17/9 178/7/9 180/19/9

f 181/20/10 183/3/10 184/21/10

f 183/3/10 181/20/10 182/22/10

g Mesh21 Group21 Group1 H_ng_d_o_tr_i1 Model

v 91913.9 1370.02 -51491.9
v 91913.9 1037.15 -51143
v 91913.9 1370.02 -51143
f 185/1/1 186/2/1 187/3/1

v 91913.9 1037.15 -51491.9
f 186/2/1 185/1/1 188/4/1

v 95718.9 1037.15 -51491.9
f 185/5/2 189/6/2 188/7/2

v 95718.9 1370.02 -51491.9
f 189/6/2 185/5/2 190/8/2

v 95718.9 1370.02 -51143
f 185/9/3 191/10/3 190/11/3

f 191/10/3 185/9/3 187/12/3

v 95718.9 1037.15 -51143
f 187/13/4 192/14/4 191/15/4

f 192/14/4 187/13/4 186/16/4

f 186/7/5 189/17/5 192/18/5

f 189/17/5 186/7/5 188/19/5

f 189/20/6 191/3/6 192/21/6

f 191/3/6 189/20/6 190/22/6

g Mesh22 Group22 Group1 H_ng_d_o_tr_i1 Model

v 110182 1037.15 -51747.9
v 109422 1037.15 -51005.9
v 109422 1037.15 -51747.9
f 193/23/11 194/24/11 195/25/11

v 110182 1037.15 -51005.9
f 194/24/11 193/23/11 196/26/11

v 110182 1375.15 -51005.9
f 193/27/12 197/28/12 196/24/12

v 110182 1375.15 -51747.9
f 197/28/12 193/27/12 198/29/12

v 109422 1375.15 -51747.9
f 193/26/2 199/28/2 198/30/2

f 199/28/2 193/26/2 195/24/2

f 194/24/13 199/31/13 195/32/13

v 109422 1375.15 -51005.9
f 199/31/13 194/24/13 200/28/13

f 194/24/4 197/33/4 200/28/4

f 197/33/4 194/24/4 196/34/4

v 109619 1375.15 -51202.4
f 201/35/14 200/24/14 197/34/14

f 200/24/14 201/35/14 199/25/14

v 109619 1375.15 -51551.3
f 202/36/14 199/25/14 201/35/14

f 199/25/14 202/36/14 198/37/14

v 109986 1375.15 -51551.3
f 198/37/14 202/36/14 203/38/14

v 109619 2730.15 -51551.3
f 204/39/2 203/40/2 202/41/2

v 109986 2730.15 -51551.3
f 203/40/2 204/39/2 205/42/2

v 109986 2730.15 -51202.4
f 204/36/14 206/43/14 205/38/14

v 109619 2730.15 -51202.4
f 206/43/14 204/36/14 207/35/14

f 204/44/13 201/41/13 207/39/13

f 201/41/13 204/44/13 202/45/13

f 201/46/4 206/47/4 207/48/4

v 109986 1375.15 -51202.4
f 206/47/4 201/46/4 208/49/4

f 201/35/14 197/34/14 208/43/14

f 208/43/14 197/34/14 203/38/14

f 198/37/14 203/38/14 197/34/14

f 203/50/12 206/48/12 208/46/12

f 206/48/12 203/50/12 205/51/12

g Mesh23 Group22 Group1 H_ng_d_o_tr_i1 Model

v 110182 2733.06 -51747.9
v 109422 2733.06 -51005.9
v 109422 2733.06 -51747.9
f 209/23/11 210/24/11 211/25/11

v 110182 2733.06 -51005.9
f 210/24/11 209/23/11 212/26/11

v 110182 2829.06 -51005.9
f 209/52/12 213/53/12 212/54/12

v 110182 2829.06 -51747.9
f 213/53/12 209/52/12 214/55/12

v 109422 2829.06 -51747.9
f 209/56/2 215/53/2 214/57/2

f 215/53/2 209/56/2 211/54/2

f 210/54/13 215/58/13 211/59/13

v 109422 2829.06 -51005.9
f 215/58/13 210/54/13 216/53/13

f 210/54/4 213/60/4 216/53/4

f 213/60/4 210/54/4 212/61/4

f 213/34/14 215/25/14 216/24/14

f 215/25/14 213/34/14 214/37/14

g Mesh24 Group24 Group23 Group1 H_ng_d_o_tr_i1 Model

v 105419 1583.59 -51401.1
v 105419 1550.92 -51378.1
v 105419 1583.59 -51378.1
f 217/1/7 218/2/7 219/3/7

v 105419 1550.92 -51401.1
f 218/2/7 217/1/7 220/4/7

v 109619 1550.92 -51401.1
f 217/5/2 221/6/2 220/7/2

v 109619 1583.59 -51401.1
f 221/6/2 217/5/2 222/8/2

v 109619 1583.59 -51378.1
f 217/9/8 223/10/8 222/11/8

f 223/10/8 217/9/8 219/12/8

v 109619 1550.92 -51378.1
f 219/13/4 224/14/4 223/15/4

f 224/14/4 219/13/4 218/16/4

f 218/7/9 221/17/9 224/18/9

f 221/17/9 218/7/9 220/19/9

f 221/20/10 223/3/10 224/21/10

f 223/3/10 221/20/10 222/22/10

g Mesh25 Group25 Group23 Group1 H_ng_d_o_tr_i1 Model

v 105419 2145.59 -51401.1
v 105419 2112.93 -51378.1
v 105419 2145.59 -51378.1
f 225/1/7 226/2/7 227/3/7

v 105419 2112.93 -51401.1
f 226/2/7 225/1/7 228/4/7

v 109619 2112.93 -51401.1
f 225/5/2 229/6/2 228/7/2

v 109619 2145.59 -51401.1
f 229/6/2 225/5/2 230/8/2

v 109619 2145.59 -51378.1
f 225/9/8 231/10/8 230/11/8

f 231/10/8 225/9/8 227/12/8

v 109619 2112.93 -51378.1
f 227/13/4 232/14/4 231/15/4

f 232/14/4 227/13/4 226/16/4

f 226/7/9 229/17/9 232/18/9

f 229/17/9 226/7/9 228/19/9

f 229/20/10 231/3/10 232/21/10

f 231/3/10 229/20/10 230/22/10

g Mesh26 Group26 Group23 Group1 H_ng_d_o_tr_i1 Model

v 105419 2559.27 -51401.1
v 105419 2526.6 -51378.1
v 105419 2559.27 -51378.1
f 233/1/7 234/2/7 235/3/7

v 105419 2526.6 -51401.1
f 234/2/7 233/1/7 236/4/7

v 109619 2526.6 -51401.1
f 233/5/2 237/6/2 236/7/2

v 109619 2559.27 -51401.1
f 237/6/2 233/5/2 238/8/2

v 109619 2559.27 -51378.1
f 233/9/8 239/10/8 238/11/8

f 239/10/8 233/9/8 235/12/8

v 109619 2526.6 -51378.1
f 235/13/4 240/14/4 239/15/4

f 240/14/4 235/13/4 234/16/4

f 234/7/9 237/17/9 240/18/9

f 237/17/9 234/7/9 236/19/9

f 237/20/10 239/3/10 240/21/10

f 239/3/10 237/20/10 238/22/10

g Mesh27 Group27 Group23 Group1 H_ng_d_o_tr_i1 Model

v 105419 1779.92 -51401.1
v 105419 1747.26 -51378.1
v 105419 1779.92 -51378.1
f 241/1/7 242/2/7 243/3/7

v 105419 1747.26 -51401.1
f 242/2/7 241/1/7 244/4/7

v 109619 1747.26 -51401.1
f 241/5/2 245/6/2 244/7/2

v 109619 1779.92 -51401.1
f 245/6/2 241/5/2 246/8/2

v 109619 1779.92 -51378.1
f 241/9/8 247/10/8 246/11/8

f 247/10/8 241/9/8 243/12/8

v 109619 1747.26 -51378.1
f 243/13/4 248/14/4 247/15/4

f 248/14/4 243/13/4 242/16/4

f 242/7/9 245/17/9 248/18/9

f 245/17/9 242/7/9 244/19/9

f 245/20/10 247/3/10 248/21/10

f 247/3/10 245/20/10 246/22/10

g Mesh28 Group28 Group23 Group1 H_ng_d_o_tr_i1 Model

v 105419 2347.93 -51401.1
v 105419 2315.27 -51378.1
v 105419 2347.93 -51378.1
f 249/1/7 250/2/7 251/3/7

v 105419 2315.27 -51401.1
f 250/2/7 249/1/7 252/4/7

v 109619 2315.27 -51401.1
f 249/5/2 253/6/2 252/7/2

v 109619 2347.93 -51401.1
f 253/6/2 249/5/2 254/8/2

v 109619 2347.93 -51378.1
f 249/9/8 255/10/8 254/11/8

f 255/10/8 249/9/8 251/12/8

v 109619 2315.27 -51378.1
f 251/13/4 256/14/4 255/15/4

f 256/14/4 251/13/4 250/16/4

f 250/7/9 253/17/9 256/18/9

f 253/17/9 250/7/9 252/19/9

f 253/20/10 255/3/10 256/21/10

f 255/3/10 253/20/10 254/22/10

g Mesh29 Group29 Group23 Group1 H_ng_d_o_tr_i1 Model

v 105419 1964.26 -51401.1
v 105419 1931.59 -51378.1
v 105419 1964.26 -51378.1
f 257/1/7 258/2/7 259/3/7

v 105419 1931.59 -51401.1
f 258/2/7 257/1/7 260/4/7

v 109619 1931.59 -51401.1
f 257/5/2 261/6/2 260/7/2

v 109619 1964.26 -51401.1
f 261/6/2 257/5/2 262/8/2

v 109619 1964.26 -51378.1
f 257/9/8 263/10/8 262/11/8

f 263/10/8 257/9/8 259/12/8

v 109619 1931.59 -51378.1
f 259/13/4 264/14/4 263/15/4

f 264/14/4 259/13/4 258/16/4

f 258/7/9 261/17/9 264/18/9

f 261/17/9 258/7/9 260/19/9

f 261/20/10 263/3/10 264/21/10

f 263/3/10 261/20/10 262/22/10

g Mesh30 Group30 Group1 H_ng_d_o_tr_i1 Model

v 105615 1370.02 -51546.6
v 105615 1037.15 -51197.7
v 105615 1370.02 -51197.7
f 265/1/1 266/2/1 267/3/1

v 105615 1037.15 -51546.6
f 266/2/1 265/1/1 268/4/1

v 109420 1037.15 -51546.6
f 265/5/2 269/6/2 268/7/2

v 109420 1370.02 -51546.6
f 269/6/2 265/5/2 270/8/2

v 109420 1370.02 -51197.7
f 265/9/3 271/10/3 270/11/3

f 271/10/3 265/9/3 267/12/3

v 109420 1037.15 -51197.7
f 267/13/4 272/14/4 271/15/4

f 272/14/4 267/13/4 266/16/4

f 266/7/5 269/17/5 272/18/5

f 269/17/5 266/7/5 268/19/5

f 269/20/6 271/3/6 272/21/6

f 271/3/6 269/20/6 270/22/6

g Mesh31 Group31 Group1 H_ng_d_o_tr_i1 Model

v 87346.9 1037.15 -51693.2
v 86586.9 1037.15 -50951.2
v 86586.9 1037.15 -51693.2
f 273/23/11 274/24/11 275/25/11

v 87346.9 1037.15 -50951.2
f 274/24/11 273/23/11 276/26/11

v 87346.9 1375.15 -50951.2
f 273/27/12 277/28/12 276/24/12

v 87346.9 1375.15 -51693.2
f 277/28/12 273/27/12 278/29/12

v 86586.9 1375.15 -51693.2
f 273/26/2 279/28/2 278/30/2

f 279/28/2 273/26/2 275/24/2

f 274/24/13 279/31/13 275/32/13

v 86586.9 1375.15 -50951.2
f 279/31/13 274/24/13 280/28/13

f 274/24/4 277/33/4 280/28/4

f 277/33/4 274/24/4 276/34/4

v 86783.4 1375.15 -51147.7
f 281/35/14 280/24/14 277/34/14

f 280/24/14 281/35/14 279/25/14

v 86783.4 1375.15 -51496.6
f 282/36/14 279/25/14 281/35/14

f 279/25/14 282/36/14 278/37/14

v 87150.3 1375.15 -51496.6
f 278/37/14 282/36/14 283/38/14

v 86783.4 2730.15 -51496.6
f 284/39/2 283/40/2 282/41/2

v 87150.3 2730.15 -51496.6
f 283/40/2 284/39/2 285/42/2

v 87150.3 2730.15 -51147.7
f 284/36/14 286/43/14 285/38/14

v 86783.4 2730.15 -51147.7
f 286/43/14 284/36/14 287/35/14

f 284/44/13 281/41/13 287/39/13

f 281/41/13 284/44/13 282/45/13

f 281/46/4 286/47/4 287/48/4

v 87150.3 1375.15 -51147.7
f 286/47/4 281/46/4 288/49/4

f 281/35/14 277/34/14 288/43/14

f 288/43/14 277/34/14 283/38/14

f 278/37/14 283/38/14 277/34/14

f 283/50/12 286/48/12 288/46/12

f 286/48/12 283/50/12 285/51/12

g Mesh32 Group31 Group1 H_ng_d_o_tr_i1 Model

v 87346.9 2733.06 -51693.2
v 86586.9 2733.06 -50951.2
v 86586.9 2733.06 -51693.2
f 289/23/11 290/24/11 291/25/11

v 87346.9 2733.06 -50951.2
f 290/24/11 289/23/11 292/26/11

v 87346.9 2829.06 -50951.2
f 289/52/12 293/53/12 292/54/12

v 87346.9 2829.06 -51693.2
f 293/53/12 289/52/12 294/55/12

v 86586.9 2829.06 -51693.2
f 289/56/2 295/53/2 294/57/2

f 295/53/2 289/56/2 291/54/2

f 290/54/13 295/58/13 291/59/13

v 86586.9 2829.06 -50951.2
f 295/58/13 290/54/13 296/53/13

f 290/54/4 293/60/4 296/53/4

f 293/60/4 290/54/4 292/61/4

f 293/34/14 295/25/14 296/24/14

f 295/25/14 293/34/14 294/37/14

g Mesh33 Group32 Group1 H_ng_d_o_tr_i1 Model

v 91913.9 1037.15 -51693.2
v 91153.9 1037.15 -50951.2
v 91153.9 1037.15 -51693.2
f 297/23/11 298/24/11 299/25/11

v 91913.9 1037.15 -50951.2
f 298/24/11 297/23/11 300/26/11

v 91913.9 1375.15 -50951.2
f 297/27/12 301/28/12 300/24/12

v 91913.9 1375.15 -51693.2
f 301/28/12 297/27/12 302/29/12

v 91153.9 1375.15 -51693.2
f 297/26/2 303/28/2 302/30/2

f 303/28/2 297/26/2 299/24/2

f 298/24/13 303/31/13 299/32/13

v 91153.9 1375.15 -50951.2
f 303/31/13 298/24/13 304/28/13

f 298/24/4 301/33/4 304/28/4

f 301/33/4 298/24/4 300/34/4

v 91350.5 1375.15 -51147.7
f 305/35/14 304/24/14 301/34/14

f 304/24/14 305/35/14 303/25/14

v 91350.5 1375.15 -51496.6
f 306/36/14 303/25/14 305/35/14

f 303/25/14 306/36/14 302/37/14

v 91717.4 1375.15 -51496.6
f 302/37/14 306/36/14 307/38/14

v 91350.5 2730.15 -51496.6
f 308/39/2 307/40/2 306/41/2

v 91717.4 2730.15 -51496.6
f 307/40/2 308/39/2 309/42/2

v 91717.4 2730.15 -51147.7
f 308/36/14 310/43/14 309/38/14

v 91350.5 2730.15 -51147.7
f 310/43/14 308/36/14 311/35/14

f 308/44/13 305/41/13 311/39/13

f 305/41/13 308/44/13 306/45/13

f 305/46/4 310/47/4 311/48/4

v 91717.4 1375.15 -51147.7
f 310/47/4 305/46/4 312/49/4

f 305/35/14 301/34/14 312/43/14

f 312/43/14 301/34/14 307/38/14

f 302/37/14 307/38/14 301/34/14

f 307/50/12 310/48/12 312/46/12

f 310/48/12 307/50/12 309/51/12

g Mesh34 Group32 Group1 H_ng_d_o_tr_i1 Model

v 91913.9 2733.06 -51693.2
v 91153.9 2733.06 -50951.2
v 91153.9 2733.06 -51693.2
f 313/23/11 314/24/11 315/25/11

v 91913.9 2733.06 -50951.2
f 314/24/11 313/23/11 316/26/11

v 91913.9 2829.06 -50951.2
f 313/52/12 317/53/12 316/54/12

v 91913.9 2829.06 -51693.2
f 317/53/12 313/52/12 318/55/12

v 91153.9 2829.06 -51693.2
f 313/56/2 319/53/2 318/57/2

f 319/53/2 313/56/2 315/54/2

f 314/54/13 319/58/13 315/59/13

v 91153.9 2829.06 -50951.2
f 319/58/13 314/54/13 320/53/13

f 314/54/4 317/60/4 320/53/4

f 317/60/4 314/54/4 316/61/4

f 317/34/14 319/25/14 320/24/14

f 319/25/14 317/34/14 318/37/14

g Mesh35 Group34 Group33 Group1 H_ng_d_o_tr_i1 Model

v 87150.3 1583.59 -51346.4
v 87150.3 1550.92 -51323.4
v 87150.3 1583.59 -51323.4
f 321/1/7 322/2/7 323/3/7

v 87150.3 1550.92 -51346.4
f 322/2/7 321/1/7 324/4/7

v 91350.5 1550.92 -51346.4
f 321/5/2 325/6/2 324/7/2

v 91350.5 1583.59 -51346.4
f 325/6/2 321/5/2 326/8/2

v 91350.5 1583.59 -51323.4
f 321/9/8 327/10/8 326/11/8

f 327/10/8 321/9/8 323/12/8

v 91350.5 1550.92 -51323.4
f 323/13/4 328/14/4 327/15/4

f 328/14/4 323/13/4 322/16/4

f 322/7/9 325/17/9 328/18/9

f 325/17/9 322/7/9 324/19/9

f 325/20/10 327/3/10 328/21/10

f 327/3/10 325/20/10 326/22/10

g Mesh36 Group35 Group33 Group1 H_ng_d_o_tr_i1 Model

v 87150.3 2145.59 -51346.4
v 87150.3 2112.93 -51323.4
v 87150.3 2145.59 -51323.4
f 329/1/7 330/2/7 331/3/7

v 87150.3 2112.93 -51346.4
f 330/2/7 329/1/7 332/4/7

v 91350.5 2112.93 -51346.4
f 329/5/2 333/6/2 332/7/2

v 91350.5 2145.59 -51346.4
f 333/6/2 329/5/2 334/8/2

v 91350.5 2145.59 -51323.4
f 329/9/8 335/10/8 334/11/8

f 335/10/8 329/9/8 331/12/8

v 91350.5 2112.93 -51323.4
f 331/13/4 336/14/4 335/15/4

f 336/14/4 331/13/4 330/16/4

f 330/7/9 333/17/9 336/18/9

f 333/17/9 330/7/9 332/19/9

f 333/20/10 335/3/10 336/21/10

f 335/3/10 333/20/10 334/22/10

g Mesh37 Group36 Group33 Group1 H_ng_d_o_tr_i1 Model

v 87150.3 2559.27 -51346.4
v 87150.3 2526.6 -51323.4
v 87150.3 2559.27 -51323.4
f 337/1/7 338/2/7 339/3/7

v 87150.3 2526.6 -51346.4
f 338/2/7 337/1/7 340/4/7

v 91350.5 2526.6 -51346.4
f 337/5/2 341/6/2 340/7/2

v 91350.5 2559.27 -51346.4
f 341/6/2 337/5/2 342/8/2

v 91350.5 2559.27 -51323.4
f 337/9/8 343/10/8 342/11/8

f 343/10/8 337/9/8 339/12/8

v 91350.5 2526.6 -51323.4
f 339/13/4 344/14/4 343/15/4

f 344/14/4 339/13/4 338/16/4

f 338/7/9 341/17/9 344/18/9

f 341/17/9 338/7/9 340/19/9

f 341/20/10 343/3/10 344/21/10

f 343/3/10 341/20/10 342/22/10

g Mesh38 Group37 Group33 Group1 H_ng_d_o_tr_i1 Model

v 87150.3 1779.92 -51346.4
v 87150.3 1747.26 -51323.4
v 87150.3 1779.92 -51323.4
f 345/1/7 346/2/7 347/3/7

v 87150.3 1747.26 -51346.4
f 346/2/7 345/1/7 348/4/7

v 91350.5 1747.26 -51346.4
f 345/5/2 349/6/2 348/7/2

v 91350.5 1779.92 -51346.4
f 349/6/2 345/5/2 350/8/2

v 91350.5 1779.92 -51323.4
f 345/9/8 351/10/8 350/11/8

f 351/10/8 345/9/8 347/12/8

v 91350.5 1747.26 -51323.4
f 347/13/4 352/14/4 351/15/4

f 352/14/4 347/13/4 346/16/4

f 346/7/9 349/17/9 352/18/9

f 349/17/9 346/7/9 348/19/9

f 349/20/10 351/3/10 352/21/10

f 351/3/10 349/20/10 350/22/10

g Mesh39 Group38 Group33 Group1 H_ng_d_o_tr_i1 Model

v 87150.3 2347.93 -51346.4
v 87150.3 2315.27 -51323.4
v 87150.3 2347.93 -51323.4
f 353/1/7 354/2/7 355/3/7

v 87150.3 2315.27 -51346.4
f 354/2/7 353/1/7 356/4/7

v 91350.5 2315.27 -51346.4
f 353/5/2 357/6/2 356/7/2

v 91350.5 2347.93 -51346.4
f 357/6/2 353/5/2 358/8/2

v 91350.5 2347.93 -51323.4
f 353/9/8 359/10/8 358/11/8

f 359/10/8 353/9/8 355/12/8

v 91350.5 2315.27 -51323.4
f 355/13/4 360/14/4 359/15/4

f 360/14/4 355/13/4 354/16/4

f 354/7/9 357/17/9 360/18/9

f 357/17/9 354/7/9 356/19/9

f 357/20/10 359/3/10 360/21/10

f 359/3/10 357/20/10 358/22/10

g Mesh40 Group39 Group33 Group1 H_ng_d_o_tr_i1 Model

v 87150.3 1964.26 -51346.4
v 87150.3 1931.59 -51323.4
v 87150.3 1964.26 -51323.4
f 361/1/7 362/2/7 363/3/7

v 87150.3 1931.59 -51346.4
f 362/2/7 361/1/7 364/4/7

v 91350.5 1931.59 -51346.4
f 361/5/2 365/6/2 364/7/2

v 91350.5 1964.26 -51346.4
f 365/6/2 361/5/2 366/8/2

v 91350.5 1964.26 -51323.4
f 361/9/8 367/10/8 366/11/8

f 367/10/8 361/9/8 363/12/8

v 91350.5 1931.59 -51323.4
f 363/13/4 368/14/4 367/15/4

f 368/14/4 363/13/4 362/16/4

f 362/7/9 365/17/9 368/18/9

f 365/17/9 362/7/9 364/19/9

f 365/20/10 367/3/10 368/21/10

f 367/3/10 365/20/10 366/22/10

g Mesh41 Group40 Group1 H_ng_d_o_tr_i1 Model

v 87346.9 1370.02 -51491.9
v 87346.9 1037.15 -51143
v 87346.9 1370.02 -51143
f 369/1/1 370/2/1 371/3/1

v 87346.9 1037.15 -51491.9
f 370/2/1 369/1/1 372/4/1

v 91151.9 1037.15 -51491.9
f 369/5/2 373/6/2 372/7/2

v 91151.9 1370.02 -51491.9
f 373/6/2 369/5/2 374/8/2

v 91151.9 1370.02 -51143
f 369/9/3 375/10/3 374/11/3

f 375/10/3 369/9/3 371/12/3

v 91151.9 1037.15 -51143
f 371/13/4 376/14/4 375/15/4

f 376/14/4 371/13/4 370/16/4

f 370/7/5 373/17/5 376/18/5

f 373/17/5 370/7/5 372/19/5

f 373/20/6 375/3/6 376/21/6

f 375/3/6 373/20/6 374/22/6

g Mesh42 Group41 Group1 H_ng_d_o_tr_i1 Model

v 101048 1037.15 -51747.9
v 100288 1037.15 -51005.9
v 100288 1037.15 -51747.9
f 377/23/11 378/24/11 379/25/11

v 101048 1037.15 -51005.9
f 378/24/11 377/23/11 380/26/11

v 101048 1375.15 -51005.9
f 377/27/12 381/28/12 380/24/12

v 101048 1375.15 -51747.9
f 381/28/12 377/27/12 382/29/12

v 100288 1375.15 -51747.9
f 377/26/2 383/28/2 382/30/2

f 383/28/2 377/26/2 379/24/2

f 378/24/13 383/31/13 379/32/13

v 100288 1375.15 -51005.9
f 383/31/13 378/24/13 384/28/13

f 378/24/4 381/33/4 384/28/4

f 381/33/4 378/24/4 380/34/4

v 100485 1375.15 -51202.4
f 385/35/14 384/24/14 381/34/14

f 384/24/14 385/35/14 383/25/14

v 100485 1375.15 -51551.3
f 386/36/14 383/25/14 385/35/14

f 383/25/14 386/36/14 382/37/14

v 100851 1375.15 -51551.3
f 382/37/14 386/36/14 387/38/14

v 100485 2730.15 -51551.3
f 388/39/2 387/40/2 386/41/2

v 100851 2730.15 -51551.3
f 387/40/2 388/39/2 389/42/2

v 100851 2730.15 -51202.4
f 388/36/14 390/43/14 389/38/14

v 100485 2730.15 -51202.4
f 390/43/14 388/36/14 391/35/14

f 388/44/13 385/41/13 391/39/13

f 385/41/13 388/44/13 386/45/13

f 385/46/4 390/47/4 391/48/4

v 100851 1375.15 -51202.4
f 390/47/4 385/46/4 392/49/4

f 385/35/14 381/34/14 392/43/14

f 392/43/14 381/34/14 387/38/14

f 382/37/14 387/38/14 381/34/14

f 387/50/12 390/48/12 392/46/12

f 390/48/12 387/50/12 389/51/12

g Mesh43 Group41 Group1 H_ng_d_o_tr_i1 Model

v 101048 2733.06 -51747.9
v 100288 2733.06 -51005.9
v 100288 2733.06 -51747.9
f 393/23/11 394/24/11 395/25/11

v 101048 2733.06 -51005.9
f 394/24/11 393/23/11 396/26/11

v 101048 2829.06 -51005.9
f 393/52/12 397/53/12 396/54/12

v 101048 2829.06 -51747.9
f 397/53/12 393/52/12 398/55/12

v 100288 2829.06 -51747.9
f 393/56/2 399/53/2 398/57/2

f 399/53/2 393/56/2 395/54/2

f 394/54/13 399/58/13 395/59/13

v 100288 2829.06 -51005.9
f 399/58/13 394/54/13 400/53/13

f 394/54/4 397/60/4 400/53/4

f 397/60/4 394/54/4 396/61/4

f 397/34/14 399/25/14 400/24/14

f 399/25/14 397/34/14 398/37/14

g Mesh44 Group43 Group42 Group1 H_ng_d_o_tr_i1 Model

v 96284.4 1583.59 -51401.1
v 96284.4 1550.92 -51378.1
v 96284.4 1583.59 -51378.1
f 401/1/7 402/2/7 403/3/7

v 96284.4 1550.92 -51401.1
f 402/2/7 401/1/7 404/4/7

v 100485 1550.92 -51401.1
f 401/5/2 405/6/2 404/7/2

v 100485 1583.59 -51401.1
f 405/6/2 401/5/2 406/8/2

v 100485 1583.59 -51378.1
f 401/9/8 407/10/8 406/11/8

f 407/10/8 401/9/8 403/12/8

v 100485 1550.92 -51378.1
f 403/13/4 408/14/4 407/15/4

f 408/14/4 403/13/4 402/16/4

f 402/7/9 405/17/9 408/18/9

f 405/17/9 402/7/9 404/19/9

f 405/20/10 407/3/10 408/21/10

f 407/3/10 405/20/10 406/22/10

g Mesh45 Group44 Group42 Group1 H_ng_d_o_tr_i1 Model

v 96284.4 2145.59 -51401.1
v 96284.4 2112.93 -51378.1
v 96284.4 2145.59 -51378.1
f 409/1/7 410/2/7 411/3/7

v 96284.4 2112.93 -51401.1
f 410/2/7 409/1/7 412/4/7

v 100485 2112.93 -51401.1
f 409/5/2 413/6/2 412/7/2

v 100485 2145.59 -51401.1
f 413/6/2 409/5/2 414/8/2

v 100485 2145.59 -51378.1
f 409/9/8 415/10/8 414/11/8

f 415/10/8 409/9/8 411/12/8

v 100485 2112.93 -51378.1
f 411/13/4 416/14/4 415/15/4

f 416/14/4 411/13/4 410/16/4

f 410/7/9 413/17/9 416/18/9

f 413/17/9 410/7/9 412/19/9

f 413/20/10 415/3/10 416/21/10

f 415/3/10 413/20/10 414/22/10

g Mesh46 Group45 Group42 Group1 H_ng_d_o_tr_i1 Model

v 96284.4 2559.27 -51401.1
v 96284.4 2526.6 -51378.1
v 96284.4 2559.27 -51378.1
f 417/1/7 418/2/7 419/3/7

v 96284.4 2526.6 -51401.1
f 418/2/7 417/1/7 420/4/7

v 100485 2526.6 -51401.1
f 417/5/2 421/6/2 420/7/2

v 100485 2559.27 -51401.1
f 421/6/2 417/5/2 422/8/2

v 100485 2559.27 -51378.1
f 417/9/8 423/10/8 422/11/8

f 423/10/8 417/9/8 419/12/8

v 100485 2526.6 -51378.1
f 419/13/4 424/14/4 423/15/4

f 424/14/4 419/13/4 418/16/4

f 418/7/9 421/17/9 424/18/9

f 421/17/9 418/7/9 420/19/9

f 421/20/10 423/3/10 424/21/10

f 423/3/10 421/20/10 422/22/10

g Mesh47 Group46 Group42 Group1 H_ng_d_o_tr_i1 Model

v 96284.4 1779.92 -51401.1
v 96284.4 1747.26 -51378.1
v 96284.4 1779.92 -51378.1
f 425/1/7 426/2/7 427/3/7

v 96284.4 1747.26 -51401.1
f 426/2/7 425/1/7 428/4/7

v 100485 1747.26 -51401.1
f 425/5/2 429/6/2 428/7/2

v 100485 1779.92 -51401.1
f 429/6/2 425/5/2 430/8/2

v 100485 1779.92 -51378.1
f 425/9/8 431/10/8 430/11/8

f 431/10/8 425/9/8 427/12/8

v 100485 1747.26 -51378.1
f 427/13/4 432/14/4 431/15/4

f 432/14/4 427/13/4 426/16/4

f 426/7/9 429/17/9 432/18/9

f 429/17/9 426/7/9 428/19/9

f 429/20/10 431/3/10 432/21/10

f 431/3/10 429/20/10 430/22/10

g Mesh48 Group47 Group42 Group1 H_ng_d_o_tr_i1 Model

v 96284.4 2347.93 -51401.1
v 96284.4 2315.27 -51378.1
v 96284.4 2347.93 -51378.1
f 433/1/7 434/2/7 435/3/7

v 96284.4 2315.27 -51401.1
f 434/2/7 433/1/7 436/4/7

v 100485 2315.27 -51401.1
f 433/5/2 437/6/2 436/7/2

v 100485 2347.93 -51401.1
f 437/6/2 433/5/2 438/8/2

v 100485 2347.93 -51378.1
f 433/9/8 439/10/8 438/11/8

f 439/10/8 433/9/8 435/12/8

v 100485 2315.27 -51378.1
f 435/13/4 440/14/4 439/15/4

f 440/14/4 435/13/4 434/16/4

f 434/7/9 437/17/9 440/18/9

f 437/17/9 434/7/9 436/19/9

f 437/20/10 439/3/10 440/21/10

f 439/3/10 437/20/10 438/22/10

g Mesh49 Group48 Group42 Group1 H_ng_d_o_tr_i1 Model

v 96284.4 1964.26 -51401.1
v 96284.4 1931.59 -51378.1
v 96284.4 1964.26 -51378.1
f 441/1/7 442/2/7 443/3/7

v 96284.4 1931.59 -51401.1
f 442/2/7 441/1/7 444/4/7

v 100485 1931.59 -51401.1
f 441/5/2 445/6/2 444/7/2

v 100485 1964.26 -51401.1
f 445/6/2 441/5/2 446/8/2

v 100485 1964.26 -51378.1
f 441/9/8 447/10/8 446/11/8

f 447/10/8 441/9/8 443/12/8

v 100485 1931.59 -51378.1
f 443/13/4 448/14/4 447/15/4

f 448/14/4 443/13/4 442/16/4

f 442/7/9 445/17/9 448/18/9

f 445/17/9 442/7/9 444/19/9

f 445/20/10 447/3/10 448/21/10

f 447/3/10 445/20/10 446/22/10

g Mesh50 Group49 Group1 H_ng_d_o_tr_i1 Model

v 96481 1370.02 -51546.6
v 96481 1037.15 -51197.7
v 96481 1370.02 -51197.7
f 449/1/1 450/2/1 451/3/1

v 96481 1037.15 -51546.6
f 450/2/1 449/1/1 452/4/1

v 100286 1037.15 -51546.6
f 449/5/2 453/6/2 452/7/2

v 100286 1370.02 -51546.6
f 453/6/2 449/5/2 454/8/2

v 100286 1370.02 -51197.7
f 449/9/3 455/10/3 454/11/3

f 455/10/3 449/9/3 451/12/3

v 100286 1037.15 -51197.7
f 451/13/4 456/14/4 455/15/4

f 456/14/4 451/13/4 450/16/4

f 450/7/5 453/17/5 456/18/5

f 453/17/5 450/7/5 452/19/5

f 453/20/6 455/3/6 456/21/6

f 455/3/6 453/20/6 454/22/6

g Mesh51 Group50 Group1 H_ng_d_o_tr_i1 Model

v 101048 1370.02 -51546.6
v 101048 1037.15 -51197.7
v 101048 1370.02 -51197.7
f 457/1/1 458/2/1 459/3/1

v 101048 1037.15 -51546.6
f 458/2/1 457/1/1 460/4/1

v 104853 1037.15 -51546.6
f 457/5/2 461/6/2 460/7/2

v 104853 1370.02 -51546.6
f 461/6/2 457/5/2 462/8/2

v 104853 1370.02 -51197.7
f 457/9/3 463/10/3 462/11/3

f 463/10/3 457/9/3 459/12/3

v 104853 1037.15 -51197.7
f 459/13/4 464/14/4 463/15/4

f 464/14/4 459/13/4 458/16/4

f 458/7/5 461/17/5 464/18/5

f 461/17/5 458/7/5 460/19/5

f 461/20/6 463/3/6 464/21/6

f 463/3/6 461/20/6 462/22/6

g Mesh52 Group51 Group1 H_ng_d_o_tr_i1 Model

v 105615 1037.15 -51747.9
v 104855 1037.15 -51005.9
v 104855 1037.15 -51747.9
f 465/23/11 466/24/11 467/25/11

v 105615 1037.15 -51005.9
f 466/24/11 465/23/11 468/26/11

v 105615 1375.15 -51005.9
f 465/27/12 469/28/12 468/24/12

v 105615 1375.15 -51747.9
f 469/28/12 465/27/12 470/29/12

v 104855 1375.15 -51747.9
f 465/26/2 471/28/2 470/30/2

f 471/28/2 465/26/2 467/24/2

f 466/24/13 471/31/13 467/32/13

v 104855 1375.15 -51005.9
f 471/31/13 466/24/13 472/28/13

f 466/24/4 469/33/4 472/28/4

f 469/33/4 466/24/4 468/34/4

v 105052 1375.15 -51202.4
f 473/35/14 472/24/14 469/34/14

f 472/24/14 473/35/14 471/25/14

v 105052 1375.15 -51551.3
f 474/36/14 471/25/14 473/35/14

f 471/25/14 474/36/14 470/37/14

v 105419 1375.15 -51551.3
f 470/37/14 474/36/14 475/38/14

v 105052 2730.15 -51551.3
f 476/39/2 475/40/2 474/41/2

v 105419 2730.15 -51551.3
f 475/40/2 476/39/2 477/42/2

v 105419 2730.15 -51202.4
f 476/36/14 478/43/14 477/38/14

v 105052 2730.15 -51202.4
f 478/43/14 476/36/14 479/35/14

f 476/44/13 473/41/13 479/39/13

f 473/41/13 476/44/13 474/45/13

f 473/46/4 478/47/4 479/48/4

v 105419 1375.15 -51202.4
f 478/47/4 473/46/4 480/49/4

f 473/35/14 469/34/14 480/43/14

f 480/43/14 469/34/14 475/38/14

f 470/37/14 475/38/14 469/34/14

f 475/50/12 478/48/12 480/46/12

f 478/48/12 475/50/12 477/51/12

g Mesh53 Group51 Group1 H_ng_d_o_tr_i1 Model

v 105615 2733.06 -51747.9
v 104855 2733.06 -51005.9
v 104855 2733.06 -51747.9
f 481/23/11 482/24/11 483/25/11

v 105615 2733.06 -51005.9
f 482/24/11 481/23/11 484/26/11

v 105615 2829.06 -51005.9
f 481/52/12 485/53/12 484/54/12

v 105615 2829.06 -51747.9
f 485/53/12 481/52/12 486/55/12

v 104855 2829.06 -51747.9
f 481/56/2 487/53/2 486/57/2

f 487/53/2 481/56/2 483/54/2

f 482/54/13 487/58/13 483/59/13

v 104855 2829.06 -51005.9
f 487/58/13 482/54/13 488/53/13

f 482/54/4 485/60/4 488/53/4

f 485/60/4 482/54/4 484/61/4

f 485/34/14 487/25/14 488/24/14

f 487/25/14 485/34/14 486/37/14

g Mesh54 Group53 Group52 Group1 H_ng_d_o_tr_i1 Model

v 100851 1583.59 -51401.1
v 100851 1550.92 -51378.1
v 100851 1583.59 -51378.1
f 489/1/7 490/2/7 491/3/7

v 100851 1550.92 -51401.1
f 490/2/7 489/1/7 492/4/7

v 105052 1550.92 -51401.1
f 489/5/2 493/6/2 492/7/2

v 105052 1583.59 -51401.1
f 493/6/2 489/5/2 494/8/2

v 105052 1583.59 -51378.1
f 489/9/8 495/10/8 494/11/8

f 495/10/8 489/9/8 491/12/8

v 105052 1550.92 -51378.1
f 491/13/4 496/14/4 495/15/4

f 496/14/4 491/13/4 490/16/4

f 490/7/9 493/17/9 496/18/9

f 493/17/9 490/7/9 492/19/9

f 493/20/10 495/3/10 496/21/10

f 495/3/10 493/20/10 494/22/10

g Mesh55 Group54 Group52 Group1 H_ng_d_o_tr_i1 Model

v 100851 2145.59 -51401.1
v 100851 2112.93 -51378.1
v 100851 2145.59 -51378.1
f 497/1/7 498/2/7 499/3/7

v 100851 2112.93 -51401.1
f 498/2/7 497/1/7 500/4/7

v 105052 2112.93 -51401.1
f 497/5/2 501/6/2 500/7/2

v 105052 2145.59 -51401.1
f 501/6/2 497/5/2 502/8/2

v 105052 2145.59 -51378.1
f 497/9/8 503/10/8 502/11/8

f 503/10/8 497/9/8 499/12/8

v 105052 2112.93 -51378.1
f 499/13/4 504/14/4 503/15/4

f 504/14/4 499/13/4 498/16/4

f 498/7/9 501/17/9 504/18/9

f 501/17/9 498/7/9 500/19/9

f 501/20/10 503/3/10 504/21/10

f 503/3/10 501/20/10 502/22/10

g Mesh56 Group55 Group52 Group1 H_ng_d_o_tr_i1 Model

v 100851 2559.27 -51401.1
v 100851 2526.6 -51378.1
v 100851 2559.27 -51378.1
f 505/1/7 506/2/7 507/3/7

v 100851 2526.6 -51401.1
f 506/2/7 505/1/7 508/4/7

v 105052 2526.6 -51401.1
f 505/5/2 509/6/2 508/7/2

v 105052 2559.27 -51401.1
f 509/6/2 505/5/2 510/8/2

v 105052 2559.27 -51378.1
f 505/9/8 511/10/8 510/11/8

f 511/10/8 505/9/8 507/12/8

v 105052 2526.6 -51378.1
f 507/13/4 512/14/4 511/15/4

f 512/14/4 507/13/4 506/16/4

f 506/7/9 509/17/9 512/18/9

f 509/17/9 506/7/9 508/19/9

f 509/20/10 511/3/10 512/21/10

f 511/3/10 509/20/10 510/22/10

g Mesh57 Group56 Group52 Group1 H_ng_d_o_tr_i1 Model

v 100851 1779.92 -51401.1
v 100851 1747.26 -51378.1
v 100851 1779.92 -51378.1
f 513/1/7 514/2/7 515/3/7

v 100851 1747.26 -51401.1
f 514/2/7 513/1/7 516/4/7

v 105052 1747.26 -51401.1
f 513/5/2 517/6/2 516/7/2

v 105052 1779.92 -51401.1
f 517/6/2 513/5/2 518/8/2

v 105052 1779.92 -51378.1
f 513/9/8 519/10/8 518/11/8

f 519/10/8 513/9/8 515/12/8

v 105052 1747.26 -51378.1
f 515/13/4 520/14/4 519/15/4

f 520/14/4 515/13/4 514/16/4

f 514/7/9 517/17/9 520/18/9

f 517/17/9 514/7/9 516/19/9

f 517/20/10 519/3/10 520/21/10

f 519/3/10 517/20/10 518/22/10

g Mesh58 Group57 Group52 Group1 H_ng_d_o_tr_i1 Model

v 100851 2347.93 -51401.1
v 100851 2315.27 -51378.1
v 100851 2347.93 -51378.1
f 521/1/7 522/2/7 523/3/7

v 100851 2315.27 -51401.1
f 522/2/7 521/1/7 524/4/7

v 105052 2315.27 -51401.1
f 521/5/2 525/6/2 524/7/2

v 105052 2347.93 -51401.1
f 525/6/2 521/5/2 526/8/2

v 105052 2347.93 -51378.1
f 521/9/8 527/10/8 526/11/8

f 527/10/8 521/9/8 523/12/8

v 105052 2315.27 -51378.1
f 523/13/4 528/14/4 527/15/4

f 528/14/4 523/13/4 522/16/4

f 522/7/9 525/17/9 528/18/9

f 525/17/9 522/7/9 524/19/9

f 525/20/10 527/3/10 528/21/10

f 527/3/10 525/20/10 526/22/10

g Mesh59 Group58 Group52 Group1 H_ng_d_o_tr_i1 Model

v 100851 1964.26 -51401.1
v 100851 1931.59 -51378.1
v 100851 1964.26 -51378.1
f 529/1/7 530/2/7 531/3/7

v 100851 1931.59 -51401.1
f 530/2/7 529/1/7 532/4/7

v 105052 1931.59 -51401.1
f 529/5/2 533/6/2 532/7/2

v 105052 1964.26 -51401.1
f 533/6/2 529/5/2 534/8/2

v 105052 1964.26 -51378.1
f 529/9/8 535/10/8 534/11/8

f 535/10/8 529/9/8 531/12/8

v 105052 1931.59 -51378.1
f 531/13/4 536/14/4 535/15/4

f 536/14/4 531/13/4 530/16/4

f 530/7/9 533/17/9 536/18/9

f 533/17/9 530/7/9 532/19/9

f 533/20/10 535/3/10 536/21/10

f 535/3/10 533/20/10 534/22/10

g Mesh60 Group60 Group59 Group1 H_ng_d_o_tr_i1 Model

v 82583.2 1583.59 -51346.4
v 82583.2 1550.92 -51323.4
v 82583.2 1583.59 -51323.4
f 537/1/7 538/2/7 539/3/7

v 82583.2 1550.92 -51346.4
f 538/2/7 537/1/7 540/4/7

v 86783.4 1550.92 -51346.4
f 537/5/2 541/6/2 540/7/2

v 86783.4 1583.59 -51346.4
f 541/6/2 537/5/2 542/8/2

v 86783.4 1583.59 -51323.4
f 537/9/8 543/10/8 542/11/8

f 543/10/8 537/9/8 539/12/8

v 86783.4 1550.92 -51323.4
f 539/13/4 544/14/4 543/15/4

f 544/14/4 539/13/4 538/16/4

f 538/7/9 541/17/9 544/18/9

f 541/17/9 538/7/9 540/19/9

f 541/20/10 543/3/10 544/21/10

f 543/3/10 541/20/10 542/22/10

g Mesh61 Group61 Group59 Group1 H_ng_d_o_tr_i1 Model

v 82583.2 2145.59 -51346.4
v 82583.2 2112.93 -51323.4
v 82583.2 2145.59 -51323.4
f 545/1/7 546/2/7 547/3/7

v 82583.2 2112.93 -51346.4
f 546/2/7 545/1/7 548/4/7

v 86783.4 2112.93 -51346.4
f 545/5/2 549/6/2 548/7/2

v 86783.4 2145.59 -51346.4
f 549/6/2 545/5/2 550/8/2

v 86783.4 2145.59 -51323.4
f 545/9/8 551/10/8 550/11/8

f 551/10/8 545/9/8 547/12/8

v 86783.4 2112.93 -51323.4
f 547/13/4 552/14/4 551/15/4

f 552/14/4 547/13/4 546/16/4

f 546/7/9 549/17/9 552/18/9

f 549/17/9 546/7/9 548/19/9

f 549/20/10 551/3/10 552/21/10

f 551/3/10 549/20/10 550/22/10

g Mesh62 Group62 Group59 Group1 H_ng_d_o_tr_i1 Model

v 82583.2 2559.27 -51346.4
v 82583.2 2526.6 -51323.4
v 82583.2 2559.27 -51323.4
f 553/1/7 554/2/7 555/3/7

v 82583.2 2526.6 -51346.4
f 554/2/7 553/1/7 556/4/7

v 86783.4 2526.6 -51346.4
f 553/5/2 557/6/2 556/7/2

v 86783.4 2559.27 -51346.4
f 557/6/2 553/5/2 558/8/2

v 86783.4 2559.27 -51323.4
f 553/9/8 559/10/8 558/11/8

f 559/10/8 553/9/8 555/12/8

v 86783.4 2526.6 -51323.4
f 555/13/4 560/14/4 559/15/4

f 560/14/4 555/13/4 554/16/4

f 554/7/9 557/17/9 560/18/9

f 557/17/9 554/7/9 556/19/9

f 557/20/10 559/3/10 560/21/10

f 559/3/10 557/20/10 558/22/10

g Mesh63 Group63 Group59 Group1 H_ng_d_o_tr_i1 Model

v 82583.2 1779.92 -51346.4
v 82583.2 1747.26 -51323.4
v 82583.2 1779.92 -51323.4
f 561/1/7 562/2/7 563/3/7

v 82583.2 1747.26 -51346.4
f 562/2/7 561/1/7 564/4/7

v 86783.4 1747.26 -51346.4
f 561/5/2 565/6/2 564/7/2

v 86783.4 1779.92 -51346.4
f 565/6/2 561/5/2 566/8/2

v 86783.4 1779.92 -51323.4
f 561/9/8 567/10/8 566/11/8

f 567/10/8 561/9/8 563/12/8

v 86783.4 1747.26 -51323.4
f 563/13/4 568/14/4 567/15/4

f 568/14/4 563/13/4 562/16/4

f 562/7/9 565/17/9 568/18/9

f 565/17/9 562/7/9 564/19/9

f 565/20/10 567/3/10 568/21/10

f 567/3/10 565/20/10 566/22/10

g Mesh64 Group64 Group59 Group1 H_ng_d_o_tr_i1 Model

v 82583.2 2347.93 -51346.4
v 82583.2 2315.27 -51323.4
v 82583.2 2347.93 -51323.4
f 569/1/7 570/2/7 571/3/7

v 82583.2 2315.27 -51346.4
f 570/2/7 569/1/7 572/4/7

v 86783.4 2315.27 -51346.4
f 569/5/2 573/6/2 572/7/2

v 86783.4 2347.93 -51346.4
f 573/6/2 569/5/2 574/8/2

v 86783.4 2347.93 -51323.4
f 569/9/8 575/10/8 574/11/8

f 575/10/8 569/9/8 571/12/8

v 86783.4 2315.27 -51323.4
f 571/13/4 576/14/4 575/15/4

f 576/14/4 571/13/4 570/16/4

f 570/7/9 573/17/9 576/18/9

f 573/17/9 570/7/9 572/19/9

f 573/20/10 575/3/10 576/21/10

f 575/3/10 573/20/10 574/22/10

g Mesh65 Group65 Group59 Group1 H_ng_d_o_tr_i1 Model

v 82583.2 1964.26 -51346.4
v 82583.2 1931.59 -51323.4
v 82583.2 1964.26 -51323.4
f 577/1/7 578/2/7 579/3/7

v 82583.2 1931.59 -51346.4
f 578/2/7 577/1/7 580/4/7

v 86783.4 1931.59 -51346.4
f 577/5/2 581/6/2 580/7/2

v 86783.4 1964.26 -51346.4
f 581/6/2 577/5/2 582/8/2

v 86783.4 1964.26 -51323.4
f 577/9/8 583/10/8 582/11/8

f 583/10/8 577/9/8 579/12/8

v 86783.4 1931.59 -51323.4
f 579/13/4 584/14/4 583/15/4

f 584/14/4 579/13/4 578/16/4

f 578/7/9 581/17/9 584/18/9

f 581/17/9 578/7/9 580/19/9

f 581/20/10 583/3/10 584/21/10

f 583/3/10 581/20/10 582/22/10

