# Alias OBJ Model File
# Exported from SketchUp, (c) 2000-2012 Trimble Navigation Limited
# File units = millimeters

mtllib Hàng rào phải.mtl

g Mesh1 Group3 Group2 Group1 H_ng_d_o_ph_i1 Model

usemtl FrontColor
v 150620 1583.59 -51487.8
vt -13.7351 13.1052
vn -1 -8.7464e-16 -0
v 150620 1550.92 -51464.8
vt 0 -1.39817e-27
v 150620 1583.59 -51464.8
vt 0 13.1052
f 1/1/1 2/2/1 3/3/1

v 150620 1550.92 -51487.8
vt -13.7351 -1.39817e-27
f 2/2/1 1/1/1 4/4/1

vt -1.42109e-14 13.1052
vn 0 0 -1
v 154820 1550.92 -51487.8
vt -149.803 1.47082e-12
vt -1.42109e-13 0
f 1/5/2 5/6/2 4/7/2

v 154820 1583.59 -51487.8
vt -149.803 13.1052
f 5/6/2 1/5/2 6/8/2

vt 1.43149e-13 13.7351
vn -1.10675e-13 1 -0
v 154820 1583.59 -51464.8
vt 149.803 0
vt 149.803 13.7351
f 1/9/3 7/10/3 6/11/3

vt 1.43149e-13 0
f 7/10/3 1/9/3 3/12/3

vt 1.42109e-14 13.1052
vn 0 0 1
v 154820 1550.92 -51464.8
vt 149.803 1.47082e-12
vt 149.803 13.1052
f 3/13/4 8/14/4 7/15/4

vt 1.42109e-13 0
f 8/14/4 3/13/4 2/16/4

vn 1.10675e-13 -1 -0
vt -149.803 13.7351
vt -149.803 0
f 2/7/5 5/17/5 8/18/5

vt -1.42109e-13 13.7351
f 5/17/5 2/7/5 4/19/5

vt 13.7351 -3.05333e-15
vn 1 8.7464e-16 -0
vt 0 -3.05333e-15
f 5/20/6 7/3/6 8/21/6

vt 13.7351 13.1052
f 7/3/6 5/20/6 6/22/6

g Mesh2 Group4 Group2 Group1 H_ng_d_o_ph_i1 Model

v 150620 2145.59 -51487.8
v 150620 2112.93 -51464.8
v 150620 2145.59 -51464.8
f 9/1/1 10/2/1 11/3/1

v 150620 2112.93 -51487.8
f 10/2/1 9/1/1 12/4/1

v 154820 2112.93 -51487.8
f 9/5/2 13/6/2 12/7/2

v 154820 2145.59 -51487.8
f 13/6/2 9/5/2 14/8/2

v 154820 2145.59 -51464.8
f 9/9/3 15/10/3 14/11/3

f 15/10/3 9/9/3 11/12/3

v 154820 2112.93 -51464.8
f 11/13/4 16/14/4 15/15/4

f 16/14/4 11/13/4 10/16/4

f 10/7/5 13/17/5 16/18/5

f 13/17/5 10/7/5 12/19/5

f 13/20/6 15/3/6 16/21/6

f 15/3/6 13/20/6 14/22/6

g Mesh3 Group5 Group2 Group1 H_ng_d_o_ph_i1 Model

v 150620 2559.27 -51487.8
v 150620 2526.6 -51464.8
v 150620 2559.27 -51464.8
f 17/1/1 18/2/1 19/3/1

v 150620 2526.6 -51487.8
f 18/2/1 17/1/1 20/4/1

v 154820 2526.6 -51487.8
f 17/5/2 21/6/2 20/7/2

v 154820 2559.27 -51487.8
f 21/6/2 17/5/2 22/8/2

v 154820 2559.27 -51464.8
f 17/9/3 23/10/3 22/11/3

f 23/10/3 17/9/3 19/12/3

v 154820 2526.6 -51464.8
f 19/13/4 24/14/4 23/15/4

f 24/14/4 19/13/4 18/16/4

f 18/7/5 21/17/5 24/18/5

f 21/17/5 18/7/5 20/19/5

f 21/20/6 23/3/6 24/21/6

f 23/3/6 21/20/6 22/22/6

g Mesh4 Group6 Group2 Group1 H_ng_d_o_ph_i1 Model

v 150620 1779.92 -51487.8
v 150620 1747.26 -51464.8
v 150620 1779.92 -51464.8
f 25/1/1 26/2/1 27/3/1

v 150620 1747.26 -51487.8
f 26/2/1 25/1/1 28/4/1

v 154820 1747.26 -51487.8
f 25/5/2 29/6/2 28/7/2

v 154820 1779.92 -51487.8
f 29/6/2 25/5/2 30/8/2

v 154820 1779.92 -51464.8
f 25/9/3 31/10/3 30/11/3

f 31/10/3 25/9/3 27/12/3

v 154820 1747.26 -51464.8
f 27/13/4 32/14/4 31/15/4

f 32/14/4 27/13/4 26/16/4

f 26/7/5 29/17/5 32/18/5

f 29/17/5 26/7/5 28/19/5

f 29/20/6 31/3/6 32/21/6

f 31/3/6 29/20/6 30/22/6

g Mesh5 Group7 Group2 Group1 H_ng_d_o_ph_i1 Model

v 150620 2347.93 -51487.8
v 150620 2315.27 -51464.8
v 150620 2347.93 -51464.8
f 33/1/1 34/2/1 35/3/1

v 150620 2315.27 -51487.8
f 34/2/1 33/1/1 36/4/1

v 154820 2315.27 -51487.8
f 33/5/2 37/6/2 36/7/2

v 154820 2347.93 -51487.8
f 37/6/2 33/5/2 38/8/2

v 154820 2347.93 -51464.8
f 33/9/3 39/10/3 38/11/3

f 39/10/3 33/9/3 35/12/3

v 154820 2315.27 -51464.8
f 35/13/4 40/14/4 39/15/4

f 40/14/4 35/13/4 34/16/4

f 34/7/5 37/17/5 40/18/5

f 37/17/5 34/7/5 36/19/5

f 37/20/6 39/3/6 40/21/6

f 39/3/6 37/20/6 38/22/6

g Mesh6 Group8 Group2 Group1 H_ng_d_o_ph_i1 Model

v 150620 1964.26 -51487.8
v 150620 1931.59 -51464.8
v 150620 1964.26 -51464.8
f 41/1/1 42/2/1 43/3/1

v 150620 1931.59 -51487.8
f 42/2/1 41/1/1 44/4/1

v 154820 1931.59 -51487.8
f 41/5/2 45/6/2 44/7/2

v 154820 1964.26 -51487.8
f 45/6/2 41/5/2 46/8/2

v 154820 1964.26 -51464.8
f 41/9/3 47/10/3 46/11/3

f 47/10/3 41/9/3 43/12/3

v 154820 1931.59 -51464.8
f 43/13/4 48/14/4 47/15/4

f 48/14/4 43/13/4 42/16/4

f 42/7/5 45/17/5 48/18/5

f 45/17/5 42/7/5 44/19/5

f 45/20/6 47/3/6 48/21/6

f 47/3/6 45/20/6 46/22/6

g Mesh7 Group10 Group9 Group1 H_ng_d_o_ph_i1 Model

v 132351 1583.59 -51433.1
v 132351 1550.92 -51410.1
v 132351 1583.59 -51410.1
f 49/1/1 50/2/1 51/3/1

v 132351 1550.92 -51433.1
f 50/2/1 49/1/1 52/4/1

v 136552 1550.92 -51433.1
f 49/5/2 53/6/2 52/7/2

v 136552 1583.59 -51433.1
f 53/6/2 49/5/2 54/8/2

v 136552 1583.59 -51410.1
f 49/9/3 55/10/3 54/11/3

f 55/10/3 49/9/3 51/12/3

v 136552 1550.92 -51410.1
f 51/13/4 56/14/4 55/15/4

f 56/14/4 51/13/4 50/16/4

f 50/7/5 53/17/5 56/18/5

f 53/17/5 50/7/5 52/19/5

f 53/20/6 55/3/6 56/21/6

f 55/3/6 53/20/6 54/22/6

g Mesh8 Group11 Group9 Group1 H_ng_d_o_ph_i1 Model

v 132351 2145.59 -51433.1
v 132351 2112.93 -51410.1
v 132351 2145.59 -51410.1
f 57/1/1 58/2/1 59/3/1

v 132351 2112.93 -51433.1
f 58/2/1 57/1/1 60/4/1

v 136552 2112.93 -51433.1
f 57/5/2 61/6/2 60/7/2

v 136552 2145.59 -51433.1
f 61/6/2 57/5/2 62/8/2

v 136552 2145.59 -51410.1
f 57/9/3 63/10/3 62/11/3

f 63/10/3 57/9/3 59/12/3

v 136552 2112.93 -51410.1
f 59/13/4 64/14/4 63/15/4

f 64/14/4 59/13/4 58/16/4

f 58/7/5 61/17/5 64/18/5

f 61/17/5 58/7/5 60/19/5

f 61/20/6 63/3/6 64/21/6

f 63/3/6 61/20/6 62/22/6

g Mesh9 Group12 Group9 Group1 H_ng_d_o_ph_i1 Model

v 132351 2559.27 -51433.1
v 132351 2526.6 -51410.1
v 132351 2559.27 -51410.1
f 65/1/1 66/2/1 67/3/1

v 132351 2526.6 -51433.1
f 66/2/1 65/1/1 68/4/1

v 136552 2526.6 -51433.1
f 65/5/2 69/6/2 68/7/2

v 136552 2559.27 -51433.1
f 69/6/2 65/5/2 70/8/2

v 136552 2559.27 -51410.1
f 65/9/3 71/10/3 70/11/3

f 71/10/3 65/9/3 67/12/3

v 136552 2526.6 -51410.1
f 67/13/4 72/14/4 71/15/4

f 72/14/4 67/13/4 66/16/4

f 66/7/5 69/17/5 72/18/5

f 69/17/5 66/7/5 68/19/5

f 69/20/6 71/3/6 72/21/6

f 71/3/6 69/20/6 70/22/6

g Mesh10 Group13 Group9 Group1 H_ng_d_o_ph_i1 Model

v 132351 1779.92 -51433.1
v 132351 1747.26 -51410.1
v 132351 1779.92 -51410.1
f 73/1/1 74/2/1 75/3/1

v 132351 1747.26 -51433.1
f 74/2/1 73/1/1 76/4/1

v 136552 1747.26 -51433.1
f 73/5/2 77/6/2 76/7/2

v 136552 1779.92 -51433.1
f 77/6/2 73/5/2 78/8/2

v 136552 1779.92 -51410.1
f 73/9/3 79/10/3 78/11/3

f 79/10/3 73/9/3 75/12/3

v 136552 1747.26 -51410.1
f 75/13/4 80/14/4 79/15/4

f 80/14/4 75/13/4 74/16/4

f 74/7/5 77/17/5 80/18/5

f 77/17/5 74/7/5 76/19/5

f 77/20/6 79/3/6 80/21/6

f 79/3/6 77/20/6 78/22/6

g Mesh11 Group14 Group9 Group1 H_ng_d_o_ph_i1 Model

v 132351 2347.93 -51433.1
v 132351 2315.27 -51410.1
v 132351 2347.93 -51410.1
f 81/1/1 82/2/1 83/3/1

v 132351 2315.27 -51433.1
f 82/2/1 81/1/1 84/4/1

v 136552 2315.27 -51433.1
f 81/5/2 85/6/2 84/7/2

v 136552 2347.93 -51433.1
f 85/6/2 81/5/2 86/8/2

v 136552 2347.93 -51410.1
f 81/9/3 87/10/3 86/11/3

f 87/10/3 81/9/3 83/12/3

v 136552 2315.27 -51410.1
f 83/13/4 88/14/4 87/15/4

f 88/14/4 83/13/4 82/16/4

f 82/7/5 85/17/5 88/18/5

f 85/17/5 82/7/5 84/19/5

f 85/20/6 87/3/6 88/21/6

f 87/3/6 85/20/6 86/22/6

g Mesh12 Group15 Group9 Group1 H_ng_d_o_ph_i1 Model

v 132351 1964.26 -51433.1
v 132351 1931.59 -51410.1
v 132351 1964.26 -51410.1
f 89/1/1 90/2/1 91/3/1

v 132351 1931.59 -51433.1
f 90/2/1 89/1/1 92/4/1

v 136552 1931.59 -51433.1
f 89/5/2 93/6/2 92/7/2

v 136552 1964.26 -51433.1
f 93/6/2 89/5/2 94/8/2

v 136552 1964.26 -51410.1
f 89/9/3 95/10/3 94/11/3

f 95/10/3 89/9/3 91/12/3

v 136552 1931.59 -51410.1
f 91/13/4 96/14/4 95/15/4

f 96/14/4 91/13/4 90/16/4

f 90/7/5 93/17/5 96/18/5

f 93/17/5 90/7/5 92/19/5

f 93/20/6 95/3/6 96/21/6

f 95/3/6 93/20/6 94/22/6

g Mesh13 Group16 Group1 H_ng_d_o_ph_i1 Model

v 146249 1370.02 -51633.3
vn -1 -9.83876e-15 -0
v 146249 1037.15 -51284.4
v 146249 1370.02 -51284.4
f 97/1/7 98/2/7 99/3/7

v 146249 1037.15 -51633.3
f 98/2/7 97/1/7 100/4/7

v 150054 1037.15 -51633.3
f 97/5/2 101/6/2 100/7/2

v 150054 1370.02 -51633.3
f 101/6/2 97/5/2 102/8/2

vn -9.83876e-15 1 -0
v 150054 1370.02 -51284.4
f 97/9/8 103/10/8 102/11/8

f 103/10/8 97/9/8 99/12/8

v 150054 1037.15 -51284.4
f 99/13/4 104/14/4 103/15/4

f 104/14/4 99/13/4 98/16/4

vn 9.83876e-15 -1 -0
f 98/7/9 101/17/9 104/18/9

f 101/17/9 98/7/9 100/19/9

vn 1 9.83876e-15 -0
f 101/20/10 103/3/10 104/21/10

f 103/3/10 101/20/10 102/22/10

g Mesh14 Group17 Group1 H_ng_d_o_ph_i1 Model

v 137115 1370.02 -51578.6
v 137115 1037.15 -51229.7
v 137115 1370.02 -51229.7
f 105/1/7 106/2/7 107/3/7

v 137115 1037.15 -51578.6
f 106/2/7 105/1/7 108/4/7

v 140920 1037.15 -51578.6
f 105/5/2 109/6/2 108/7/2

v 140920 1370.02 -51578.6
f 109/6/2 105/5/2 110/8/2

v 140920 1370.02 -51229.7
f 105/9/8 111/10/8 110/11/8

f 111/10/8 105/9/8 107/12/8

v 140920 1037.15 -51229.7
f 107/13/4 112/14/4 111/15/4

f 112/14/4 107/13/4 106/16/4

f 106/7/9 109/17/9 112/18/9

f 109/17/9 106/7/9 108/19/9

f 109/20/10 111/3/10 112/21/10

f 111/3/10 109/20/10 110/22/10

g Mesh15 Group19 Group18 Group1 H_ng_d_o_ph_i1 Model

v 146053 1583.59 -51487.8
v 146053 1550.92 -51464.8
v 146053 1583.59 -51464.8
f 113/1/1 114/2/1 115/3/1

v 146053 1550.92 -51487.8
f 114/2/1 113/1/1 116/4/1

v 150253 1550.92 -51487.8
f 113/5/2 117/6/2 116/7/2

v 150253 1583.59 -51487.8
f 117/6/2 113/5/2 118/8/2

v 150253 1583.59 -51464.8
f 113/9/3 119/10/3 118/11/3

f 119/10/3 113/9/3 115/12/3

v 150253 1550.92 -51464.8
f 115/13/4 120/14/4 119/15/4

f 120/14/4 115/13/4 114/16/4

f 114/7/5 117/17/5 120/18/5

f 117/17/5 114/7/5 116/19/5

f 117/20/6 119/3/6 120/21/6

f 119/3/6 117/20/6 118/22/6

g Mesh16 Group20 Group18 Group1 H_ng_d_o_ph_i1 Model

v 146053 2145.59 -51487.8
v 146053 2112.93 -51464.8
v 146053 2145.59 -51464.8
f 121/1/1 122/2/1 123/3/1

v 146053 2112.93 -51487.8
f 122/2/1 121/1/1 124/4/1

v 150253 2112.93 -51487.8
f 121/5/2 125/6/2 124/7/2

v 150253 2145.59 -51487.8
f 125/6/2 121/5/2 126/8/2

v 150253 2145.59 -51464.8
f 121/9/3 127/10/3 126/11/3

f 127/10/3 121/9/3 123/12/3

v 150253 2112.93 -51464.8
f 123/13/4 128/14/4 127/15/4

f 128/14/4 123/13/4 122/16/4

f 122/7/5 125/17/5 128/18/5

f 125/17/5 122/7/5 124/19/5

f 125/20/6 127/3/6 128/21/6

f 127/3/6 125/20/6 126/22/6

g Mesh17 Group21 Group18 Group1 H_ng_d_o_ph_i1 Model

v 146053 2559.27 -51487.8
v 146053 2526.6 -51464.8
v 146053 2559.27 -51464.8
f 129/1/1 130/2/1 131/3/1

v 146053 2526.6 -51487.8
f 130/2/1 129/1/1 132/4/1

v 150253 2526.6 -51487.8
f 129/5/2 133/6/2 132/7/2

v 150253 2559.27 -51487.8
f 133/6/2 129/5/2 134/8/2

v 150253 2559.27 -51464.8
f 129/9/3 135/10/3 134/11/3

f 135/10/3 129/9/3 131/12/3

v 150253 2526.6 -51464.8
f 131/13/4 136/14/4 135/15/4

f 136/14/4 131/13/4 130/16/4

f 130/7/5 133/17/5 136/18/5

f 133/17/5 130/7/5 132/19/5

f 133/20/6 135/3/6 136/21/6

f 135/3/6 133/20/6 134/22/6

g Mesh18 Group22 Group18 Group1 H_ng_d_o_ph_i1 Model

v 146053 1779.92 -51487.8
v 146053 1747.26 -51464.8
v 146053 1779.92 -51464.8
f 137/1/1 138/2/1 139/3/1

v 146053 1747.26 -51487.8
f 138/2/1 137/1/1 140/4/1

v 150253 1747.26 -51487.8
f 137/5/2 141/6/2 140/7/2

v 150253 1779.92 -51487.8
f 141/6/2 137/5/2 142/8/2

v 150253 1779.92 -51464.8
f 137/9/3 143/10/3 142/11/3

f 143/10/3 137/9/3 139/12/3

v 150253 1747.26 -51464.8
f 139/13/4 144/14/4 143/15/4

f 144/14/4 139/13/4 138/16/4

f 138/7/5 141/17/5 144/18/5

f 141/17/5 138/7/5 140/19/5

f 141/20/6 143/3/6 144/21/6

f 143/3/6 141/20/6 142/22/6

g Mesh19 Group23 Group18 Group1 H_ng_d_o_ph_i1 Model

v 146053 2347.93 -51487.8
v 146053 2315.27 -51464.8
v 146053 2347.93 -51464.8
f 145/1/1 146/2/1 147/3/1

v 146053 2315.27 -51487.8
f 146/2/1 145/1/1 148/4/1

v 150253 2315.27 -51487.8
f 145/5/2 149/6/2 148/7/2

v 150253 2347.93 -51487.8
f 149/6/2 145/5/2 150/8/2

v 150253 2347.93 -51464.8
f 145/9/3 151/10/3 150/11/3

f 151/10/3 145/9/3 147/12/3

v 150253 2315.27 -51464.8
f 147/13/4 152/14/4 151/15/4

f 152/14/4 147/13/4 146/16/4

f 146/7/5 149/17/5 152/18/5

f 149/17/5 146/7/5 148/19/5

f 149/20/6 151/3/6 152/21/6

f 151/3/6 149/20/6 150/22/6

g Mesh20 Group24 Group18 Group1 H_ng_d_o_ph_i1 Model

v 146053 1964.26 -51487.8
v 146053 1931.59 -51464.8
v 146053 1964.26 -51464.8
f 153/1/1 154/2/1 155/3/1

v 146053 1931.59 -51487.8
f 154/2/1 153/1/1 156/4/1

v 150253 1931.59 -51487.8
f 153/5/2 157/6/2 156/7/2

v 150253 1964.26 -51487.8
f 157/6/2 153/5/2 158/8/2

v 150253 1964.26 -51464.8
f 153/9/3 159/10/3 158/11/3

f 159/10/3 153/9/3 155/12/3

v 150253 1931.59 -51464.8
f 155/13/4 160/14/4 159/15/4

f 160/14/4 155/13/4 154/16/4

f 154/7/5 157/17/5 160/18/5

f 157/17/5 154/7/5 156/19/5

f 157/20/6 159/3/6 160/21/6

f 159/3/6 157/20/6 158/22/6

g Mesh21 Group25 Group1 H_ng_d_o_ph_i1 Model

v 150816 1370.02 -51633.3
v 150816 1037.15 -51284.4
v 150816 1370.02 -51284.4
f 161/1/7 162/2/7 163/3/7

v 150816 1037.15 -51633.3
f 162/2/7 161/1/7 164/4/7

v 154621 1037.15 -51633.3
f 161/5/2 165/6/2 164/7/2

v 154621 1370.02 -51633.3
f 165/6/2 161/5/2 166/8/2

v 154621 1370.02 -51284.4
f 161/9/8 167/10/8 166/11/8

f 167/10/8 161/9/8 163/12/8

v 154621 1037.15 -51284.4
f 163/13/4 168/14/4 167/15/4

f 168/14/4 163/13/4 162/16/4

f 162/7/9 165/17/9 168/18/9

f 165/17/9 162/7/9 164/19/9

f 165/20/10 167/3/10 168/21/10

f 167/3/10 165/20/10 166/22/10

g Mesh22 Group26 Group1 H_ng_d_o_ph_i1 Model

v 150816 1037.15 -51834.6
vt -29.9213 29.2126
vn 0 -1 -0
v 150056 1037.15 -51092.6
vt 0 0
v 150056 1037.15 -51834.6
vt 0 29.2126
f 169/23/11 170/24/11 171/25/11

v 150816 1037.15 -51092.6
vt -29.9213 0
f 170/24/11 169/23/11 172/26/11

vt 29.2126 0
vn 1 0 -0
v 150816 1375.15 -51092.6
vt 0 13.3071
f 169/27/12 173/28/12 172/24/12

v 150816 1375.15 -51834.6
vt 29.2126 13.3071
f 173/28/12 169/27/12 174/29/12

v 150056 1375.15 -51834.6
vt -29.9213 13.3071
f 169/26/2 175/28/2 174/30/2

f 175/28/2 169/26/2 171/24/2

vn -1 0 -0
vt -29.2126 13.3071
vt -29.2126 0
f 170/24/13 175/31/13 171/32/13

v 150056 1375.15 -51092.6
f 175/31/13 170/24/13 176/28/13

vt 29.9213 13.3071
f 170/24/4 173/33/4 176/28/4

vt 29.9213 0
f 173/33/4 170/24/4 172/34/4

v 150253 1375.15 -51289.1
vt 7.73875 7.73875
vn 0 1 -0
f 177/35/14 176/24/14 173/34/14

f 176/24/14 177/35/14 175/25/14

v 150253 1375.15 -51638
vt 7.73875 21.4738
f 178/36/14 175/25/14 177/35/14

vt 29.9213 29.2126
f 175/25/14 178/36/14 174/37/14

v 150620 1375.15 -51638
vt 22.1825 21.4738
f 174/37/14 178/36/14 179/38/14

v 150253 2730.15 -51638
vt -7.73875 66.6535
vt -22.1825 13.3071
vt -7.73875 13.3071
f 180/39/2 179/40/2 178/41/2

v 150620 2730.15 -51638
vt -22.1825 66.6535
f 179/40/2 180/39/2 181/42/2

v 150620 2730.15 -51289.1
vt 22.1825 7.73875
f 180/36/14 182/43/14 181/38/14

v 150253 2730.15 -51289.1
f 182/43/14 180/36/14 183/35/14

vt -21.4738 66.6535
f 180/44/13 177/41/13 183/39/13

vt -21.4738 13.3071
f 177/41/13 180/44/13 178/45/13

vt 7.73875 13.3071
vt 22.1825 66.6535
vt 7.73875 66.6535
f 177/46/4 182/47/4 183/48/4

v 150620 1375.15 -51289.1
vt 22.1825 13.3071
f 182/47/4 177/46/4 184/49/4

f 177/35/14 173/34/14 184/43/14

f 184/43/14 173/34/14 179/38/14

f 174/37/14 179/38/14 173/34/14

vt 21.4738 13.3071
f 179/50/12 182/48/12 184/46/12

vt 21.4738 66.6535
f 182/48/12 179/50/12 181/51/12

g Mesh23 Group26 Group1 H_ng_d_o_ph_i1 Model

v 150816 2733.06 -51834.6
v 150056 2733.06 -51092.6
v 150056 2733.06 -51834.6
f 185/23/11 186/24/11 187/25/11

v 150816 2733.06 -51092.6
f 186/24/11 185/23/11 188/26/11

vt 29.2126 66.768
v 150816 2829.06 -51092.6
vt 0 70.5476
vt 0 66.768
f 185/52/12 189/53/12 188/54/12

v 150816 2829.06 -51834.6
vt 29.2126 70.5476
f 189/53/12 185/52/12 190/55/12

vt -29.9213 66.768
v 150056 2829.06 -51834.6
vt -29.9213 70.5476
f 185/56/2 191/53/2 190/57/2

f 191/53/2 185/56/2 187/54/2

vt -29.2126 70.5476
vt -29.2126 66.768
f 186/54/13 191/58/13 187/59/13

v 150056 2829.06 -51092.6
f 191/58/13 186/54/13 192/53/13

vt 29.9213 70.5476
f 186/54/4 189/60/4 192/53/4

vt 29.9213 66.768
f 189/60/4 186/54/4 188/61/4

f 189/34/14 191/25/14 192/24/14

f 191/25/14 189/34/14 190/37/14

g Mesh24 Group27 Group1 H_ng_d_o_ph_i1 Model

v 155383 1037.15 -51834.6
v 154623 1037.15 -51092.6
v 154623 1037.15 -51834.6
f 193/23/11 194/24/11 195/25/11

v 155383 1037.15 -51092.6
f 194/24/11 193/23/11 196/26/11

v 155383 1375.15 -51092.6
f 193/27/12 197/28/12 196/24/12

v 155383 1375.15 -51834.6
f 197/28/12 193/27/12 198/29/12

v 154623 1375.15 -51834.6
f 193/26/2 199/28/2 198/30/2

f 199/28/2 193/26/2 195/24/2

f 194/24/13 199/31/13 195/32/13

v 154623 1375.15 -51092.6
f 199/31/13 194/24/13 200/28/13

f 194/24/4 197/33/4 200/28/4

f 197/33/4 194/24/4 196/34/4

v 154820 1375.15 -51289.1
f 201/35/14 200/24/14 197/34/14

f 200/24/14 201/35/14 199/25/14

v 154820 1375.15 -51638
f 202/36/14 199/25/14 201/35/14

f 199/25/14 202/36/14 198/37/14

v 155187 1375.15 -51638
f 198/37/14 202/36/14 203/38/14

v 154820 2730.15 -51638
f 204/39/2 203/40/2 202/41/2

v 155187 2730.15 -51638
f 203/40/2 204/39/2 205/42/2

v 155187 2730.15 -51289.1
f 204/36/14 206/43/14 205/38/14

v 154820 2730.15 -51289.1
f 206/43/14 204/36/14 207/35/14

f 204/44/13 201/41/13 207/39/13

f 201/41/13 204/44/13 202/45/13

f 201/46/4 206/47/4 207/48/4

v 155187 1375.15 -51289.1
f 206/47/4 201/46/4 208/49/4

f 201/35/14 197/34/14 208/43/14

f 208/43/14 197/34/14 203/38/14

f 198/37/14 203/38/14 197/34/14

f 203/50/12 206/48/12 208/46/12

f 206/48/12 203/50/12 205/51/12

g Mesh25 Group27 Group1 H_ng_d_o_ph_i1 Model

v 155383 2733.06 -51834.6
v 154623 2733.06 -51092.6
v 154623 2733.06 -51834.6
f 209/23/11 210/24/11 211/25/11

v 155383 2733.06 -51092.6
f 210/24/11 209/23/11 212/26/11

v 155383 2829.06 -51092.6
f 209/52/12 213/53/12 212/54/12

v 155383 2829.06 -51834.6
f 213/53/12 209/52/12 214/55/12

v 154623 2829.06 -51834.6
f 209/56/2 215/53/2 214/57/2

f 215/53/2 209/56/2 211/54/2

f 210/54/13 215/58/13 211/59/13

v 154623 2829.06 -51092.6
f 215/58/13 210/54/13 216/53/13

f 210/54/4 213/60/4 216/53/4

f 213/60/4 210/54/4 212/61/4

f 213/34/14 215/25/14 216/24/14

f 215/25/14 213/34/14 214/37/14

g Mesh26 Group29 Group28 Group1 H_ng_d_o_ph_i1 Model

v 136918 1583.59 -51433.1
v 136918 1550.92 -51410.1
v 136918 1583.59 -51410.1
f 217/1/1 218/2/1 219/3/1

v 136918 1550.92 -51433.1
f 218/2/1 217/1/1 220/4/1

v 141119 1550.92 -51433.1
f 217/5/2 221/6/2 220/7/2

v 141119 1583.59 -51433.1
f 221/6/2 217/5/2 222/8/2

v 141119 1583.59 -51410.1
f 217/9/3 223/10/3 222/11/3

f 223/10/3 217/9/3 219/12/3

v 141119 1550.92 -51410.1
f 219/13/4 224/14/4 223/15/4

f 224/14/4 219/13/4 218/16/4

f 218/7/5 221/17/5 224/18/5

f 221/17/5 218/7/5 220/19/5

f 221/20/6 223/3/6 224/21/6

f 223/3/6 221/20/6 222/22/6

g Mesh27 Group30 Group28 Group1 H_ng_d_o_ph_i1 Model

v 136918 2145.59 -51433.1
v 136918 2112.93 -51410.1
v 136918 2145.59 -51410.1
f 225/1/1 226/2/1 227/3/1

v 136918 2112.93 -51433.1
f 226/2/1 225/1/1 228/4/1

v 141119 2112.93 -51433.1
f 225/5/2 229/6/2 228/7/2

v 141119 2145.59 -51433.1
f 229/6/2 225/5/2 230/8/2

v 141119 2145.59 -51410.1
f 225/9/3 231/10/3 230/11/3

f 231/10/3 225/9/3 227/12/3

v 141119 2112.93 -51410.1
f 227/13/4 232/14/4 231/15/4

f 232/14/4 227/13/4 226/16/4

f 226/7/5 229/17/5 232/18/5

f 229/17/5 226/7/5 228/19/5

f 229/20/6 231/3/6 232/21/6

f 231/3/6 229/20/6 230/22/6

g Mesh28 Group31 Group28 Group1 H_ng_d_o_ph_i1 Model

v 136918 2559.27 -51433.1
v 136918 2526.6 -51410.1
v 136918 2559.27 -51410.1
f 233/1/1 234/2/1 235/3/1

v 136918 2526.6 -51433.1
f 234/2/1 233/1/1 236/4/1

v 141119 2526.6 -51433.1
f 233/5/2 237/6/2 236/7/2

v 141119 2559.27 -51433.1
f 237/6/2 233/5/2 238/8/2

v 141119 2559.27 -51410.1
f 233/9/3 239/10/3 238/11/3

f 239/10/3 233/9/3 235/12/3

v 141119 2526.6 -51410.1
f 235/13/4 240/14/4 239/15/4

f 240/14/4 235/13/4 234/16/4

f 234/7/5 237/17/5 240/18/5

f 237/17/5 234/7/5 236/19/5

f 237/20/6 239/3/6 240/21/6

f 239/3/6 237/20/6 238/22/6

g Mesh29 Group32 Group28 Group1 H_ng_d_o_ph_i1 Model

v 136918 1779.92 -51433.1
v 136918 1747.26 -51410.1
v 136918 1779.92 -51410.1
f 241/1/1 242/2/1 243/3/1

v 136918 1747.26 -51433.1
f 242/2/1 241/1/1 244/4/1

v 141119 1747.26 -51433.1
f 241/5/2 245/6/2 244/7/2

v 141119 1779.92 -51433.1
f 245/6/2 241/5/2 246/8/2

v 141119 1779.92 -51410.1
f 241/9/3 247/10/3 246/11/3

f 247/10/3 241/9/3 243/12/3

v 141119 1747.26 -51410.1
f 243/13/4 248/14/4 247/15/4

f 248/14/4 243/13/4 242/16/4

f 242/7/5 245/17/5 248/18/5

f 245/17/5 242/7/5 244/19/5

f 245/20/6 247/3/6 248/21/6

f 247/3/6 245/20/6 246/22/6

g Mesh30 Group33 Group28 Group1 H_ng_d_o_ph_i1 Model

v 136918 2347.93 -51433.1
v 136918 2315.27 -51410.1
v 136918 2347.93 -51410.1
f 249/1/1 250/2/1 251/3/1

v 136918 2315.27 -51433.1
f 250/2/1 249/1/1 252/4/1

v 141119 2315.27 -51433.1
f 249/5/2 253/6/2 252/7/2

v 141119 2347.93 -51433.1
f 253/6/2 249/5/2 254/8/2

v 141119 2347.93 -51410.1
f 249/9/3 255/10/3 254/11/3

f 255/10/3 249/9/3 251/12/3

v 141119 2315.27 -51410.1
f 251/13/4 256/14/4 255/15/4

f 256/14/4 251/13/4 250/16/4

f 250/7/5 253/17/5 256/18/5

f 253/17/5 250/7/5 252/19/5

f 253/20/6 255/3/6 256/21/6

f 255/3/6 253/20/6 254/22/6

g Mesh31 Group34 Group28 Group1 H_ng_d_o_ph_i1 Model

v 136918 1964.26 -51433.1
v 136918 1931.59 -51410.1
v 136918 1964.26 -51410.1
f 257/1/1 258/2/1 259/3/1

v 136918 1931.59 -51433.1
f 258/2/1 257/1/1 260/4/1

v 141119 1931.59 -51433.1
f 257/5/2 261/6/2 260/7/2

v 141119 1964.26 -51433.1
f 261/6/2 257/5/2 262/8/2

v 141119 1964.26 -51410.1
f 257/9/3 263/10/3 262/11/3

f 263/10/3 257/9/3 259/12/3

v 141119 1931.59 -51410.1
f 259/13/4 264/14/4 263/15/4

f 264/14/4 259/13/4 258/16/4

f 258/7/5 261/17/5 264/18/5

f 261/17/5 258/7/5 260/19/5

f 261/20/6 263/3/6 264/21/6

f 263/3/6 261/20/6 262/22/6

g Mesh32 Group35 Group1 H_ng_d_o_ph_i1 Model

v 137115 1037.15 -51779.9
v 136355 1037.15 -51037.9
v 136355 1037.15 -51779.9
f 265/23/11 266/24/11 267/25/11

v 137115 1037.15 -51037.9
f 266/24/11 265/23/11 268/26/11

v 137115 1375.15 -51037.9
f 265/27/12 269/28/12 268/24/12

v 137115 1375.15 -51779.9
f 269/28/12 265/27/12 270/29/12

v 136355 1375.15 -51779.9
f 265/26/2 271/28/2 270/30/2

f 271/28/2 265/26/2 267/24/2

f 266/24/13 271/31/13 267/32/13

v 136355 1375.15 -51037.9
f 271/31/13 266/24/13 272/28/13

f 266/24/4 269/33/4 272/28/4

f 269/33/4 266/24/4 268/34/4

v 136552 1375.15 -51234.5
f 273/35/14 272/24/14 269/34/14

f 272/24/14 273/35/14 271/25/14

v 136552 1375.15 -51583.3
f 274/36/14 271/25/14 273/35/14

f 271/25/14 274/36/14 270/37/14

v 136918 1375.15 -51583.3
f 270/37/14 274/36/14 275/38/14

v 136552 2730.15 -51583.3
f 276/39/2 275/40/2 274/41/2

v 136918 2730.15 -51583.3
f 275/40/2 276/39/2 277/42/2

v 136918 2730.15 -51234.5
f 276/36/14 278/43/14 277/38/14

v 136552 2730.15 -51234.5
f 278/43/14 276/36/14 279/35/14

f 276/44/13 273/41/13 279/39/13

f 273/41/13 276/44/13 274/45/13

f 273/46/4 278/47/4 279/48/4

v 136918 1375.15 -51234.5
f 278/47/4 273/46/4 280/49/4

f 273/35/14 269/34/14 280/43/14

f 280/43/14 269/34/14 275/38/14

f 270/37/14 275/38/14 269/34/14

f 275/50/12 278/48/12 280/46/12

f 278/48/12 275/50/12 277/51/12

g Mesh33 Group35 Group1 H_ng_d_o_ph_i1 Model

v 137115 2733.06 -51779.9
v 136355 2733.06 -51037.9
v 136355 2733.06 -51779.9
f 281/23/11 282/24/11 283/25/11

v 137115 2733.06 -51037.9
f 282/24/11 281/23/11 284/26/11

v 137115 2829.06 -51037.9
f 281/52/12 285/53/12 284/54/12

v 137115 2829.06 -51779.9
f 285/53/12 281/52/12 286/55/12

v 136355 2829.06 -51779.9
f 281/56/2 287/53/2 286/57/2

f 287/53/2 281/56/2 283/54/2

f 282/54/13 287/58/13 283/59/13

v 136355 2829.06 -51037.9
f 287/58/13 282/54/13 288/53/13

f 282/54/4 285/60/4 288/53/4

f 285/60/4 282/54/4 284/61/4

f 285/34/14 287/25/14 288/24/14

f 287/25/14 285/34/14 286/37/14

g Mesh34 Group36 Group1 H_ng_d_o_ph_i1 Model

v 141682 1037.15 -51779.9
v 140922 1037.15 -51037.9
v 140922 1037.15 -51779.9
f 289/23/11 290/24/11 291/25/11

v 141682 1037.15 -51037.9
f 290/24/11 289/23/11 292/26/11

v 141682 1375.15 -51037.9
f 289/27/12 293/28/12 292/24/12

v 141682 1375.15 -51779.9
f 293/28/12 289/27/12 294/29/12

v 140922 1375.15 -51779.9
f 289/26/2 295/28/2 294/30/2

f 295/28/2 289/26/2 291/24/2

f 290/24/13 295/31/13 291/32/13

v 140922 1375.15 -51037.9
f 295/31/13 290/24/13 296/28/13

f 290/24/4 293/33/4 296/28/4

f 293/33/4 290/24/4 292/34/4

v 141119 1375.15 -51234.5
f 297/35/14 296/24/14 293/34/14

f 296/24/14 297/35/14 295/25/14

v 141119 1375.15 -51583.3
f 298/36/14 295/25/14 297/35/14

f 295/25/14 298/36/14 294/37/14

v 141486 1375.15 -51583.3
f 294/37/14 298/36/14 299/38/14

v 141119 2730.15 -51583.3
f 300/39/2 299/40/2 298/41/2

v 141486 2730.15 -51583.3
f 299/40/2 300/39/2 301/42/2

v 141486 2730.15 -51234.5
f 300/36/14 302/43/14 301/38/14

v 141119 2730.15 -51234.5
f 302/43/14 300/36/14 303/35/14

f 300/44/13 297/41/13 303/39/13

f 297/41/13 300/44/13 298/45/13

f 297/46/4 302/47/4 303/48/4

v 141486 1375.15 -51234.5
f 302/47/4 297/46/4 304/49/4

f 297/35/14 293/34/14 304/43/14

f 304/43/14 293/34/14 299/38/14

f 294/37/14 299/38/14 293/34/14

f 299/50/12 302/48/12 304/46/12

f 302/48/12 299/50/12 301/51/12

g Mesh35 Group36 Group1 H_ng_d_o_ph_i1 Model

v 141682 2733.06 -51779.9
v 140922 2733.06 -51037.9
v 140922 2733.06 -51779.9
f 305/23/11 306/24/11 307/25/11

v 141682 2733.06 -51037.9
f 306/24/11 305/23/11 308/26/11

v 141682 2829.06 -51037.9
f 305/52/12 309/53/12 308/54/12

v 141682 2829.06 -51779.9
f 309/53/12 305/52/12 310/55/12

v 140922 2829.06 -51779.9
f 305/56/2 311/53/2 310/57/2

f 311/53/2 305/56/2 307/54/2

f 306/54/13 311/58/13 307/59/13

v 140922 2829.06 -51037.9
f 311/58/13 306/54/13 312/53/13

f 306/54/4 309/60/4 312/53/4

f 309/60/4 306/54/4 308/61/4

f 309/34/14 311/25/14 312/24/14

f 311/25/14 309/34/14 310/37/14

g Mesh36 Group37 Group1 H_ng_d_o_ph_i1 Model

v 132548 1037.15 -51779.9
v 131788 1037.15 -51037.9
v 131788 1037.15 -51779.9
f 313/23/11 314/24/11 315/25/11

v 132548 1037.15 -51037.9
f 314/24/11 313/23/11 316/26/11

v 132548 1375.15 -51037.9
f 313/27/12 317/28/12 316/24/12

v 132548 1375.15 -51779.9
f 317/28/12 313/27/12 318/29/12

v 131788 1375.15 -51779.9
f 313/26/2 319/28/2 318/30/2

f 319/28/2 313/26/2 315/24/2

f 314/24/13 319/31/13 315/32/13

v 131788 1375.15 -51037.9
f 319/31/13 314/24/13 320/28/13

f 314/24/4 317/33/4 320/28/4

f 317/33/4 314/24/4 316/34/4

v 131985 1375.15 -51234.5
f 321/35/14 320/24/14 317/34/14

f 320/24/14 321/35/14 319/25/14

v 131985 1375.15 -51583.3
f 322/36/14 319/25/14 321/35/14

f 319/25/14 322/36/14 318/37/14

v 132351 1375.15 -51583.3
f 318/37/14 322/36/14 323/38/14

v 131985 2730.15 -51583.3
f 324/39/2 323/40/2 322/41/2

v 132351 2730.15 -51583.3
f 323/40/2 324/39/2 325/42/2

v 132351 2730.15 -51234.5
f 324/36/14 326/43/14 325/38/14

v 131985 2730.15 -51234.5
f 326/43/14 324/36/14 327/35/14

f 324/44/13 321/41/13 327/39/13

f 321/41/13 324/44/13 322/45/13

f 321/46/4 326/47/4 327/48/4

v 132351 1375.15 -51234.5
f 326/47/4 321/46/4 328/49/4

f 321/35/14 317/34/14 328/43/14

f 328/43/14 317/34/14 323/38/14

f 318/37/14 323/38/14 317/34/14

f 323/50/12 326/48/12 328/46/12

f 326/48/12 323/50/12 325/51/12

g Mesh37 Group37 Group1 H_ng_d_o_ph_i1 Model

v 132548 2733.06 -51779.9
v 132548 2829.06 -51037.9
v 132548 2733.06 -51037.9
f 329/52/12 330/53/12 331/54/12

v 132548 2829.06 -51779.9
f 330/53/12 329/52/12 332/55/12

v 131788 2829.06 -51779.9
f 329/56/2 333/53/2 332/57/2

v 131788 2733.06 -51779.9
f 333/53/2 329/56/2 334/54/2

v 131788 2733.06 -51037.9
f 329/23/11 335/24/11 334/25/11

f 335/24/11 329/23/11 331/26/11

f 330/60/4 335/54/4 331/61/4

v 131788 2829.06 -51037.9
f 335/54/4 330/60/4 336/53/4

f 330/34/14 333/25/14 336/24/14

f 333/25/14 330/34/14 332/37/14

f 333/58/13 335/54/13 336/53/13

f 335/54/13 333/58/13 334/59/13

g Mesh38 Group38 Group1 H_ng_d_o_ph_i1 Model

v 132548 1370.02 -51578.6
v 132548 1037.15 -51229.7
v 132548 1370.02 -51229.7
f 337/1/7 338/2/7 339/3/7

v 132548 1037.15 -51578.6
f 338/2/7 337/1/7 340/4/7

v 136353 1037.15 -51578.6
f 337/5/2 341/6/2 340/7/2

v 136353 1370.02 -51578.6
f 341/6/2 337/5/2 342/8/2

v 136353 1370.02 -51229.7
f 337/9/8 343/10/8 342/11/8

f 343/10/8 337/9/8 339/12/8

v 136353 1037.15 -51229.7
f 339/13/4 344/14/4 343/15/4

f 344/14/4 339/13/4 338/16/4

f 338/7/9 341/17/9 344/18/9

f 341/17/9 338/7/9 340/19/9

f 341/20/10 343/3/10 344/21/10

f 343/3/10 341/20/10 342/22/10

g Mesh39 Group39 Group1 H_ng_d_o_ph_i1 Model

v 146249 1037.15 -51779.9
v 145489 1037.15 -51037.9
v 145489 1037.15 -51779.9
f 345/23/11 346/24/11 347/25/11

v 146249 1037.15 -51037.9
f 346/24/11 345/23/11 348/26/11

v 146249 1375.15 -51037.9
f 345/27/12 349/28/12 348/24/12

v 146249 1375.15 -51779.9
f 349/28/12 345/27/12 350/29/12

v 145489 1375.15 -51779.9
f 345/26/2 351/28/2 350/30/2

f 351/28/2 345/26/2 347/24/2

f 346/24/13 351/31/13 347/32/13

v 145489 1375.15 -51037.9
f 351/31/13 346/24/13 352/28/13

f 346/24/4 349/33/4 352/28/4

f 349/33/4 346/24/4 348/34/4

v 145686 1375.15 -51234.5
f 353/35/14 352/24/14 349/34/14

f 352/24/14 353/35/14 351/25/14

v 145686 1375.15 -51583.3
f 354/36/14 351/25/14 353/35/14

f 351/25/14 354/36/14 350/37/14

v 146053 1375.15 -51583.3
f 350/37/14 354/36/14 355/38/14

v 145686 2730.15 -51583.3
f 356/39/2 355/40/2 354/41/2

v 146053 2730.15 -51583.3
f 355/40/2 356/39/2 357/42/2

v 146053 2730.15 -51234.5
f 356/36/14 358/43/14 357/38/14

v 145686 2730.15 -51234.5
f 358/43/14 356/36/14 359/35/14

f 356/44/13 353/41/13 359/39/13

f 353/41/13 356/44/13 354/45/13

f 353/46/4 358/47/4 359/48/4

v 146053 1375.15 -51234.5
f 358/47/4 353/46/4 360/49/4

f 353/35/14 349/34/14 360/43/14

f 360/43/14 349/34/14 355/38/14

f 350/37/14 355/38/14 349/34/14

f 355/50/12 358/48/12 360/46/12

f 358/48/12 355/50/12 357/51/12

g Mesh40 Group39 Group1 H_ng_d_o_ph_i1 Model

v 146249 2733.06 -51779.9
v 145489 2733.06 -51037.9
v 145489 2733.06 -51779.9
f 361/23/11 362/24/11 363/25/11

v 146249 2733.06 -51037.9
f 362/24/11 361/23/11 364/26/11

v 146249 2829.06 -51037.9
f 361/52/12 365/53/12 364/54/12

v 146249 2829.06 -51779.9
f 365/53/12 361/52/12 366/55/12

v 145489 2829.06 -51779.9
f 361/56/2 367/53/2 366/57/2

f 367/53/2 361/56/2 363/54/2

f 362/54/13 367/58/13 363/59/13

v 145489 2829.06 -51037.9
f 367/58/13 362/54/13 368/53/13

f 362/54/4 365/60/4 368/53/4

f 365/60/4 362/54/4 364/61/4

f 365/34/14 367/25/14 368/24/14

f 367/25/14 365/34/14 366/37/14

g Mesh41 Group41 Group40 Group1 H_ng_d_o_ph_i1 Model

v 141486 1583.59 -51433.1
v 141486 1550.92 -51410.1
v 141486 1583.59 -51410.1
f 369/1/1 370/2/1 371/3/1

v 141486 1550.92 -51433.1
f 370/2/1 369/1/1 372/4/1

v 145686 1550.92 -51433.1
f 369/5/2 373/6/2 372/7/2

v 145686 1583.59 -51433.1
f 373/6/2 369/5/2 374/8/2

v 145686 1583.59 -51410.1
f 369/9/3 375/10/3 374/11/3

f 375/10/3 369/9/3 371/12/3

v 145686 1550.92 -51410.1
f 371/13/4 376/14/4 375/15/4

f 376/14/4 371/13/4 370/16/4

f 370/7/5 373/17/5 376/18/5

f 373/17/5 370/7/5 372/19/5

f 373/20/6 375/3/6 376/21/6

f 375/3/6 373/20/6 374/22/6

g Mesh42 Group42 Group40 Group1 H_ng_d_o_ph_i1 Model

v 141486 2145.59 -51433.1
v 141486 2112.93 -51410.1
v 141486 2145.59 -51410.1
f 377/1/1 378/2/1 379/3/1

v 141486 2112.93 -51433.1
f 378/2/1 377/1/1 380/4/1

v 145686 2112.93 -51433.1
f 377/5/2 381/6/2 380/7/2

v 145686 2145.59 -51433.1
f 381/6/2 377/5/2 382/8/2

v 145686 2145.59 -51410.1
f 377/9/3 383/10/3 382/11/3

f 383/10/3 377/9/3 379/12/3

v 145686 2112.93 -51410.1
f 379/13/4 384/14/4 383/15/4

f 384/14/4 379/13/4 378/16/4

f 378/7/5 381/17/5 384/18/5

f 381/17/5 378/7/5 380/19/5

f 381/20/6 383/3/6 384/21/6

f 383/3/6 381/20/6 382/22/6

g Mesh43 Group43 Group40 Group1 H_ng_d_o_ph_i1 Model

v 141486 2559.27 -51433.1
v 141486 2526.6 -51410.1
v 141486 2559.27 -51410.1
f 385/1/1 386/2/1 387/3/1

v 141486 2526.6 -51433.1
f 386/2/1 385/1/1 388/4/1

v 145686 2526.6 -51433.1
f 385/5/2 389/6/2 388/7/2

v 145686 2559.27 -51433.1
f 389/6/2 385/5/2 390/8/2

v 145686 2559.27 -51410.1
f 385/9/3 391/10/3 390/11/3

f 391/10/3 385/9/3 387/12/3

v 145686 2526.6 -51410.1
f 387/13/4 392/14/4 391/15/4

f 392/14/4 387/13/4 386/16/4

f 386/7/5 389/17/5 392/18/5

f 389/17/5 386/7/5 388/19/5

f 389/20/6 391/3/6 392/21/6

f 391/3/6 389/20/6 390/22/6

g Mesh44 Group44 Group40 Group1 H_ng_d_o_ph_i1 Model

v 141486 1779.92 -51433.1
v 141486 1747.26 -51410.1
v 141486 1779.92 -51410.1
f 393/1/1 394/2/1 395/3/1

v 141486 1747.26 -51433.1
f 394/2/1 393/1/1 396/4/1

v 145686 1747.26 -51433.1
f 393/5/2 397/6/2 396/7/2

v 145686 1779.92 -51433.1
f 397/6/2 393/5/2 398/8/2

v 145686 1779.92 -51410.1
f 393/9/3 399/10/3 398/11/3

f 399/10/3 393/9/3 395/12/3

v 145686 1747.26 -51410.1
f 395/13/4 400/14/4 399/15/4

f 400/14/4 395/13/4 394/16/4

f 394/7/5 397/17/5 400/18/5

f 397/17/5 394/7/5 396/19/5

f 397/20/6 399/3/6 400/21/6

f 399/3/6 397/20/6 398/22/6

g Mesh45 Group45 Group40 Group1 H_ng_d_o_ph_i1 Model

v 141486 2347.93 -51433.1
v 141486 2315.27 -51410.1
v 141486 2347.93 -51410.1
f 401/1/1 402/2/1 403/3/1

v 141486 2315.27 -51433.1
f 402/2/1 401/1/1 404/4/1

v 145686 2315.27 -51433.1
f 401/5/2 405/6/2 404/7/2

v 145686 2347.93 -51433.1
f 405/6/2 401/5/2 406/8/2

v 145686 2347.93 -51410.1
f 401/9/3 407/10/3 406/11/3

f 407/10/3 401/9/3 403/12/3

v 145686 2315.27 -51410.1
f 403/13/4 408/14/4 407/15/4

f 408/14/4 403/13/4 402/16/4

f 402/7/5 405/17/5 408/18/5

f 405/17/5 402/7/5 404/19/5

f 405/20/6 407/3/6 408/21/6

f 407/3/6 405/20/6 406/22/6

g Mesh46 Group46 Group40 Group1 H_ng_d_o_ph_i1 Model

v 141486 1964.26 -51433.1
v 141486 1931.59 -51410.1
v 141486 1964.26 -51410.1
f 409/1/1 410/2/1 411/3/1

v 141486 1931.59 -51433.1
f 410/2/1 409/1/1 412/4/1

v 145686 1931.59 -51433.1
f 409/5/2 413/6/2 412/7/2

v 145686 1964.26 -51433.1
f 413/6/2 409/5/2 414/8/2

v 145686 1964.26 -51410.1
f 409/9/3 415/10/3 414/11/3

f 415/10/3 409/9/3 411/12/3

v 145686 1931.59 -51410.1
f 411/13/4 416/14/4 415/15/4

f 416/14/4 411/13/4 410/16/4

f 410/7/5 413/17/5 416/18/5

f 413/17/5 410/7/5 412/19/5

f 413/20/6 415/3/6 416/21/6

f 415/3/6 413/20/6 414/22/6

g Mesh47 Group47 Group1 H_ng_d_o_ph_i1 Model

v 141682 1370.02 -51578.6
v 141682 1037.15 -51229.7
v 141682 1370.02 -51229.7
f 417/1/7 418/2/7 419/3/7

v 141682 1037.15 -51578.6
f 418/2/7 417/1/7 420/4/7

v 145487 1037.15 -51578.6
f 417/5/2 421/6/2 420/7/2

v 145487 1370.02 -51578.6
f 421/6/2 417/5/2 422/8/2

v 145487 1370.02 -51229.7
f 417/9/8 423/10/8 422/11/8

f 423/10/8 417/9/8 419/12/8

v 145487 1037.15 -51229.7
f 419/13/4 424/14/4 423/15/4

f 424/14/4 419/13/4 418/16/4

f 418/7/9 421/17/9 424/18/9

f 421/17/9 418/7/9 420/19/9

f 421/20/10 423/3/10 424/21/10

f 423/3/10 421/20/10 422/22/10

