# Alias OBJ Model File
# Exported from SketchUp, (c) 2000-2012 Trimble Navigation Limited
# File units = millimeters

mtllib Ngoại cảnh sau.mtl

g Mesh1 Group1 Model

usemtl _DimGray_
v 142712 159.152 -178911
vt -4.54747e-13 702.192
vn 4.36379e-17 -1 6.94319e-17
v 160548 159.152 -190121
vt -441.327 -1.33716e-30
v 160548 159.152 -178911
vt 4.25509e-30 -2.67432e-30
f 1/1/1 2/2/1 3/3/1

v 142712 159.152 -190121
vt -441.327 702.192
f 2/2/1 1/1/1 4/4/1

v 142712 3469.95 -178911
vt -4.03576e-13 130.346
vn -1 0 1.14837e-15
vt -441.327 0
vt -4.03576e-13 0
f 5/5/2 4/6/2 1/7/2

v 142712 3469.95 -190121
vt -441.327 130.346
f 4/6/2 5/5/2 6/8/2

v 160548 3469.95 -190121
vn -0 -1 -0
f 7/6/3 5/1/3 6/4/3

v 160548 3469.95 -178911
vt 0 0
f 5/1/3 7/6/3 8/9/3

vt 0 6.12843e-14
vn 1 -6.83589e-32 -1.14837e-15
vt 441.327 130.346
vt 0 130.346
f 3/10/4 7/11/4 8/12/4

vt 441.327 -2.19851e-45
f 7/11/4 3/10/4 2/13/4

vt 702.192 0
vn -7.65573e-16 0 -1
vt 2.01101e-13 130.346
vt 2.01101e-13 0
f 4/14/5 7/15/5 2/16/5

vt 702.192 130.346
f 7/15/5 4/14/5 6/17/5

v 160548 6780.75 -190121
vt 2.01101e-13 260.693
f 6/17/5 9/18/5 7/15/5

v 142712 6780.75 -190121
vt 702.192 260.693
f 9/18/5 6/17/5 10/19/5

v 142712 6780.75 -178911
vt -4.03576e-13 260.693
vt -441.327 260.693
f 6/8/2 11/20/2 10/21/2

f 11/20/2 6/8/2 5/5/2

vt -702.192 130.346
vn 1.08938e-15 0 1
v 145068 4105.95 -178911
vt -609.442 155.386
vt -702.192 260.693
f 5/22/6 12/23/6 11/24/6

v 151272 4105.95 -178911
vt -365.22 155.386
f 5/22/6 13/25/6 12/23/6

v 151989 4109.02 -178911
vt -336.972 155.507
f 5/22/6 14/26/6 13/25/6

v 158192 4109.02 -178911
vt -92.7494 155.507
f 5/22/6 15/27/6 14/26/6

f 8/12/6 15/27/6 5/22/6

v 158192 5679.95 -178911
vt -92.7494 217.354
f 15/27/6 8/12/6 16/28/6

v 160548 6780.75 -178911
vt 0 260.693
f 17/29/6 16/28/6 8/12/6

f 16/28/6 17/29/6 11/24/6

f 11/1/3 9/6/3 17/9/3

f 9/6/3 11/1/3 10/4/3

v 142712 10091.6 -178911
vt -4.03576e-13 391.039
f 18/30/2 10/21/2 11/20/2

v 142712 10091.6 -190121
vt -441.327 391.039
f 10/21/2 18/30/2 19/31/2

v 160548 10091.6 -190121
f 20/6/3 18/1/3 19/4/3

v 160548 10091.6 -178911
f 18/1/3 20/6/3 21/9/3

vn 1 0 -1.14837e-15
vt 441.327 391.039
vt 0 391.039
f 17/29/7 20/32/7 21/33/7

vt 441.327 260.693
f 20/32/7 17/29/7 9/34/7

f 8/12/7 9/34/7 17/29/7

f 9/34/7 8/12/7 7/11/7

vt 2.01101e-13 391.039
f 10/19/5 20/35/5 9/18/5

vt 702.192 391.039
f 20/35/5 10/19/5 19/36/5

v 160548 13402.4 -190121
vt 2.01101e-13 521.386
f 19/36/5 22/37/5 20/35/5

v 142712 13402.4 -190121
vt 702.192 521.386
f 22/37/5 19/36/5 23/38/5

vn -1 -7.83848e-46 1.14837e-15
v 142712 13402.4 -178911
vt -4.03576e-13 521.386
vt -441.327 521.386
f 19/31/8 24/39/8 23/40/8

f 24/39/8 19/31/8 18/30/8

vt -702.192 391.039
v 145068 10727.6 -178911
vt -609.442 416.079
vt -702.192 521.386
f 18/41/6 25/42/6 24/43/6

v 151272 10727.6 -178911
vt -365.22 416.079
f 18/41/6 26/44/6 25/42/6

v 151989 10730.6 -178911
vt -336.972 416.2
f 18/41/6 27/45/6 26/44/6

v 158192 10730.6 -178911
vt -92.7494 416.2
f 18/41/6 28/46/6 27/45/6

f 21/33/6 28/46/6 18/41/6

v 158192 12301.6 -178911
vt -92.7494 478.047
f 28/46/6 21/33/6 29/47/6

v 160548 13402.4 -178911
vt 0 521.386
f 30/48/6 29/47/6 21/33/6

f 29/47/6 30/48/6 24/43/6

f 24/1/3 22/6/3 30/9/3

f 22/6/3 24/1/3 23/4/3

v 142712 16713.2 -178911
vt -4.03576e-13 651.732
vn -1 -1.10317e-31 1.14837e-15
f 31/49/9 23/40/9 24/39/9

v 142712 16713.2 -190121
vt -441.327 651.732
f 23/40/9 31/49/9 32/50/9

v 160548 16713.2 -190121
f 33/6/3 31/1/3 32/4/3

v 160548 16713.2 -178911
f 31/1/3 33/6/3 34/9/3

vn 1 -1.10317e-31 -1.14837e-15
vt 441.327 651.732
vt 0 651.732
f 30/48/10 33/51/10 34/52/10

vt 441.327 521.386
f 33/51/10 30/48/10 22/53/10

vn 1 -1.5677e-45 -1.14837e-15
f 21/33/11 22/53/11 30/48/11

f 22/53/11 21/33/11 20/32/11

vt 2.01101e-13 651.732
f 23/38/5 33/54/5 22/37/5

vt 702.192 651.732
f 33/54/5 23/38/5 32/55/5

v 160548 20024 -190121
vt 2.01101e-13 782.079
f 32/55/5 35/56/5 33/54/5

v 142712 20024 -190121
vt 702.192 782.079
f 35/56/5 32/55/5 36/57/5

v 142712 20024 -178911
vt -4.03576e-13 782.079
vt -441.327 782.079
f 32/50/2 37/58/2 36/59/2

f 37/58/2 32/50/2 31/49/2

vt -702.192 651.732
v 145068 17349.2 -178911
vt -609.442 676.772
vt -702.192 782.079
f 31/60/6 38/61/6 37/62/6

v 151272 17349.2 -178911
vt -365.22 676.772
f 31/60/6 39/63/6 38/61/6

v 151989 17352.2 -178911
vt -336.972 676.892
f 31/60/6 40/64/6 39/63/6

v 158192 17352.2 -178911
vt -92.7494 676.892
f 31/60/6 41/65/6 40/64/6

f 34/52/6 41/65/6 31/60/6

v 158192 18923.2 -178911
vt -92.7494 738.74
f 41/65/6 34/52/6 42/66/6

v 160548 20024 -178911
vt 0 782.079
f 43/67/6 42/66/6 34/52/6

f 42/66/6 43/67/6 37/62/6

f 37/1/3 35/6/3 43/9/3

f 35/6/3 37/1/3 36/4/3

v 142712 23334.8 -178911
vt -4.03576e-13 912.425
f 44/68/2 36/59/2 37/58/2

v 142712 23334.8 -190121
vt -441.327 912.425
f 36/59/2 44/68/2 45/69/2

v 160548 23334.8 -190121
f 46/6/3 44/1/3 45/4/3

v 160548 23334.8 -178911
f 44/1/3 46/6/3 47/9/3

vt 441.327 912.425
vt 0 912.425
f 43/67/7 46/70/7 47/71/7

vt 441.327 782.079
f 46/70/7 43/67/7 35/72/7

f 34/52/7 35/72/7 43/67/7

f 35/72/7 34/52/7 33/51/7

vt 2.01101e-13 912.425
f 36/57/5 46/73/5 35/56/5

vt 702.192 912.425
f 46/73/5 36/57/5 45/74/5

v 160548 26645.6 -190121
vt 2.01101e-13 1042.77
f 45/74/5 48/75/5 46/73/5

v 142712 26645.6 -190121
vt 702.192 1042.77
f 48/75/5 45/74/5 49/76/5

vn -1 1.5677e-45 1.14837e-15
v 142712 26645.6 -178911
vt -4.03576e-13 1042.77
vt -441.327 1042.77
f 45/69/12 50/77/12 49/78/12

f 50/77/12 45/69/12 44/68/12

vt -702.192 912.425
v 145068 23970.8 -178911
vt -609.442 937.465
vt -702.192 1042.77
f 44/79/6 51/80/6 50/81/6

v 151272 23970.8 -178911
vt -365.22 937.465
f 44/79/6 52/82/6 51/80/6

v 151989 23973.8 -178911
vt -336.972 937.585
f 44/79/6 53/83/6 52/82/6

v 158192 23973.8 -178911
vt -92.7494 937.585
f 44/79/6 54/84/6 53/83/6

f 47/71/6 54/84/6 44/79/6

v 158192 25544.8 -178911
vt -92.7494 999.433
f 54/84/6 47/71/6 55/85/6

v 160548 26645.6 -178911
vt 0 1042.77
f 56/86/6 55/85/6 47/71/6

f 55/85/6 56/86/6 50/81/6

f 50/1/3 48/6/3 56/9/3

f 48/6/3 50/1/3 49/4/3

v 142712 29956.4 -178911
vt -4.03576e-13 1173.12
f 57/87/9 49/78/9 50/77/9

v 142712 29956.4 -190121
vt -441.327 1173.12
f 49/78/9 57/87/9 58/88/9

v 160548 29956.4 -190121
f 59/6/3 57/1/3 58/4/3

v 160548 29956.4 -178911
f 57/1/3 59/6/3 60/9/3

vt 441.327 1173.12
vt 0 1173.12
f 56/86/10 59/89/10 60/90/10

vt 441.327 1042.77
f 59/89/10 56/86/10 48/91/10

vn 1 3.13539e-45 -1.14837e-15
f 47/71/13 48/91/13 56/86/13

f 48/91/13 47/71/13 46/70/13

vt 2.01101e-13 1173.12
f 49/76/5 59/92/5 48/75/5

vt 702.192 1173.12
f 59/92/5 49/76/5 58/93/5

v 160548 33267.2 -190121
vt 2.01101e-13 1303.46
f 58/93/5 61/94/5 59/92/5

v 142712 33267.2 -190121
vt 702.192 1303.46
f 61/94/5 58/93/5 62/95/5

vn -1 1.10317e-31 1.14837e-15
v 142712 33267.2 -178911
vt -4.03576e-13 1303.46
vt -441.327 1303.46
f 58/88/14 63/96/14 62/97/14

f 63/96/14 58/88/14 57/87/14

vt -702.192 1173.12
v 145068 30592.4 -178911
vt -609.442 1198.16
vt -702.192 1303.46
f 57/98/6 64/99/6 63/100/6

v 151272 30592.4 -178911
vt -365.22 1198.16
f 57/98/6 65/101/6 64/99/6

v 151989 30595.4 -178911
vt -336.972 1198.28
f 57/98/6 66/102/6 65/101/6

v 158192 30595.4 -178911
vt -92.7494 1198.28
f 57/98/6 67/103/6 66/102/6

f 60/90/6 67/103/6 57/98/6

v 158192 32166.4 -178911
vt -92.7494 1260.13
f 67/103/6 60/90/6 68/104/6

v 160548 33267.2 -178911
vt 0 1303.46
f 69/105/6 68/104/6 60/90/6

f 68/104/6 69/105/6 63/100/6

f 63/1/3 61/6/3 69/9/3

f 61/6/3 63/1/3 62/4/3

v 142712 36578 -178911
vt -4.03576e-13 1433.81
f 70/106/14 62/97/14 63/96/14

v 142712 36578 -190121
vt -441.327 1433.81
f 62/97/14 70/106/14 71/107/14

v 160548 36578 -190121
f 72/6/3 70/1/3 71/4/3

v 160548 36578 -178911
f 70/1/3 72/6/3 73/9/3

vn 1 1.10317e-31 -1.14837e-15
vt 441.327 1433.81
vt 0 1433.81
f 69/105/15 72/108/15 73/109/15

vt 441.327 1303.46
f 72/108/15 69/105/15 61/110/15

f 60/90/15 61/110/15 69/105/15

f 61/110/15 60/90/15 59/89/15

vt 2.01101e-13 1433.81
f 62/95/5 72/111/5 61/94/5

vt 702.192 1433.81
f 72/111/5 62/95/5 71/112/5

v 160548 39888.8 -190121
vt 2.01101e-13 1564.16
f 71/112/5 74/113/5 72/111/5

v 142712 39888.8 -190121
vt 702.192 1564.16
f 74/113/5 71/112/5 75/114/5

v 142712 39888.8 -178911
vt -4.03576e-13 1564.16
vt -441.327 1564.16
f 71/107/9 76/115/9 75/116/9

f 76/115/9 71/107/9 70/106/9

vt -702.192 1433.81
v 145068 37214 -178911
vt -609.442 1458.85
vt -702.192 1564.16
f 70/117/6 77/118/6 76/119/6

v 151272 37214 -178911
vt -365.22 1458.85
f 70/117/6 78/120/6 77/118/6

v 151989 37217 -178911
vt -336.972 1458.97
f 70/117/6 79/121/6 78/120/6

v 158192 37217 -178911
vt -92.7494 1458.97
f 70/117/6 80/122/6 79/121/6

f 73/109/6 80/122/6 70/117/6

v 158192 38788 -178911
vt -92.7494 1520.82
f 80/122/6 73/109/6 81/123/6

v 160548 39888.8 -178911
vt 0 1564.16
f 82/124/6 81/123/6 73/109/6

f 81/123/6 82/124/6 76/119/6

vt 441.327 0
vn 0 1 -0
vt 4.54747e-13 702.192
f 74/125/16 76/126/16 82/9/16

vt 441.327 702.192
f 76/126/16 74/125/16 75/127/16

vt 702.192 909.59
vn -4.02282e-15 0.645599 -0.763676
v 159446 41192.8 -189018
vt 43.4008 976.816
vt -1.78581e-12 909.59
f 75/128/17 83/129/17 74/130/17

v 143815 41192.8 -189018
vt 658.791 976.816
f 83/129/17 75/128/17 84/131/17

vt -441.327 741.176
vn -0.763676 0.645599 5.94147e-15
v 143815 41192.8 -180013
vt -43.4008 808.401
vt -397.926 808.401
f 75/132/18 85/133/18 84/134/18

vt -5.06031e-12 741.176
f 85/133/18 75/132/18 76/135/18

vt -702.192 1194.51
vn -4.2665e-15 0.645599 0.763676
v 159446 41192.8 -180013
vt -43.4008 1261.74
vt -658.791 1261.74
f 76/136/19 86/137/19 85/138/19

vt 0 1194.51
f 86/137/19 76/136/19 82/139/19

vn 0.763676 0.645599 5.53401e-15
vt 397.926 1261.74
vt 43.4008 1261.74
f 82/139/20 83/140/20 86/141/20

vt 441.327 1194.51
f 83/140/20 82/139/20 74/142/20

vt 441.327 1564.16
f 73/109/10 74/143/10 82/124/10

f 74/143/10 73/109/10 72/108/10

vt 397.926 43.4008
vn 9.23697e-16 1 -1.60337e-15
vt 43.4008 658.791
vt 43.4008 43.4008
f 83/144/21 85/145/21 86/146/21

vt 397.926 658.791
f 85/145/21 83/144/21 84/147/21

v 151989 38788 -178911
vt -336.972 1520.82
f 81/123/6 76/119/6 87/148/6

v 151272 38788 -178911
vt -365.22 1520.82
f 87/148/6 76/119/6 88/149/6

v 145068 38788 -178911
vt -609.442 1520.82
f 88/149/6 76/119/6 89/150/6

f 89/150/6 76/119/6 77/118/6

usemtl Color_M06
vn 1.04897e-15 0 1
f 78/120/22 89/150/22 77/118/22

f 89/150/22 78/120/22 88/149/22

usemtl _DimGray_
f 78/120/6 79/121/6 88/149/6

f 87/148/6 88/149/6 79/121/6

usemtl Color_M06
vn 1.97998e-15 0 1
f 80/122/23 87/148/23 79/121/23

f 87/148/23 80/122/23 81/123/23

usemtl _DimGray_
v 158192 35477.2 -178911
vt -92.7494 1390.47
f 90/151/6 73/109/6 70/117/6

f 73/109/6 90/151/6 69/105/6

v 158192 33906.2 -178911
vt -92.7494 1328.62
f 91/152/6 69/105/6 90/151/6

f 69/105/6 91/152/6 63/100/6

v 151989 33906.2 -178911
vt -336.972 1328.62
f 63/100/6 91/152/6 92/153/6

usemtl Color_M06
v 151989 35477.2 -178911
vt -336.972 1390.47
f 91/152/23 93/154/23 92/153/23

f 93/154/23 91/152/23 90/151/23

usemtl _DimGray_
f 90/151/6 70/117/6 93/154/6

v 151272 35477.2 -178911
vt -365.22 1390.47
f 93/154/6 70/117/6 94/155/6

v 145068 35477.2 -178911
vt -609.442 1390.47
f 94/155/6 70/117/6 95/156/6

v 145068 33903.2 -178911
vt -609.442 1328.5
f 95/156/6 70/117/6 96/157/6

f 63/100/6 96/157/6 70/117/6

v 151272 33903.2 -178911
vt -365.22 1328.5
f 63/100/6 97/158/6 96/157/6

f 63/100/6 92/153/6 97/158/6

f 97/158/6 92/153/6 94/155/6

f 93/154/6 94/155/6 92/153/6

usemtl Color_M06
f 95/156/22 97/158/22 94/155/22

f 97/158/22 95/156/22 96/157/22

usemtl _DimGray_
v 151989 32166.4 -178911
vt -336.972 1260.13
f 68/104/6 63/100/6 98/159/6

v 151272 32166.4 -178911
vt -365.22 1260.13
f 98/159/6 63/100/6 99/160/6

v 145068 32166.4 -178911
vt -609.442 1260.13
f 99/160/6 63/100/6 100/161/6

f 100/161/6 63/100/6 64/99/6

usemtl Color_M06
f 65/101/22 100/161/22 64/99/22

f 100/161/22 65/101/22 99/160/22

usemtl _DimGray_
f 65/101/6 66/102/6 99/160/6

f 98/159/6 99/160/6 66/102/6

usemtl Color_M06
f 67/103/23 98/159/23 66/102/23

f 98/159/23 67/103/23 68/104/23

usemtl _DimGray_
v 158192 28855.6 -178911
vt -92.7494 1129.78
f 101/162/6 60/90/6 57/98/6

f 60/90/6 101/162/6 56/86/6

v 158192 27284.6 -178911
vt -92.7494 1067.93
f 102/163/6 56/86/6 101/162/6

f 56/86/6 102/163/6 50/81/6

v 151989 27284.6 -178911
vt -336.972 1067.93
f 50/81/6 102/163/6 103/164/6

usemtl Color_M06
v 151989 28855.6 -178911
vt -336.972 1129.78
f 102/163/23 104/165/23 103/164/23

f 104/165/23 102/163/23 101/162/23

usemtl _DimGray_
f 101/162/6 57/98/6 104/165/6

v 151272 28855.6 -178911
vt -365.22 1129.78
f 104/165/6 57/98/6 105/166/6

v 145068 28855.6 -178911
vt -609.442 1129.78
f 105/166/6 57/98/6 106/167/6

v 145068 27281.6 -178911
vt -609.442 1067.81
f 106/167/6 57/98/6 107/168/6

f 50/81/6 107/168/6 57/98/6

v 151272 27281.6 -178911
vt -365.22 1067.81
f 50/81/6 108/169/6 107/168/6

f 50/81/6 103/164/6 108/169/6

f 108/169/6 103/164/6 105/166/6

f 104/165/6 105/166/6 103/164/6

usemtl Color_M06
f 106/167/22 108/169/22 105/166/22

f 108/169/22 106/167/22 107/168/22

usemtl _DimGray_
v 151989 25544.8 -178911
vt -336.972 999.433
f 55/85/6 50/81/6 109/170/6

v 151272 25544.8 -178911
vt -365.22 999.433
f 109/170/6 50/81/6 110/171/6

v 145068 25544.8 -178911
vt -609.442 999.433
f 110/171/6 50/81/6 111/172/6

f 111/172/6 50/81/6 51/80/6

usemtl Color_M06
f 52/82/22 111/172/22 51/80/22

f 111/172/22 52/82/22 110/171/22

usemtl _DimGray_
f 52/82/6 53/83/6 110/171/6

f 109/170/6 110/171/6 53/83/6

usemtl Color_M06
f 54/84/23 109/170/23 53/83/23

f 109/170/23 54/84/23 55/85/23

usemtl _DimGray_
v 158192 22234 -178911
vt -92.7494 869.087
f 112/173/6 47/71/6 44/79/6

f 47/71/6 112/173/6 43/67/6

v 158192 20663 -178911
vt -92.7494 807.239
f 113/174/6 43/67/6 112/173/6

f 43/67/6 113/174/6 37/62/6

v 151989 20663 -178911
vt -336.972 807.239
f 37/62/6 113/174/6 114/175/6

usemtl Color_M06
v 151989 22234 -178911
vt -336.972 869.087
f 113/174/23 115/176/23 114/175/23

f 115/176/23 113/174/23 112/173/23

usemtl _DimGray_
f 112/173/6 44/79/6 115/176/6

v 151272 22234 -178911
vt -365.22 869.087
f 115/176/6 44/79/6 116/177/6

v 145068 22234 -178911
vt -609.442 869.087
f 116/177/6 44/79/6 117/178/6

v 145068 20660 -178911
vt -609.442 807.118
f 117/178/6 44/79/6 118/179/6

f 37/62/6 118/179/6 44/79/6

v 151272 20660 -178911
vt -365.22 807.118
f 37/62/6 119/180/6 118/179/6

f 37/62/6 114/175/6 119/180/6

f 119/180/6 114/175/6 116/177/6

f 115/176/6 116/177/6 114/175/6

usemtl Color_M06
f 117/178/22 119/180/22 116/177/22

f 119/180/22 117/178/22 118/179/22

usemtl _DimGray_
v 151989 18923.2 -178911
vt -336.972 738.74
f 42/66/6 37/62/6 120/181/6

v 151272 18923.2 -178911
vt -365.22 738.74
f 120/181/6 37/62/6 121/182/6

v 145068 18923.2 -178911
vt -609.442 738.74
f 121/182/6 37/62/6 122/183/6

f 122/183/6 37/62/6 38/61/6

usemtl Color_M06
f 39/63/22 122/183/22 38/61/22

f 122/183/22 39/63/22 121/182/22

usemtl _DimGray_
f 39/63/6 40/64/6 121/182/6

f 120/181/6 121/182/6 40/64/6

usemtl Color_M06
f 41/65/23 120/181/23 40/64/23

f 120/181/23 41/65/23 42/66/23

usemtl _DimGray_
v 158192 15612.4 -178911
vt -92.7494 608.394
f 123/184/6 34/52/6 31/60/6

f 34/52/6 123/184/6 30/48/6

v 158192 14041.4 -178911
vt -92.7494 546.546
f 124/185/6 30/48/6 123/184/6

f 30/48/6 124/185/6 24/43/6

v 151989 14041.4 -178911
vt -336.972 546.546
f 24/43/6 124/185/6 125/186/6

usemtl Color_M06
v 151989 15612.4 -178911
vt -336.972 608.394
f 124/185/23 126/187/23 125/186/23

f 126/187/23 124/185/23 123/184/23

usemtl _DimGray_
f 123/184/6 31/60/6 126/187/6

v 151272 15612.4 -178911
vt -365.22 608.394
f 126/187/6 31/60/6 127/188/6

v 145068 15612.4 -178911
vt -609.442 608.394
f 127/188/6 31/60/6 128/189/6

v 145068 14038.4 -178911
vt -609.442 546.425
f 128/189/6 31/60/6 129/190/6

f 24/43/6 129/190/6 31/60/6

v 151272 14038.4 -178911
vt -365.22 546.425
f 24/43/6 130/191/6 129/190/6

f 24/43/6 125/186/6 130/191/6

f 130/191/6 125/186/6 127/188/6

f 126/187/6 127/188/6 125/186/6

usemtl Color_M06
f 128/189/22 130/191/22 127/188/22

f 130/191/22 128/189/22 129/190/22

usemtl _DimGray_
v 151989 12301.6 -178911
vt -336.972 478.047
f 29/47/6 24/43/6 131/192/6

v 151272 12301.6 -178911
vt -365.22 478.047
f 131/192/6 24/43/6 132/193/6

v 145068 12301.6 -178911
vt -609.442 478.047
f 132/193/6 24/43/6 133/194/6

f 133/194/6 24/43/6 25/42/6

usemtl Color_M06
f 26/44/22 133/194/22 25/42/22

f 133/194/22 26/44/22 132/193/22

usemtl _DimGray_
f 26/44/6 27/45/6 132/193/6

f 131/192/6 132/193/6 27/45/6

usemtl Color_M06
f 28/46/23 131/192/23 27/45/23

f 131/192/23 28/46/23 29/47/23

usemtl _DimGray_
v 158192 8990.75 -178911
vt -92.7494 347.701
f 134/195/6 21/33/6 18/41/6

f 21/33/6 134/195/6 17/29/6

v 158192 7419.82 -178911
vt -92.7494 285.853
f 135/196/6 17/29/6 134/195/6

f 17/29/6 135/196/6 11/24/6

v 151989 7419.82 -178911
vt -336.972 285.853
f 11/24/6 135/196/6 136/197/6

usemtl Color_M06
v 151989 8990.75 -178911
vt -336.972 347.701
f 135/196/23 137/198/23 136/197/23

f 137/198/23 135/196/23 134/195/23

usemtl _DimGray_
f 134/195/6 18/41/6 137/198/6

v 151272 8990.75 -178911
vt -365.22 347.701
f 137/198/6 18/41/6 138/199/6

v 145068 8990.75 -178911
vt -609.442 347.701
f 138/199/6 18/41/6 139/200/6

v 145068 7416.75 -178911
vt -609.442 285.732
f 139/200/6 18/41/6 140/201/6

f 11/24/6 140/201/6 18/41/6

v 151272 7416.75 -178911
vt -365.22 285.732
f 11/24/6 141/202/6 140/201/6

f 11/24/6 136/197/6 141/202/6

f 141/202/6 136/197/6 138/199/6

f 137/198/6 138/199/6 136/197/6

usemtl Color_M06
f 139/200/22 141/202/22 138/199/22

f 141/202/22 139/200/22 140/201/22

usemtl _DimGray_
v 151989 5679.95 -178911
vt -336.972 217.354
f 16/28/6 11/24/6 142/203/6

v 151272 5679.95 -178911
vt -365.22 217.354
f 142/203/6 11/24/6 143/204/6

v 145068 5679.95 -178911
vt -609.442 217.354
f 143/204/6 11/24/6 144/205/6

f 144/205/6 11/24/6 12/23/6

usemtl Color_M06
f 13/25/22 144/205/22 12/23/22

f 144/205/22 13/25/22 143/204/22

usemtl _DimGray_
f 13/25/6 14/26/6 143/204/6

f 142/203/6 143/204/6 14/26/6

usemtl Color_M06
f 15/27/23 142/203/23 14/26/23

f 142/203/23 15/27/23 16/28/23

usemtl _DimGray_
v 158192 2369.15 -178911
vt -92.7494 87.0079
vn 1.08938e-15 -1.24763e-31 1
f 145/206/24 8/12/24 5/22/24

f 8/12/24 145/206/24 3/10/24

v 158192 798.221 -178911
vt -92.7494 25.1602
f 146/207/24 3/10/24 145/206/24

vt -702.192 -4.51829e-44
f 3/10/24 146/207/24 1/208/24

v 151989 798.221 -178911
vt -336.972 25.1602
f 1/208/24 146/207/24 147/209/24

usemtl Color_M06
v 151989 2369.15 -178911
vt -336.972 87.0079
f 146/207/23 148/210/23 147/209/23

f 148/210/23 146/207/23 145/206/23

usemtl _DimGray_
f 145/206/24 5/22/24 148/210/24

v 151272 2369.15 -178911
vt -365.22 87.0079
f 148/210/24 5/22/24 149/211/24

v 145068 2369.15 -178911
vt -609.442 87.0079
f 149/211/24 5/22/24 150/212/24

v 145068 795.152 -178911
vt -609.442 25.0394
f 150/212/24 5/22/24 151/213/24

f 1/208/24 151/213/24 5/22/24

v 151272 795.152 -178911
vt -365.22 25.0394
f 1/208/24 152/214/24 151/213/24

f 1/208/24 147/209/24 152/214/24

f 152/214/24 147/209/24 149/211/24

f 148/210/24 149/211/24 147/209/24

usemtl Color_M06
f 150/212/22 152/214/22 149/211/22

f 152/214/22 150/212/22 151/213/22

g Mesh2 Group2 Model

usemtl _DimGray_
v 113087 159.152 -178911
v 130923 159.152 -190121
v 130923 159.152 -178911
f 153/1/1 154/2/1 155/3/1

v 113087 159.152 -190121
f 154/2/1 153/1/1 156/4/1

v 113087 3469.95 -178911
f 157/5/2 156/6/2 153/7/2

v 113087 3469.95 -190121
f 156/6/2 157/5/2 158/8/2

v 130923 3469.95 -190121
f 159/6/3 157/1/3 158/4/3

v 130923 3469.95 -178911
f 157/1/3 159/6/3 160/9/3

f 155/10/4 159/11/4 160/12/4

f 159/11/4 155/10/4 154/13/4

f 156/14/5 159/15/5 154/16/5

f 159/15/5 156/14/5 158/17/5

v 130923 6780.75 -190121
f 158/17/5 161/18/5 159/15/5

v 113087 6780.75 -190121
f 161/18/5 158/17/5 162/19/5

v 113087 6780.75 -178911
f 158/8/2 163/20/2 162/21/2

f 163/20/2 158/8/2 157/5/2

v 115443 4105.95 -178911
f 157/22/6 164/23/6 163/24/6

v 121646 4105.95 -178911
f 157/22/6 165/25/6 164/23/6

v 122364 4109.02 -178911
f 157/22/6 166/26/6 165/25/6

v 128567 4109.02 -178911
f 157/22/6 167/27/6 166/26/6

f 160/12/6 167/27/6 157/22/6

v 128567 5679.95 -178911
f 167/27/6 160/12/6 168/28/6

v 130923 6780.75 -178911
f 169/29/6 168/28/6 160/12/6

f 168/28/6 169/29/6 163/24/6

f 163/1/3 161/6/3 169/9/3

f 161/6/3 163/1/3 162/4/3

v 113087 10091.6 -178911
f 170/30/2 162/21/2 163/20/2

v 113087 10091.6 -190121
f 162/21/2 170/30/2 171/31/2

v 130923 10091.6 -190121
f 172/6/3 170/1/3 171/4/3

v 130923 10091.6 -178911
f 170/1/3 172/6/3 173/9/3

f 169/29/7 172/32/7 173/33/7

f 172/32/7 169/29/7 161/34/7

f 160/12/7 161/34/7 169/29/7

f 161/34/7 160/12/7 159/11/7

f 162/19/5 172/35/5 161/18/5

f 172/35/5 162/19/5 171/36/5

v 130923 13402.4 -190121
f 171/36/5 174/37/5 172/35/5

v 113087 13402.4 -190121
f 174/37/5 171/36/5 175/38/5

v 113087 13402.4 -178911
f 171/31/8 176/39/8 175/40/8

f 176/39/8 171/31/8 170/30/8

v 115443 10727.6 -178911
f 170/41/6 177/42/6 176/43/6

v 121646 10727.6 -178911
f 170/41/6 178/44/6 177/42/6

v 122364 10730.6 -178911
f 170/41/6 179/45/6 178/44/6

v 128567 10730.6 -178911
f 170/41/6 180/46/6 179/45/6

f 173/33/6 180/46/6 170/41/6

v 128567 12301.6 -178911
f 180/46/6 173/33/6 181/47/6

v 130923 13402.4 -178911
f 182/48/6 181/47/6 173/33/6

f 181/47/6 182/48/6 176/43/6

f 176/1/3 174/6/3 182/9/3

f 174/6/3 176/1/3 175/4/3

v 113087 16713.2 -178911
f 183/49/9 175/40/9 176/39/9

v 113087 16713.2 -190121
f 175/40/9 183/49/9 184/50/9

v 130923 16713.2 -190121
f 185/6/3 183/1/3 184/4/3

v 130923 16713.2 -178911
f 183/1/3 185/6/3 186/9/3

f 182/48/10 185/51/10 186/52/10

f 185/51/10 182/48/10 174/53/10

f 173/33/11 174/53/11 182/48/11

f 174/53/11 173/33/11 172/32/11

f 175/38/5 185/54/5 174/37/5

f 185/54/5 175/38/5 184/55/5

v 130923 20024 -190121
f 184/55/5 187/56/5 185/54/5

v 113087 20024 -190121
f 187/56/5 184/55/5 188/57/5

v 113087 20024 -178911
f 184/50/2 189/58/2 188/59/2

f 189/58/2 184/50/2 183/49/2

v 115443 17349.2 -178911
f 183/60/6 190/61/6 189/62/6

v 121646 17349.2 -178911
f 183/60/6 191/63/6 190/61/6

v 122364 17352.2 -178911
f 183/60/6 192/64/6 191/63/6

v 128567 17352.2 -178911
f 183/60/6 193/65/6 192/64/6

f 186/52/6 193/65/6 183/60/6

v 128567 18923.2 -178911
f 193/65/6 186/52/6 194/66/6

v 130923 20024 -178911
f 195/67/6 194/66/6 186/52/6

f 194/66/6 195/67/6 189/62/6

f 189/1/3 187/6/3 195/9/3

f 187/6/3 189/1/3 188/4/3

v 113087 23334.8 -178911
f 196/68/2 188/59/2 189/58/2

v 113087 23334.8 -190121
f 188/59/2 196/68/2 197/69/2

v 130923 23334.8 -190121
f 198/6/3 196/1/3 197/4/3

v 130923 23334.8 -178911
f 196/1/3 198/6/3 199/9/3

f 195/67/7 198/70/7 199/71/7

f 198/70/7 195/67/7 187/72/7

f 186/52/7 187/72/7 195/67/7

f 187/72/7 186/52/7 185/51/7

f 188/57/5 198/73/5 187/56/5

f 198/73/5 188/57/5 197/74/5

v 130923 26645.6 -190121
f 197/74/5 200/75/5 198/73/5

v 113087 26645.6 -190121
f 200/75/5 197/74/5 201/76/5

v 113087 26645.6 -178911
f 197/69/12 202/77/12 201/78/12

f 202/77/12 197/69/12 196/68/12

v 115443 23970.8 -178911
f 196/79/6 203/80/6 202/81/6

v 121646 23970.8 -178911
f 196/79/6 204/82/6 203/80/6

v 122364 23973.8 -178911
f 196/79/6 205/83/6 204/82/6

v 128567 23973.8 -178911
f 196/79/6 206/84/6 205/83/6

f 199/71/6 206/84/6 196/79/6

v 128567 25544.8 -178911
f 206/84/6 199/71/6 207/85/6

v 130923 26645.6 -178911
f 208/86/6 207/85/6 199/71/6

f 207/85/6 208/86/6 202/81/6

f 202/1/3 200/6/3 208/9/3

f 200/6/3 202/1/3 201/4/3

v 113087 29956.4 -178911
f 209/87/9 201/78/9 202/77/9

v 113087 29956.4 -190121
f 201/78/9 209/87/9 210/88/9

v 130923 29956.4 -190121
f 211/6/3 209/1/3 210/4/3

v 130923 29956.4 -178911
f 209/1/3 211/6/3 212/9/3

f 208/86/10 211/89/10 212/90/10

f 211/89/10 208/86/10 200/91/10

f 199/71/13 200/91/13 208/86/13

f 200/91/13 199/71/13 198/70/13

f 201/76/5 211/92/5 200/75/5

f 211/92/5 201/76/5 210/93/5

v 130923 33267.2 -190121
f 210/93/5 213/94/5 211/92/5

v 113087 33267.2 -190121
f 213/94/5 210/93/5 214/95/5

v 113087 33267.2 -178911
f 210/88/14 215/96/14 214/97/14

f 215/96/14 210/88/14 209/87/14

v 115443 30592.4 -178911
f 209/98/6 216/99/6 215/100/6

v 121646 30592.4 -178911
f 209/98/6 217/101/6 216/99/6

v 122364 30595.4 -178911
f 209/98/6 218/102/6 217/101/6

v 128567 30595.4 -178911
f 209/98/6 219/103/6 218/102/6

f 212/90/6 219/103/6 209/98/6

v 128567 32166.4 -178911
f 219/103/6 212/90/6 220/104/6

v 130923 33267.2 -178911
f 221/105/6 220/104/6 212/90/6

f 220/104/6 221/105/6 215/100/6

f 215/1/3 213/6/3 221/9/3

f 213/6/3 215/1/3 214/4/3

v 113087 36578 -178911
f 222/106/14 214/97/14 215/96/14

v 113087 36578 -190121
f 214/97/14 222/106/14 223/107/14

v 130923 36578 -190121
f 224/6/3 222/1/3 223/4/3

v 130923 36578 -178911
f 222/1/3 224/6/3 225/9/3

f 221/105/15 224/108/15 225/109/15

f 224/108/15 221/105/15 213/110/15

f 212/90/15 213/110/15 221/105/15

f 213/110/15 212/90/15 211/89/15

f 214/95/5 224/111/5 213/94/5

f 224/111/5 214/95/5 223/112/5

v 130923 39888.8 -190121
f 223/112/5 226/113/5 224/111/5

v 113087 39888.8 -190121
f 226/113/5 223/112/5 227/114/5

v 113087 39888.8 -178911
f 223/107/9 228/115/9 227/116/9

f 228/115/9 223/107/9 222/106/9

v 115443 37214 -178911
f 222/117/6 229/118/6 228/119/6

v 121646 37214 -178911
f 222/117/6 230/120/6 229/118/6

v 122364 37217 -178911
f 222/117/6 231/121/6 230/120/6

v 128567 37217 -178911
f 222/117/6 232/122/6 231/121/6

f 225/109/6 232/122/6 222/117/6

v 128567 38788 -178911
f 232/122/6 225/109/6 233/123/6

v 130923 39888.8 -178911
f 234/124/6 233/123/6 225/109/6

f 233/123/6 234/124/6 228/119/6

f 226/125/16 228/126/16 234/9/16

f 228/126/16 226/125/16 227/127/16

v 129821 41192.8 -189018
f 227/128/17 235/129/17 226/130/17

v 114190 41192.8 -189018
f 235/129/17 227/128/17 236/131/17

v 114190 41192.8 -180013
f 227/132/18 237/133/18 236/134/18

f 237/133/18 227/132/18 228/135/18

v 129821 41192.8 -180013
f 228/136/19 238/137/19 237/138/19

f 238/137/19 228/136/19 234/139/19

f 234/139/20 235/140/20 238/141/20

f 235/140/20 234/139/20 226/142/20

f 225/109/10 226/143/10 234/124/10

f 226/143/10 225/109/10 224/108/10

f 235/144/21 237/145/21 238/146/21

f 237/145/21 235/144/21 236/147/21

v 122364 38788 -178911
f 233/123/6 228/119/6 239/148/6

v 121646 38788 -178911
f 239/148/6 228/119/6 240/149/6

v 115443 38788 -178911
f 240/149/6 228/119/6 241/150/6

f 241/150/6 228/119/6 229/118/6

usemtl Color_M06
f 230/120/22 241/150/22 229/118/22

f 241/150/22 230/120/22 240/149/22

usemtl _DimGray_
f 230/120/6 231/121/6 240/149/6

f 239/148/6 240/149/6 231/121/6

usemtl Color_M06
f 232/122/23 239/148/23 231/121/23

f 239/148/23 232/122/23 233/123/23

usemtl _DimGray_
v 128567 35477.2 -178911
f 242/151/6 225/109/6 222/117/6

f 225/109/6 242/151/6 221/105/6

v 128567 33906.2 -178911
f 243/152/6 221/105/6 242/151/6

f 221/105/6 243/152/6 215/100/6

v 122364 33906.2 -178911
f 215/100/6 243/152/6 244/153/6

usemtl Color_M06
v 122364 35477.2 -178911
f 243/152/23 245/154/23 244/153/23

f 245/154/23 243/152/23 242/151/23

usemtl _DimGray_
f 242/151/6 222/117/6 245/154/6

v 121646 35477.2 -178911
f 245/154/6 222/117/6 246/155/6

v 115443 35477.2 -178911
f 246/155/6 222/117/6 247/156/6

v 115443 33903.2 -178911
f 247/156/6 222/117/6 248/157/6

f 215/100/6 248/157/6 222/117/6

v 121646 33903.2 -178911
f 215/100/6 249/158/6 248/157/6

f 215/100/6 244/153/6 249/158/6

f 249/158/6 244/153/6 246/155/6

f 245/154/6 246/155/6 244/153/6

usemtl Color_M06
f 247/156/22 249/158/22 246/155/22

f 249/158/22 247/156/22 248/157/22

usemtl _DimGray_
v 122364 32166.4 -178911
f 220/104/6 215/100/6 250/159/6

v 121646 32166.4 -178911
f 250/159/6 215/100/6 251/160/6

v 115443 32166.4 -178911
f 251/160/6 215/100/6 252/161/6

f 252/161/6 215/100/6 216/99/6

usemtl Color_M06
f 217/101/22 252/161/22 216/99/22

f 252/161/22 217/101/22 251/160/22

usemtl _DimGray_
f 217/101/6 218/102/6 251/160/6

f 250/159/6 251/160/6 218/102/6

usemtl Color_M06
f 219/103/23 250/159/23 218/102/23

f 250/159/23 219/103/23 220/104/23

usemtl _DimGray_
v 128567 28855.6 -178911
f 253/162/6 212/90/6 209/98/6

f 212/90/6 253/162/6 208/86/6

v 128567 27284.6 -178911
f 254/163/6 208/86/6 253/162/6

f 208/86/6 254/163/6 202/81/6

v 122364 27284.6 -178911
f 202/81/6 254/163/6 255/164/6

usemtl Color_M06
v 122364 28855.6 -178911
f 254/163/23 256/165/23 255/164/23

f 256/165/23 254/163/23 253/162/23

usemtl _DimGray_
f 253/162/6 209/98/6 256/165/6

v 121646 28855.6 -178911
f 256/165/6 209/98/6 257/166/6

v 115443 28855.6 -178911
f 257/166/6 209/98/6 258/167/6

v 115443 27281.6 -178911
f 258/167/6 209/98/6 259/168/6

f 202/81/6 259/168/6 209/98/6

v 121646 27281.6 -178911
f 202/81/6 260/169/6 259/168/6

f 202/81/6 255/164/6 260/169/6

f 260/169/6 255/164/6 257/166/6

f 256/165/6 257/166/6 255/164/6

usemtl Color_M06
f 258/167/22 260/169/22 257/166/22

f 260/169/22 258/167/22 259/168/22

usemtl _DimGray_
v 122364 25544.8 -178911
f 207/85/6 202/81/6 261/170/6

v 121646 25544.8 -178911
f 261/170/6 202/81/6 262/171/6

v 115443 25544.8 -178911
f 262/171/6 202/81/6 263/172/6

f 263/172/6 202/81/6 203/80/6

usemtl Color_M06
f 204/82/22 263/172/22 203/80/22

f 263/172/22 204/82/22 262/171/22

usemtl _DimGray_
f 204/82/6 205/83/6 262/171/6

f 261/170/6 262/171/6 205/83/6

usemtl Color_M06
f 206/84/23 261/170/23 205/83/23

f 261/170/23 206/84/23 207/85/23

usemtl _DimGray_
v 128567 22234 -178911
f 264/173/6 199/71/6 196/79/6

f 199/71/6 264/173/6 195/67/6

v 128567 20663 -178911
f 265/174/6 195/67/6 264/173/6

f 195/67/6 265/174/6 189/62/6

v 122364 20663 -178911
f 189/62/6 265/174/6 266/175/6

usemtl Color_M06
v 122364 22234 -178911
f 265/174/23 267/176/23 266/175/23

f 267/176/23 265/174/23 264/173/23

usemtl _DimGray_
f 264/173/6 196/79/6 267/176/6

v 121646 22234 -178911
f 267/176/6 196/79/6 268/177/6

v 115443 22234 -178911
f 268/177/6 196/79/6 269/178/6

v 115443 20660 -178911
f 269/178/6 196/79/6 270/179/6

f 189/62/6 270/179/6 196/79/6

v 121646 20660 -178911
f 189/62/6 271/180/6 270/179/6

f 189/62/6 266/175/6 271/180/6

f 271/180/6 266/175/6 268/177/6

f 267/176/6 268/177/6 266/175/6

usemtl Color_M06
f 269/178/22 271/180/22 268/177/22

f 271/180/22 269/178/22 270/179/22

usemtl _DimGray_
v 122364 18923.2 -178911
f 194/66/6 189/62/6 272/181/6

v 121646 18923.2 -178911
f 272/181/6 189/62/6 273/182/6

v 115443 18923.2 -178911
f 273/182/6 189/62/6 274/183/6

f 274/183/6 189/62/6 190/61/6

usemtl Color_M06
f 191/63/22 274/183/22 190/61/22

f 274/183/22 191/63/22 273/182/22

usemtl _DimGray_
f 191/63/6 192/64/6 273/182/6

f 272/181/6 273/182/6 192/64/6

usemtl Color_M06
f 193/65/23 272/181/23 192/64/23

f 272/181/23 193/65/23 194/66/23

usemtl _DimGray_
v 128567 15612.4 -178911
f 275/184/6 186/52/6 183/60/6

f 186/52/6 275/184/6 182/48/6

v 128567 14041.4 -178911
f 276/185/6 182/48/6 275/184/6

f 182/48/6 276/185/6 176/43/6

v 122364 14041.4 -178911
f 176/43/6 276/185/6 277/186/6

usemtl Color_M06
v 122364 15612.4 -178911
f 276/185/23 278/187/23 277/186/23

f 278/187/23 276/185/23 275/184/23

usemtl _DimGray_
f 275/184/6 183/60/6 278/187/6

v 121646 15612.4 -178911
f 278/187/6 183/60/6 279/188/6

v 115443 15612.4 -178911
f 279/188/6 183/60/6 280/189/6

v 115443 14038.4 -178911
f 280/189/6 183/60/6 281/190/6

f 176/43/6 281/190/6 183/60/6

v 121646 14038.4 -178911
f 176/43/6 282/191/6 281/190/6

f 176/43/6 277/186/6 282/191/6

f 282/191/6 277/186/6 279/188/6

f 278/187/6 279/188/6 277/186/6

usemtl Color_M06
f 280/189/22 282/191/22 279/188/22

f 282/191/22 280/189/22 281/190/22

usemtl _DimGray_
v 122364 12301.6 -178911
f 181/47/6 176/43/6 283/192/6

v 121646 12301.6 -178911
f 283/192/6 176/43/6 284/193/6

v 115443 12301.6 -178911
f 284/193/6 176/43/6 285/194/6

f 285/194/6 176/43/6 177/42/6

usemtl Color_M06
f 178/44/22 285/194/22 177/42/22

f 285/194/22 178/44/22 284/193/22

usemtl _DimGray_
f 178/44/6 179/45/6 284/193/6

f 283/192/6 284/193/6 179/45/6

usemtl Color_M06
f 180/46/23 283/192/23 179/45/23

f 283/192/23 180/46/23 181/47/23

usemtl _DimGray_
v 128567 8990.75 -178911
f 286/195/6 173/33/6 170/41/6

f 173/33/6 286/195/6 169/29/6

v 128567 7419.82 -178911
f 287/196/6 169/29/6 286/195/6

f 169/29/6 287/196/6 163/24/6

v 122364 7419.82 -178911
f 163/24/6 287/196/6 288/197/6

usemtl Color_M06
v 122364 8990.75 -178911
f 287/196/23 289/198/23 288/197/23

f 289/198/23 287/196/23 286/195/23

usemtl _DimGray_
f 286/195/6 170/41/6 289/198/6

v 121646 8990.75 -178911
f 289/198/6 170/41/6 290/199/6

v 115443 8990.75 -178911
f 290/199/6 170/41/6 291/200/6

v 115443 7416.75 -178911
f 291/200/6 170/41/6 292/201/6

f 163/24/6 292/201/6 170/41/6

v 121646 7416.75 -178911
f 163/24/6 293/202/6 292/201/6

f 163/24/6 288/197/6 293/202/6

f 293/202/6 288/197/6 290/199/6

f 289/198/6 290/199/6 288/197/6

usemtl Color_M06
f 291/200/22 293/202/22 290/199/22

f 293/202/22 291/200/22 292/201/22

usemtl _DimGray_
v 122364 5679.95 -178911
f 168/28/6 163/24/6 294/203/6

v 121646 5679.95 -178911
f 294/203/6 163/24/6 295/204/6

v 115443 5679.95 -178911
f 295/204/6 163/24/6 296/205/6

f 296/205/6 163/24/6 164/23/6

usemtl Color_M06
f 165/25/22 296/205/22 164/23/22

f 296/205/22 165/25/22 295/204/22

usemtl _DimGray_
f 165/25/6 166/26/6 295/204/6

f 294/203/6 295/204/6 166/26/6

usemtl Color_M06
f 167/27/23 294/203/23 166/26/23

f 294/203/23 167/27/23 168/28/23

usemtl _DimGray_
v 128567 2369.15 -178911
f 297/206/24 160/12/24 157/22/24

f 160/12/24 297/206/24 155/10/24

v 128567 798.221 -178911
f 298/207/24 155/10/24 297/206/24

f 155/10/24 298/207/24 153/208/24

v 122364 798.221 -178911
f 153/208/24 298/207/24 299/209/24

usemtl Color_M06
v 122364 2369.15 -178911
f 298/207/23 300/210/23 299/209/23

f 300/210/23 298/207/23 297/206/23

usemtl _DimGray_
f 297/206/24 157/22/24 300/210/24

v 121646 2369.15 -178911
f 300/210/24 157/22/24 301/211/24

v 115443 2369.15 -178911
f 301/211/24 157/22/24 302/212/24

v 115443 795.152 -178911
f 302/212/24 157/22/24 303/213/24

f 153/208/24 303/213/24 157/22/24

v 121646 795.152 -178911
f 153/208/24 304/214/24 303/213/24

f 153/208/24 299/209/24 304/214/24

f 304/214/24 299/209/24 301/211/24

f 300/210/24 301/211/24 299/209/24

usemtl Color_M06
f 302/212/22 304/214/22 301/211/22

f 304/214/22 302/212/22 303/213/22

g Mesh3 Group3 Model

usemtl _DimGray_
v 83128.7 159.152 -178911
v 100964 159.152 -190121
v 100964 159.152 -178911
f 305/1/1 306/2/1 307/3/1

v 83128.7 159.152 -190121
f 306/2/1 305/1/1 308/4/1

v 83128.7 3469.95 -178911
f 309/5/2 308/6/2 305/7/2

v 83128.7 3469.95 -190121
f 308/6/2 309/5/2 310/8/2

v 100964 3469.95 -190121
f 311/6/3 309/1/3 310/4/3

v 100964 3469.95 -178911
f 309/1/3 311/6/3 312/9/3

f 307/10/4 311/11/4 312/12/4

f 311/11/4 307/10/4 306/13/4

f 308/14/5 311/15/5 306/16/5

f 311/15/5 308/14/5 310/17/5

v 100964 6780.75 -190121
f 310/17/5 313/18/5 311/15/5

v 83128.7 6780.75 -190121
f 313/18/5 310/17/5 314/19/5

v 83128.7 6780.75 -178911
f 310/8/2 315/20/2 314/21/2

f 315/20/2 310/8/2 309/5/2

v 85484.5 4105.95 -178911
f 309/22/6 316/23/6 315/24/6

v 91687.8 4105.95 -178911
f 309/22/6 317/25/6 316/23/6

v 92405.3 4109.02 -178911
f 309/22/6 318/26/6 317/25/6

v 98608.5 4109.02 -178911
f 309/22/6 319/27/6 318/26/6

f 312/12/6 319/27/6 309/22/6

v 98608.5 5679.95 -178911
f 319/27/6 312/12/6 320/28/6

v 100964 6780.75 -178911
f 321/29/6 320/28/6 312/12/6

f 320/28/6 321/29/6 315/24/6

f 315/1/3 313/6/3 321/9/3

f 313/6/3 315/1/3 314/4/3

v 83128.7 10091.6 -178911
f 322/30/2 314/21/2 315/20/2

v 83128.7 10091.6 -190121
f 314/21/2 322/30/2 323/31/2

v 100964 10091.6 -190121
f 324/6/3 322/1/3 323/4/3

v 100964 10091.6 -178911
f 322/1/3 324/6/3 325/9/3

f 321/29/7 324/32/7 325/33/7

f 324/32/7 321/29/7 313/34/7

f 312/12/7 313/34/7 321/29/7

f 313/34/7 312/12/7 311/11/7

f 314/19/5 324/35/5 313/18/5

f 324/35/5 314/19/5 323/36/5

v 100964 13402.4 -190121
f 323/36/5 326/37/5 324/35/5

v 83128.7 13402.4 -190121
f 326/37/5 323/36/5 327/38/5

v 83128.7 13402.4 -178911
f 323/31/8 328/39/8 327/40/8

f 328/39/8 323/31/8 322/30/8

v 85484.5 10727.6 -178911
f 322/41/6 329/42/6 328/43/6

v 91687.8 10727.6 -178911
f 322/41/6 330/44/6 329/42/6

v 92405.3 10730.6 -178911
f 322/41/6 331/45/6 330/44/6

v 98608.5 10730.6 -178911
f 322/41/6 332/46/6 331/45/6

f 325/33/6 332/46/6 322/41/6

v 98608.5 12301.6 -178911
f 332/46/6 325/33/6 333/47/6

v 100964 13402.4 -178911
f 334/48/6 333/47/6 325/33/6

f 333/47/6 334/48/6 328/43/6

f 328/1/3 326/6/3 334/9/3

f 326/6/3 328/1/3 327/4/3

v 83128.7 16713.2 -178911
f 335/49/9 327/40/9 328/39/9

v 83128.7 16713.2 -190121
f 327/40/9 335/49/9 336/50/9

v 100964 16713.2 -190121
f 337/6/3 335/1/3 336/4/3

v 100964 16713.2 -178911
f 335/1/3 337/6/3 338/9/3

f 334/48/10 337/51/10 338/52/10

f 337/51/10 334/48/10 326/53/10

f 325/33/11 326/53/11 334/48/11

f 326/53/11 325/33/11 324/32/11

f 327/38/5 337/54/5 326/37/5

f 337/54/5 327/38/5 336/55/5

v 100964 20024 -190121
f 336/55/5 339/56/5 337/54/5

v 83128.7 20024 -190121
f 339/56/5 336/55/5 340/57/5

v 83128.7 20024 -178911
f 336/50/2 341/58/2 340/59/2

f 341/58/2 336/50/2 335/49/2

v 85484.5 17349.2 -178911
f 335/60/6 342/61/6 341/62/6

v 91687.8 17349.2 -178911
f 335/60/6 343/63/6 342/61/6

v 92405.3 17352.2 -178911
f 335/60/6 344/64/6 343/63/6

v 98608.5 17352.2 -178911
f 335/60/6 345/65/6 344/64/6

f 338/52/6 345/65/6 335/60/6

v 98608.5 18923.2 -178911
f 345/65/6 338/52/6 346/66/6

v 100964 20024 -178911
f 347/67/6 346/66/6 338/52/6

f 346/66/6 347/67/6 341/62/6

f 341/1/3 339/6/3 347/9/3

f 339/6/3 341/1/3 340/4/3

v 83128.7 23334.8 -178911
f 348/68/2 340/59/2 341/58/2

v 83128.7 23334.8 -190121
f 340/59/2 348/68/2 349/69/2

v 100964 23334.8 -190121
f 350/6/3 348/1/3 349/4/3

v 100964 23334.8 -178911
f 348/1/3 350/6/3 351/9/3

f 347/67/7 350/70/7 351/71/7

f 350/70/7 347/67/7 339/72/7

f 338/52/7 339/72/7 347/67/7

f 339/72/7 338/52/7 337/51/7

f 340/57/5 350/73/5 339/56/5

f 350/73/5 340/57/5 349/74/5

v 100964 26645.6 -190121
f 349/74/5 352/75/5 350/73/5

v 83128.7 26645.6 -190121
f 352/75/5 349/74/5 353/76/5

v 83128.7 26645.6 -178911
f 349/69/12 354/77/12 353/78/12

f 354/77/12 349/69/12 348/68/12

v 85484.5 23970.8 -178911
f 348/79/6 355/80/6 354/81/6

v 91687.8 23970.8 -178911
f 348/79/6 356/82/6 355/80/6

v 92405.3 23973.8 -178911
f 348/79/6 357/83/6 356/82/6

v 98608.5 23973.8 -178911
f 348/79/6 358/84/6 357/83/6

f 351/71/6 358/84/6 348/79/6

v 98608.5 25544.8 -178911
f 358/84/6 351/71/6 359/85/6

v 100964 26645.6 -178911
f 360/86/6 359/85/6 351/71/6

f 359/85/6 360/86/6 354/81/6

f 354/1/3 352/6/3 360/9/3

f 352/6/3 354/1/3 353/4/3

v 83128.7 29956.4 -178911
f 361/87/9 353/78/9 354/77/9

v 83128.7 29956.4 -190121
f 353/78/9 361/87/9 362/88/9

v 100964 29956.4 -190121
f 363/6/3 361/1/3 362/4/3

v 100964 29956.4 -178911
f 361/1/3 363/6/3 364/9/3

f 360/86/10 363/89/10 364/90/10

f 363/89/10 360/86/10 352/91/10

f 351/71/13 352/91/13 360/86/13

f 352/91/13 351/71/13 350/70/13

f 353/76/5 363/92/5 352/75/5

f 363/92/5 353/76/5 362/93/5

v 100964 33267.2 -190121
f 362/93/5 365/94/5 363/92/5

v 83128.7 33267.2 -190121
f 365/94/5 362/93/5 366/95/5

v 83128.7 33267.2 -178911
f 362/88/14 367/96/14 366/97/14

f 367/96/14 362/88/14 361/87/14

v 85484.5 30592.4 -178911
f 361/98/6 368/99/6 367/100/6

v 91687.8 30592.4 -178911
f 361/98/6 369/101/6 368/99/6

v 92405.3 30595.4 -178911
f 361/98/6 370/102/6 369/101/6

v 98608.5 30595.4 -178911
f 361/98/6 371/103/6 370/102/6

f 364/90/6 371/103/6 361/98/6

v 98608.5 32166.4 -178911
f 371/103/6 364/90/6 372/104/6

v 100964 33267.2 -178911
f 373/105/6 372/104/6 364/90/6

f 372/104/6 373/105/6 367/100/6

f 367/1/3 365/6/3 373/9/3

f 365/6/3 367/1/3 366/4/3

v 83128.7 36578 -178911
f 374/106/14 366/97/14 367/96/14

v 83128.7 36578 -190121
f 366/97/14 374/106/14 375/107/14

v 100964 36578 -190121
f 376/6/3 374/1/3 375/4/3

v 100964 36578 -178911
f 374/1/3 376/6/3 377/9/3

f 373/105/15 376/108/15 377/109/15

f 376/108/15 373/105/15 365/110/15

f 364/90/15 365/110/15 373/105/15

f 365/110/15 364/90/15 363/89/15

f 366/95/5 376/111/5 365/94/5

f 376/111/5 366/95/5 375/112/5

v 100964 39888.8 -190121
f 375/112/5 378/113/5 376/111/5

v 83128.7 39888.8 -190121
f 378/113/5 375/112/5 379/114/5

v 83128.7 39888.8 -178911
f 375/107/9 380/115/9 379/116/9

f 380/115/9 375/107/9 374/106/9

v 85484.5 37214 -178911
f 374/117/6 381/118/6 380/119/6

v 91687.8 37214 -178911
f 374/117/6 382/120/6 381/118/6

v 92405.3 37217 -178911
f 374/117/6 383/121/6 382/120/6

v 98608.5 37217 -178911
f 374/117/6 384/122/6 383/121/6

f 377/109/6 384/122/6 374/117/6

v 98608.5 38788 -178911
f 384/122/6 377/109/6 385/123/6

v 100964 39888.8 -178911
f 386/124/6 385/123/6 377/109/6

f 385/123/6 386/124/6 380/119/6

f 378/125/16 380/126/16 386/9/16

f 380/126/16 378/125/16 379/127/16

v 99862 41192.8 -189018
f 379/128/17 387/129/17 378/130/17

v 84231.1 41192.8 -189018
f 387/129/17 379/128/17 388/131/17

v 84231.1 41192.8 -180013
f 379/132/18 389/133/18 388/134/18

f 389/133/18 379/132/18 380/135/18

v 99862 41192.8 -180013
f 380/136/19 390/137/19 389/138/19

f 390/137/19 380/136/19 386/139/19

f 386/139/20 387/140/20 390/141/20

f 387/140/20 386/139/20 378/142/20

f 377/109/10 378/143/10 386/124/10

f 378/143/10 377/109/10 376/108/10

f 387/144/21 389/145/21 390/146/21

f 389/145/21 387/144/21 388/147/21

v 92405.3 38788 -178911
f 385/123/6 380/119/6 391/148/6

v 91687.8 38788 -178911
f 391/148/6 380/119/6 392/149/6

v 85484.5 38788 -178911
f 392/149/6 380/119/6 393/150/6

f 393/150/6 380/119/6 381/118/6

usemtl Color_M06
f 382/120/22 393/150/22 381/118/22

f 393/150/22 382/120/22 392/149/22

usemtl _DimGray_
f 382/120/6 383/121/6 392/149/6

f 391/148/6 392/149/6 383/121/6

usemtl Color_M06
f 384/122/23 391/148/23 383/121/23

f 391/148/23 384/122/23 385/123/23

usemtl _DimGray_
v 98608.5 35477.2 -178911
f 394/151/6 377/109/6 374/117/6

f 377/109/6 394/151/6 373/105/6

v 98608.5 33906.2 -178911
f 395/152/6 373/105/6 394/151/6

f 373/105/6 395/152/6 367/100/6

v 92405.3 33906.2 -178911
f 367/100/6 395/152/6 396/153/6

usemtl Color_M06
v 92405.3 35477.2 -178911
f 395/152/23 397/154/23 396/153/23

f 397/154/23 395/152/23 394/151/23

usemtl _DimGray_
f 394/151/6 374/117/6 397/154/6

v 91687.8 35477.2 -178911
f 397/154/6 374/117/6 398/155/6

v 85484.5 35477.2 -178911
f 398/155/6 374/117/6 399/156/6

v 85484.5 33903.2 -178911
f 399/156/6 374/117/6 400/157/6

f 367/100/6 400/157/6 374/117/6

v 91687.8 33903.2 -178911
f 367/100/6 401/158/6 400/157/6

f 367/100/6 396/153/6 401/158/6

f 401/158/6 396/153/6 398/155/6

f 397/154/6 398/155/6 396/153/6

usemtl Color_M06
f 399/156/22 401/158/22 398/155/22

f 401/158/22 399/156/22 400/157/22

usemtl _DimGray_
v 92405.3 32166.4 -178911
f 372/104/6 367/100/6 402/159/6

v 91687.8 32166.4 -178911
f 402/159/6 367/100/6 403/160/6

v 85484.5 32166.4 -178911
f 403/160/6 367/100/6 404/161/6

f 404/161/6 367/100/6 368/99/6

usemtl Color_M06
f 369/101/22 404/161/22 368/99/22

f 404/161/22 369/101/22 403/160/22

usemtl _DimGray_
f 369/101/6 370/102/6 403/160/6

f 402/159/6 403/160/6 370/102/6

usemtl Color_M06
f 371/103/23 402/159/23 370/102/23

f 402/159/23 371/103/23 372/104/23

usemtl _DimGray_
v 98608.5 28855.6 -178911
f 405/162/6 364/90/6 361/98/6

f 364/90/6 405/162/6 360/86/6

v 98608.5 27284.6 -178911
f 406/163/6 360/86/6 405/162/6

f 360/86/6 406/163/6 354/81/6

v 92405.3 27284.6 -178911
f 354/81/6 406/163/6 407/164/6

usemtl Color_M06
v 92405.3 28855.6 -178911
f 406/163/23 408/165/23 407/164/23

f 408/165/23 406/163/23 405/162/23

usemtl _DimGray_
f 405/162/6 361/98/6 408/165/6

v 91687.8 28855.6 -178911
f 408/165/6 361/98/6 409/166/6

v 85484.5 28855.6 -178911
f 409/166/6 361/98/6 410/167/6

v 85484.5 27281.6 -178911
f 410/167/6 361/98/6 411/168/6

f 354/81/6 411/168/6 361/98/6

v 91687.8 27281.6 -178911
f 354/81/6 412/169/6 411/168/6

f 354/81/6 407/164/6 412/169/6

f 412/169/6 407/164/6 409/166/6

f 408/165/6 409/166/6 407/164/6

usemtl Color_M06
f 410/167/22 412/169/22 409/166/22

f 412/169/22 410/167/22 411/168/22

usemtl _DimGray_
v 92405.3 25544.8 -178911
f 359/85/6 354/81/6 413/170/6

v 91687.8 25544.8 -178911
f 413/170/6 354/81/6 414/171/6

v 85484.5 25544.8 -178911
f 414/171/6 354/81/6 415/172/6

f 415/172/6 354/81/6 355/80/6

usemtl Color_M06
f 356/82/22 415/172/22 355/80/22

f 415/172/22 356/82/22 414/171/22

usemtl _DimGray_
f 356/82/6 357/83/6 414/171/6

f 413/170/6 414/171/6 357/83/6

usemtl Color_M06
f 358/84/23 413/170/23 357/83/23

f 413/170/23 358/84/23 359/85/23

usemtl _DimGray_
v 98608.5 22234 -178911
f 416/173/6 351/71/6 348/79/6

f 351/71/6 416/173/6 347/67/6

v 98608.5 20663 -178911
f 417/174/6 347/67/6 416/173/6

f 347/67/6 417/174/6 341/62/6

v 92405.3 20663 -178911
f 341/62/6 417/174/6 418/175/6

usemtl Color_M06
v 92405.3 22234 -178911
f 417/174/23 419/176/23 418/175/23

f 419/176/23 417/174/23 416/173/23

usemtl _DimGray_
f 416/173/6 348/79/6 419/176/6

v 91687.8 22234 -178911
f 419/176/6 348/79/6 420/177/6

v 85484.5 22234 -178911
f 420/177/6 348/79/6 421/178/6

v 85484.5 20660 -178911
f 421/178/6 348/79/6 422/179/6

f 341/62/6 422/179/6 348/79/6

v 91687.8 20660 -178911
f 341/62/6 423/180/6 422/179/6

f 341/62/6 418/175/6 423/180/6

f 423/180/6 418/175/6 420/177/6

f 419/176/6 420/177/6 418/175/6

usemtl Color_M06
f 421/178/22 423/180/22 420/177/22

f 423/180/22 421/178/22 422/179/22

usemtl _DimGray_
v 92405.3 18923.2 -178911
f 346/66/6 341/62/6 424/181/6

v 91687.8 18923.2 -178911
f 424/181/6 341/62/6 425/182/6

v 85484.5 18923.2 -178911
f 425/182/6 341/62/6 426/183/6

f 426/183/6 341/62/6 342/61/6

usemtl Color_M06
f 343/63/22 426/183/22 342/61/22

f 426/183/22 343/63/22 425/182/22

usemtl _DimGray_
f 343/63/6 344/64/6 425/182/6

f 424/181/6 425/182/6 344/64/6

usemtl Color_M06
f 345/65/23 424/181/23 344/64/23

f 424/181/23 345/65/23 346/66/23

usemtl _DimGray_
v 98608.5 15612.4 -178911
f 427/184/6 338/52/6 335/60/6

f 338/52/6 427/184/6 334/48/6

v 98608.5 14041.4 -178911
f 428/185/6 334/48/6 427/184/6

f 334/48/6 428/185/6 328/43/6

v 92405.3 14041.4 -178911
f 328/43/6 428/185/6 429/186/6

usemtl Color_M06
v 92405.3 15612.4 -178911
f 428/185/23 430/187/23 429/186/23

f 430/187/23 428/185/23 427/184/23

usemtl _DimGray_
f 427/184/6 335/60/6 430/187/6

v 91687.8 15612.4 -178911
f 430/187/6 335/60/6 431/188/6

v 85484.5 15612.4 -178911
f 431/188/6 335/60/6 432/189/6

v 85484.5 14038.4 -178911
f 432/189/6 335/60/6 433/190/6

f 328/43/6 433/190/6 335/60/6

v 91687.8 14038.4 -178911
f 328/43/6 434/191/6 433/190/6

f 328/43/6 429/186/6 434/191/6

f 434/191/6 429/186/6 431/188/6

f 430/187/6 431/188/6 429/186/6

usemtl Color_M06
f 432/189/22 434/191/22 431/188/22

f 434/191/22 432/189/22 433/190/22

usemtl _DimGray_
v 92405.3 12301.6 -178911
f 333/47/6 328/43/6 435/192/6

v 91687.8 12301.6 -178911
f 435/192/6 328/43/6 436/193/6

v 85484.5 12301.6 -178911
f 436/193/6 328/43/6 437/194/6

f 437/194/6 328/43/6 329/42/6

usemtl Color_M06
f 330/44/22 437/194/22 329/42/22

f 437/194/22 330/44/22 436/193/22

usemtl _DimGray_
f 330/44/6 331/45/6 436/193/6

f 435/192/6 436/193/6 331/45/6

usemtl Color_M06
f 332/46/23 435/192/23 331/45/23

f 435/192/23 332/46/23 333/47/23

usemtl _DimGray_
v 98608.5 8990.75 -178911
f 438/195/6 325/33/6 322/41/6

f 325/33/6 438/195/6 321/29/6

v 98608.5 7419.82 -178911
f 439/196/6 321/29/6 438/195/6

f 321/29/6 439/196/6 315/24/6

v 92405.3 7419.82 -178911
f 315/24/6 439/196/6 440/197/6

usemtl Color_M06
v 92405.3 8990.75 -178911
f 439/196/23 441/198/23 440/197/23

f 441/198/23 439/196/23 438/195/23

usemtl _DimGray_
f 438/195/6 322/41/6 441/198/6

v 91687.8 8990.75 -178911
f 441/198/6 322/41/6 442/199/6

v 85484.5 8990.75 -178911
f 442/199/6 322/41/6 443/200/6

v 85484.5 7416.75 -178911
f 443/200/6 322/41/6 444/201/6

f 315/24/6 444/201/6 322/41/6

v 91687.8 7416.75 -178911
f 315/24/6 445/202/6 444/201/6

f 315/24/6 440/197/6 445/202/6

f 445/202/6 440/197/6 442/199/6

f 441/198/6 442/199/6 440/197/6

usemtl Color_M06
f 443/200/22 445/202/22 442/199/22

f 445/202/22 443/200/22 444/201/22

usemtl _DimGray_
v 92405.3 5679.95 -178911
f 320/28/6 315/24/6 446/203/6

v 91687.8 5679.95 -178911
f 446/203/6 315/24/6 447/204/6

v 85484.5 5679.95 -178911
f 447/204/6 315/24/6 448/205/6

f 448/205/6 315/24/6 316/23/6

usemtl Color_M06
f 317/25/22 448/205/22 316/23/22

f 448/205/22 317/25/22 447/204/22

usemtl _DimGray_
f 317/25/6 318/26/6 447/204/6

f 446/203/6 447/204/6 318/26/6

usemtl Color_M06
f 319/27/23 446/203/23 318/26/23

f 446/203/23 319/27/23 320/28/23

usemtl _DimGray_
v 98608.5 2369.15 -178911
f 449/206/24 312/12/24 309/22/24

f 312/12/24 449/206/24 307/10/24

v 98608.5 798.221 -178911
f 450/207/24 307/10/24 449/206/24

f 307/10/24 450/207/24 305/208/24

v 92405.3 798.221 -178911
f 305/208/24 450/207/24 451/209/24

usemtl Color_M06
v 92405.3 2369.15 -178911
f 450/207/23 452/210/23 451/209/23

f 452/210/23 450/207/23 449/206/23

usemtl _DimGray_
f 449/206/24 309/22/24 452/210/24

v 91687.8 2369.15 -178911
f 452/210/24 309/22/24 453/211/24

v 85484.5 2369.15 -178911
f 453/211/24 309/22/24 454/212/24

v 85484.5 795.152 -178911
f 454/212/24 309/22/24 455/213/24

f 305/208/24 455/213/24 309/22/24

v 91687.8 795.152 -178911
f 305/208/24 456/214/24 455/213/24

f 305/208/24 451/209/24 456/214/24

f 456/214/24 451/209/24 453/211/24

f 452/210/24 453/211/24 451/209/24

usemtl Color_M06
f 454/212/22 456/214/22 453/211/22

f 456/214/22 454/212/22 455/213/22

