# Alias OBJ Model File
# Exported from SketchUp, (c) 2000-2012 Trimble Navigation Limited
# File units = millimeters

mtllib Nhà xe.mtl

g Mesh1 Group5 Group4 Group3 Group2 Group1 Model

usemtl wall__56_
v 111522 959.152 -62660.9
vt -5.94059 1.9802
vn -1 0 -0
v 111522 859.152 -62560.9
vt -5.69307 1.73267
v 111522 959.152 -62560.9
vt -5.69307 1.9802
f 1/1/1 2/2/1 3/3/1

v 111522 859.152 -62660.9
vt -5.94059 1.73267
f 2/2/1 1/1/1 4/4/1

vt -3.0198 1.9802
vn 0 0 -1
v 112722 859.152 -62660.9
vt -5.9901 1.73267
vt -3.0198 1.73267
f 1/5/2 5/6/2 4/7/2

v 112722 959.152 -62660.9
vt -5.9901 1.9802
f 5/6/2 1/5/2 6/8/2

usemtl Formica_Standard_Lam_180fx_3461_Black_Fossilstone_48x96
vt 2.00131 7.87402
vn 0 1 -0
v 112722 959.152 -62480.9
vt 3.96982 7.28346
vt 3.96982 7.87402
f 1/9/3 7/10/3 6/11/3

v 112722 959.152 -62450.9
vt 3.96982 7.18504
f 1/9/3 8/12/3 7/10/3

vt 2.00131 7.54593
f 3/13/3 8/12/3 1/9/3

v 111522 959.152 -62450.9
vt 2.00131 7.18504
f 8/12/3 3/13/3 9/14/3

usemtl wall__56_
vt 5.69307 1.9802
vn 1 -3.3312e-30 1.05005e-12
v 111522 2659.15 -62450.9
vt 5.42079 6.18812
vt 5.42079 1.9802
f 3/15/4 10/16/4 9/17/4

v 111522 2659.15 -62560.9
vt 5.69307 6.18812
f 10/16/4 3/15/4 11/18/4

vn 2.93681e-16 -3.42037e-16 -1
v 110602 2659.15 -62560.9
vt -0.742574 6.18812
vt -3.0198 6.18812
f 3/5/5 12/19/5 11/20/5

f 2/7/5 12/19/5 3/5/5

v 110602 159.152 -62560.9
vt -0.742574 1.94724e-15
f 2/7/5 13/21/5 12/19/5

v 112722 159.152 -62560.9
vt -5.9901 1.94724e-15
f 13/21/5 2/7/5 14/22/5

v 112722 859.152 -62560.9
f 15/6/5 14/22/5 2/7/5

vt 5.69307 1.73267
vn 1 1.82985e-14 6.12136e-13
v 112722 159.152 -62480.9
vt 5.49505 -4.3346e-14
vt 5.69307 -1.0961e-13
f 15/23/6 16/24/6 14/25/6

vt 5.49505 1.9802
f 15/23/6 7/26/6 16/24/6

vt 5.94059 1.9802
f 7/26/6 15/23/6 6/27/6

vt 5.94059 1.73267
f 6/27/6 15/23/6 5/28/6

vt -3.0198 5.69307
vn 0 -1 -0
vt -5.9901 5.94059
vt -5.9901 5.69307
f 2/29/7 5/30/7 15/31/7

vt -3.0198 5.94059
f 5/30/7 2/29/7 4/32/7

usemtl FrontColor
v 112322 159.152 -60640.9
vt -79.5276 14.9606
vn -9.31704e-16 -1 1.97587e-15
vt -95.2756 90.5512
vt -95.2756 87.4016
f 17/33/8 14/34/8 16/35/8

v 111522 159.152 -60640.9
vt -48.0315 14.9606
f 18/36/8 14/34/8 17/33/8

v 110602 159.152 -60560.9
vt -11.811 11.811
f 19/37/8 14/34/8 18/36/8

vt -11.811 90.5512
f 14/34/8 19/37/8 13/38/8

usemtl wall__56_
v 110602 2659.15 -60560.9
vn -1 8.66294e-16 -3.60956e-16
vt -5.69307 6.43287e-16
vt -0.742574 6.43287e-16
f 20/19/9 13/39/9 19/40/9

vt -5.69307 6.18812
f 13/39/9 20/19/9 12/41/9

vt 0.742574 1.42953e-16
vn -5.94294e-16 1.9251e-16 1
v 111522 2659.15 -60560.9
vt 3.0198 6.18812
vt 0.742574 6.18812
f 19/42/10 21/43/10 20/44/10

v 111522 159.152 -60560.9
vt 3.0198 1.42953e-16
f 21/43/10 19/42/10 22/45/10

usemtl FrontColor
vt -48.0315 11.811
f 19/37/8 18/36/8 22/46/8

usemtl wall__56_
vt 0.940594 8.98904e-14
vn 1 -7.72445e-15 1.53406e-12
vt 0.742574 2.33263e-14
f 18/47/11 21/44/11 22/48/11

v 111522 2659.15 -60640.9
vt 0.940594 6.18812
f 21/44/11 18/47/11 23/49/11

usemtl FrontColor
v 114352 159.152 -60560.9
vt -159.449 11.811
f 24/50/8 17/33/8 16/35/8

v 112322 159.152 -60560.9
vt -79.5276 11.811
f 17/33/8 24/50/8 25/51/8

usemtl op__46_
v 114352 859.152 -60560.9
vt -0.109864 0.891705
vn 0 0 1
vt -2.20373 0
vt -0.109864 0
f 26/52/12 25/53/12 24/54/12

v 112322 859.152 -60560.9
vt -2.20373 0.891705
f 25/53/12 26/52/12 27/55/12

usemtl FrontColor
v 112322 859.152 -60460.9
vt -79.5276 7.87402
f 26/50/7 28/56/7 27/51/7

v 114452 859.152 -60460.9
vt -163.386 7.87402
f 28/56/7 26/50/7 29/57/7

v 114452 859.152 -62660.9
vt -163.386 94.4882
f 29/57/7 26/50/7 30/58/7

v 114352 859.152 -62560.9
vt -159.449 90.5512
f 31/59/7 30/58/7 26/50/7

v 113522 859.152 -62560.9
vt -126.772 90.5512
f 32/60/7 30/58/7 31/59/7

v 113522 859.152 -62660.9
vt -126.772 94.4882
f 30/58/7 32/60/7 33/61/7

usemtl wall__56_
vn -1 6.49552e-15 -3.79009e-13
v 113522 939.152 -62660.9
vt -5.94059 1.93069
f 33/4/13 32/2/13 34/62/13

v 113522 959.152 -62680.9
f 32/2/13 35/8/13 34/62/13

v 113522 959.152 -62560.9
f 35/8/13 32/2/13 36/3/13

v 113522 159.152 -62560.9
vt -5.69307 5.17712e-14
f 37/63/13 36/3/13 32/2/13

v 113522 2659.15 -62560.9
f 37/63/13 38/41/13 36/3/13

v 113522 159.152 -62480.9
vt -5.49505 5.18001e-14
f 39/64/13 38/41/13 37/63/13

v 113522 2659.15 -62480.9
vt -5.49505 6.18812
f 38/41/13 39/64/13 40/65/13

usemtl FrontColor
vt -126.772 87.4016
f 24/50/8 39/66/8 37/60/8

f 24/50/8 16/35/8 39/66/8

v 114352 159.152 -62560.9
f 24/50/8 37/60/8 41/59/8

usemtl op__46_
vt 2.80917 0.891705
vt 1.95306 0
vt 2.80917 0
f 32/67/2 41/68/2 37/69/2

vt 1.95306 0.891705
f 41/68/2 32/67/2 31/70/2

vn 1 0 -0
f 26/52/14 41/68/14 31/70/14

f 41/68/14 26/52/14 24/54/14

usemtl wall__56_
vt -7.9703 6.18812
v 113742 959.152 -62560.9
vt -8.51485 1.9802
vt -7.9703 1.9802
f 38/71/2 42/72/2 36/73/2

v 113742 2659.15 -62560.9
vt -8.51485 6.18812
f 42/72/2 38/71/2 43/74/2

v 113742 959.152 -62480.9
f 43/18/14 44/26/14 42/15/14

v 113742 2659.15 -62480.9
vt 5.49505 6.18812
f 44/26/14 43/18/14 45/75/14

v 114342 959.152 -62480.9
vt 10 5.49505
vn -1.89759e-14 1 2.93851e-14
vt 8.51485 5.69307
vt 8.51485 5.49505
f 46/76/15 42/77/15 44/78/15

v 114472 959.152 -62680.9
vt 10.3218 5.9901
f 47/79/15 42/77/15 46/76/15

vt 7.9703 5.9901
f 35/80/15 42/77/15 47/79/15

vt 7.9703 5.69307
f 42/77/15 35/80/15 36/81/15

usemtl Formica_Standard_Lam_180fx_3461_Black_Fossilstone_48x96
v 114472 939.152 -62680.9
vt -6.84055 2.55906
vt -5.28215 2.62467
vt -6.84055 2.62467
f 48/82/2 35/83/2 47/84/2

v 113522 939.152 -62680.9
vt -5.28215 2.55906
f 35/83/2 48/82/2 49/85/2

vt -6.84055 7.93963
vt -5.28215 7.87402
vt -5.28215 7.93963
f 48/86/7 34/87/7 49/88/7

v 114452 939.152 -62660.9
vt -6.80774 7.87402
f 34/87/7 48/86/7 50/89/7

v 114472 939.152 -62660.9
vt -6.84055 7.87402
f 50/89/7 48/86/7 51/90/7

vt 3.96982 2.62467
vt 3.93701 2.55906
vt 3.96982 2.55906
f 47/91/14 51/92/14 48/93/14

v 114472 959.152 -60440.9
vt 0.295276 2.62467
f 52/94/14 51/92/14 47/91/14

v 114472 939.152 -60440.9
vt 0.295276 2.55906
f 51/92/14 52/94/14 53/95/14

vt 6.84055 2.62467
v 114452 939.152 -60440.9
vt 6.80774 2.55906
vt 6.84055 2.55906
f 52/96/12 54/97/12 53/98/12

v 112322 939.152 -60440.9
vt 3.31365 2.55906
f 54/97/12 52/96/12 55/99/12

v 112322 959.152 -60440.9
vt 3.31365 2.62467
f 55/99/12 52/96/12 56/100/12

usemtl wall__56_
vt 10.3218 0.445545
v 112322 959.152 -60670.9
vt 5 1.01485
vt 5 0.445545
f 52/101/15 57/102/15 56/103/15

v 113522 959.152 -60560.9
vt 7.9703 0.742574
f 57/102/15 52/101/15 58/104/15

v 113742 959.152 -60560.9
vt 8.51485 0.742574
f 58/104/15 52/101/15 59/105/15

v 113742 959.152 -60640.9
vt 8.51485 0.940594
f 59/105/15 52/101/15 60/106/15

v 114342 959.152 -60640.9
vt 10 0.940594
f 60/106/15 52/101/15 61/107/15

f 61/107/15 52/101/15 46/76/15

f 47/79/15 46/76/15 52/101/15

vt 0.940594 1.9802
v 113742 2659.15 -60560.9
vt 0.742574 1.9802
f 60/108/14 62/44/14 59/109/14

v 113742 2659.15 -60640.9
f 62/44/14 60/108/14 63/49/14

v 113522 2659.15 -60560.9
vt 7.9703 6.18812
vt 8.51485 1.9802
vt 8.51485 6.18812
f 64/110/12 59/111/12 62/112/12

vt 7.9703 1.9802
f 59/111/12 64/110/12 58/113/12

v 113522 959.152 -60670.9
vt 7.9703 1.01485
f 57/102/15 58/104/15 65/114/15

usemtl Formica_Standard_Lam_180fx_3461_Black_Fossilstone_48x96
vt -0.672572 2.62467
vt -0.295276 2.55906
vt -0.295276 2.62467
f 57/115/1 55/116/1 56/117/1

v 112322 939.152 -60460.9
vt -0.328084 2.55906
f 55/116/1 57/115/1 66/118/1

v 112322 939.152 -60640.9
vt -0.62336 2.55906
f 66/118/1 57/115/1 67/119/1

v 112322 939.152 -60670.9
vt -0.672572 2.55906
f 67/119/1 57/115/1 68/120/1

usemtl wall__56_
vt -0.940594 1.93069
vn -1 -1.07607e-14 -4.19571e-13
vt -0.49505 1.73267
vt -0.49505 1.93069
f 67/121/16 28/122/16 66/123/16

vt -0.742574 1.73267
f 28/122/16 67/121/16 27/124/16

vt -0.742574 -5.38034e-14
f 27/124/16 67/121/16 25/125/16

vt -0.940594 1.80023e-14
f 25/125/16 67/121/16 17/126/16

vt 5 1.73267
v 114452 939.152 -60460.9
vt 10.2723 1.93069
vt 5 1.93069
f 28/127/12 69/128/12 66/129/12

vt 10.2723 1.73267
f 69/128/12 28/127/12 29/130/12

vt 0.49505 1.93069
vt 0.49505 1.73267
f 30/28/14 69/131/14 29/132/14

vt 5.94059 1.93069
f 69/131/14 30/28/14 50/133/14

vt -10.2723 1.73267
vt -7.9703 1.93069
vt -10.2723 1.93069
f 30/134/2 34/135/2 50/136/2

vt -7.9703 1.73267
f 34/135/2 30/134/2 33/137/2

usemtl Formica_Standard_Lam_180fx_3461_Black_Fossilstone_48x96
vt -6.80774 0.656168
f 51/90/7 69/138/7 50/89/7

vt -6.80774 0.590551
f 69/138/7 51/90/7 54/139/7

vt -6.84055 0.590551
f 54/139/7 51/90/7 53/140/7

vt -3.31365 0.590551
f 55/141/7 69/138/7 54/139/7

vt -3.31365 0.656168
f 69/138/7 55/141/7 66/142/7

usemtl wall__56_
vt -5.9901 1.93069
f 34/62/13 35/8/13 49/143/13

g Mesh2 Group5 Group4 Group3 Group2 Group1 Model

v 114952 2859.15 -60260.9
vt 11.5099 6.68317
vn -3.105e-16 -3.60956e-15 1
v 110302 2659.15 -60260.9
vt 1.07215e-14 6.18812
v 114952 2659.15 -60260.9
vt 11.5099 6.18812
f 70/144/17 71/145/17 72/146/17

v 110302 2859.15 -60260.9
vt 1.07215e-14 6.68317
f 71/145/17 70/144/17 73/147/17

v 110602 2859.15 -60560.9
vt 0.742574 0.742574
vn -4.69631e-15 1 -8.26033e-15
vt 4.21077e-14 -5.16314e-14
vt 11.5099 -5.16314e-14
f 74/148/18 73/149/18 70/150/18

v 110302 2859.15 -62860.9
vt 4.21077e-14 6.43564
f 73/149/18 74/148/18 75/151/18

v 110602 2859.15 -62560.9
vt 0.742574 5.69307
f 76/152/18 75/151/18 74/148/18

v 114952 2859.15 -62860.9
vt 11.5099 6.43564
f 75/151/18 76/152/18 77/153/18

v 114352 2859.15 -62560.9
vt 10.0248 5.69307
f 77/153/18 76/152/18 78/154/18

v 110602 3159.15 -62560.9
vt -0.742574 7.42574
vt -10.0248 6.68317
vt -0.742574 6.68317
f 79/155/2 78/156/2 76/157/2

v 114352 3159.15 -62560.9
vt -10.0248 7.42574
f 78/156/2 79/155/2 80/158/2

v 114352 3159.15 -60560.9
vt 10.0248 0.742574
f 79/152/3 81/159/3 80/154/3

v 110602 3159.15 -60560.9
f 81/159/3 79/152/3 82/148/3

vt -5.69307 7.42574
f 79/160/1 74/157/1 82/155/1

vt -5.69307 6.68317
f 74/157/1 79/160/1 76/161/1

v 114352 2859.15 -60560.9
vt 10.0248 6.68317
vt 0.742574 7.42574
vt 0.742574 6.68317
f 83/162/12 82/163/12 74/164/12

vt 10.0248 7.42574
f 82/163/12 83/162/12 81/165/12

vt 5.69307 6.68317
f 78/166/14 81/163/14 83/164/14

vt 5.69307 7.42574
f 81/163/14 78/166/14 80/167/14

f 83/159/18 70/150/18 78/154/18

f 74/148/18 70/150/18 83/159/18

f 77/153/18 78/154/18 70/150/18

vt 2.91404e-14 6.68317
vn 1 4.33147e-14 2.22127e-15
v 114952 2659.15 -62860.9
vt 6.43564 6.18812
vt 6.43564 6.68317
f 70/168/19 84/169/19 77/170/19

vt 2.55666e-14 6.18812
f 84/169/19 70/168/19 72/171/19

vt -11.5099 6.18812
vn 3.105e-16 -1.80478e-14 -1
vt -8.72319e-15 6.68317
vt -11.5099 6.68317
f 84/172/20 75/173/20 77/174/20

v 110302 2659.15 -62860.9
vt -8.72319e-15 6.18812
f 75/173/20 84/172/20 85/175/20

vt -1.07215e-14 6.18812
vn -1 7.19075e-15 8.50976e-17
vt -6.43564 6.68317
vt -6.43564 6.18812
f 71/176/21 75/177/21 85/178/21

vt -3.57382e-15 6.68317
f 75/177/21 71/176/21 73/179/21

g Mesh3 Group4 Group3 Group2 Group1 Model

v 113522 2659.15 -60640.9
vt -0.940594 6.18812
vn -1 7.74993e-15 -1.15055e-13
vt -0.742574 1.9802
f 86/180/22 58/181/22 64/19/22

v 113522 959.152 -60640.9
vt -0.940594 1.9802
f 58/181/22 86/180/22 87/182/22

vt 7.9703 0.940594
vn -8.65647e-15 1 1.704e-14
vt 3.0198 0.940594
f 86/183/23 23/184/23 64/104/23

vt 11.5099 1.05446e-13
f 23/184/23 72/185/23 64/104/23

vt 3.0198 0.742574
f 21/186/23 72/185/23 23/184/23

f 20/148/23 72/185/23 21/186/23

vt 5.35673e-14 1.16167e-13
f 20/148/23 71/187/23 72/185/23

vt 5.35673e-14 6.43564
f 71/187/23 20/148/23 85/188/23

f 12/152/23 85/188/23 20/148/23

f 85/188/23 12/152/23 84/153/23

vt 3.0198 5.69307
f 84/153/23 12/152/23 11/189/23

v 111522 2659.15 -62480.9
vt 3.0198 5.49505
f 84/153/23 11/189/23 88/190/23

f 84/153/23 88/190/23 38/81/23

vt 7.9703 5.49505
f 38/81/23 88/190/23 40/191/23

f 84/153/23 38/81/23 43/77/23

v 114342 2659.15 -62480.9
f 84/153/23 43/77/23 89/76/23

f 89/76/23 43/77/23 45/78/23

f 84/153/23 89/76/23 72/185/23

v 114342 2659.15 -60640.9
f 90/107/23 72/185/23 89/76/23

f 63/106/23 72/185/23 90/107/23

f 62/105/23 72/185/23 63/106/23

f 64/104/23 72/185/23 62/105/23

g Mesh4 Group8 Group7 Group6 Group1 Model

usemtl Color_M06
v 112922 959.152 -60640.9
vt 55.1181 31.4961
vn -1.54008e-14 -3.88578e-16 1
v 112982 1019.15 -60640.9
vt 57.4803 33.8583
v 112922 2159.15 -60640.9
vt 55.1181 78.7402
f 91/192/24 92/193/24 93/194/24

vt 78.7402 31.4961
f 92/193/24 91/192/24 87/195/24

v 112922 959.152 -60670.9
vt 55.1181 0
vn -4.42772e-14 -1 -3.88578e-16
vt 78.7402 1.1811
vt 55.1181 1.1811
f 94/196/25 87/197/25 91/198/25

v 113522 959.152 -60670.9
vt 78.7402 0
f 87/197/25 94/196/25 95/199/25

vn -1.04721e-14 -1 -3.28782e-15
v 112322 959.152 -60670.9
vt 31.4961 -9.13147e-14
vt 55.1181 -9.13147e-14
f 91/198/26 96/200/26 94/201/26

v 112322 959.152 -60640.9
vt 31.4961 1.1811
f 96/200/26 91/198/26 97/202/26

v 112382 1019.15 -60640.9
vt 33.8583 33.8583
vt 31.4961 31.4961
f 91/192/24 98/203/24 97/204/24

v 112862 1019.15 -60640.9
vt 52.7559 33.8583
f 98/203/24 91/192/24 99/205/24

v 112862 2099.15 -60640.9
vt 52.7559 76.378
f 99/205/24 91/192/24 100/206/24

f 93/194/24 100/206/24 91/192/24

v 112382 2099.15 -60640.9
vt 33.8583 76.378
f 93/194/24 101/207/24 100/206/24

v 112322 2159.15 -60640.9
vt 31.4961 78.7402
f 102/208/24 101/207/24 93/194/24

f 101/207/24 102/208/24 97/204/24

v 112322 159.152 -60640.9
vt 31.4961 5.68434e-13
f 102/208/24 103/209/24 97/204/24

v 112262 2099.15 -60640.9
vt 29.1339 76.378
f 104/210/24 103/209/24 102/208/24

v 112262 219.152 -60640.9
vt 29.1339 2.3622
f 105/211/24 103/209/24 104/210/24

v 111582 219.152 -60640.9
vt 2.3622 2.3622
f 106/212/24 103/209/24 105/211/24

vt 4.09273e-12 0
f 106/212/24 18/213/24 103/209/24

v 111582 2099.15 -60640.9
vt 2.3622 76.378
f 18/213/24 106/212/24 107/214/24

v 111522 2159.15 -60640.9
vt 3.8561e-31 78.7402
f 107/214/24 108/215/24 18/213/24

f 108/215/24 107/214/24 102/208/24

f 102/208/24 107/214/24 104/210/24

v 111582 2219.15 -60640.9
vt 2.3622 81.1024
vn -1.54114e-14 -3.94218e-16 1
vt 1.249e-17 78.7402
f 109/216/27 108/217/27 102/208/27

v 111522 2659.15 -60640.9
vt 4.13537e-12 98.4252
f 108/217/27 109/216/27 110/218/27

v 111582 2599.15 -60640.9
vt 2.3622 96.063
f 111/219/27 110/218/27 109/216/27

v 112322 2659.15 -60640.9
vt 31.4961 98.4252
f 110/218/27 111/219/27 112/220/27

v 112262 2599.15 -60640.9
vt 29.1339 96.063
f 112/220/27 111/219/27 113/221/27

f 112/220/27 113/221/27 102/208/27

v 112262 2219.15 -60640.9
vt 29.1339 81.1024
f 114/222/27 102/208/27 113/221/27

f 109/216/27 102/208/27 114/222/27

vn -1.54008e-14 -4.11138e-16 1
v 112382 2219.15 -60640.9
vt 33.8583 81.1024
f 102/208/28 115/223/28 112/220/28

f 115/223/28 102/208/28 93/194/28

v 113462 2219.15 -60640.9
vt 76.378 81.1024
f 115/223/28 93/194/28 116/224/28

v 113522 2159.15 -60640.9
vt 78.7402 78.7402
f 116/224/28 93/194/28 117/225/28

v 112982 2099.15 -60640.9
vt 57.4803 76.378
f 93/194/24 118/226/24 117/225/24

f 118/226/24 93/194/24 92/193/24

v 113462 2099.15 -60640.9
vt 76.378 76.378
f 117/225/24 118/226/24 119/227/24

f 117/225/24 119/227/24 87/195/24

v 113462 1019.15 -60640.9
vt 76.378 33.8583
f 120/228/24 87/195/24 119/227/24

f 92/193/24 87/195/24 120/228/24

v 113462 2599.15 -60640.9
vt 76.378 96.063
f 116/224/28 117/225/28 121/229/28

v 113522 2659.15 -60640.9
vt 78.7402 98.4252
f 121/229/28 117/225/28 122/230/28

v 112382 2599.15 -60640.9
vt 33.8583 96.063
f 122/230/28 123/231/28 121/229/28

f 112/220/28 123/231/28 122/230/28

f 123/231/28 112/220/28 115/223/28

vt -31.4961 1.1811
vn 1.3596e-14 1 3.88578e-16
v 111522 2659.15 -60670.9
vt -4.27036e-12 -1.94109e-29
vt -4.31299e-12 1.1811
f 112/232/29 124/233/29 110/234/29

v 112322 2659.15 -60670.9
vt -31.4961 -2.13163e-14
f 124/233/29 112/232/29 125/235/29

v 111522 2159.15 -60670.9
vt -78.7402 -2.04048e-39
vn -1 2.23311e-13 -1.54008e-14
vt -98.4252 1.1811
vt -98.4252 -2.04048e-39
f 126/236/30 110/237/30 124/238/30

vt -78.7402 1.1811
f 110/237/30 126/236/30 108/239/30

f 101/207/24 97/204/24 98/203/24

g Mesh5 Group7 Group6 Group1 Model

usemtl Translucent_Glass_Blue
vn -1.54601e-14 -1.06862e-15 1
f 114/222/31 111/219/31 109/216/31

f 111/219/31 114/222/31 113/221/31

g Mesh6 Group7 Group6 Group1 Model

vn -1.53937e-14 -3.83995e-16 1
f 106/212/32 104/210/32 107/214/32

f 104/210/32 106/212/32 105/211/32

g Mesh7 Group7 Group6 Group1 Model

usemtl Color_M06
v 113522 2659.15 -60670.9
vt 98.4252 2.51058e-13
vn 1 7.21911e-15 1.20319e-14
v 113522 2159.15 -60640.9
v 113522 2159.15 -60670.9
vt 78.7402 2.51058e-13
f 127/240/33 128/197/33 129/241/33

v 113522 2659.15 -60640.9
vt 98.4252 1.1811
f 128/197/33 127/240/33 130/242/33

vt -78.7402 2.4035e-14
vn 4.51195e-15 1 5.13691e-29
v 112322 2659.15 -60640.9
f 127/243/34 131/232/34 130/239/34

v 112322 2659.15 -60670.9
vt -31.4961 2.4035e-14
f 131/232/34 127/243/34 132/244/34

vn 1 -2.49661e-14 1.20319e-14
f 87/202/35 129/241/35 128/197/35

vt 31.4961 3.07902e-13
f 129/241/35 87/202/35 95/245/35

g Mesh8 Group7 Group6 Group1 Model

usemtl Translucent_Glass_Blue
vn -1.54158e-14 -1.67109e-16 1
v 112982 2099.15 -60640.9
f 120/228/36 133/226/36 92/193/36

f 133/226/36 120/228/36 119/227/36

g Mesh9 Group7 Group6 Group1 Model

v 112862 1019.15 -60640.9
vn -1.54628e-14 -1.4622e-16 1
v 112382 1019.15 -60640.9
f 134/205/37 101/207/37 135/203/37

v 112862 2099.15 -60640.9
f 101/207/37 134/205/37 136/206/37

g Mesh10 Group7 Group6 Group1 Model

vn -1.52278e-14 -7.7178e-16 1
f 116/224/38 123/231/38 115/223/38

f 123/231/38 116/224/38 121/229/38

g Mesh11 Group11 Group10 Group9 Group6 Group1 Model

usemtl Color_M06
v 112122 959.152 -62480.9
vt 55.1181 -1.62369e-13
vn -2.03295e-14 -1 -3.28782e-15
v 112722 959.152 -62480.9
v 112122 959.152 -62450.9
f 137/246/39 138/200/39 139/198/39

v 112722 959.152 -62450.9
f 140/202/39 139/198/39 138/200/39

g Mesh12 Group11 Group10 Group9 Group6 Group1 Model

v 113522 2659.15 -62480.9
vt -4.27036e-12 -4.36746e-29
vn 1.72056e-14 1 3.88578e-16
v 112722 2659.15 -62480.9
vt -31.4961 -4.36746e-29
v 113522 2659.15 -62450.9
vt -4.27036e-12 1.1811
f 141/247/40 142/248/40 143/249/40

vt -4.09273e-12 98.4252
vn 1.54008e-14 3.88578e-16 -1
v 113462 2599.15 -62480.9
vt -2.3622 96.063
vt -31.4961 98.4252
f 141/250/41 144/251/41 142/252/41

v 113462 2219.15 -62480.9
vt -2.3622 81.1024
f 144/251/41 141/250/41 145/253/41

v 113522 2159.15 -62480.9
vt 0 78.7402
f 141/250/41 146/254/41 145/253/41

vt -98.4252 -1.77151e-39
vn 1 1.9251e-13 1.54008e-14
vt -78.7402 -1.77151e-39
f 141/255/42 143/237/42 146/256/42

v 113522 2159.15 -62450.9
f 147/239/42 146/256/42 143/237/42

v 112722 2159.15 -62480.9
vt -31.4961 78.7402
f 148/257/41 145/253/41 146/254/41

v 112782 2219.15 -62480.9
vt -29.1339 81.1024
f 149/258/41 145/253/41 148/257/41

f 142/252/41 149/258/41 148/257/41

v 112782 2599.15 -62480.9
vt -29.1339 96.063
f 149/258/41 142/252/41 150/259/41

f 150/259/41 142/252/41 144/251/41

v 113462 2099.15 -62480.9
vt -2.3622 76.378
f 148/257/41 146/254/41 151/260/41

vt -4.09273e-12 -1.61559e-27
f 39/261/41 151/260/41 146/254/41

v 113462 219.152 -62480.9
vt -2.3622 2.3622
f 151/260/41 39/261/41 152/262/41

vt -31.4961 5.68434e-13
f 16/263/41 152/262/41 39/261/41

v 112782 219.152 -62480.9
vt -29.1339 2.3622
f 153/264/41 152/262/41 16/263/41

f 148/257/41 153/264/41 16/263/41

v 112782 2099.15 -62480.9
vt -29.1339 76.378
f 153/264/41 148/257/41 154/265/41

f 154/265/41 148/257/41 151/260/41

vt -31.4961 31.4961
f 138/266/41 148/257/41 16/263/41

v 112722 2659.15 -62450.9
f 155/232/40 143/249/40 142/248/40

vn 2.62294e-14 1 3.88578e-16
vt -31.4961 0
v 111522 2659.15 -62450.9
f 155/232/43 142/267/43 156/239/43

vt -78.7402 -7.10543e-14
f 88/268/43 156/239/43 142/267/43

vn -1 3.85019e-14 -1.54008e-14
vt 98.4252 -7.10543e-14
v 111522 2159.15 -62450.9
f 156/242/44 88/269/44 157/197/44

v 111522 2159.15 -62480.9
vt 78.7402 -6.42684e-29
f 158/270/44 157/197/44 88/269/44

g Mesh13 Group11 Group10 Group9 Group6 Group1 Model

vt -55.1181 31.4961
vn 1.44382e-14 3.00796e-16 -1
v 112062 2099.15 -62480.9
vt -57.4803 76.378
v 112122 2159.15 -62480.9
vt -55.1181 78.7402
f 137/271/45 159/272/45 160/273/45

v 112062 1019.15 -62480.9
vt -57.4803 33.8583
f 159/272/45 137/271/45 161/274/45

v 111522 959.152 -62480.9
vt -78.7402 31.4961
f 162/275/45 161/274/45 137/271/45

v 111582 1019.15 -62480.9
vt -76.378 33.8583
f 163/276/45 161/274/45 162/275/45

v 111582 2099.15 -62480.9
vt -76.378 76.378
f 164/277/45 163/276/45 162/275/45

vt -78.7402 78.7402
f 162/275/45 158/278/45 164/277/45

f 164/277/45 158/278/45 159/272/45

f 158/278/45 160/273/45 159/272/45

g Mesh14 Group10 Group9 Group6 Group1 Model

v 111522 959.152 -62450.9
vn 1 -5.71513e-15 1.20319e-14
vt -31.4961 -2.65269e-13
f 165/232/46 162/279/46 157/239/46

vn 1.35358e-14 -1 2.32621e-28
vt 78.7402 1.22387e-14
f 165/197/47 162/280/47 139/198/47

vt 55.1181 -1.44081e-13
f 137/281/47 139/198/47 162/280/47

vt -78.7402 -2.65269e-13
f 158/282/46 157/239/46 162/279/46

g Mesh15 Group10 Group9 Group6 Group1 Model

vn -1.58305e-14 4.11168e-16 1
v 112662 2219.15 -62480.9
f 142/220/48 166/223/48 148/208/48

v 112662 2599.15 -62480.9
f 166/223/48 142/220/48 167/231/48

v 111522 2659.15 -62480.9
f 168/230/48 167/231/48 142/220/48

v 111582 2599.15 -62480.9
f 169/229/48 167/231/48 168/230/48

f 168/230/48 158/225/48 169/229/48

v 111582 2219.15 -62480.9
f 169/229/48 158/225/48 170/224/48

f 158/225/48 160/194/48 170/224/48

f 170/224/48 160/194/48 166/223/48

f 160/194/48 148/208/48 166/223/48

vn -1.57182e-14 -3.27619e-16 1
v 112662 2099.15 -62480.9
f 160/194/49 171/207/49 148/208/49

v 112182 2099.15 -62480.9
f 172/206/49 171/207/49 160/194/49

v 112182 1019.15 -62480.9
f 173/205/49 172/206/49 160/194/49

f 160/194/49 137/192/49 173/205/49

v 112662 1019.15 -62480.9
f 173/205/49 137/192/49 174/203/49

f 137/192/49 138/204/49 174/203/49

f 171/207/49 174/203/49 138/204/49

f 138/204/49 148/208/49 171/207/49

g Mesh16 Group9 Group6 Group1 Model

usemtl Translucent_Glass_Blue
vt -2.3622 33.8583
vn 1.87998e-14 3.34218e-16 -1
vt -21.2598 76.378
vt -21.2598 33.8583
f 163/283/50 159/284/50 161/285/50

f 159/284/50 163/283/50 164/260/50

g Mesh17 Group9 Group6 Group1 Model

vt -49.6063 2.3622
vn 1.67207e-14 8.6399e-16 -1
v 113462 219.152 -62480.9
vt -76.378 2.3622
f 153/286/51 151/277/51 175/287/51

vt -49.6063 76.378
f 151/277/51 153/286/51 154/288/51

g Mesh18 Group9 Group6 Group1 Model

vt -49.6063 81.1024
vn 1.53937e-14 -3.79953e-15 -1
vt -76.378 96.063
vt -76.378 81.1024
f 149/289/52 144/290/52 145/291/52

v 112782 2599.15 -62480.9
vt -49.6063 96.063
f 144/290/52 149/289/52 176/292/52

g Mesh19 Group9 Group6 Group1 Model

vn 1.67109e-14 -2.84965e-15 -1
vt -44.8819 96.063
vt -44.8819 81.1024
f 170/253/53 167/293/53 166/294/53

f 167/293/53 170/253/53 169/251/53

g Mesh20 Group9 Group6 Group1 Model

v 112182 1019.15 -62480.9
vt -25.9843 33.8583
vn 1.05279e-14 -3.34218e-16 -1
vt -44.8819 76.378
vt -44.8819 33.8583
f 177/295/54 171/296/54 174/297/54

v 112182 2099.15 -62480.9
vt -25.9843 76.378
f 171/296/54 177/295/54 178/298/54

g Mesh21 Group13 Group12 Group6 Group1 Model

usemtl Color_M06
vt 23.622 1.20483e-11
vn -1.79884e-13 1 1.79167e-13
v 113742 2659.15 -60670.9
vt 1.63595e-11 1.1811
vt 1.63595e-11 1.20483e-11
f 90/299/55 179/300/55 63/301/55

v 114312 2659.15 -60670.9
vt 22.4409 1.1811
f 179/300/55 90/299/55 180/302/55

v 114312 2659.15 -62450.9
vt 22.4409 71.2598
f 180/302/55 90/299/55 181/303/55

vt 23.622 72.4409
f 89/304/55 181/303/55 90/299/55

vt 1.63595e-11 72.4409
f 45/305/55 181/303/55 89/304/55

v 113742 2659.15 -62450.9
vt 1.63595e-11 71.2598
f 181/303/55 45/305/55 182/306/55

vt -72.4409 66.9291
vn -1 -1.6771e-14 -1.09317e-26
v 113742 959.152 -62450.9
vt -71.2598 8.09663e-12
vt -71.2598 66.9291
f 45/307/56 183/308/56 182/309/56

v 113742 2159.15 -62480.9
vt -72.4409 47.2441
f 183/308/56 45/307/56 184/310/56

v 113802 2219.15 -62480.9
vt -2.3622 49.6063
vn 0 3.05311e-16 -1
vt 0 47.2441
vt -4.3201e-12 66.9291
f 185/311/57 184/312/57 45/313/57

v 114342 2159.15 -62480.9
vt -23.622 47.2441
f 184/312/57 185/311/57 186/314/57

v 114282 2219.15 -62480.9
vt -21.2598 49.6063
f 186/314/57 185/311/57 187/315/57

usemtl Translucent_Glass_Blue
v 114282 2599.15 -62480.9
vt -21.2598 64.5669
f 185/311/2 188/316/2 187/315/2

v 113802 2599.15 -62480.9
vt -2.3622 64.5669
f 188/316/2 185/311/2 189/317/2

usemtl Color_M06
f 185/311/57 45/313/57 189/317/57

f 189/317/57 45/313/57 188/316/57

vt -23.622 66.9291
f 188/316/57 45/313/57 89/318/57

f 89/318/57 187/315/57 188/316/57

f 187/315/57 89/318/57 186/314/57

vt 72.4409 66.9291
vn 1 8.64402e-14 -1.6681e-13
v 114342 2159.15 -62450.9
vt 71.2598 47.2441
vt 72.4409 47.2441
f 89/319/58 190/320/58 186/321/58

v 114342 2219.15 -62390.9
vt 68.8976 49.6063
f 89/319/58 191/322/58 190/320/58

v 114342 2599.15 -62390.9
vt 68.8976 64.5669
f 89/319/58 192/323/58 191/322/58

v 114342 2599.15 -61310.9
vt 26.378 64.5669
f 89/319/58 193/324/58 192/323/58

v 114342 2659.15 -61250.9
vt 24.0157 66.9291
f 194/325/58 193/324/58 89/319/58

v 114342 2159.15 -61250.9
vt 24.0157 47.2441
f 193/324/58 194/325/58 195/326/58

v 114342 2219.15 -61190.9
vt 21.6535 49.6063
vn 1 8.13354e-14 2.67705e-13
f 196/327/59 195/326/59 194/325/59

v 114342 2219.15 -60730.9
vt 3.54331 49.6063
f 197/328/59 195/326/59 196/327/59

v 114342 2159.15 -60640.9
vt 6.33084e-12 47.2441
f 197/328/59 198/329/59 195/326/59

vt 6.38057e-12 66.9291
f 198/329/59 197/328/59 90/330/59

v 114342 2599.15 -60730.9
vt 3.54331 64.5669
f 90/330/59 197/328/59 199/331/59

usemtl Translucent_Glass_Blue
vn 1 1.51981e-14 1.2398e-13
v 114342 2599.15 -61190.9
vt 21.6535 64.5669
f 197/328/60 200/332/60 199/331/60

f 200/332/60 197/328/60 196/327/60

usemtl Color_M06
f 194/325/59 200/332/59 196/327/59

f 194/325/59 199/331/59 200/332/59

f 199/331/59 194/325/59 90/330/59

vt 23.622 24.0157
f 89/304/55 90/299/55 194/333/55

v 114282 2219.15 -60640.9
vt 21.2598 49.6063
vn 0 -3.05311e-16 1
vt 23.622 47.2441
vt 23.622 66.9291
f 201/334/61 198/335/61 90/336/61

v 113742 2159.15 -60640.9
f 198/335/61 201/334/61 202/312/61

v 113802 2219.15 -60640.9
vt 2.3622 49.6063
f 203/337/61 202/312/61 201/334/61

vt 4.3201e-12 66.9291
f 202/312/61 203/337/61 63/338/61

v 113802 2599.15 -60640.9
vt 2.3622 64.5669
f 63/338/61 203/337/61 204/339/61

usemtl Translucent_Glass_Blue
vn 1.02765e-29 3.44333e-15 1
v 114282 2599.15 -60640.9
vt 21.2598 64.5669
f 203/337/62 205/340/62 204/339/62

f 205/340/62 203/337/62 201/334/62

usemtl Color_M06
f 201/334/61 90/336/61 205/340/61

f 205/340/61 90/336/61 204/339/61

f 63/338/61 204/339/61 90/336/61

vt -5.68434e-14 66.9291
vn -1 2.19461e-13 6.7004e-29
v 113742 2159.15 -60670.9
vt -1.1811 47.2441
vt -7.10543e-15 47.2441
f 63/341/63 206/342/63 202/343/63

vt -1.1811 66.9291
f 206/342/63 63/341/63 179/344/63

vn -1 -9.14421e-14 -1.70534e-28
vt -1.42109e-14 -3.95039e-25
f 206/342/64 60/345/64 202/343/64

v 113742 959.152 -60670.9
vt -1.1811 -3.95039e-25
f 60/345/64 206/342/64 207/346/64

v 114316 959.152 -60670.9
vt -22.6213 1.1811
vn 1.60824e-13 -1 -1.18814e-13
vt -4.3201e-12 1.42109e-14
vt -4.3201e-12 1.1811
f 208/347/65 60/348/65 207/349/65

v 114342 959.152 -60640.9
vt -23.622 1.42109e-14
f 60/348/65 208/347/65 209/350/65

vt -23.622 72.4409
f 209/350/65 208/347/65 46/351/65

v 114316 959.152 -62450.9
vt -22.6213 71.2598
f 210/352/65 46/351/65 208/347/65

vt -4.3201e-12 71.2598
f 183/353/65 46/351/65 210/352/65

v 113742 959.152 -62480.9
vt -4.3201e-12 72.4409
f 46/351/65 183/353/65 211/354/65

vt -72.4409 8.08953e-12
f 183/308/56 184/310/56 211/355/56

v 113802 1019.15 -62480.9
vn -4.32174e-30 3.00796e-16 -1
vt -4.3201e-12 8.06774e-12
vt -3.13071e-28 47.2441
f 212/262/66 211/356/66 184/357/66

vt -23.622 8.74986e-12
f 211/356/66 212/262/66 46/358/66

v 114282 1019.15 -62480.9
vt -21.2598 2.3622
f 213/359/66 46/358/66 212/262/66

f 46/358/66 213/359/66 186/314/66

v 114282 2099.15 -62480.9
vt -21.2598 44.8819
f 186/314/66 213/359/66 214/360/66

usemtl Translucent_Glass_Blue
vn 0 3.34218e-16 -1
v 113802 2099.15 -62480.9
vt -2.3622 44.8819
f 213/359/67 215/361/67 214/360/67

f 215/361/67 213/359/67 212/262/67

usemtl Color_M06
f 212/262/66 184/357/66 215/361/66

f 215/361/66 184/357/66 214/360/66

f 186/314/66 214/360/66 184/357/66

vn 1 5.9415e-14 -3.47559e-13
vt 72.4409 7.36815e-12
f 190/320/68 46/362/68 186/321/68

v 114342 1019.15 -62390.9
vt 68.8976 2.3622
f 216/363/68 46/362/68 190/320/68

v 114342 1019.15 -61910.9
vt 50 2.3622
f 217/364/68 46/362/68 216/363/68

v 114342 959.152 -61850.9
vt 47.6378 2.10781e-11
f 217/364/68 218/365/68 46/362/68

v 114342 2099.15 -61910.9
vt 50 44.8819
f 218/365/68 217/364/68 219/366/68

usemtl Translucent_Glass_Blue
vn 1 -5.68171e-15 1.24079e-13
v 114342 2099.15 -62390.9
vt 68.8976 44.8819
f 217/364/69 220/367/69 219/366/69

f 220/367/69 217/364/69 216/363/69

usemtl Color_M06
f 190/320/68 220/367/68 216/363/68

f 190/320/68 219/366/68 220/367/68

v 114342 2159.15 -61850.9
vt 47.6378 47.2441
f 221/368/68 219/366/68 190/320/68

f 219/366/68 221/368/68 218/365/68

v 114342 1019.15 -61790.9
vt 45.2756 2.3622
vn 1 -4.44089e-16 1.2463e-13
vt 47.6378 2.24921e-11
f 222/369/70 218/370/70 221/368/70

v 114342 1019.15 -61310.9
vt 26.378 2.3622
f 223/371/70 218/370/70 222/369/70

v 114342 959.152 -61250.9
vt 24.0157 1.14218e-11
f 223/371/70 224/372/70 218/370/70

v 114342 2099.15 -61310.9
vt 26.378 44.8819
f 224/372/70 223/371/70 225/373/70

usemtl Translucent_Glass_Blue
vn 1 -3.34218e-15 1.18815e-13
v 114342 2099.15 -61790.9
vt 45.2756 44.8819
f 223/371/71 226/374/71 225/373/71

f 226/374/71 223/371/71 222/369/71

usemtl Color_M06
f 221/368/70 226/374/70 222/369/70

f 221/368/70 225/373/70 226/374/70

f 195/326/70 225/373/70 221/368/70

f 225/373/70 195/326/70 224/372/70

v 114342 1019.15 -61190.9
vt 21.6535 2.3622
vn 1 3.18844e-14 1.74784e-13
vt 24.0157 1.06581e-11
f 227/375/72 224/376/72 195/326/72

v 114342 1019.15 -60730.9
vt 3.54331 2.3622
f 228/377/72 224/376/72 227/375/72

vt 4.14297e-12 -7.10543e-14
f 228/377/72 209/378/72 224/376/72

v 114342 2099.15 -60730.9
vt 3.54331 44.8819
f 209/378/72 228/377/72 229/379/72

usemtl Translucent_Glass_Blue
vn 1 -3.34218e-15 1.17703e-13
v 114342 2099.15 -61190.9
vt 21.6535 44.8819
f 228/377/73 230/380/73 229/379/73

f 230/380/73 228/377/73 227/375/73

usemtl Color_M06
f 195/326/72 230/380/72 227/375/72

f 195/326/72 229/379/72 230/380/72

vt 4.13587e-12 47.2441
f 198/381/72 229/379/72 195/326/72

f 229/379/72 198/381/72 209/378/72

vn 2.19151e-30 -1.50398e-16 1
v 114282 1019.15 -60640.9
vt 21.2598 2.3622
vt 23.622 6.82121e-13
f 198/335/74 231/382/74 209/383/74

v 114282 2099.15 -60640.9
vt 21.2598 44.8819
f 231/382/74 198/335/74 232/384/74

v 113802 2099.15 -60640.9
vt 2.3622 44.8819
f 232/384/74 198/335/74 233/385/74

vt 1.55716e-44 47.2441
f 202/386/74 233/385/74 198/335/74

v 113802 1019.15 -60640.9
f 202/386/74 234/212/74 233/385/74

vt 4.3201e-12 -2.13729e-30
f 60/387/74 234/212/74 202/386/74

f 234/212/74 60/387/74 209/383/74

f 234/212/74 209/383/74 231/382/74

usemtl Translucent_Glass_Blue
vn 0 -5.43105e-16 1
f 232/384/75 234/212/75 231/382/75

f 234/212/75 232/384/75 233/385/75

usemtl Color_M06
vt -23.622 24.0157
f 209/350/65 46/351/65 224/388/65

vt -23.622 47.6378
f 224/388/65 46/351/65 218/389/65

v 114342 2219.15 -61310.9
vt 26.378 49.6063
f 235/390/58 195/326/58 221/368/58

f 195/326/58 235/390/58 193/324/58

usemtl Translucent_Glass_Blue
vn 1 8.54895e-15 1.2199e-13
f 235/390/76 192/323/76 193/324/76

f 192/323/76 235/390/76 191/322/76

usemtl Color_M06
f 235/390/58 221/368/58 191/322/58

f 191/322/58 221/368/58 190/320/58

