# Alias OBJ Model File
# Exported from SketchUp, (c) 2000-2012 Trimble Navigation Limited
# File units = millimeters

mtllib Nhà bảo vệ.mtl

g Mesh1 Group1 Nh__c_nh_c_ng1 Model

usemtl Color_J01
v 133279 2172.86 -56085.7
vt 310.403 79.2799
vn 0 0 1
v 132781 1674.86 -56085.7
vt 290.796 59.6736
v 133279 1674.86 -56085.7
vt 310.403 59.6736
f 1/1/1 2/2/1 3/3/1

v 132781 2172.86 -56085.7
vt 290.796 79.2799
f 2/2/1 1/1/1 4/4/1

usemtl FrontColor
vt -290.796 165.63
vn 0 -1 -0
v 133279 2172.86 -56206.7
vt -310.403 170.394
vt -310.403 165.63
f 4/5/2 5/6/2 1/7/2

v 132781 2172.86 -56206.7
vt -290.796 170.394
f 5/6/2 4/5/2 6/8/2

vt 165.63 79.2799
vn 1 4.41121e-31 4.77297e-14
v 132781 1674.86 -56206.7
vt 170.394 59.6736
vt 170.394 79.2799
f 4/9/3 7/10/3 6/11/3

vt 165.63 59.6736
f 7/10/3 4/9/3 2/12/3

vt 310.403 165.63
vn 0 1 -0
vt 290.796 170.394
vt 290.796 165.63
f 3/13/4 7/14/4 2/15/4

v 133279 1674.86 -56206.7
vt 310.403 170.394
f 7/14/4 3/13/4 8/16/4

vt -165.63 59.6736
vn -1 -4.41121e-31 -4.77297e-14
vt -170.394 79.2799
vt -170.394 59.6736
f 3/17/5 5/18/5 8/19/5

vt -165.63 79.2799
f 5/18/5 3/17/5 1/20/5

usemtl Color_M00
v 133494 2971.15 -56206.7
vt -318.858 110.709
vn -2.50006e-17 -9.63209e-17 -1
vt -310.403 59.6736
vt -310.403 79.2799
f 9/21/6 8/22/6 5/23/6

v 133494 159.152 -56206.7
vt -318.858 1.64125e-14
f 10/24/6 8/22/6 9/21/6

v 130981 1674.86 -56206.7
vt -219.93 59.6736
f 8/22/6 10/24/6 11/25/6

v 130565 159.152 -56206.7
vt -203.538 1.64125e-14
f 12/26/6 11/25/6 10/24/6

v 130565 2172.86 -56206.7
vt -203.538 79.2799
f 11/25/6 12/26/6 13/27/6

usemtl Color_J01
vt 203.538 79.2799
vn 4.71417e-16 3.58498e-16 1
v 129034 159.152 -56206.7
vt 143.248 6.10858e-14
vt 203.538 6.10858e-14
f 13/28/7 14/29/7 12/30/7

v 129034 2172.86 -56206.7
vt 143.248 79.2799
f 14/29/7 13/28/7 15/31/7

v 129799 2172.86 -56206.7
vt 173.393 79.2799
f 15/31/7 13/28/7 16/32/7

usemtl Color_M00
vt -173.393 79.2799
v 125759 2971.15 -56206.7
vt -14.3307 110.709
f 16/33/6 17/34/6 13/27/6

vt -143.248 79.2799
f 15/35/6 17/34/6 16/33/6

v 128782 2172.86 -56206.7
vt -133.354 79.2799
f 18/36/6 17/34/6 15/35/6

v 128180 2172.86 -56206.7
vt -109.653 79.2799
f 19/37/6 17/34/6 18/36/6

v 127875 2155.43 -56206.7
vt -97.6272 78.5936
f 20/38/6 17/34/6 19/37/6

v 127442 2155.43 -56206.7
vt -80.5799 78.5936
f 21/39/6 17/34/6 20/38/6

v 127425 2155.43 -56206.7
vt -79.9106 78.5936
f 22/40/6 17/34/6 21/39/6

v 126992 2155.43 -56206.7
vt -62.8634 78.5936
f 23/41/6 17/34/6 22/40/6

v 126870 2155.43 -56206.7
vt -58.0603 78.5936
f 24/42/6 17/34/6 23/41/6

v 126437 2155.43 -56206.7
vt -41.013 78.5936
f 25/43/6 17/34/6 24/42/6

v 126420 2155.43 -56206.7
vt -40.3437 78.5936
f 26/44/6 17/34/6 25/43/6

v 125987 2155.43 -56206.7
vt -23.2965 78.5936
f 27/45/6 17/34/6 26/44/6

v 125987 1391.43 -56206.7
vt -23.2965 48.5149
f 28/46/6 17/34/6 27/45/6

v 125759 159.152 -56206.7
vt -14.3307 1.64125e-14
f 28/46/6 29/47/6 17/34/6

v 128180 205.861 -56206.7
vt -109.653 1.83896
f 30/48/6 29/47/6 28/46/6

vt -143.248 1.64125e-14
f 29/47/6 30/48/6 14/49/6

v 128782 205.861 -56206.7
vt -133.354 1.83896
f 31/50/6 14/49/6 30/48/6

f 14/49/6 31/50/6 15/35/6

v 128782 1189.36 -56206.7
vt -133.354 40.5594
f 15/35/6 31/50/6 32/51/6

usemtl FrontColor
v 128782 205.861 -56228.7
vt 171.26 1.83896
vn 1 0 -0
vt 170.394 40.5594
vt 170.394 1.83896
f 33/52/8 32/53/8 31/54/8

v 128782 1189.36 -56228.7
vt 171.26 40.5594
f 32/53/8 33/52/8 34/55/8

usemtl Color_H06
vn 0 0 -1
v 128734 254.42 -56228.7
vt -131.442 3.75074
f 33/50/9 35/56/9 34/51/9

v 128229 254.42 -56228.7
vt -111.565 3.75074
f 35/56/9 33/50/9 36/57/9

v 128180 205.861 -56228.7
f 37/48/9 36/57/9 33/50/9

v 128180 1189.36 -56228.7
vt -109.653 40.5594
f 36/57/9 37/48/9 38/58/9

usemtl FrontColor
vt -170.394 1.83896
vn -1 2.93609e-15 -1.31257e-13
vt -171.26 40.5594
vt -171.26 1.83896
f 30/59/10 38/60/10 37/61/10

v 128180 1189.36 -56206.7
vt -170.394 40.5594
f 38/60/10 30/59/10 39/62/10

usemtl Color_M00
f 30/48/6 28/46/6 39/58/6

v 127875 1391.43 -56206.7
vt -97.6272 48.5149
f 40/63/6 39/58/6 28/46/6

f 39/58/6 40/63/6 19/37/6

f 19/37/6 40/63/6 20/38/6

usemtl Color_J01
vt 97.6272 78.5936
v 127442 1391.43 -56206.7
vt 80.5799 48.5149
vt 97.6272 48.5149
f 20/64/1 41/65/1 40/66/1

vt 80.5799 78.5936
f 41/65/1 20/64/1 21/67/1

usemtl FrontColor
vt 97.6272 170.394
v 127442 2155.43 -56228.7
vt 80.5799 171.26
vt 80.5799 170.394
f 20/68/4 42/69/4 21/70/4

v 127875 2155.43 -56228.7
vt 97.6272 171.26
f 42/69/4 20/68/4 43/71/4

vt 170.394 78.5936
v 127875 1391.43 -56228.7
vt 171.26 48.5149
vt 171.26 78.5936
f 20/72/8 44/73/8 43/74/8

vt 170.394 48.5149
f 44/73/8 20/72/8 40/75/8

vt -80.5799 170.394
vt -97.6272 171.26
vt -97.6272 170.394
f 41/76/2 44/77/2 40/78/2

v 127442 1391.43 -56228.7
vt -80.5799 171.26
f 44/77/2 41/76/2 45/79/2

vt -170.394 48.5149
vn -1 0 -0
vt -171.26 78.5936
vt -171.26 48.5149
f 41/80/11 42/81/11 45/82/11

vt -170.394 78.5936
f 42/81/11 41/80/11 21/83/11

usemtl Color_M00
vt -80.5799 48.5149
f 41/84/6 22/40/6 21/39/6

v 127425 1391.43 -56206.7
vt -79.9106 48.5149
f 22/40/6 41/84/6 46/85/6

f 40/63/6 46/85/6 41/84/6

v 126992 1391.43 -56206.7
vt -62.8634 48.5149
f 40/63/6 47/86/6 46/85/6

v 126870 1391.43 -56206.7
vt -58.0603 48.5149
f 40/63/6 48/87/6 47/86/6

v 126437 1391.43 -56206.7
vt -41.013 48.5149
f 40/63/6 49/88/6 48/87/6

v 126420 1391.43 -56206.7
vt -40.3437 48.5149
f 40/63/6 50/89/6 49/88/6

f 40/63/6 28/46/6 50/89/6

usemtl Color_J01
vt 40.3437 48.5149
v 126384 1427.11 -56206.7
vt 38.939 49.9196
vt 23.2965 48.5149
f 50/90/1 51/91/1 28/92/1

vt 40.3437 78.5936
f 51/91/1 50/90/1 26/93/1

usemtl Color_M00
f 26/44/6 49/88/6 50/89/6

f 49/88/6 26/44/6 25/43/6

usemtl Color_J01
vt 41.013 48.5149
v 126473 1427.11 -56206.7
vt 42.4178 49.9196
vt 41.013 78.5936
f 49/94/1 52/95/1 25/96/1

v 126834 1427.11 -56206.7
vt 56.6555 49.9196
f 52/95/1 49/94/1 53/97/1

vt 58.0603 48.5149
f 48/98/1 53/97/1 49/94/1

vt 58.0603 78.5936
f 53/97/1 48/98/1 24/99/1

usemtl Color_M00
f 24/42/6 47/86/6 48/87/6

f 47/86/6 24/42/6 23/41/6

usemtl Color_J01
vt 62.8634 48.5149
vt 79.9106 78.5936
vt 62.8634 78.5936
f 47/100/1 22/101/1 23/102/1

vt 79.9106 48.5149
f 22/101/1 47/100/1 46/103/1

usemtl FrontColor
vt -62.8634 170.394
v 127425 1391.43 -56228.7
vt -79.9106 171.26
vt -79.9106 170.394
f 47/104/2 54/105/2 46/106/2

v 126992 1391.43 -56228.7
vt -62.8634 171.26
f 54/105/2 47/104/2 55/107/2

v 126992 2155.43 -56228.7
f 47/80/11 56/81/11 55/82/11

f 56/81/11 47/80/11 23/83/11

vt 79.9106 170.394
vt 62.8634 171.26
vt 62.8634 170.394
f 22/108/4 56/109/4 23/110/4

v 127425 2155.43 -56228.7
vt 79.9106 171.26
f 56/109/4 22/108/4 57/111/4

f 22/72/8 54/73/8 57/74/8

f 54/73/8 22/72/8 46/75/8

usemtl Color_H06
v 127389 1427.11 -56228.7
vt -78.5059 49.9196
f 54/85/9 58/112/9 57/40/9

v 127028 1427.11 -56228.7
vt -64.2682 49.9196
f 58/112/9 54/85/9 59/113/9

f 55/86/9 59/113/9 54/85/9

f 59/113/9 55/86/9 56/41/9

v 127028 2119.75 -56228.7
vt -64.2682 77.1889
f 59/113/9 56/41/9 60/114/9

v 127389 2119.75 -56228.7
vt -78.5059 77.1889
f 60/114/9 56/41/9 61/115/9

f 57/40/9 61/115/9 56/41/9

f 57/40/9 58/112/9 61/115/9

usemtl FrontColor
v 127389 1427.11 -56206.7
vt -170.394 49.9196
vt -171.26 77.1889
vt -171.26 49.9196
f 62/116/11 61/117/11 58/118/11

v 127389 2119.75 -56206.7
vt -170.394 77.1889
f 61/117/11 62/116/11 63/119/11

v 127028 2119.75 -56206.7
vt -64.2682 170.394
vt -78.5059 171.26
vt -78.5059 170.394
f 64/120/2 61/121/2 63/122/2

vt -64.2682 171.26
f 61/121/2 64/120/2 60/123/2

vt 170.394 77.1889
vt 171.26 49.9196
vt 171.26 77.1889
f 64/124/8 59/125/8 60/126/8

v 127028 1427.11 -56206.7
vt 170.394 49.9196
f 59/125/8 64/124/8 65/127/8

vt 78.5059 170.394
vt 64.2682 171.26
vt 64.2682 170.394
f 62/128/4 59/129/4 65/130/4

vt 78.5059 171.26
f 59/129/4 62/128/4 58/131/4

v 126870 1391.43 -56228.7
vn 1 2.57711e-31 2.62513e-13
f 66/73/12 24/72/12 48/75/12

v 126870 2155.43 -56228.7
f 24/72/12 66/73/12 67/74/12

usemtl Color_H06
v 126834 1427.11 -56228.7
vt -56.6555 49.9196
f 66/87/9 68/132/9 67/42/9

v 126473 1427.11 -56228.7
vt -42.4178 49.9196
f 68/132/9 66/87/9 69/133/9

v 126437 1391.43 -56228.7
f 70/88/9 69/133/9 66/87/9

v 126437 2155.43 -56228.7
f 69/133/9 70/88/9 71/43/9

usemtl FrontColor
vn -1 -2.57711e-31 -2.62513e-13
f 49/80/13 71/81/13 70/82/13

f 71/81/13 49/80/13 25/83/13

vt 58.0603 170.394
vt 41.013 171.26
vt 41.013 170.394
f 24/134/4 71/135/4 25/136/4

vt 58.0603 171.26
f 71/135/4 24/134/4 67/137/4

usemtl Color_H06
v 126834 2119.75 -56228.7
vt -56.6555 77.1889
f 67/42/9 72/138/9 71/43/9

f 67/42/9 68/132/9 72/138/9

usemtl FrontColor
f 53/116/11 72/117/11 68/118/11

v 126834 2119.75 -56206.7
f 72/117/11 53/116/11 73/119/11

usemtl Color_J01
vt 56.6555 77.1889
f 53/97/1 24/99/1 73/139/1

v 126473 2119.75 -56206.7
vt 42.4178 77.1889
f 73/139/1 24/99/1 74/140/1

f 25/96/1 74/140/1 24/99/1

f 25/96/1 52/95/1 74/140/1

f 52/95/1 73/139/1 74/140/1

f 73/139/1 52/95/1 53/97/1

usemtl FrontColor
vt 56.6555 170.394
vt 42.4178 171.26
vt 42.4178 170.394
f 53/141/4 69/142/4 52/143/4

vt 56.6555 171.26
f 69/142/4 53/141/4 68/144/4

f 69/125/8 74/124/8 52/127/8

v 126473 2119.75 -56228.7
f 74/124/8 69/125/8 75/126/8

usemtl Color_H06
vt -42.4178 77.1889
f 69/133/9 71/43/9 75/145/9

f 75/145/9 71/43/9 72/138/9

usemtl FrontColor
vt -56.6555 171.26
vt -42.4178 170.394
vt -42.4178 171.26
f 72/146/2 74/147/2 75/148/2

vt -56.6555 170.394
f 74/147/2 72/146/2 73/149/2

vt -58.0603 171.26
vt -41.013 170.394
vt -41.013 171.26
f 66/150/2 49/151/2 70/152/2

vt -58.0603 170.394
f 49/151/2 66/150/2 48/153/2

v 126420 1391.43 -56228.7
f 76/73/12 26/72/12 50/75/12

v 126420 2155.43 -56228.7
f 26/72/12 76/73/12 77/74/12

usemtl Color_H06
v 126384 1427.11 -56228.7
vt -38.939 49.9196
f 76/89/9 78/154/9 77/44/9

v 126023 1427.11 -56228.7
vt -24.7012 49.9196
f 78/154/9 76/89/9 79/155/9

v 125987 1391.43 -56228.7
f 80/46/9 79/155/9 76/89/9

v 125987 2155.43 -56228.7
f 79/155/9 80/46/9 81/45/9

usemtl FrontColor
f 28/80/13 81/81/13 80/82/13

f 81/81/13 28/80/13 27/83/13

usemtl Color_J01
v 126023 1427.11 -56206.7
vt 24.7012 49.9196
vt 23.2965 78.5936
f 28/92/1 82/156/1 27/157/1

f 82/156/1 28/92/1 51/91/1

usemtl FrontColor
vt 38.939 170.394
vt 24.7012 171.26
vt 24.7012 170.394
f 51/158/4 79/159/4 82/160/4

vt 38.939 171.26
f 79/159/4 51/158/4 78/161/4

v 126384 2119.75 -56228.7
f 51/116/11 83/117/11 78/118/11

v 126384 2119.75 -56206.7
f 83/117/11 51/116/11 84/119/11

usemtl Color_J01
vt 38.939 77.1889
f 51/91/1 26/93/1 84/162/1

v 126023 2119.75 -56206.7
vt 24.7012 77.1889
f 84/162/1 26/93/1 85/163/1

f 27/157/1 85/163/1 26/93/1

f 27/157/1 82/156/1 85/163/1

usemtl FrontColor
f 79/125/8 85/124/8 82/127/8

v 126023 2119.75 -56228.7
f 85/124/8 79/125/8 86/126/8

usemtl Color_H06
vt -24.7012 77.1889
f 79/155/9 81/45/9 86/164/9

vt -38.939 77.1889
f 86/164/9 81/45/9 83/165/9

f 77/44/9 83/165/9 81/45/9

f 77/44/9 78/154/9 83/165/9

usemtl FrontColor
vt 23.2965 171.26
vt 40.3437 170.394
vt 40.3437 171.26
f 81/166/4 26/167/4 77/168/4

vt 23.2965 170.394
f 26/167/4 81/166/4 27/169/4

vt -38.939 171.26
vt -24.7012 170.394
vt -24.7012 171.26
f 83/170/2 85/171/2 86/172/2

vt -38.939 170.394
f 85/171/2 83/170/2 84/173/2

usemtl Color_J01
f 82/156/1 84/162/1 85/163/1

f 84/162/1 82/156/1 51/91/1

usemtl FrontColor
vt -40.3437 171.26
vt -23.2965 170.394
vt -23.2965 171.26
f 76/174/2 28/175/2 80/176/2

vt -40.3437 170.394
f 28/175/2 76/174/2 50/177/2

usemtl Color_H06
v 127478 1427.11 -56228.7
vt -81.9847 49.9196
f 87/178/9 45/84/9 42/39/9

f 45/84/9 87/178/9 44/63/9

v 127839 1427.11 -56228.7
vt -96.2224 49.9196
f 88/179/9 44/63/9 87/178/9

f 44/63/9 88/179/9 43/38/9

v 127839 2119.75 -56228.7
vt -96.2224 77.1889
f 43/38/9 88/179/9 89/180/9

usemtl FrontColor
v 127839 1427.11 -56206.7
f 90/116/11 89/117/11 88/118/11

v 127839 2119.75 -56206.7
f 89/117/11 90/116/11 91/119/11

v 127478 2119.75 -56206.7
vt -81.9847 170.394
vt -96.2224 171.26
vt -96.2224 170.394
f 92/181/2 89/182/2 91/183/2

v 127478 2119.75 -56228.7
vt -81.9847 171.26
f 89/182/2 92/181/2 93/184/2

f 92/124/8 87/125/8 93/126/8

v 127478 1427.11 -56206.7
f 87/125/8 92/124/8 94/127/8

vt 96.2224 170.394
vt 81.9847 171.26
vt 81.9847 170.394
f 90/185/4 87/186/4 94/187/4

vt 96.2224 171.26
f 87/186/4 90/185/4 88/188/4

usemtl Color_H06
vt -81.9847 77.1889
f 87/178/9 42/39/9 93/189/9

f 93/189/9 42/39/9 89/180/9

f 43/38/9 89/180/9 42/39/9

usemtl FrontColor
v 128180 2172.86 -56228.7
vt -171.26 79.2799
vn -1 -2.93609e-15 -1.31257e-13
f 95/190/14 39/62/14 19/18/14

f 39/62/14 95/190/14 38/60/14

usemtl Color_H06
v 128229 1237.92 -56228.7
vt -111.565 42.4712
f 96/191/9 38/58/9 95/37/9

f 38/58/9 96/191/9 34/51/9

v 128734 1237.92 -56228.7
vt -131.442 42.4712
f 97/192/9 34/51/9 96/191/9

v 128782 2172.86 -56228.7
f 34/51/9 97/192/9 98/36/9

v 128734 2124.3 -56228.7
vt -131.442 77.3681
f 98/36/9 97/192/9 99/193/9

usemtl FrontColor
v 128734 1237.92 -56206.7
vt -170.394 42.4712
vt -171.26 77.3681
vt -171.26 42.4712
f 100/194/11 99/195/11 97/196/11

v 128734 2124.3 -56206.7
vt -170.394 77.3681
f 99/195/11 100/194/11 101/197/11

v 128229 2124.3 -56206.7
vt -111.565 170.394
vt -131.442 171.26
vt -131.442 170.394
f 102/198/2 99/199/2 101/200/2

v 128229 2124.3 -56228.7
vt -111.565 171.26
f 99/199/2 102/198/2 103/201/2

vt 170.394 77.3681
vt 171.26 42.4712
vt 171.26 77.3681
f 102/202/8 96/203/8 103/204/8

v 128229 1237.92 -56206.7
vt 170.394 42.4712
f 96/203/8 102/202/8 104/205/8

vt 131.442 170.394
vt 111.565 171.26
vt 111.565 170.394
f 100/206/4 96/207/4 104/208/4

vt 131.442 171.26
f 96/207/4 100/206/4 97/209/4

usemtl Color_H06
vt -111.565 77.3681
f 96/191/9 95/37/9 103/210/9

f 103/210/9 95/37/9 99/193/9

f 98/36/9 99/193/9 95/37/9

usemtl FrontColor
vt 109.653 171.26
vt 133.354 170.394
vt 133.354 171.26
f 95/211/4 18/212/4 98/213/4

vt 109.653 170.394
f 18/212/4 95/211/4 19/214/4

usemtl Color_J01
vt 109.653 40.5594
vt 133.354 79.2799
vt 109.653 79.2799
f 39/215/1 18/216/1 19/217/1

vt 133.354 40.5594
f 39/215/1 32/218/1 18/216/1

vt 109.653 1.83896
f 30/219/1 32/218/1 39/215/1

vt 133.354 1.83896
f 32/218/1 30/219/1 31/220/1

usemtl FrontColor
vt -109.653 170.394
vt -133.354 171.26
vt -133.354 170.394
f 30/221/2 33/222/2 31/223/2

vt -109.653 171.26
f 33/222/2 30/221/2 37/224/2

f 34/55/8 18/11/8 32/53/8

vt 171.26 79.2799
f 18/11/8 34/55/8 98/225/8

usemtl Color_M00
f 15/35/6 32/51/6 18/36/6

usemtl Color_H06
v 128734 1140.8 -56228.7
vt -131.442 38.6477
f 34/51/9 105/226/9 38/58/9

f 34/51/9 35/56/9 105/226/9

usemtl FrontColor
v 128734 254.42 -56206.7
vt -170.394 3.75074
vt -171.26 38.6477
vt -171.26 3.75074
f 106/227/11 105/228/11 35/229/11

v 128734 1140.8 -56206.7
vt -170.394 38.6477
f 105/228/11 106/227/11 107/230/11

v 128229 1140.8 -56206.7
f 108/198/2 105/199/2 107/200/2

v 128229 1140.8 -56228.7
f 105/199/2 108/198/2 109/201/2

vt 170.394 38.6477
vt 171.26 3.75074
vt 171.26 38.6477
f 108/231/8 36/232/8 109/233/8

v 128229 254.42 -56206.7
vt 170.394 3.75074
f 36/232/8 108/231/8 110/234/8

f 106/206/4 36/207/4 110/208/4

f 36/207/4 106/206/4 35/209/4

usemtl Color_H06
vt -111.565 38.6477
f 36/57/9 38/58/9 109/235/9

f 109/235/9 38/58/9 105/226/9

usemtl FrontColor
vn -1 -9.4075e-29 -2.62513e-13
v 129034 159.152 -56228.7
vt -171.26 -1.34761e-26
vt -170.394 -1.34761e-26
f 15/18/15 111/236/15 14/237/15

v 129034 2172.86 -56228.7
f 111/236/15 15/18/15 112/190/15

vt 173.393 170.394
vt 143.248 171.26
vt 143.248 170.394
f 16/238/4 112/239/4 15/240/4

v 129799 2172.86 -56228.7
vt 173.393 171.26
f 112/239/4 16/238/4 113/241/4

vt 203.538 170.394
f 13/242/4 113/241/4 16/238/4

v 130565 2172.86 -56228.7
vt 203.538 171.26
f 113/241/4 13/242/4 114/243/4

vn 1 0 2.62513e-13
v 130565 159.152 -56228.7
vt 171.26 0
f 13/11/16 115/244/16 114/225/16

vt 170.394 0
f 115/244/16 13/11/16 12/245/16

vt -203.538 170.394
v 129799 159.152 -56228.7
vt -173.393 171.26
vt -203.538 171.26
f 12/246/2 116/247/2 115/248/2

vt -143.248 170.394
f 14/249/2 116/247/2 12/246/2

vt -143.248 171.26
f 116/247/2 14/249/2 111/250/2

usemtl Color_H06
vt -143.248 0
v 129148 251.935 -56228.7
vt -147.75 3.65288
vt -173.393 0
f 111/251/9 117/252/9 116/253/9

f 117/252/9 111/251/9 112/35/9

v 129148 305.935 -56228.7
vt -147.75 5.77886
f 117/252/9 112/35/9 118/254/9

v 129148 2046.44 -56228.7
vt -147.75 74.3028
f 118/254/9 112/35/9 119/255/9

v 129147 2079.73 -56228.7
vt -147.711 75.6133
f 119/255/9 112/35/9 120/256/9

v 129707 2079.73 -56228.7
vt -169.758 75.6133
f 120/256/9 112/35/9 121/257/9

f 113/33/9 121/257/9 112/35/9

v 129707 305.935 -56228.7
vt -169.758 5.77886
f 113/33/9 122/258/9 121/257/9

v 129707 251.935 -56228.7
vt -169.758 3.65288
f 113/33/9 123/259/9 122/258/9

v 129799 251.935 -56228.7
vt -173.393 3.65288
f 124/260/9 123/259/9 113/33/9

f 123/259/9 124/260/9 117/252/9

f 116/253/9 117/252/9 124/260/9

vt -203.538 0
f 124/260/9 115/261/9 116/253/9

v 130472 252.283 -56228.7
vt -199.872 3.6666
f 115/261/9 124/260/9 125/262/9

v 129893 252.283 -56228.7
vt -177.06 3.6666
f 125/262/9 124/260/9 126/263/9

f 113/33/9 126/263/9 124/260/9

v 129893 2079.73 -56228.7
vt -177.06 75.6133
f 126/263/9 113/33/9 127/264/9

v 130472 2079.73 -56228.7
vt -199.872 75.6133
f 127/264/9 113/33/9 128/265/9

f 114/27/9 128/265/9 113/33/9

f 114/27/9 125/262/9 128/265/9

f 115/261/9 125/262/9 114/27/9

usemtl FrontColor
v 133494 159.152 -52062.7
vt -318.858 7.24409
f 129/266/2 14/249/2 12/246/2

v 125759 159.152 -52062.7
vt -14.3307 7.24409
f 130/267/2 14/249/2 129/266/2

v 125759 159.152 -53530.8
vt -14.3307 65.0448
f 131/268/2 14/249/2 130/267/2

v 125759 159.152 -54970.8
vt -14.3307 121.738
f 132/269/2 14/249/2 131/268/2

vt -14.3307 170.394
f 14/249/2 132/269/2 29/270/2

vt -121.738 0
vt -170.394 110.709
vt -170.394 0
f 132/271/11 17/272/11 29/273/11

v 125759 294.152 -54970.8
vt -121.738 5.31496
f 133/274/11 17/272/11 132/271/11

v 125759 431.098 -54721.9
vt -111.939 10.7065
f 134/275/11 17/272/11 133/274/11

v 125759 2491.1 -54721.9
vt -111.939 91.8089
f 135/276/11 17/272/11 134/275/11

v 125759 2491.1 -53764.9
vt -74.262 91.8089
f 136/277/11 17/272/11 135/276/11

v 125759 2971.15 -52062.7
vt -7.24409 110.709
f 136/277/11 137/278/11 17/272/11

vt -7.24409 0
f 137/278/11 136/277/11 130/279/11

v 125759 294.152 -53530.8
vt -65.0448 5.31496
f 130/279/11 136/277/11 138/280/11

v 125759 431.098 -53764.9
vt -74.262 10.7065
f 139/281/11 138/280/11 136/277/11

f 138/280/11 139/281/11 133/274/11

f 133/274/11 139/281/11 134/275/11

usemtl Color_H06
v 125779 489.099 -53822.9
vt -76.5455 17.2087
vn -0.945376 0.325982 1.15556e-19
vt -111.939 14.7933
vt -74.262 14.7933
f 140/282/17 134/283/17 139/284/17

v 125779 489.099 -54663.9
vt -109.656 17.2087
f 134/283/17 140/282/17 141/285/17

usemtl Color_J01
vt -76.5455 12.9901
v 125779 2433.1 -54663.9
vt -109.656 89.5254
vt -109.656 12.9901
f 140/286/11 142/287/11 141/288/11

v 125779 2433.1 -53822.9
vt -76.5455 89.5254
f 142/287/11 140/286/11 143/289/11

usemtl Color_H06
vt -74.8771 10.7065
vn -0.945376 0 -0.325982
vt -77.2925 89.5254
vt -77.2925 12.9901
f 139/290/18 143/291/18 140/292/18

vt -74.8771 91.8089
f 143/291/18 139/290/18 136/293/18

vt -111.939 82.1223
vn -0.945376 -0.325982 -8.05105e-19
vt -76.5455 79.7069
vt -74.262 82.1223
f 135/294/19 143/295/19 136/296/19

vt -109.656 79.7069
f 143/295/19 135/294/19 142/297/19

vt -101.153 91.8089
vn -0.945376 0 0.325982
vt -98.7376 12.9901
vt -98.7376 89.5254
f 135/298/20 141/299/20 142/300/20

vt -101.153 10.7065
f 141/299/20 135/298/20 134/301/20

usemtl FrontColor
vt -65.0448 0
f 133/274/11 131/302/11 138/280/11

f 131/302/11 133/274/11 132/271/11

vt -14.3307 0
v 125395 294.152 -54970.8
vt 0 5.31496
vt -14.3307 5.31496
f 132/303/9 144/304/9 133/305/9

v 125395 159.152 -54970.8
vt 0 0
f 144/304/9 132/303/9 145/306/9

v 125395 159.152 -53530.8
vt 0 65.0448
vt 0 121.738
f 132/269/2 146/307/2 145/308/2

f 146/307/2 132/269/2 131/268/2

vt 14.3307 5.31496
vt 14.3307 0
f 138/309/1 146/306/1 131/310/1

v 125395 294.152 -53530.8
f 146/306/1 138/309/1 147/304/1

vt 14.3307 65.0448
f 138/311/4 144/308/4 147/307/4

vt 14.3307 121.738
f 144/308/4 138/311/4 133/312/4

f 144/274/11 146/302/11 147/280/11

f 146/302/11 144/274/11 145/271/11

f 131/302/11 130/279/11 138/280/11

v 133494 2971.15 -52062.7
vt 318.858 110.709
vt 14.3307 110.709
f 130/310/1 148/313/1 137/314/1

vt 318.858 0
f 148/313/1 130/310/1 129/315/1

usemtl Color_M00
vt 7.24409 110.709
vt 7.24409 0
f 10/245/8 148/316/8 129/317/8

vt 170.394 110.709
f 148/316/8 10/245/8 9/318/8

usemtl FrontColor
vt -318.858 170.394
v 133813 2971.15 -56525.4
vt -331.408 182.944
f 9/319/2 149/320/2 148/266/2

f 17/270/2 149/320/2 9/319/2

v 125440 2971.15 -56525.4
vt -1.78073 182.944
f 17/270/2 150/321/2 149/320/2

v 125440 2971.15 -51878.7
vt -1.78073 0
f 150/321/2 17/270/2 151/322/2

f 137/267/2 151/322/2 17/270/2

v 133813 2971.15 -51878.7
vt -331.408 0
f 151/322/2 137/267/2 152/323/2

f 152/323/2 137/267/2 148/266/2

v 133494 3226.15 -52062.7
vt 318.858 120.748
f 153/324/1 137/314/1 148/313/1

v 125759 3226.15 -52062.7
vt 14.3307 120.748
f 137/314/1 153/324/1 154/325/1

v 125759 3415.15 -52062.7
vt -14.3307 128.189
vt -318.858 120.748
vt -14.3307 120.748
f 155/326/9 153/327/9 154/328/9

v 133494 3415.15 -52062.7
vt -318.858 128.189
f 153/327/9 155/326/9 156/329/9

vt 14.3307 7.24409
v 133813 3415.15 -51878.7
vt 331.408 0
vt 318.858 7.24409
f 155/330/4 157/331/4 156/332/4

v 125440 3415.15 -51878.7
vt 1.78073 0
f 155/330/4 158/333/4 157/331/4

v 125440 3415.15 -56525.4
vt 1.78073 182.944
f 158/333/4 155/330/4 159/334/4

v 125759 3415.15 -56206.7
vt 14.3307 170.394
f 160/335/4 159/334/4 155/330/4

v 133813 3415.15 -56525.4
vt 331.408 182.944
f 159/334/4 160/335/4 161/336/4

v 133494 3415.15 -56206.7
vt 318.858 170.394
f 161/336/4 160/335/4 162/337/4

v 125759 3226.15 -56206.7
vt 318.858 128.189
vt 14.3307 128.189
f 163/325/1 162/338/1 160/339/1

v 133494 3226.15 -56206.7
f 162/338/1 163/325/1 164/324/1

f 163/335/4 153/332/4 164/337/4

f 153/332/4 163/335/4 154/330/4

vt 170.394 120.748
vt 7.24409 128.189
vt 7.24409 120.748
f 163/340/8 155/341/8 154/342/8

vt 170.394 128.189
f 155/341/8 163/340/8 160/343/8

vt -170.394 120.748
vt -7.24409 120.748
f 163/344/11 137/278/11 154/345/11

f 137/278/11 163/344/11 17/272/11

f 163/328/9 9/21/9 17/34/9

f 9/21/9 163/328/9 164/327/9

f 153/342/8 9/318/8 164/340/8

f 9/318/8 153/342/8 148/316/8

vt -170.394 128.189
f 153/345/11 162/346/11 164/344/11

vt -7.24409 128.189
f 162/346/11 153/345/11 156/347/11

f 156/332/4 157/331/4 162/337/4

f 161/336/4 162/337/4 157/331/4

vt 0 128.189
vt 182.944 110.709
vt 182.944 128.189
f 157/348/8 149/349/8 161/350/8

vt 0 110.709
f 149/349/8 157/348/8 152/351/8

vt 331.408 128.189
vt 1.78073 110.709
vt 331.408 110.709
f 157/352/1 151/353/1 152/354/1

vt 1.78073 128.189
f 151/353/1 157/352/1 158/355/1

vt -182.944 128.189
f 159/356/11 151/351/11 158/348/11

vt -182.944 110.709
f 151/351/11 159/356/11 150/357/11

vt -1.78073 128.189
vt -331.408 110.709
vt -1.78073 110.709
f 159/358/9 149/359/9 150/360/9

vt -331.408 128.189
f 149/359/9 159/358/9 161/361/9

f 152/323/2 148/266/2 149/320/2

usemtl Color_M00
f 9/21/6 5/23/6 17/34/6

vt -290.796 79.2799
f 6/362/6 17/34/6 5/23/6

v 132387 2172.86 -56206.7
vt -275.284 79.2799
f 165/363/6 17/34/6 6/362/6

v 131889 2172.86 -56206.7
vt -255.678 79.2799
f 166/364/6 17/34/6 165/363/6

v 131479 2172.86 -56206.7
vt -239.536 79.2799
f 167/365/6 17/34/6 166/364/6

v 130981 2172.86 -56206.7
vt -219.93 79.2799
f 168/366/6 17/34/6 167/365/6

f 13/27/6 17/34/6 168/366/6

f 11/25/6 13/27/6 168/366/6

usemtl FrontColor
v 130981 2172.86 -56085.7
f 169/9/8 11/10/8 168/11/8

v 130981 1674.86 -56085.7
f 11/10/8 169/9/8 170/12/8

usemtl Color_J01
vt 219.93 59.6736
v 131479 2172.86 -56085.7
vt 239.536 79.2799
vt 219.93 79.2799
f 170/367/1 171/368/1 169/369/1

v 131479 1674.86 -56085.7
vt 239.536 59.6736
f 171/368/1 170/367/1 172/370/1

usemtl FrontColor
vt 239.536 165.63
vt 219.93 170.394
vt 219.93 165.63
f 172/371/4 11/372/4 170/373/4

v 131479 1674.86 -56206.7
vt 239.536 170.394
f 11/372/4 172/371/4 173/374/4

f 172/17/11 167/18/11 173/19/11

f 167/18/11 172/17/11 171/20/11

vt -219.93 165.63
vt -239.536 170.394
vt -239.536 165.63
f 169/375/2 167/376/2 171/377/2

vt -219.93 170.394
f 167/376/2 169/375/2 168/378/2

usemtl Color_M00
v 131889 1674.86 -56206.7
vt -255.678 59.6736
vt -239.536 59.6736
f 167/365/6 174/379/6 173/380/6

f 174/379/6 167/365/6 166/364/6

usemtl FrontColor
v 131889 2172.86 -56085.7
f 175/9/8 174/10/8 166/11/8

v 131889 1674.86 -56085.7
f 174/10/8 175/9/8 176/12/8

usemtl Color_J01
vt 255.678 59.6736
v 132387 2172.86 -56085.7
vt 275.284 79.2799
vt 255.678 79.2799
f 176/381/1 177/382/1 175/383/1

v 132387 1674.86 -56085.7
vt 275.284 59.6736
f 177/382/1 176/381/1 178/384/1

usemtl FrontColor
vt 275.284 165.63
vt 255.678 170.394
vt 255.678 165.63
f 178/385/4 174/386/4 176/387/4

v 132387 1674.86 -56206.7
vt 275.284 170.394
f 174/386/4 178/385/4 179/388/4

f 178/17/11 165/18/11 179/19/11

f 165/18/11 178/17/11 177/20/11

vt -255.678 165.63
vt -275.284 170.394
vt -275.284 165.63
f 175/389/2 165/390/2 177/391/2

vt -255.678 170.394
f 165/390/2 175/389/2 166/392/2

usemtl Color_M00
vt -290.796 59.6736
vt -275.284 59.6736
f 165/363/6 7/393/6 179/394/6

f 7/393/6 165/363/6 6/362/6

f 8/22/6 179/394/6 7/393/6

f 8/22/6 174/379/6 179/394/6

f 8/22/6 173/380/6 174/379/6

f 8/22/6 11/25/6 173/380/6

usemtl FrontColor
f 129/266/2 12/246/2 10/319/2

