# Alias OBJ Model File
# Exported from SketchUp, (c) 2000-2012 Trimble Navigation Limited
# File units = millimeters

mtllib Đường sắt giữa.mtl

g Mesh1 Group2 Group1 Model

usemtl _DimGray_
v 167840 7454.15 -28336.1
vt -3643.14 219.557
vn 0 -1 -0
v 75304.4 7454.15 -23612.6
vt 0 33.5929
v 75304.4 7454.15 -28336.1
vt 0 219.557
f 1/1/1 2/2/1 3/3/1

v 167840 7454.15 -23612.6
vt -3643.14 33.5929
f 2/2/1 1/1/1 4/4/1

v 167840 8162.15 -23252.2
vt 3643.14 16.0383
vn 0 -0.453648 0.891181
vt 0 -15.2394
vt 3643.14 -15.2394
f 5/5/2 2/6/2 4/7/2

v 75304.4 8162.15 -23252.2
vt 0 16.0383
f 2/6/2 5/5/2 6/8/2

v 167840 8574.15 -23607
vt 3643.14 55.1891
vn 0 0.652525 0.757767
vt 0 33.7835
vt 3643.14 33.7835
f 7/9/3 6/10/3 5/11/3

v 75304.4 8574.15 -23607
vt 0 55.1891
f 6/10/3 7/9/3 8/12/3

vt 3643.14 -14.8206
vn 0 -0.929948 0.367691
v 75304.4 8872.15 -22853.3
vt 0 17.0874
vt 0 -14.8206
f 7/13/4 9/14/4 8/15/4

v 167840 8872.15 -22853.3
vt 3643.14 17.0874
f 9/14/4 7/13/4 10/16/4

vt 33.3715 44.0945
vn 1 0 -0
v 167840 11785.2 -22853.3
vt 3.69875 170.512
vt 3.69875 55.8268
f 7/17/5 11/18/5 10/19/5

v 167840 11785.2 -29404.6
vt 261.624 170.512
f 11/18/5 7/17/5 12/20/5

v 167840 8574.15 -28320.5
vt 218.942 44.0945
f 12/20/5 7/17/5 13/21/5

v 167840 8162.15 -28761.2
vt 236.293 27.874
f 7/17/5 14/22/5 13/21/5

vt 19.4038 27.874
f 14/22/5 7/17/5 5/23/5

v 75304.4 8162.15 -28761.2
vt 0 -153.579
vn 0 0.730508 -0.682904
vt -3643.14 -129.827
vt -3643.14 -153.579
f 15/24/6 13/25/6 14/26/6

v 75304.4 8574.15 -28320.5
vt 0 -129.827
f 13/25/6 15/24/6 16/27/6

vt -236.293 27.874
vn -1 0 -0
vt -33.3715 44.0945
vt -218.942 44.0945
f 15/28/7 8/29/7 16/30/7

vt -19.4038 27.874
f 8/29/7 15/28/7 6/31/7

v 75304.4 11785.2 -29404.6
vt -261.624 170.512
f 8/29/7 17/32/7 16/30/7

vt -3.69875 55.8268
f 9/33/7 17/32/7 8/29/7

v 75304.4 11785.2 -22853.3
vt -3.69875 170.512
f 17/32/7 9/33/7 18/34/7

vt 0 55.8268
vn 0 0 1
vt 3643.14 170.512
vt 0 170.512
f 9/35/8 11/36/8 18/37/8

vt 3643.14 55.8268
f 11/36/8 9/35/8 10/38/8

vt 3643.14 3.69875
vn 0 1 -0
vt 0 261.624
vt 0 3.69875
f 11/39/9 17/40/9 18/41/9

vt 3643.14 261.624
f 17/40/9 11/39/9 12/42/9

v 167840 8872.15 -29404.6
vt -3643.14 55.8268
vn 0 0 -1
vt -3643.14 170.512
f 19/43/10 17/37/10 12/44/10

v 75304.4 8872.15 -29404.6
f 17/37/10 19/43/10 20/35/10

vt -3643.14 267.063
vn 0 -0.964235 -0.26505
vt 0 222.799
vt 0 267.063
f 19/45/11 16/46/11 20/47/11

vt -3643.14 222.799
f 16/46/11 19/45/11 13/48/11

vt 261.624 55.8268
f 12/20/5 13/21/5 19/49/5

vt -261.624 55.8268
f 16/30/7 17/32/7 20/50/7

vt -3643.14 113.022
vn 0 -0.514775 -0.857325
vt 0 145.535
vt -3643.14 145.535
f 1/51/12 15/52/12 14/53/12

vt 0 113.022
f 15/52/12 1/51/12 3/54/12

g Mesh2 Group4 Group3 Group1 Model

v 167840 1596.15 -28336.1
vt 3643.14 219.557
v 75304.4 1596.15 -29189.3
vt 4.54747e-13 253.15
v 75304.4 1596.15 -28336.1
f 21/55/9 22/56/9 23/3/9

v 167840 1596.15 -29189.3
vt 3643.14 253.15
f 22/56/9 21/55/9 24/57/9

vt -253.15 56.5748
v 167840 653.152 -28336.1
vt -219.557 19.4488
vt -219.557 56.5748
f 24/58/7 25/59/7 21/60/7

v 167840 159.152 -29189.3
vt -253.15 0
f 26/61/7 25/59/7 24/58/7

v 167840 653.152 -23612.6
vt -33.5929 19.4488
f 26/61/7 27/62/7 25/59/7

v 167840 159.152 -22759.3
vt 0 0
f 28/63/7 27/62/7 26/61/7

v 167840 1596.15 -23612.6
vt -33.5929 56.5748
f 28/63/7 29/64/7 27/62/7

v 167840 1596.15 -22759.3
vt 0 56.5748
f 29/64/7 28/63/7 30/65/7

vt 3643.14 56.5748
v 75304.4 159.152 -22759.3
vt 9.09495e-13 0
vt 3643.14 0
f 30/66/8 31/67/8 28/68/8

v 75304.4 1596.15 -22759.3
vt 9.09495e-13 56.5748
f 31/67/8 30/66/8 32/69/8

vt 3643.14 33.5929
f 29/70/9 32/67/9 30/68/9

v 75304.4 1596.15 -23612.6
vt 4.54747e-13 33.5929
f 32/67/9 29/70/9 33/71/9

vt -3643.14 19.4488
vt -4.54747e-13 56.5748
vt -3643.14 56.5748
f 27/72/10 33/73/10 29/74/10

v 75304.4 653.152 -23612.6
vt 0 19.4488
f 33/73/10 27/72/10 34/75/10

v 75304.4 653.152 -28336.1
f 27/70/9 35/3/9 34/2/9

f 35/3/9 27/70/9 25/55/9

vt 3643.14 19.4488
f 21/66/8 35/75/8 25/76/8

f 35/75/8 21/66/8 23/65/8

vt 219.557 19.4488
vn 1 6.87124e-15 -4.28544e-16
v 75304.4 159.152 -29189.3
vt 253.15 -1.01195e-26
vt 219.557 56.5748
f 35/77/13 36/78/13 23/79/13

vt 33.5929 19.4488
f 34/80/13 36/78/13 35/77/13

vt -3.89759e-28 -6.24936e-27
f 34/80/13 31/81/13 36/78/13

vt -3.89759e-28 56.5748
f 31/81/13 34/80/13 32/82/13

vt 33.5929 56.5748
f 33/83/13 32/82/13 34/80/13

vt -1.36424e-12 253.15
vt -3643.14 0
vt -9.09495e-13 0
f 36/84/1 28/85/1 31/86/1

vt -3643.14 253.15
f 28/85/1 36/84/1 26/87/1

vt -1.36424e-12 0
f 22/73/10 26/85/10 36/88/10

f 26/85/10 22/73/10 24/74/10

vt 253.15 56.5748
f 23/79/13 36/78/13 22/89/13

g Mesh3 Group5 Group3 Group1 Model

v 157277 7454.15 -23612.6
vt 63.29 267.756
v 155789 653.152 -23612.6
vt 4.70212 0
v 157277 653.152 -23612.6
vt 63.29 0
f 37/90/8 38/91/8 39/92/8

v 155789 7454.15 -23612.6
vt 4.70212 267.756
f 38/91/8 37/90/8 40/93/8

v 155789 7454.15 -25966.9
vt 4.70212 92.6894
f 41/94/9 40/91/9 37/92/9

v 155670 7454.15 -25847.5
vt 0 87.9873
f 42/95/9 40/91/9 41/94/9

v 155670 7454.15 -23732
vt 0 4.70212
f 40/91/9 42/95/9 43/96/9

vt -87.9873 267.756
v 155670 653.152 -23732
vt -4.70212 0
vt -4.70212 267.756
f 42/97/7 44/98/7 43/99/7

v 155670 653.152 -25847.5
vt -87.9873 0
f 44/98/7 42/97/7 45/100/7

vt -62.2164 267.756
vn -0.707107 0 -0.707107
v 155789 653.152 -25966.9
vt -68.8662 0
vt -62.2164 0
f 42/101/14 46/102/14 45/103/14

vt -68.8662 267.756
f 46/102/14 42/101/14 41/104/14

vn -0.707107 0 0.707107
v 155670 653.152 -26086.3
f 41/101/15 47/102/15 46/103/15

v 155670 7454.15 -26086.3
f 47/102/15 41/101/15 48/104/15

v 155670 7454.15 -28201.8
vt 0 180.677
vt 0 97.3915
f 41/94/9 49/105/9 48/106/9

v 155789 7454.15 -28336.1
vt 4.70212 185.964
f 49/105/9 41/94/9 50/107/9

f 41/94/9 37/92/9 50/107/9

v 157277 7454.15 -28336.1
vt 63.29 185.964
f 50/107/9 37/92/9 51/108/9

v 157277 7454.15 -25966.9
vt 63.29 92.6894
f 51/108/9 37/92/9 52/109/9

v 157397 7454.15 -23732
vt 67.9921 4.70212
f 53/110/9 52/109/9 37/92/9

v 157397 7454.15 -25847.5
vt 67.9921 87.9873
f 52/109/9 53/110/9 54/111/9

v 157397 653.152 -25847.5
vt 87.9873 0
vt 87.9873 267.756
f 53/93/5 55/112/5 54/113/5

v 157397 653.152 -23732
f 55/112/5 53/93/5 56/91/5

vt 44.7528 267.756
vn 0.707107 0 0.707107
vt 51.4026 0
vt 51.4026 267.756
f 37/114/16 56/115/16 53/116/16

vt 44.7528 0
f 56/115/16 37/114/16 39/117/16

vt -63.29 0
vt -67.9921 87.9873
vt -67.9921 4.70212
f 39/118/1 55/119/1 56/120/1

v 157277 653.152 -25966.9
vt -63.29 92.6894
f 39/118/1 57/121/1 55/119/1

v 157277 653.152 -28336.1
vt -63.29 185.964
f 39/118/1 58/122/1 57/121/1

f 38/98/1 58/122/1 39/118/1

vt -4.70212 92.6894
f 46/123/1 58/122/1 38/98/1

v 155789 653.152 -28336.1
vt -4.70212 185.964
f 46/123/1 59/124/1 58/122/1

f 47/106/1 59/124/1 46/123/1

v 155670 653.152 -28201.8
f 59/124/1 47/106/1 60/105/1

vt -97.3915 0
vt -180.677 267.756
vt -180.677 0
f 47/125/7 49/126/7 60/127/7

vt -97.3915 267.756
f 49/126/7 47/125/7 48/128/7

vt -142.084 267.756
vn -0.747238 0 -0.664556
vt -135.009 0
vt -135.009 267.756
f 50/129/17 60/130/17 49/131/17

vt -142.084 0
f 60/130/17 50/129/17 59/132/17

f 50/99/10 58/118/10 59/98/10

vt -63.29 267.756
f 58/118/10 50/99/10 51/133/10

v 157397 7454.15 -28201.8
vt 89.8239 267.756
vn 0.747238 0 -0.664556
vt 96.8995 0
vt 96.8995 267.756
f 61/134/18 58/135/18 51/136/18

v 157397 653.152 -28201.8
vt 89.8239 0
f 58/135/18 61/134/18 62/137/18

v 157397 7454.15 -26086.3
vt 97.3915 267.756
vt 180.677 0
vt 180.677 267.756
f 63/138/5 62/139/5 61/140/5

v 157397 653.152 -26086.3
vt 97.3915 0
f 62/139/5 63/138/5 64/141/5

vt 110.294 267.756
vt 116.944 0
vt 116.944 267.756
f 52/142/16 64/143/16 63/144/16

vt 110.294 0
f 64/143/16 52/142/16 57/145/16

vt 14.1387 267.756
vn 0.707107 0 -0.707107
vt 20.7885 0
vt 20.7885 267.756
f 54/146/19 57/147/19 52/148/19

vt 14.1387 0
f 57/147/19 54/146/19 55/149/19

vt -67.9921 180.677
vt -67.9921 97.3915
f 57/121/1 62/150/1 64/151/1

f 62/150/1 57/121/1 58/122/1

vt 67.9921 97.3915
f 51/108/9 52/109/9 63/152/9

vt 67.9921 180.677
f 51/108/9 63/152/9 61/153/9

f 44/96/1 46/123/1 38/98/1

f 46/123/1 44/96/1 45/95/1

vt 3.3249 267.756
vt -3.3249 0
vt 3.3249 0
f 40/154/15 44/155/15 38/156/15

vt -3.3249 267.756
f 44/155/15 40/154/15 43/157/15

g Mesh4 Group6 Group3 Group1 Model

v 89797.2 7454.15 -23612.6
v 88309 653.152 -23612.6
v 89797.2 653.152 -23612.6
f 65/90/8 66/91/8 67/92/8

v 88309 7454.15 -23612.6
f 66/91/8 65/90/8 68/93/8

v 88309 7454.15 -25966.9
f 69/94/9 68/91/9 65/92/9

v 88189.6 7454.15 -25847.5
f 70/95/9 68/91/9 69/94/9

v 88189.6 7454.15 -23732
f 68/91/9 70/95/9 71/96/9

v 88189.6 653.152 -23732
f 70/97/7 72/98/7 71/99/7

v 88189.6 653.152 -25847.5
f 72/98/7 70/97/7 73/100/7

v 88309 653.152 -25966.9
f 70/101/14 74/102/14 73/103/14

f 74/102/14 70/101/14 69/104/14

v 88189.6 653.152 -26086.3
f 69/101/15 75/102/15 74/103/15

v 88189.6 7454.15 -26086.3
f 75/102/15 69/101/15 76/104/15

v 88189.6 7454.15 -28201.8
f 69/94/9 77/105/9 76/106/9

v 88309 7454.15 -28336.1
f 77/105/9 69/94/9 78/107/9

f 69/94/9 65/92/9 78/107/9

v 89797.2 7454.15 -28336.1
f 78/107/9 65/92/9 79/108/9

v 89797.2 7454.15 -25966.9
f 79/108/9 65/92/9 80/109/9

v 89916.6 7454.15 -23732
f 81/110/9 80/109/9 65/92/9

v 89916.6 7454.15 -25847.5
f 80/109/9 81/110/9 82/111/9

v 89916.6 653.152 -25847.5
f 81/93/5 83/112/5 82/113/5

v 89916.6 653.152 -23732
f 83/112/5 81/93/5 84/91/5

f 65/114/16 84/115/16 81/116/16

f 84/115/16 65/114/16 67/117/16

f 67/118/1 83/119/1 84/120/1

v 89797.2 653.152 -25966.9
f 67/118/1 85/121/1 83/119/1

v 89797.2 653.152 -28336.1
f 67/118/1 86/122/1 85/121/1

f 66/98/1 86/122/1 67/118/1

f 74/123/1 86/122/1 66/98/1

v 88309 653.152 -28336.1
f 74/123/1 87/124/1 86/122/1

f 75/106/1 87/124/1 74/123/1

v 88189.6 653.152 -28201.8
f 87/124/1 75/106/1 88/105/1

f 75/125/7 77/126/7 88/127/7

f 77/126/7 75/125/7 76/128/7

f 78/129/17 88/130/17 77/131/17

f 88/130/17 78/129/17 87/132/17

f 78/99/10 86/118/10 87/98/10

f 86/118/10 78/99/10 79/133/10

v 89916.6 7454.15 -28201.8
f 89/134/18 86/135/18 79/136/18

v 89916.6 653.152 -28201.8
f 86/135/18 89/134/18 90/137/18

v 89916.6 7454.15 -26086.3
f 91/138/5 90/139/5 89/140/5

v 89916.6 653.152 -26086.3
f 90/139/5 91/138/5 92/141/5

f 80/142/16 92/143/16 91/144/16

f 92/143/16 80/142/16 85/145/16

f 82/146/19 85/147/19 80/148/19

f 85/147/19 82/146/19 83/149/19

f 85/121/1 90/150/1 92/151/1

f 90/150/1 85/121/1 86/122/1

f 79/108/9 80/109/9 91/152/9

f 79/108/9 91/152/9 89/153/9

f 72/96/1 74/123/1 66/98/1

f 74/123/1 72/96/1 73/95/1

f 68/154/15 72/155/15 66/156/15

f 72/155/15 68/154/15 71/157/15

g Mesh5 Group7 Group3 Group1 Model

v 166917 7454.15 -23612.6
v 165429 653.152 -23612.6
v 166917 653.152 -23612.6
f 93/90/8 94/91/8 95/92/8

v 165429 7454.15 -23612.6
f 94/91/8 93/90/8 96/93/8

v 165429 7454.15 -25966.9
f 97/94/9 96/91/9 93/92/9

v 165310 7454.15 -25847.5
f 98/95/9 96/91/9 97/94/9

v 165310 7454.15 -23732
f 96/91/9 98/95/9 99/96/9

v 165310 653.152 -23732
f 98/97/7 100/98/7 99/99/7

v 165310 653.152 -25847.5
f 100/98/7 98/97/7 101/100/7

v 165429 653.152 -25966.9
f 98/101/14 102/102/14 101/103/14

f 102/102/14 98/101/14 97/104/14

v 165310 653.152 -26086.3
f 97/101/15 103/102/15 102/103/15

v 165310 7454.15 -26086.3
f 103/102/15 97/101/15 104/104/15

v 165310 7454.15 -28201.8
f 97/94/9 105/105/9 104/106/9

v 165429 7454.15 -28336.1
f 105/105/9 97/94/9 106/107/9

f 97/94/9 93/92/9 106/107/9

v 166917 7454.15 -28336.1
f 106/107/9 93/92/9 107/108/9

v 166917 7454.15 -25966.9
f 107/108/9 93/92/9 108/109/9

v 167037 7454.15 -23732
f 109/110/9 108/109/9 93/92/9

v 167037 7454.15 -25847.5
f 108/109/9 109/110/9 110/111/9

v 167037 653.152 -25847.5
f 109/93/5 111/112/5 110/113/5

v 167037 653.152 -23732
f 111/112/5 109/93/5 112/91/5

f 93/114/16 112/115/16 109/116/16

f 112/115/16 93/114/16 95/117/16

f 95/118/1 111/119/1 112/120/1

v 166917 653.152 -25966.9
f 95/118/1 113/121/1 111/119/1

v 166917 653.152 -28336.1
f 95/118/1 114/122/1 113/121/1

f 94/98/1 114/122/1 95/118/1

f 102/123/1 114/122/1 94/98/1

v 165429 653.152 -28336.1
f 102/123/1 115/124/1 114/122/1

f 103/106/1 115/124/1 102/123/1

v 165310 653.152 -28201.8
f 115/124/1 103/106/1 116/105/1

f 103/125/7 105/126/7 116/127/7

f 105/126/7 103/125/7 104/128/7

f 106/129/17 116/130/17 105/131/17

f 116/130/17 106/129/17 115/132/17

f 106/99/10 114/118/10 115/98/10

f 114/118/10 106/99/10 107/133/10

v 167037 7454.15 -28201.8
f 117/134/18 114/135/18 107/136/18

v 167037 653.152 -28201.8
f 114/135/18 117/134/18 118/137/18

v 167037 7454.15 -26086.3
f 119/138/5 118/139/5 117/140/5

v 167037 653.152 -26086.3
f 118/139/5 119/138/5 120/141/5

f 108/142/16 120/143/16 119/144/16

f 120/143/16 108/142/16 113/145/16

f 110/146/19 113/147/19 108/148/19

f 113/147/19 110/146/19 111/149/19

f 113/121/1 118/150/1 120/151/1

f 118/150/1 113/121/1 114/122/1

f 107/108/9 108/109/9 119/152/9

f 107/108/9 119/152/9 117/153/9

f 100/96/1 102/123/1 94/98/1

f 102/123/1 100/96/1 101/95/1

f 96/154/15 100/155/15 94/156/15

f 100/155/15 96/154/15 99/157/15

g Mesh6 Group8 Group3 Group1 Model

v 80157.2 7454.15 -23612.6
v 78669 653.152 -23612.6
v 80157.2 653.152 -23612.6
f 121/90/8 122/91/8 123/92/8

v 78669 7454.15 -23612.6
f 122/91/8 121/90/8 124/93/8

v 78669 7454.15 -25966.9
f 125/94/9 124/91/9 121/92/9

v 78549.6 7454.15 -25847.5
f 126/95/9 124/91/9 125/94/9

v 78549.6 7454.15 -23732
f 124/91/9 126/95/9 127/96/9

v 78549.6 653.152 -23732
f 126/97/7 128/98/7 127/99/7

v 78549.6 653.152 -25847.5
f 128/98/7 126/97/7 129/100/7

v 78669 653.152 -25966.9
f 126/101/14 130/102/14 129/103/14

f 130/102/14 126/101/14 125/104/14

v 78549.6 653.152 -26086.3
f 125/101/15 131/102/15 130/103/15

v 78549.6 7454.15 -26086.3
f 131/102/15 125/101/15 132/104/15

v 78549.6 7454.15 -28201.8
f 125/94/9 133/105/9 132/106/9

v 78669 7454.15 -28336.1
f 133/105/9 125/94/9 134/107/9

f 125/94/9 121/92/9 134/107/9

v 80157.2 7454.15 -28336.1
f 134/107/9 121/92/9 135/108/9

v 80157.2 7454.15 -25966.9
f 135/108/9 121/92/9 136/109/9

v 80276.6 7454.15 -23732
f 137/110/9 136/109/9 121/92/9

v 80276.6 7454.15 -25847.5
f 136/109/9 137/110/9 138/111/9

v 80276.6 653.152 -25847.5
f 137/93/5 139/112/5 138/113/5

v 80276.6 653.152 -23732
f 139/112/5 137/93/5 140/91/5

f 121/114/16 140/115/16 137/116/16

f 140/115/16 121/114/16 123/117/16

f 123/118/1 139/119/1 140/120/1

v 80157.2 653.152 -25966.9
f 123/118/1 141/121/1 139/119/1

v 80157.2 653.152 -28336.1
f 123/118/1 142/122/1 141/121/1

f 122/98/1 142/122/1 123/118/1

f 130/123/1 142/122/1 122/98/1

v 78669 653.152 -28336.1
f 130/123/1 143/124/1 142/122/1

f 131/106/1 143/124/1 130/123/1

v 78549.6 653.152 -28201.8
f 143/124/1 131/106/1 144/105/1

f 131/125/7 133/126/7 144/127/7

f 133/126/7 131/125/7 132/128/7

f 134/129/17 144/130/17 133/131/17

f 144/130/17 134/129/17 143/132/17

f 134/99/10 142/118/10 143/98/10

f 142/118/10 134/99/10 135/133/10

v 80276.6 7454.15 -28201.8
f 145/134/18 142/135/18 135/136/18

v 80276.6 653.152 -28201.8
f 142/135/18 145/134/18 146/137/18

v 80276.6 7454.15 -26086.3
f 147/138/5 146/139/5 145/140/5

v 80276.6 653.152 -26086.3
f 146/139/5 147/138/5 148/141/5

f 136/142/16 148/143/16 147/144/16

f 148/143/16 136/142/16 141/145/16

f 138/146/19 141/147/19 136/148/19

f 141/147/19 138/146/19 139/149/19

f 141/121/1 146/150/1 148/151/1

f 146/150/1 141/121/1 142/122/1

f 135/108/9 136/109/9 147/152/9

f 135/108/9 147/152/9 145/153/9

f 128/96/1 130/123/1 122/98/1

f 130/123/1 128/96/1 129/95/1

f 124/154/15 128/155/15 122/156/15

f 128/155/15 124/154/15 127/157/15

g Mesh7 Group9 Group3 Group1 Model

v 137997 7454.15 -23612.6
v 136509 653.152 -23612.6
v 137997 653.152 -23612.6
f 149/90/8 150/91/8 151/92/8

v 136509 7454.15 -23612.6
f 150/91/8 149/90/8 152/93/8

v 136509 7454.15 -25966.9
f 153/94/9 152/91/9 149/92/9

v 136390 7454.15 -25847.5
f 154/95/9 152/91/9 153/94/9

v 136390 7454.15 -23732
f 152/91/9 154/95/9 155/96/9

v 136390 653.152 -23732
f 154/97/7 156/98/7 155/99/7

v 136390 653.152 -25847.5
f 156/98/7 154/97/7 157/100/7

v 136509 653.152 -25966.9
f 154/101/14 158/102/14 157/103/14

f 158/102/14 154/101/14 153/104/14

v 136390 653.152 -26086.3
f 153/101/15 159/102/15 158/103/15

v 136390 7454.15 -26086.3
f 159/102/15 153/101/15 160/104/15

v 136390 7454.15 -28201.8
f 153/94/9 161/105/9 160/106/9

v 136509 7454.15 -28336.1
f 161/105/9 153/94/9 162/107/9

f 153/94/9 149/92/9 162/107/9

v 137997 7454.15 -28336.1
f 162/107/9 149/92/9 163/108/9

v 137997 7454.15 -25966.9
f 163/108/9 149/92/9 164/109/9

v 138117 7454.15 -23732
f 165/110/9 164/109/9 149/92/9

v 138117 7454.15 -25847.5
f 164/109/9 165/110/9 166/111/9

v 138117 653.152 -25847.5
f 165/93/5 167/112/5 166/113/5

v 138117 653.152 -23732
f 167/112/5 165/93/5 168/91/5

f 149/114/16 168/115/16 165/116/16

f 168/115/16 149/114/16 151/117/16

f 151/118/1 167/119/1 168/120/1

v 137997 653.152 -25966.9
f 151/118/1 169/121/1 167/119/1

v 137997 653.152 -28336.1
f 151/118/1 170/122/1 169/121/1

f 150/98/1 170/122/1 151/118/1

f 158/123/1 170/122/1 150/98/1

v 136509 653.152 -28336.1
f 158/123/1 171/124/1 170/122/1

f 159/106/1 171/124/1 158/123/1

v 136390 653.152 -28201.8
f 171/124/1 159/106/1 172/105/1

f 159/125/7 161/126/7 172/127/7

f 161/126/7 159/125/7 160/128/7

f 162/129/17 172/130/17 161/131/17

f 172/130/17 162/129/17 171/132/17

f 162/99/10 170/118/10 171/98/10

f 170/118/10 162/99/10 163/133/10

v 138117 7454.15 -28201.8
f 173/134/18 170/135/18 163/136/18

v 138117 653.152 -28201.8
f 170/135/18 173/134/18 174/137/18

v 138117 7454.15 -26086.3
f 175/138/5 174/139/5 173/140/5

v 138117 653.152 -26086.3
f 174/139/5 175/138/5 176/141/5

f 164/142/16 176/143/16 175/144/16

f 176/143/16 164/142/16 169/145/16

f 166/146/19 169/147/19 164/148/19

f 169/147/19 166/146/19 167/149/19

f 169/121/1 174/150/1 176/151/1

f 174/150/1 169/121/1 170/122/1

f 163/108/9 164/109/9 175/152/9

f 163/108/9 175/152/9 173/153/9

f 156/96/1 158/123/1 150/98/1

f 158/123/1 156/96/1 157/95/1

f 152/154/15 156/155/15 150/156/15

f 156/155/15 152/154/15 155/157/15

g Mesh8 Group10 Group3 Group1 Model

v 147637 7454.15 -23612.6
v 146149 653.152 -23612.6
v 147637 653.152 -23612.6
f 177/90/8 178/91/8 179/92/8

v 146149 7454.15 -23612.6
f 178/91/8 177/90/8 180/93/8

v 146149 7454.15 -25966.9
f 181/94/9 180/91/9 177/92/9

v 146030 7454.15 -25847.5
f 182/95/9 180/91/9 181/94/9

v 146030 7454.15 -23732
f 180/91/9 182/95/9 183/96/9

v 146030 653.152 -23732
f 182/97/7 184/98/7 183/99/7

v 146030 653.152 -25847.5
f 184/98/7 182/97/7 185/100/7

v 146149 653.152 -25966.9
f 182/101/14 186/102/14 185/103/14

f 186/102/14 182/101/14 181/104/14

v 146030 653.152 -26086.3
f 181/101/15 187/102/15 186/103/15

v 146030 7454.15 -26086.3
f 187/102/15 181/101/15 188/104/15

v 146030 7454.15 -28201.8
f 181/94/9 189/105/9 188/106/9

v 146149 7454.15 -28336.1
f 189/105/9 181/94/9 190/107/9

f 181/94/9 177/92/9 190/107/9

v 147637 7454.15 -28336.1
f 190/107/9 177/92/9 191/108/9

v 147637 7454.15 -25966.9
f 191/108/9 177/92/9 192/109/9

v 147757 7454.15 -23732
f 193/110/9 192/109/9 177/92/9

v 147757 7454.15 -25847.5
f 192/109/9 193/110/9 194/111/9

v 147757 653.152 -25847.5
f 193/93/5 195/112/5 194/113/5

v 147757 653.152 -23732
f 195/112/5 193/93/5 196/91/5

f 177/114/16 196/115/16 193/116/16

f 196/115/16 177/114/16 179/117/16

f 179/118/1 195/119/1 196/120/1

v 147637 653.152 -25966.9
f 179/118/1 197/121/1 195/119/1

v 147637 653.152 -28336.1
f 179/118/1 198/122/1 197/121/1

f 178/98/1 198/122/1 179/118/1

f 186/123/1 198/122/1 178/98/1

v 146149 653.152 -28336.1
f 186/123/1 199/124/1 198/122/1

f 187/106/1 199/124/1 186/123/1

v 146030 653.152 -28201.8
f 199/124/1 187/106/1 200/105/1

f 187/125/7 189/126/7 200/127/7

f 189/126/7 187/125/7 188/128/7

f 190/129/17 200/130/17 189/131/17

f 200/130/17 190/129/17 199/132/17

f 190/99/10 198/118/10 199/98/10

f 198/118/10 190/99/10 191/133/10

v 147757 7454.15 -28201.8
f 201/134/18 198/135/18 191/136/18

v 147757 653.152 -28201.8
f 198/135/18 201/134/18 202/137/18

v 147757 7454.15 -26086.3
f 203/138/5 202/139/5 201/140/5

v 147757 653.152 -26086.3
f 202/139/5 203/138/5 204/141/5

f 192/142/16 204/143/16 203/144/16

f 204/143/16 192/142/16 197/145/16

f 194/146/19 197/147/19 192/148/19

f 197/147/19 194/146/19 195/149/19

f 197/121/1 202/150/1 204/151/1

f 202/150/1 197/121/1 198/122/1

f 191/108/9 192/109/9 203/152/9

f 191/108/9 203/152/9 201/153/9

f 184/96/1 186/123/1 178/98/1

f 186/123/1 184/96/1 185/95/1

f 180/154/15 184/155/15 178/156/15

f 184/155/15 180/154/15 183/157/15

g Mesh9 Group11 Group3 Group1 Model

v 128357 7454.15 -23612.6
v 126869 653.152 -23612.6
v 128357 653.152 -23612.6
f 205/90/8 206/91/8 207/92/8

v 126869 7454.15 -23612.6
f 206/91/8 205/90/8 208/93/8

v 126869 7454.15 -25966.9
f 209/94/9 208/91/9 205/92/9

v 126750 7454.15 -25847.5
f 210/95/9 208/91/9 209/94/9

v 126750 7454.15 -23732
f 208/91/9 210/95/9 211/96/9

v 126750 653.152 -23732
f 210/97/7 212/98/7 211/99/7

v 126750 653.152 -25847.5
f 212/98/7 210/97/7 213/100/7

v 126869 653.152 -25966.9
f 210/101/14 214/102/14 213/103/14

f 214/102/14 210/101/14 209/104/14

v 126750 653.152 -26086.3
f 209/101/15 215/102/15 214/103/15

v 126750 7454.15 -26086.3
f 215/102/15 209/101/15 216/104/15

v 126750 7454.15 -28201.8
f 209/94/9 217/105/9 216/106/9

v 126869 7454.15 -28336.1
f 217/105/9 209/94/9 218/107/9

f 209/94/9 205/92/9 218/107/9

v 128357 7454.15 -28336.1
f 218/107/9 205/92/9 219/108/9

v 128357 7454.15 -25966.9
f 219/108/9 205/92/9 220/109/9

v 128477 7454.15 -23732
f 221/110/9 220/109/9 205/92/9

v 128477 7454.15 -25847.5
f 220/109/9 221/110/9 222/111/9

v 128477 653.152 -25847.5
f 221/93/5 223/112/5 222/113/5

v 128477 653.152 -23732
f 223/112/5 221/93/5 224/91/5

f 205/114/16 224/115/16 221/116/16

f 224/115/16 205/114/16 207/117/16

f 207/118/1 223/119/1 224/120/1

v 128357 653.152 -25966.9
f 207/118/1 225/121/1 223/119/1

v 128357 653.152 -28336.1
f 207/118/1 226/122/1 225/121/1

f 206/98/1 226/122/1 207/118/1

f 214/123/1 226/122/1 206/98/1

v 126869 653.152 -28336.1
f 214/123/1 227/124/1 226/122/1

f 215/106/1 227/124/1 214/123/1

v 126750 653.152 -28201.8
f 227/124/1 215/106/1 228/105/1

f 215/125/7 217/126/7 228/127/7

f 217/126/7 215/125/7 216/128/7

f 218/129/17 228/130/17 217/131/17

f 228/130/17 218/129/17 227/132/17

f 218/99/10 226/118/10 227/98/10

f 226/118/10 218/99/10 219/133/10

v 128477 7454.15 -28201.8
f 229/134/18 226/135/18 219/136/18

v 128477 653.152 -28201.8
f 226/135/18 229/134/18 230/137/18

v 128477 7454.15 -26086.3
f 231/138/5 230/139/5 229/140/5

v 128477 653.152 -26086.3
f 230/139/5 231/138/5 232/141/5

f 220/142/16 232/143/16 231/144/16

f 232/143/16 220/142/16 225/145/16

f 222/146/19 225/147/19 220/148/19

f 225/147/19 222/146/19 223/149/19

f 225/121/1 230/150/1 232/151/1

f 230/150/1 225/121/1 226/122/1

f 219/108/9 220/109/9 231/152/9

f 219/108/9 231/152/9 229/153/9

f 212/96/1 214/123/1 206/98/1

f 214/123/1 212/96/1 213/95/1

f 208/154/15 212/155/15 206/156/15

f 212/155/15 208/154/15 211/157/15

g Mesh10 Group12 Group3 Group1 Model

v 118717 7454.15 -23612.6
v 117229 653.152 -23612.6
v 118717 653.152 -23612.6
f 233/90/8 234/91/8 235/92/8

v 117229 7454.15 -23612.6
f 234/91/8 233/90/8 236/93/8

v 117229 7454.15 -25966.9
f 237/94/9 236/91/9 233/92/9

v 117110 7454.15 -25847.5
f 238/95/9 236/91/9 237/94/9

v 117110 7454.15 -23732
f 236/91/9 238/95/9 239/96/9

v 117110 653.152 -23732
f 238/97/7 240/98/7 239/99/7

v 117110 653.152 -25847.5
f 240/98/7 238/97/7 241/100/7

v 117229 653.152 -25966.9
f 238/101/14 242/102/14 241/103/14

f 242/102/14 238/101/14 237/104/14

v 117110 653.152 -26086.3
f 237/101/15 243/102/15 242/103/15

v 117110 7454.15 -26086.3
f 243/102/15 237/101/15 244/104/15

v 117110 7454.15 -28201.8
f 237/94/9 245/105/9 244/106/9

v 117229 7454.15 -28336.1
f 245/105/9 237/94/9 246/107/9

f 237/94/9 233/92/9 246/107/9

v 118717 7454.15 -28336.1
f 246/107/9 233/92/9 247/108/9

v 118717 7454.15 -25966.9
f 247/108/9 233/92/9 248/109/9

v 118837 7454.15 -23732
f 249/110/9 248/109/9 233/92/9

v 118837 7454.15 -25847.5
f 248/109/9 249/110/9 250/111/9

v 118837 653.152 -25847.5
f 249/93/5 251/112/5 250/113/5

v 118837 653.152 -23732
f 251/112/5 249/93/5 252/91/5

f 233/114/16 252/115/16 249/116/16

f 252/115/16 233/114/16 235/117/16

f 235/118/1 251/119/1 252/120/1

v 118717 653.152 -25966.9
f 235/118/1 253/121/1 251/119/1

v 118717 653.152 -28336.1
f 235/118/1 254/122/1 253/121/1

f 234/98/1 254/122/1 235/118/1

f 242/123/1 254/122/1 234/98/1

v 117229 653.152 -28336.1
f 242/123/1 255/124/1 254/122/1

f 243/106/1 255/124/1 242/123/1

v 117110 653.152 -28201.8
f 255/124/1 243/106/1 256/105/1

f 243/125/7 245/126/7 256/127/7

f 245/126/7 243/125/7 244/128/7

f 246/129/17 256/130/17 245/131/17

f 256/130/17 246/129/17 255/132/17

f 246/99/10 254/118/10 255/98/10

f 254/118/10 246/99/10 247/133/10

v 118837 7454.15 -28201.8
f 257/134/18 254/135/18 247/136/18

v 118837 653.152 -28201.8
f 254/135/18 257/134/18 258/137/18

v 118837 7454.15 -26086.3
f 259/138/5 258/139/5 257/140/5

v 118837 653.152 -26086.3
f 258/139/5 259/138/5 260/141/5

f 248/142/16 260/143/16 259/144/16

f 260/143/16 248/142/16 253/145/16

f 250/146/19 253/147/19 248/148/19

f 253/147/19 250/146/19 251/149/19

f 253/121/1 258/150/1 260/151/1

f 258/150/1 253/121/1 254/122/1

f 247/108/9 248/109/9 259/152/9

f 247/108/9 259/152/9 257/153/9

f 240/96/1 242/123/1 234/98/1

f 242/123/1 240/96/1 241/95/1

f 236/154/15 240/155/15 234/156/15

f 240/155/15 236/154/15 239/157/15

g Mesh11 Group13 Group3 Group1 Model

v 109077 7454.15 -23612.6
v 107589 653.152 -23612.6
v 109077 653.152 -23612.6
f 261/90/8 262/91/8 263/92/8

v 107589 7454.15 -23612.6
f 262/91/8 261/90/8 264/93/8

v 107589 7454.15 -25966.9
f 265/94/9 264/91/9 261/92/9

v 107470 7454.15 -25847.5
f 266/95/9 264/91/9 265/94/9

v 107470 7454.15 -23732
f 264/91/9 266/95/9 267/96/9

v 107470 653.152 -23732
f 266/97/7 268/98/7 267/99/7

v 107470 653.152 -25847.5
f 268/98/7 266/97/7 269/100/7

v 107589 653.152 -25966.9
f 266/101/14 270/102/14 269/103/14

f 270/102/14 266/101/14 265/104/14

v 107470 653.152 -26086.3
f 265/101/15 271/102/15 270/103/15

v 107470 7454.15 -26086.3
f 271/102/15 265/101/15 272/104/15

v 107470 7454.15 -28201.8
f 265/94/9 273/105/9 272/106/9

v 107589 7454.15 -28336.1
f 273/105/9 265/94/9 274/107/9

f 265/94/9 261/92/9 274/107/9

v 109077 7454.15 -28336.1
f 274/107/9 261/92/9 275/108/9

v 109077 7454.15 -25966.9
f 275/108/9 261/92/9 276/109/9

v 109197 7454.15 -23732
f 277/110/9 276/109/9 261/92/9

v 109197 7454.15 -25847.5
f 276/109/9 277/110/9 278/111/9

v 109197 653.152 -25847.5
f 277/93/5 279/112/5 278/113/5

v 109197 653.152 -23732
f 279/112/5 277/93/5 280/91/5

f 261/114/16 280/115/16 277/116/16

f 280/115/16 261/114/16 263/117/16

f 263/118/1 279/119/1 280/120/1

v 109077 653.152 -25966.9
f 263/118/1 281/121/1 279/119/1

v 109077 653.152 -28336.1
f 263/118/1 282/122/1 281/121/1

f 262/98/1 282/122/1 263/118/1

f 270/123/1 282/122/1 262/98/1

v 107589 653.152 -28336.1
f 270/123/1 283/124/1 282/122/1

f 271/106/1 283/124/1 270/123/1

v 107470 653.152 -28201.8
f 283/124/1 271/106/1 284/105/1

f 271/125/7 273/126/7 284/127/7

f 273/126/7 271/125/7 272/128/7

f 274/129/17 284/130/17 273/131/17

f 284/130/17 274/129/17 283/132/17

f 274/99/10 282/118/10 283/98/10

f 282/118/10 274/99/10 275/133/10

v 109197 7454.15 -28201.8
f 285/134/18 282/135/18 275/136/18

v 109197 653.152 -28201.8
f 282/135/18 285/134/18 286/137/18

v 109197 7454.15 -26086.3
f 287/138/5 286/139/5 285/140/5

v 109197 653.152 -26086.3
f 286/139/5 287/138/5 288/141/5

f 276/142/16 288/143/16 287/144/16

f 288/143/16 276/142/16 281/145/16

f 278/146/19 281/147/19 276/148/19

f 281/147/19 278/146/19 279/149/19

f 281/121/1 286/150/1 288/151/1

f 286/150/1 281/121/1 282/122/1

f 275/108/9 276/109/9 287/152/9

f 275/108/9 287/152/9 285/153/9

f 268/96/1 270/123/1 262/98/1

f 270/123/1 268/96/1 269/95/1

f 264/154/15 268/155/15 262/156/15

f 268/155/15 264/154/15 267/157/15

g Mesh12 Group14 Group3 Group1 Model

v 99437.2 7454.15 -23612.6
v 97949 653.152 -23612.6
v 99437.2 653.152 -23612.6
f 289/90/8 290/91/8 291/92/8

v 97949 7454.15 -23612.6
f 290/91/8 289/90/8 292/93/8

v 97949 7454.15 -25966.9
f 293/94/9 292/91/9 289/92/9

v 97829.6 7454.15 -25847.5
f 294/95/9 292/91/9 293/94/9

v 97829.6 7454.15 -23732
f 292/91/9 294/95/9 295/96/9

v 97829.6 653.152 -23732
f 294/97/7 296/98/7 295/99/7

v 97829.6 653.152 -25847.5
f 296/98/7 294/97/7 297/100/7

v 97949 653.152 -25966.9
f 294/101/14 298/102/14 297/103/14

f 298/102/14 294/101/14 293/104/14

v 97829.6 653.152 -26086.3
f 293/101/15 299/102/15 298/103/15

v 97829.6 7454.15 -26086.3
f 299/102/15 293/101/15 300/104/15

v 97829.6 7454.15 -28201.8
f 293/94/9 301/105/9 300/106/9

v 97949 7454.15 -28336.1
f 301/105/9 293/94/9 302/107/9

f 293/94/9 289/92/9 302/107/9

v 99437.2 7454.15 -28336.1
f 302/107/9 289/92/9 303/108/9

v 99437.2 7454.15 -25966.9
f 303/108/9 289/92/9 304/109/9

v 99556.6 7454.15 -23732
f 305/110/9 304/109/9 289/92/9

v 99556.6 7454.15 -25847.5
f 304/109/9 305/110/9 306/111/9

v 99556.6 653.152 -25847.5
f 305/93/5 307/112/5 306/113/5

v 99556.6 653.152 -23732
f 307/112/5 305/93/5 308/91/5

f 289/114/16 308/115/16 305/116/16

f 308/115/16 289/114/16 291/117/16

f 291/118/1 307/119/1 308/120/1

v 99437.2 653.152 -25966.9
f 291/118/1 309/121/1 307/119/1

v 99437.2 653.152 -28336.1
f 291/118/1 310/122/1 309/121/1

f 290/98/1 310/122/1 291/118/1

f 298/123/1 310/122/1 290/98/1

v 97949 653.152 -28336.1
f 298/123/1 311/124/1 310/122/1

f 299/106/1 311/124/1 298/123/1

v 97829.6 653.152 -28201.8
f 311/124/1 299/106/1 312/105/1

f 299/125/7 301/126/7 312/127/7

f 301/126/7 299/125/7 300/128/7

f 302/129/17 312/130/17 301/131/17

f 312/130/17 302/129/17 311/132/17

f 302/99/10 310/118/10 311/98/10

f 310/118/10 302/99/10 303/133/10

v 99556.6 7454.15 -28201.8
f 313/134/18 310/135/18 303/136/18

v 99556.6 653.152 -28201.8
f 310/135/18 313/134/18 314/137/18

v 99556.6 7454.15 -26086.3
f 315/138/5 314/139/5 313/140/5

v 99556.6 653.152 -26086.3
f 314/139/5 315/138/5 316/141/5

f 304/142/16 316/143/16 315/144/16

f 316/143/16 304/142/16 309/145/16

f 306/146/19 309/147/19 304/148/19

f 309/147/19 306/146/19 307/149/19

f 309/121/1 314/150/1 316/151/1

f 314/150/1 309/121/1 310/122/1

f 303/108/9 304/109/9 315/152/9

f 303/108/9 315/152/9 313/153/9

f 296/96/1 298/123/1 290/98/1

f 298/123/1 296/96/1 297/95/1

f 292/154/15 296/155/15 290/156/15

f 296/155/15 292/154/15 295/157/15

