# Alias OBJ Model File
# Exported from SketchUp, (c) 2000-2012 Trimble Navigation Limited
# File units = millimeters

mtllib Đường sắt trái.mtl

g Mesh1 Group3 Group2 Group1 Model

usemtl _DimGray_
v 75304.4 159.152 -29189.3
vt -2964.74 253.15
vn 0 -1 -0
v 2.31012e-11 159.152 -22759.3
vt 0 0
v 2.31012e-11 159.152 -29189.3
vt 0 253.15
f 1/1/1 2/2/1 3/3/1

v 75304.4 159.152 -22759.3
vt -2964.74 0
f 2/2/1 1/1/1 4/4/1

v 75304.4 1596.15 -22759.3
vt 2964.74 56.5748
vn 0 0 1
vt 2964.74 0
f 5/5/2 2/2/2 4/6/2

v 2.31012e-11 1596.15 -22759.3
vt 0 56.5748
f 2/2/2 5/5/2 6/7/2

v 762.281 1596.15 -23612.6
vt 30.0111 33.5929
vn 0 1 -0
f 7/8/3 6/2/3 5/6/3

v 2.31012e-11 1596.15 -29189.3
f 6/2/3 7/8/3 8/3/3

v 762.281 1596.15 -28336.1
vt 30.0111 219.557
f 9/9/3 8/3/3 7/8/3

v 75304.4 1596.15 -29189.3
vt 2964.74 253.15
f 8/3/3 9/9/3 10/10/3

v 75304.4 1596.15 -28336.1
vt 2964.74 219.557
f 10/10/3 9/9/3 11/11/3

v 762.281 653.152 -28336.1
vt 30.0111 19.4488
vt 30.0111 56.5748
f 12/12/2 11/5/2 9/13/2

v 75304.4 653.152 -28336.1
vt 2964.74 19.4488
f 11/5/2 12/12/2 13/14/2

v 75304.4 653.152 -23612.6
vt 2964.74 33.5929
f 12/9/3 14/15/3 13/11/3

v 762.281 653.152 -23612.6
f 14/15/3 12/9/3 15/8/3

vt 219.557 19.4488
vn 1 0 -0
vt 33.5929 56.5748
vt 33.5929 19.4488
f 12/16/4 7/17/4 15/18/4

vt 219.557 56.5748
f 7/17/4 12/16/4 9/19/4

vt -30.0111 56.5748
vn 0 0 -1
vt -2964.74 19.4488
vt -30.0111 19.4488
f 7/20/5 14/21/5 15/22/5

v 75304.4 1596.15 -23612.6
vt -2964.74 56.5748
f 14/21/5 7/20/5 16/23/5

f 7/8/3 5/6/3 16/15/3

f 1/4/5 8/7/5 10/23/5

f 8/7/5 1/4/5 3/2/5

vn -1 0 -0
vt -253.15 56.5748
vt -253.15 0
f 2/2/6 8/24/6 3/25/6

f 8/24/6 2/2/6 6/7/6

g Mesh2 Group4 Group2 Group1 Model

v 22317.2 7454.15 -23612.6
vt 63.29 267.756
v 20829 653.152 -23612.6
vt 4.70212 0
v 22317.2 653.152 -23612.6
vt 63.29 0
f 17/26/2 18/27/2 19/28/2

v 20829 7454.15 -23612.6
vt 4.70212 267.756
f 18/27/2 17/26/2 20/29/2

v 20829 7454.15 -25966.9
vt 4.70212 92.6894
f 21/30/3 20/27/3 17/28/3

v 20709.6 7454.15 -25847.5
vt 0 87.9873
f 22/31/3 20/27/3 21/30/3

v 20709.6 7454.15 -23732
vt 0 4.70212
f 20/27/3 22/31/3 23/32/3

vt -87.9873 267.756
v 20709.6 653.152 -23732
vt -4.70212 0
vt -4.70212 267.756
f 22/33/6 24/34/6 23/35/6

v 20709.6 653.152 -25847.5
vt -87.9873 0
f 24/34/6 22/33/6 25/36/6

vt -62.2164 267.756
vn -0.707107 0 -0.707107
v 20829 653.152 -25966.9
vt -68.8662 0
vt -62.2164 0
f 22/37/7 26/38/7 25/39/7

vt -68.8662 267.756
f 26/38/7 22/37/7 21/40/7

vn -0.707107 0 0.707107
v 20709.6 653.152 -26086.3
f 21/37/8 27/38/8 26/39/8

v 20709.6 7454.15 -26086.3
f 27/38/8 21/37/8 28/40/8

v 20709.6 7454.15 -28201.8
vt 0 180.677
vt 0 97.3915
f 21/30/3 29/41/3 28/42/3

v 20829 7454.15 -28336.1
vt 4.70212 185.964
f 29/41/3 21/30/3 30/43/3

f 21/30/3 17/28/3 30/43/3

v 22317.2 7454.15 -28336.1
vt 63.29 185.964
f 30/43/3 17/28/3 31/44/3

v 22317.2 7454.15 -25966.9
vt 63.29 92.6894
f 31/44/3 17/28/3 32/45/3

v 22436.6 7454.15 -23732
vt 67.9921 4.70212
f 33/46/3 32/45/3 17/28/3

v 22436.6 7454.15 -25847.5
vt 67.9921 87.9873
f 32/45/3 33/46/3 34/47/3

v 22436.6 653.152 -25847.5
vt 87.9873 0
vt 87.9873 267.756
f 33/29/4 35/48/4 34/49/4

v 22436.6 653.152 -23732
f 35/48/4 33/29/4 36/27/4

vt 44.7528 267.756
vn 0.707107 0 0.707107
vt 51.4026 0
vt 51.4026 267.756
f 17/50/9 36/51/9 33/52/9

vt 44.7528 0
f 36/51/9 17/50/9 19/53/9

vt -63.29 0
vt -67.9921 87.9873
vt -67.9921 4.70212
f 19/54/1 35/55/1 36/56/1

v 22317.2 653.152 -25966.9
vt -63.29 92.6894
f 19/54/1 37/57/1 35/55/1

v 22317.2 653.152 -28336.1
vt -63.29 185.964
f 19/54/1 38/58/1 37/57/1

f 18/34/1 38/58/1 19/54/1

vt -4.70212 92.6894
f 26/59/1 38/58/1 18/34/1

v 20829 653.152 -28336.1
vt -4.70212 185.964
f 26/59/1 39/60/1 38/58/1

f 27/42/1 39/60/1 26/59/1

v 20709.6 653.152 -28201.8
f 39/60/1 27/42/1 40/41/1

vt -97.3915 0
vt -180.677 267.756
vt -180.677 0
f 27/61/6 29/62/6 40/63/6

vt -97.3915 267.756
f 29/62/6 27/61/6 28/64/6

vt -142.084 267.756
vn -0.747238 0 -0.664556
vt -135.009 0
vt -135.009 267.756
f 30/65/10 40/66/10 29/67/10

vt -142.084 0
f 40/66/10 30/65/10 39/68/10

f 30/35/5 38/54/5 39/34/5

vt -63.29 267.756
f 38/54/5 30/35/5 31/69/5

v 22436.6 7454.15 -28201.8
vt 89.8239 267.756
vn 0.747238 0 -0.664556
vt 96.8995 0
vt 96.8995 267.756
f 41/70/11 38/71/11 31/72/11

v 22436.6 653.152 -28201.8
vt 89.8239 0
f 38/71/11 41/70/11 42/73/11

v 22436.6 7454.15 -26086.3
vt 97.3915 267.756
vt 180.677 0
vt 180.677 267.756
f 43/74/4 42/75/4 41/76/4

v 22436.6 653.152 -26086.3
vt 97.3915 0
f 42/75/4 43/74/4 44/77/4

vt 110.294 267.756
vt 116.944 0
vt 116.944 267.756
f 32/78/9 44/79/9 43/80/9

vt 110.294 0
f 44/79/9 32/78/9 37/81/9

vt 14.1387 267.756
vn 0.707107 0 -0.707107
vt 20.7885 0
vt 20.7885 267.756
f 34/82/12 37/83/12 32/84/12

vt 14.1387 0
f 37/83/12 34/82/12 35/85/12

vt -67.9921 180.677
vt -67.9921 97.3915
f 37/57/1 42/86/1 44/87/1

f 42/86/1 37/57/1 38/58/1

vt 67.9921 97.3915
f 31/44/3 32/45/3 43/88/3

vt 67.9921 180.677
f 31/44/3 43/88/3 41/89/3

f 24/32/1 26/59/1 18/34/1

f 26/59/1 24/32/1 25/31/1

vt 3.3249 267.756
vt -3.3249 0
vt 3.3249 0
f 20/90/8 24/91/8 18/92/8

vt -3.3249 267.756
f 24/91/8 20/90/8 23/93/8

g Mesh3 Group5 Group2 Group1 Model

v 3037.16 7454.15 -23612.6
v 1549.02 653.152 -23612.6
v 3037.16 653.152 -23612.6
f 45/26/2 46/27/2 47/28/2

v 1549.02 7454.15 -23612.6
f 46/27/2 45/26/2 48/29/2

v 1549.02 7454.15 -25966.9
f 49/30/3 48/27/3 45/28/3

v 1429.59 7454.15 -25847.5
f 50/31/3 48/27/3 49/30/3

v 1429.59 7454.15 -23732
f 48/27/3 50/31/3 51/32/3

v 1429.59 653.152 -23732
f 50/33/6 52/34/6 51/35/6

v 1429.59 653.152 -25847.5
f 52/34/6 50/33/6 53/36/6

v 1549.02 653.152 -25966.9
f 50/37/7 54/38/7 53/39/7

f 54/38/7 50/37/7 49/40/7

v 1429.59 653.152 -26086.3
f 49/37/8 55/38/8 54/39/8

v 1429.59 7454.15 -26086.3
f 55/38/8 49/37/8 56/40/8

v 1429.59 7454.15 -28201.8
f 49/30/3 57/41/3 56/42/3

v 1549.02 7454.15 -28336.1
f 57/41/3 49/30/3 58/43/3

f 49/30/3 45/28/3 58/43/3

v 3037.16 7454.15 -28336.1
f 58/43/3 45/28/3 59/44/3

v 3037.16 7454.15 -25966.9
f 59/44/3 45/28/3 60/45/3

v 3156.59 7454.15 -23732
f 61/46/3 60/45/3 45/28/3

v 3156.59 7454.15 -25847.5
f 60/45/3 61/46/3 62/47/3

v 3156.59 653.152 -25847.5
f 61/29/4 63/48/4 62/49/4

v 3156.59 653.152 -23732
f 63/48/4 61/29/4 64/27/4

f 45/50/9 64/51/9 61/52/9

f 64/51/9 45/50/9 47/53/9

f 47/54/1 63/55/1 64/56/1

v 3037.16 653.152 -25966.9
f 47/54/1 65/57/1 63/55/1

v 3037.16 653.152 -28336.1
f 47/54/1 66/58/1 65/57/1

f 46/34/1 66/58/1 47/54/1

f 54/59/1 66/58/1 46/34/1

v 1549.02 653.152 -28336.1
f 54/59/1 67/60/1 66/58/1

f 55/42/1 67/60/1 54/59/1

v 1429.59 653.152 -28201.8
f 67/60/1 55/42/1 68/41/1

f 55/61/6 57/62/6 68/63/6

f 57/62/6 55/61/6 56/64/6

f 58/65/10 68/66/10 57/67/10

f 68/66/10 58/65/10 67/68/10

f 58/35/5 66/54/5 67/34/5

f 66/54/5 58/35/5 59/69/5

v 3156.59 7454.15 -28201.8
f 69/70/11 66/71/11 59/72/11

v 3156.59 653.152 -28201.8
f 66/71/11 69/70/11 70/73/11

v 3156.59 7454.15 -26086.3
f 71/74/4 70/75/4 69/76/4

v 3156.59 653.152 -26086.3
f 70/75/4 71/74/4 72/77/4

f 60/78/9 72/79/9 71/80/9

f 72/79/9 60/78/9 65/81/9

f 62/82/12 65/83/12 60/84/12

f 65/83/12 62/82/12 63/85/12

f 65/57/1 70/86/1 72/87/1

f 70/86/1 65/57/1 66/58/1

f 59/44/3 60/45/3 71/88/3

f 59/44/3 71/88/3 69/89/3

f 52/32/1 54/59/1 46/34/1

f 54/59/1 52/32/1 53/31/1

f 48/90/8 52/91/8 46/92/8

f 52/91/8 48/90/8 51/93/8

g Mesh4 Group6 Group2 Group1 Model

v 31957.2 7454.15 -23612.6
v 30469 653.152 -23612.6
v 31957.2 653.152 -23612.6
f 73/26/2 74/27/2 75/28/2

v 30469 7454.15 -23612.6
f 74/27/2 73/26/2 76/29/2

v 30469 7454.15 -25966.9
f 77/30/3 76/27/3 73/28/3

v 30349.6 7454.15 -25847.5
f 78/31/3 76/27/3 77/30/3

v 30349.6 7454.15 -23732
f 76/27/3 78/31/3 79/32/3

v 30349.6 653.152 -23732
f 78/33/6 80/34/6 79/35/6

v 30349.6 653.152 -25847.5
f 80/34/6 78/33/6 81/36/6

v 30469 653.152 -25966.9
f 78/37/7 82/38/7 81/39/7

f 82/38/7 78/37/7 77/40/7

v 30349.6 653.152 -26086.3
f 77/37/8 83/38/8 82/39/8

v 30349.6 7454.15 -26086.3
f 83/38/8 77/37/8 84/40/8

v 30349.6 7454.15 -28201.8
f 77/30/3 85/41/3 84/42/3

v 30469 7454.15 -28336.1
f 85/41/3 77/30/3 86/43/3

f 77/30/3 73/28/3 86/43/3

v 31957.2 7454.15 -28336.1
f 86/43/3 73/28/3 87/44/3

v 31957.2 7454.15 -25966.9
f 87/44/3 73/28/3 88/45/3

v 32076.6 7454.15 -23732
f 89/46/3 88/45/3 73/28/3

v 32076.6 7454.15 -25847.5
f 88/45/3 89/46/3 90/47/3

v 32076.6 653.152 -25847.5
f 89/29/4 91/48/4 90/49/4

v 32076.6 653.152 -23732
f 91/48/4 89/29/4 92/27/4

f 73/50/9 92/51/9 89/52/9

f 92/51/9 73/50/9 75/53/9

f 75/54/1 91/55/1 92/56/1

v 31957.2 653.152 -25966.9
f 75/54/1 93/57/1 91/55/1

v 31957.2 653.152 -28336.1
f 75/54/1 94/58/1 93/57/1

f 74/34/1 94/58/1 75/54/1

f 82/59/1 94/58/1 74/34/1

v 30469 653.152 -28336.1
f 82/59/1 95/60/1 94/58/1

f 83/42/1 95/60/1 82/59/1

v 30349.6 653.152 -28201.8
f 95/60/1 83/42/1 96/41/1

f 83/61/6 85/62/6 96/63/6

f 85/62/6 83/61/6 84/64/6

f 86/65/10 96/66/10 85/67/10

f 96/66/10 86/65/10 95/68/10

f 86/35/5 94/54/5 95/34/5

f 94/54/5 86/35/5 87/69/5

v 32076.6 7454.15 -28201.8
f 97/70/11 94/71/11 87/72/11

v 32076.6 653.152 -28201.8
f 94/71/11 97/70/11 98/73/11

v 32076.6 7454.15 -26086.3
f 99/74/4 98/75/4 97/76/4

v 32076.6 653.152 -26086.3
f 98/75/4 99/74/4 100/77/4

f 88/78/9 100/79/9 99/80/9

f 100/79/9 88/78/9 93/81/9

f 90/82/12 93/83/12 88/84/12

f 93/83/12 90/82/12 91/85/12

f 93/57/1 98/86/1 100/87/1

f 98/86/1 93/57/1 94/58/1

f 87/44/3 88/45/3 99/88/3

f 87/44/3 99/88/3 97/89/3

f 80/32/1 82/59/1 74/34/1

f 82/59/1 80/32/1 81/31/1

f 76/90/8 80/91/8 74/92/8

f 80/91/8 76/90/8 79/93/8

g Mesh5 Group7 Group2 Group1 Model

v 12677.2 7454.15 -23612.6
v 11189 653.152 -23612.6
v 12677.2 653.152 -23612.6
f 101/26/2 102/27/2 103/28/2

v 11189 7454.15 -23612.6
f 102/27/2 101/26/2 104/29/2

v 11189 7454.15 -25966.9
f 105/30/3 104/27/3 101/28/3

v 11069.6 7454.15 -25847.5
f 106/31/3 104/27/3 105/30/3

v 11069.6 7454.15 -23732
f 104/27/3 106/31/3 107/32/3

v 11069.6 653.152 -23732
f 106/33/6 108/34/6 107/35/6

v 11069.6 653.152 -25847.5
f 108/34/6 106/33/6 109/36/6

v 11189 653.152 -25966.9
f 106/37/7 110/38/7 109/39/7

f 110/38/7 106/37/7 105/40/7

v 11069.6 653.152 -26086.3
f 105/37/8 111/38/8 110/39/8

v 11069.6 7454.15 -26086.3
f 111/38/8 105/37/8 112/40/8

v 11069.6 7454.15 -28201.8
f 105/30/3 113/41/3 112/42/3

v 11189 7454.15 -28336.1
f 113/41/3 105/30/3 114/43/3

f 105/30/3 101/28/3 114/43/3

v 12677.2 7454.15 -28336.1
f 114/43/3 101/28/3 115/44/3

v 12677.2 7454.15 -25966.9
f 115/44/3 101/28/3 116/45/3

v 12796.6 7454.15 -23732
f 117/46/3 116/45/3 101/28/3

v 12796.6 7454.15 -25847.5
f 116/45/3 117/46/3 118/47/3

v 12796.6 653.152 -25847.5
f 117/29/4 119/48/4 118/49/4

v 12796.6 653.152 -23732
f 119/48/4 117/29/4 120/27/4

f 101/50/9 120/51/9 117/52/9

f 120/51/9 101/50/9 103/53/9

f 103/54/1 119/55/1 120/56/1

v 12677.2 653.152 -25966.9
f 103/54/1 121/57/1 119/55/1

v 12677.2 653.152 -28336.1
f 103/54/1 122/58/1 121/57/1

f 102/34/1 122/58/1 103/54/1

f 110/59/1 122/58/1 102/34/1

v 11189 653.152 -28336.1
f 110/59/1 123/60/1 122/58/1

f 111/42/1 123/60/1 110/59/1

v 11069.6 653.152 -28201.8
f 123/60/1 111/42/1 124/41/1

f 111/61/6 113/62/6 124/63/6

f 113/62/6 111/61/6 112/64/6

f 114/65/10 124/66/10 113/67/10

f 124/66/10 114/65/10 123/68/10

f 114/35/5 122/54/5 123/34/5

f 122/54/5 114/35/5 115/69/5

v 12796.6 7454.15 -28201.8
f 125/70/11 122/71/11 115/72/11

v 12796.6 653.152 -28201.8
f 122/71/11 125/70/11 126/73/11

v 12796.6 7454.15 -26086.3
f 127/74/4 126/75/4 125/76/4

v 12796.6 653.152 -26086.3
f 126/75/4 127/74/4 128/77/4

f 116/78/9 128/79/9 127/80/9

f 128/79/9 116/78/9 121/81/9

f 118/82/12 121/83/12 116/84/12

f 121/83/12 118/82/12 119/85/12

f 121/57/1 126/86/1 128/87/1

f 126/86/1 121/57/1 122/58/1

f 115/44/3 116/45/3 127/88/3

f 115/44/3 127/88/3 125/89/3

f 108/32/1 110/59/1 102/34/1

f 110/59/1 108/32/1 109/31/1

f 104/90/8 108/91/8 102/92/8

f 108/91/8 104/90/8 107/93/8

g Mesh6 Group8 Group2 Group1 Model

v 51237.2 7454.15 -23612.6
v 49749 653.152 -23612.6
v 51237.2 653.152 -23612.6
f 129/26/2 130/27/2 131/28/2

v 49749 7454.15 -23612.6
f 130/27/2 129/26/2 132/29/2

v 49749 7454.15 -25966.9
f 133/30/3 132/27/3 129/28/3

v 49629.6 7454.15 -25847.5
f 134/31/3 132/27/3 133/30/3

v 49629.6 7454.15 -23732
f 132/27/3 134/31/3 135/32/3

v 49629.6 653.152 -23732
f 134/33/6 136/34/6 135/35/6

v 49629.6 653.152 -25847.5
f 136/34/6 134/33/6 137/36/6

v 49749 653.152 -25966.9
f 134/37/7 138/38/7 137/39/7

f 138/38/7 134/37/7 133/40/7

v 49629.6 653.152 -26086.3
f 133/37/8 139/38/8 138/39/8

v 49629.6 7454.15 -26086.3
f 139/38/8 133/37/8 140/40/8

v 49629.6 7454.15 -28201.8
f 133/30/3 141/41/3 140/42/3

v 49749 7454.15 -28336.1
f 141/41/3 133/30/3 142/43/3

f 133/30/3 129/28/3 142/43/3

v 51237.2 7454.15 -28336.1
f 142/43/3 129/28/3 143/44/3

v 51237.2 7454.15 -25966.9
f 143/44/3 129/28/3 144/45/3

v 51356.6 7454.15 -23732
f 145/46/3 144/45/3 129/28/3

v 51356.6 7454.15 -25847.5
f 144/45/3 145/46/3 146/47/3

v 51356.6 653.152 -25847.5
f 145/29/4 147/48/4 146/49/4

v 51356.6 653.152 -23732
f 147/48/4 145/29/4 148/27/4

f 129/50/9 148/51/9 145/52/9

f 148/51/9 129/50/9 131/53/9

f 131/54/1 147/55/1 148/56/1

v 51237.2 653.152 -25966.9
f 131/54/1 149/57/1 147/55/1

v 51237.2 653.152 -28336.1
f 131/54/1 150/58/1 149/57/1

f 130/34/1 150/58/1 131/54/1

f 138/59/1 150/58/1 130/34/1

v 49749 653.152 -28336.1
f 138/59/1 151/60/1 150/58/1

f 139/42/1 151/60/1 138/59/1

v 49629.6 653.152 -28201.8
f 151/60/1 139/42/1 152/41/1

f 139/61/6 141/62/6 152/63/6

f 141/62/6 139/61/6 140/64/6

f 142/65/10 152/66/10 141/67/10

f 152/66/10 142/65/10 151/68/10

f 142/35/5 150/54/5 151/34/5

f 150/54/5 142/35/5 143/69/5

v 51356.6 7454.15 -28201.8
f 153/70/11 150/71/11 143/72/11

v 51356.6 653.152 -28201.8
f 150/71/11 153/70/11 154/73/11

v 51356.6 7454.15 -26086.3
f 155/74/4 154/75/4 153/76/4

v 51356.6 653.152 -26086.3
f 154/75/4 155/74/4 156/77/4

f 144/78/9 156/79/9 155/80/9

f 156/79/9 144/78/9 149/81/9

f 146/82/12 149/83/12 144/84/12

f 149/83/12 146/82/12 147/85/12

f 149/57/1 154/86/1 156/87/1

f 154/86/1 149/57/1 150/58/1

f 143/44/3 144/45/3 155/88/3

f 143/44/3 155/88/3 153/89/3

f 136/32/1 138/59/1 130/34/1

f 138/59/1 136/32/1 137/31/1

f 132/90/8 136/91/8 130/92/8

f 136/91/8 132/90/8 135/93/8

g Mesh7 Group9 Group2 Group1 Model

v 41597.2 7454.15 -23612.6
v 40109 653.152 -23612.6
v 41597.2 653.152 -23612.6
f 157/26/2 158/27/2 159/28/2

v 40109 7454.15 -23612.6
f 158/27/2 157/26/2 160/29/2

v 40109 7454.15 -25966.9
f 161/30/3 160/27/3 157/28/3

v 39989.6 7454.15 -25847.5
f 162/31/3 160/27/3 161/30/3

v 39989.6 7454.15 -23732
f 160/27/3 162/31/3 163/32/3

v 39989.6 653.152 -23732
f 162/33/6 164/34/6 163/35/6

v 39989.6 653.152 -25847.5
f 164/34/6 162/33/6 165/36/6

v 40109 653.152 -25966.9
f 162/37/7 166/38/7 165/39/7

f 166/38/7 162/37/7 161/40/7

v 39989.6 653.152 -26086.3
f 161/37/8 167/38/8 166/39/8

v 39989.6 7454.15 -26086.3
f 167/38/8 161/37/8 168/40/8

v 39989.6 7454.15 -28201.8
f 161/30/3 169/41/3 168/42/3

v 40109 7454.15 -28336.1
f 169/41/3 161/30/3 170/43/3

f 161/30/3 157/28/3 170/43/3

v 41597.2 7454.15 -28336.1
f 170/43/3 157/28/3 171/44/3

v 41597.2 7454.15 -25966.9
f 171/44/3 157/28/3 172/45/3

v 41716.6 7454.15 -23732
f 173/46/3 172/45/3 157/28/3

v 41716.6 7454.15 -25847.5
f 172/45/3 173/46/3 174/47/3

v 41716.6 653.152 -25847.5
f 173/29/4 175/48/4 174/49/4

v 41716.6 653.152 -23732
f 175/48/4 173/29/4 176/27/4

f 157/50/9 176/51/9 173/52/9

f 176/51/9 157/50/9 159/53/9

f 159/54/1 175/55/1 176/56/1

v 41597.2 653.152 -25966.9
f 159/54/1 177/57/1 175/55/1

v 41597.2 653.152 -28336.1
f 159/54/1 178/58/1 177/57/1

f 158/34/1 178/58/1 159/54/1

f 166/59/1 178/58/1 158/34/1

v 40109 653.152 -28336.1
f 166/59/1 179/60/1 178/58/1

f 167/42/1 179/60/1 166/59/1

v 39989.6 653.152 -28201.8
f 179/60/1 167/42/1 180/41/1

f 167/61/6 169/62/6 180/63/6

f 169/62/6 167/61/6 168/64/6

f 170/65/10 180/66/10 169/67/10

f 180/66/10 170/65/10 179/68/10

f 170/35/5 178/54/5 179/34/5

f 178/54/5 170/35/5 171/69/5

v 41716.6 7454.15 -28201.8
f 181/70/11 178/71/11 171/72/11

v 41716.6 653.152 -28201.8
f 178/71/11 181/70/11 182/73/11

v 41716.6 7454.15 -26086.3
f 183/74/4 182/75/4 181/76/4

v 41716.6 653.152 -26086.3
f 182/75/4 183/74/4 184/77/4

f 172/78/9 184/79/9 183/80/9

f 184/79/9 172/78/9 177/81/9

f 174/82/12 177/83/12 172/84/12

f 177/83/12 174/82/12 175/85/12

f 177/57/1 182/86/1 184/87/1

f 182/86/1 177/57/1 178/58/1

f 171/44/3 172/45/3 183/88/3

f 171/44/3 183/88/3 181/89/3

f 164/32/1 166/59/1 158/34/1

f 166/59/1 164/32/1 165/31/1

f 160/90/8 164/91/8 158/92/8

f 164/91/8 160/90/8 163/93/8

g Mesh8 Group10 Group2 Group1 Model

v 60877.2 7454.15 -23612.6
v 59389 653.152 -23612.6
v 60877.2 653.152 -23612.6
f 185/26/2 186/27/2 187/28/2

v 59389 7454.15 -23612.6
f 186/27/2 185/26/2 188/29/2

v 59389 7454.15 -25966.9
f 189/30/3 188/27/3 185/28/3

v 59269.6 7454.15 -25847.5
f 190/31/3 188/27/3 189/30/3

v 59269.6 7454.15 -23732
f 188/27/3 190/31/3 191/32/3

v 59269.6 653.152 -23732
f 190/33/6 192/34/6 191/35/6

v 59269.6 653.152 -25847.5
f 192/34/6 190/33/6 193/36/6

v 59389 653.152 -25966.9
f 190/37/7 194/38/7 193/39/7

f 194/38/7 190/37/7 189/40/7

v 59269.6 653.152 -26086.3
f 189/37/8 195/38/8 194/39/8

v 59269.6 7454.15 -26086.3
f 195/38/8 189/37/8 196/40/8

v 59269.6 7454.15 -28201.8
f 189/30/3 197/41/3 196/42/3

v 59389 7454.15 -28336.1
f 197/41/3 189/30/3 198/43/3

f 189/30/3 185/28/3 198/43/3

v 60877.2 7454.15 -28336.1
f 198/43/3 185/28/3 199/44/3

v 60877.2 7454.15 -25966.9
f 199/44/3 185/28/3 200/45/3

v 60996.6 7454.15 -23732
f 201/46/3 200/45/3 185/28/3

v 60996.6 7454.15 -25847.5
f 200/45/3 201/46/3 202/47/3

v 60996.6 653.152 -25847.5
f 201/29/4 203/48/4 202/49/4

v 60996.6 653.152 -23732
f 203/48/4 201/29/4 204/27/4

f 185/50/9 204/51/9 201/52/9

f 204/51/9 185/50/9 187/53/9

f 187/54/1 203/55/1 204/56/1

v 60877.2 653.152 -25966.9
f 187/54/1 205/57/1 203/55/1

v 60877.2 653.152 -28336.1
f 187/54/1 206/58/1 205/57/1

f 186/34/1 206/58/1 187/54/1

f 194/59/1 206/58/1 186/34/1

v 59389 653.152 -28336.1
f 194/59/1 207/60/1 206/58/1

f 195/42/1 207/60/1 194/59/1

v 59269.6 653.152 -28201.8
f 207/60/1 195/42/1 208/41/1

f 195/61/6 197/62/6 208/63/6

f 197/62/6 195/61/6 196/64/6

f 198/65/10 208/66/10 197/67/10

f 208/66/10 198/65/10 207/68/10

f 198/35/5 206/54/5 207/34/5

f 206/54/5 198/35/5 199/69/5

v 60996.6 7454.15 -28201.8
f 209/70/11 206/71/11 199/72/11

v 60996.6 653.152 -28201.8
f 206/71/11 209/70/11 210/73/11

v 60996.6 7454.15 -26086.3
f 211/74/4 210/75/4 209/76/4

v 60996.6 653.152 -26086.3
f 210/75/4 211/74/4 212/77/4

f 200/78/9 212/79/9 211/80/9

f 212/79/9 200/78/9 205/81/9

f 202/82/12 205/83/12 200/84/12

f 205/83/12 202/82/12 203/85/12

f 205/57/1 210/86/1 212/87/1

f 210/86/1 205/57/1 206/58/1

f 199/44/3 200/45/3 211/88/3

f 199/44/3 211/88/3 209/89/3

f 192/32/1 194/59/1 186/34/1

f 194/59/1 192/32/1 193/31/1

f 188/90/8 192/91/8 186/92/8

f 192/91/8 188/90/8 191/93/8

g Mesh9 Group11 Group2 Group1 Model

v 70517.2 7454.15 -23612.6
v 69029 653.152 -23612.6
v 70517.2 653.152 -23612.6
f 213/26/2 214/27/2 215/28/2

v 69029 7454.15 -23612.6
f 214/27/2 213/26/2 216/29/2

v 69029 7454.15 -25966.9
f 217/30/3 216/27/3 213/28/3

v 68909.6 7454.15 -25847.5
f 218/31/3 216/27/3 217/30/3

v 68909.6 7454.15 -23732
f 216/27/3 218/31/3 219/32/3

v 68909.6 653.152 -23732
f 218/33/6 220/34/6 219/35/6

v 68909.6 653.152 -25847.5
f 220/34/6 218/33/6 221/36/6

v 69029 653.152 -25966.9
f 218/37/7 222/38/7 221/39/7

f 222/38/7 218/37/7 217/40/7

v 68909.6 653.152 -26086.3
f 217/37/8 223/38/8 222/39/8

v 68909.6 7454.15 -26086.3
f 223/38/8 217/37/8 224/40/8

v 68909.6 7454.15 -28201.8
f 217/30/3 225/41/3 224/42/3

v 69029 7454.15 -28336.1
f 225/41/3 217/30/3 226/43/3

f 217/30/3 213/28/3 226/43/3

v 70517.2 7454.15 -28336.1
f 226/43/3 213/28/3 227/44/3

v 70517.2 7454.15 -25966.9
f 227/44/3 213/28/3 228/45/3

v 70636.6 7454.15 -23732
f 229/46/3 228/45/3 213/28/3

v 70636.6 7454.15 -25847.5
f 228/45/3 229/46/3 230/47/3

v 70636.6 653.152 -25847.5
f 229/29/4 231/48/4 230/49/4

v 70636.6 653.152 -23732
f 231/48/4 229/29/4 232/27/4

f 213/50/9 232/51/9 229/52/9

f 232/51/9 213/50/9 215/53/9

f 215/54/1 231/55/1 232/56/1

v 70517.2 653.152 -25966.9
f 215/54/1 233/57/1 231/55/1

v 70517.2 653.152 -28336.1
f 215/54/1 234/58/1 233/57/1

f 214/34/1 234/58/1 215/54/1

f 222/59/1 234/58/1 214/34/1

v 69029 653.152 -28336.1
f 222/59/1 235/60/1 234/58/1

f 223/42/1 235/60/1 222/59/1

v 68909.6 653.152 -28201.8
f 235/60/1 223/42/1 236/41/1

f 223/61/6 225/62/6 236/63/6

f 225/62/6 223/61/6 224/64/6

f 226/65/10 236/66/10 225/67/10

f 236/66/10 226/65/10 235/68/10

f 226/35/5 234/54/5 235/34/5

f 234/54/5 226/35/5 227/69/5

v 70636.6 7454.15 -28201.8
f 237/70/11 234/71/11 227/72/11

v 70636.6 653.152 -28201.8
f 234/71/11 237/70/11 238/73/11

v 70636.6 7454.15 -26086.3
f 239/74/4 238/75/4 237/76/4

v 70636.6 653.152 -26086.3
f 238/75/4 239/74/4 240/77/4

f 228/78/9 240/79/9 239/80/9

f 240/79/9 228/78/9 233/81/9

f 230/82/12 233/83/12 228/84/12

f 233/83/12 230/82/12 231/85/12

f 233/57/1 238/86/1 240/87/1

f 238/86/1 233/57/1 234/58/1

f 227/44/3 228/45/3 239/88/3

f 227/44/3 239/88/3 237/89/3

f 220/32/1 222/59/1 214/34/1

f 222/59/1 220/32/1 221/31/1

f 216/90/8 220/91/8 214/92/8

f 220/91/8 216/90/8 219/93/8

g Mesh10 Group12 Group1 Model

v 75304.4 7454.15 -28336.1
vt -2964.74 219.557
v 4.0427e-11 7454.15 -23612.6
vt 0 33.5929
v 4.0427e-11 7454.15 -28336.1
vt 0 219.557
f 241/94/1 242/95/1 243/96/1

v 75304.4 7454.15 -23612.6
vt -2964.74 33.5929
f 242/95/1 241/94/1 244/97/1

v 75304.4 8162.15 -23252.2
vt 2964.74 16.0383
vn -6.6703e-21 -0.453648 0.891181
vt -2.51436e-19 -15.2394
vt 2964.74 -15.2394
f 245/98/13 242/99/13 244/100/13

v 2.31012e-11 8162.15 -23252.2
vt -6.82121e-13 16.0383
f 242/99/13 245/98/13 246/101/13

v 75304.4 8574.15 -23607
vt 2964.74 55.1891
vn 0 0.652525 0.757767
vt -6.82121e-13 33.7835
vt 2964.74 33.7835
f 247/102/14 246/103/14 245/104/14

v 2.31012e-11 8574.15 -23607
vt -6.82121e-13 55.1891
f 246/103/14 247/102/14 248/105/14

vt 2964.74 -14.8206
vn 0 -0.929948 0.367691
v 2.31012e-11 8872.15 -22853.3
vt -6.82121e-13 17.0874
vt -6.82121e-13 -14.8206
f 247/106/15 249/107/15 248/108/15

v 75304.4 8872.15 -22853.3
vt 2964.74 17.0874
f 249/107/15 247/106/15 250/109/15

vt 33.3715 44.0945
v 75304.4 11785.2 -22853.3
vt 3.69875 170.512
vt 3.69875 55.8268
f 247/110/4 251/111/4 250/112/4

v 75304.4 11785.2 -29404.6
vt 261.624 170.512
f 251/111/4 247/110/4 252/113/4

v 75304.4 8574.15 -28320.5
vt 218.942 44.0945
f 252/113/4 247/110/4 253/114/4

v 75304.4 8162.15 -28761.2
vt 236.293 27.874
f 247/110/4 254/115/4 253/114/4

vt 19.4038 27.874
f 254/115/4 247/110/4 245/116/4

v 2.31012e-11 8162.15 -28761.2
vt 6.82121e-13 -153.579
vn 0 0.730508 -0.682904
vt -2964.74 -129.827
vt -2964.74 -153.579
f 255/117/16 253/118/16 254/119/16

v 2.31012e-11 8574.15 -28320.5
vt 6.82121e-13 -129.827
f 253/118/16 255/117/16 256/120/16

vt -219.557 2.94547e-29
vn -1 -1.24184e-14 -1.08029e-17
vt -218.942 44.0945
vt -236.293 27.874
f 243/121/17 256/122/17 255/123/17

vt -33.5929 4.50667e-30
f 256/122/17 243/121/17 242/124/17

v 2.31012e-11 11785.2 -29404.6
vt -261.624 170.512
f 242/124/17 257/125/17 256/122/17

vt -33.3715 44.0945
f 248/126/17 257/125/17 242/124/17

vt -3.69875 55.8268
f 249/127/17 257/125/17 248/126/17

v 2.31012e-11 11785.2 -22853.3
vt -3.69875 170.512
f 257/125/17 249/127/17 258/128/17

vt -6.82121e-13 55.8268
vt 2964.74 170.512
vt -6.82121e-13 170.512
f 249/129/2 251/130/2 258/131/2

vt 2964.74 55.8268
f 251/130/2 249/129/2 250/132/2

vt 2964.74 3.69875
vt -6.82121e-13 261.624
vt -6.82121e-13 3.69875
f 251/133/3 257/134/3 258/135/3

vt 2964.74 261.624
f 257/134/3 251/133/3 252/136/3

v 75304.4 8872.15 -29404.6
vt -2964.74 55.8268
vt 6.82121e-13 170.512
vt -2964.74 170.512
f 259/137/5 257/138/5 252/139/5

v 2.31012e-11 8872.15 -29404.6
vt 6.82121e-13 55.8268
f 257/138/5 259/137/5 260/140/5

vt -2964.74 267.063
vn 0 -0.964235 -0.26505
vt 6.82121e-13 222.799
vt 6.82121e-13 267.063
f 259/141/18 256/142/18 260/143/18

vt -2964.74 222.799
f 256/142/18 259/141/18 253/144/18

vt 261.624 55.8268
f 252/113/4 253/114/4 259/145/4

vt -261.624 55.8268
f 256/122/17 257/125/17 260/146/17

vt -19.4038 27.874
f 242/124/17 246/147/17 248/126/17

vt 6.82101e-13 145.535
vn -7.12822e-20 -0.514775 -0.857325
vt -2964.74 113.022
vt -1.8255e-17 113.022
f 255/148/19 241/149/19 243/150/19

vt -2964.74 145.535
f 241/149/19 255/148/19 254/151/19

