# Alias OBJ Model File
# Exported from SketchUp, (c) 2000-2012 Trimble Navigation Limited
# File units = millimeters

mtllib Đường sắt phải.mtl

g Mesh1 Group2 Group1 Model

usemtl _DimGray_
v 227265 7454.15 -28336.1
vt -2339.55 219.557
vn 0 -1 -0
v 167840 7454.15 -23612.6
vt 0 33.5929
v 167840 7454.15 -28336.1
vt 0 219.557
f 1/1/1 2/2/1 3/3/1

v 227265 7454.15 -23612.6
vt -2339.55 33.5929
f 2/2/1 1/1/1 4/4/1

vt 219.557 0
vn 1 0 -0
v 227265 8574.15 -28320.5
vt 218.942 44.0945
vt 33.5929 0
f 1/5/2 5/6/2 4/7/2

v 227265 8162.15 -28761.2
vt 236.293 27.874
f 5/6/2 1/5/2 6/8/2

vt -2339.55 113.022
vn 2.84912e-19 -0.514775 -0.857325
v 167840 8162.15 -28761.2
vt 7.85265e-17 145.535
vt -2339.55 145.535
f 1/9/3 7/10/3 6/11/3

vt 7.29644e-17 113.022
f 7/10/3 1/9/3 3/12/3

vt -2.38744e-30 -153.579
vn -6.89985e-33 0.730508 -0.682904
vt -2339.55 -129.827
vt -2339.55 -153.579
f 7/13/4 5/14/4 6/15/4

v 167840 8574.15 -28320.5
vt -2.21212e-30 -129.827
f 5/14/4 7/13/4 8/16/4

vt -236.293 27.874
vn -1 0 -0
v 167840 8574.15 -23607
vt -33.3715 44.0945
vt -218.942 44.0945
f 7/17/5 9/18/5 8/19/5

v 167840 8162.15 -23252.2
vt -19.4038 27.874
f 9/18/5 7/17/5 10/20/5

vt -1.30837e-30 33.7835
vn -5.10953e-32 0.652525 0.757767
v 227265 8574.15 -23607
vt 2339.55 55.1891
vt -2.2502e-30 55.1891
f 10/21/6 11/22/6 9/23/6

v 227265 8162.15 -23252.2
vt 2339.55 33.7835
f 11/22/6 10/21/6 12/24/6

vt -1.11638e-17 -15.2394
vn -2.96163e-19 -0.453648 0.891181
vt 2339.55 16.0383
vt -6.44839e-18 16.0383
f 2/25/7 12/26/7 10/27/7

vt 2339.55 -15.2394
f 12/26/7 2/25/7 4/28/7

vt 33.3715 44.0945
vt 19.4038 27.874
f 4/7/2 11/29/2 12/30/2

v 227265 11785.2 -29404.6
vt 261.624 170.512
f 13/31/2 11/29/2 4/7/2

v 227265 11785.2 -22853.3
vt 3.69875 170.512
f 14/32/2 11/29/2 13/31/2

v 227265 8872.15 -22853.3
vt 3.69875 55.8268
f 11/29/2 14/32/2 15/33/2

vt 2339.55 170.512
vn 0 0 1
v 167840 8872.15 -22853.3
vt 0 55.8268
vt 2339.55 55.8268
f 14/34/8 16/35/8 15/36/8

v 167840 11785.2 -22853.3
vt 0 170.512
f 16/35/8 14/34/8 17/37/8

vt 2339.55 3.69875
vn 0 1 -0
v 167840 11785.2 -29404.6
vt 0 261.624
vt 0 3.69875
f 14/38/9 18/39/9 17/40/9

vt 2339.55 261.624
f 18/39/9 14/38/9 13/41/9

v 227265 8872.15 -29404.6
vt -2339.55 55.8268
vn 0 0 -1
vt -2339.55 170.512
f 19/42/10 18/37/10 13/43/10

v 167840 8872.15 -29404.6
f 18/37/10 19/42/10 20/35/10

vt -2339.55 267.063
vn 9.10746e-33 -0.964235 -0.26505
vt 7.52314e-30 222.799
vt 8.98972e-30 267.063
f 19/44/11 8/45/11 20/46/11

vt -2339.55 222.799
f 8/45/11 19/44/11 5/47/11

vt 261.624 55.8268
f 13/31/2 5/6/2 19/48/2

f 13/31/2 4/7/2 5/6/2

vt -261.624 170.512
vt -261.624 55.8268
f 8/19/5 18/49/5 20/50/5

f 9/18/5 18/49/5 8/19/5

vt -3.69875 55.8268
f 16/51/5 18/49/5 9/18/5

vt -3.69875 170.512
f 18/49/5 16/51/5 17/52/5

vt 2339.55 -14.8206
vn 3.65672e-32 -0.929948 0.367691
vt 3.67843e-31 17.0874
vt 3.31882e-30 -14.8206
f 11/53/12 16/54/12 9/55/12

vt 2339.55 17.0874
f 16/54/12 11/53/12 15/56/12

g Mesh2 Group4 Group3 Group1 Model

v 226503 1596.15 -28336.1
vt -219.557 56.5748
v 226503 653.152 -23612.6
vt -33.5929 19.4488
v 226503 1596.15 -23612.6
vt -33.5929 56.5748
f 21/57/5 22/58/5 23/59/5

v 226503 653.152 -28336.1
vt -219.557 19.4488
f 22/58/5 21/57/5 24/60/5

vt 2309.54 56.5748
v 167840 653.152 -28336.1
vt 0 19.4488
vt 2309.54 19.4488
f 21/61/8 25/62/8 24/63/8

v 167840 1596.15 -28336.1
vt 0 56.5748
f 25/62/8 21/61/8 26/64/8

vt 2309.54 219.557
v 167840 1596.15 -29189.3
vt 0 253.15
f 21/65/9 27/66/9 26/3/9

v 227265 1596.15 -29189.3
vt 2339.55 253.15
f 27/66/9 21/65/9 28/67/9

v 227265 1596.15 -22759.3
vt 2339.55 0
f 28/67/9 21/65/9 29/68/9

vt 2309.54 33.5929
f 23/69/9 29/68/9 21/65/9

v 167840 1596.15 -23612.6
f 30/2/9 29/68/9 23/69/9

v 167840 1596.15 -22759.3
vt 0 0
f 29/68/9 30/2/9 31/70/9

v 167840 159.152 -22759.3
vt 2339.55 56.5748
f 32/70/8 29/71/8 31/64/8

v 227265 159.152 -22759.3
f 29/71/8 32/70/8 33/68/8

v 227265 159.152 -29189.3
vt -2339.55 253.15
vt -2339.55 0
f 32/70/1 34/72/1 33/73/1

v 167840 159.152 -29189.3
f 34/72/1 32/70/1 35/66/1

f 27/64/10 34/73/10 35/70/10

vt -2339.55 56.5748
f 34/73/10 27/64/10 28/74/10

vt 253.15 0
vt 253.15 56.5748
f 29/64/2 34/75/2 28/76/2

f 34/75/2 29/64/2 33/70/2

vt -2309.54 19.4488
vt -2309.54 56.5748
f 22/77/10 30/64/10 23/78/10

v 167840 653.152 -23612.6
f 30/64/10 22/77/10 36/62/10

f 22/69/9 25/3/9 36/2/9

f 25/3/9 22/69/9 24/65/9

g Mesh3 Group5 Group3 Group1 Model

v 224757 7454.15 -23612.6
vt 63.29 267.756
v 223269 653.152 -23612.6
vt 4.70212 0
v 224757 653.152 -23612.6
vt 63.29 0
f 37/79/8 38/80/8 39/81/8

v 223269 7454.15 -23612.6
vt 4.70212 267.756
f 38/80/8 37/79/8 40/82/8

v 223269 7454.15 -25966.9
vt 4.70212 92.6894
f 41/83/9 40/80/9 37/81/9

v 223150 7454.15 -25847.5
vt 0 87.9873
f 42/84/9 40/80/9 41/83/9

v 223150 7454.15 -23732
vt 0 4.70212
f 40/80/9 42/84/9 43/85/9

vt -87.9873 267.756
v 223150 653.152 -23732
vt -4.70212 0
vt -4.70212 267.756
f 42/86/5 44/87/5 43/88/5

v 223150 653.152 -25847.5
vt -87.9873 0
f 44/87/5 42/86/5 45/89/5

vt -62.2164 267.756
vn -0.707107 0 -0.707107
v 223269 653.152 -25966.9
vt -68.8662 0
vt -62.2164 0
f 42/90/13 46/91/13 45/92/13

vt -68.8662 267.756
f 46/91/13 42/90/13 41/93/13

vn -0.707107 0 0.707107
v 223150 653.152 -26086.3
f 41/90/14 47/91/14 46/92/14

v 223150 7454.15 -26086.3
f 47/91/14 41/90/14 48/93/14

v 223150 7454.15 -28201.8
vt 0 180.677
vt 0 97.3915
f 41/83/9 49/94/9 48/95/9

v 223269 7454.15 -28336.1
vt 4.70212 185.964
f 49/94/9 41/83/9 50/96/9

f 41/83/9 37/81/9 50/96/9

v 224757 7454.15 -28336.1
vt 63.29 185.964
f 50/96/9 37/81/9 51/97/9

v 224757 7454.15 -25966.9
vt 63.29 92.6894
f 51/97/9 37/81/9 52/98/9

v 224877 7454.15 -23732
vt 67.9921 4.70212
f 53/99/9 52/98/9 37/81/9

v 224877 7454.15 -25847.5
vt 67.9921 87.9873
f 52/98/9 53/99/9 54/100/9

v 224877 653.152 -25847.5
vt 87.9873 0
vt 87.9873 267.756
f 53/82/2 55/101/2 54/102/2

v 224877 653.152 -23732
f 55/101/2 53/82/2 56/80/2

vt 44.7528 267.756
vn 0.707107 0 0.707107
vt 51.4026 0
vt 51.4026 267.756
f 37/103/15 56/104/15 53/105/15

vt 44.7528 0
f 56/104/15 37/103/15 39/106/15

vt -63.29 0
vt -67.9921 87.9873
vt -67.9921 4.70212
f 39/107/1 55/108/1 56/109/1

v 224757 653.152 -25966.9
vt -63.29 92.6894
f 39/107/1 57/110/1 55/108/1

v 224757 653.152 -28336.1
vt -63.29 185.964
f 39/107/1 58/111/1 57/110/1

f 38/87/1 58/111/1 39/107/1

vt -4.70212 92.6894
f 46/112/1 58/111/1 38/87/1

v 223269 653.152 -28336.1
vt -4.70212 185.964
f 46/112/1 59/113/1 58/111/1

f 47/95/1 59/113/1 46/112/1

v 223150 653.152 -28201.8
f 59/113/1 47/95/1 60/94/1

vt -97.3915 0
vt -180.677 267.756
vt -180.677 0
f 47/114/5 49/115/5 60/116/5

vt -97.3915 267.756
f 49/115/5 47/114/5 48/117/5

vt -142.084 267.756
vn -0.747238 0 -0.664556
vt -135.009 0
vt -135.009 267.756
f 50/118/16 60/119/16 49/120/16

vt -142.084 0
f 60/119/16 50/118/16 59/121/16

f 50/88/10 58/107/10 59/87/10

vt -63.29 267.756
f 58/107/10 50/88/10 51/122/10

v 224877 7454.15 -28201.8
vt 89.8239 267.756
vn 0.747238 0 -0.664556
vt 96.8995 0
vt 96.8995 267.756
f 61/123/17 58/124/17 51/125/17

v 224877 653.152 -28201.8
vt 89.8239 0
f 58/124/17 61/123/17 62/126/17

v 224877 7454.15 -26086.3
vt 97.3915 267.756
vt 180.677 0
vt 180.677 267.756
f 63/127/2 62/128/2 61/129/2

v 224877 653.152 -26086.3
vt 97.3915 0
f 62/128/2 63/127/2 64/130/2

vt 110.294 267.756
vt 116.944 0
vt 116.944 267.756
f 52/131/15 64/132/15 63/133/15

vt 110.294 0
f 64/132/15 52/131/15 57/134/15

vt 14.1387 267.756
vn 0.707107 0 -0.707107
vt 20.7885 0
vt 20.7885 267.756
f 54/135/18 57/136/18 52/137/18

vt 14.1387 0
f 57/136/18 54/135/18 55/138/18

vt -67.9921 180.677
vt -67.9921 97.3915
f 57/110/1 62/139/1 64/140/1

f 62/139/1 57/110/1 58/111/1

vt 67.9921 97.3915
f 51/97/9 52/98/9 63/141/9

vt 67.9921 180.677
f 51/97/9 63/141/9 61/142/9

f 44/85/1 46/112/1 38/87/1

f 46/112/1 44/85/1 45/84/1

vt 3.3249 267.756
vt -3.3249 0
vt 3.3249 0
f 40/143/14 44/144/14 38/145/14

vt -3.3249 267.756
f 44/144/14 40/143/14 43/146/14

g Mesh4 Group6 Group3 Group1 Model

v 205477 7454.15 -23612.6
v 203989 653.152 -23612.6
v 205477 653.152 -23612.6
f 65/79/8 66/80/8 67/81/8

v 203989 7454.15 -23612.6
f 66/80/8 65/79/8 68/82/8

v 203989 7454.15 -25966.9
f 69/83/9 68/80/9 65/81/9

v 203870 7454.15 -25847.5
f 70/84/9 68/80/9 69/83/9

v 203870 7454.15 -23732
f 68/80/9 70/84/9 71/85/9

v 203870 653.152 -23732
f 70/86/5 72/87/5 71/88/5

v 203870 653.152 -25847.5
f 72/87/5 70/86/5 73/89/5

v 203989 653.152 -25966.9
f 70/90/13 74/91/13 73/92/13

f 74/91/13 70/90/13 69/93/13

v 203870 653.152 -26086.3
f 69/90/14 75/91/14 74/92/14

v 203870 7454.15 -26086.3
f 75/91/14 69/90/14 76/93/14

v 203870 7454.15 -28201.8
f 69/83/9 77/94/9 76/95/9

v 203989 7454.15 -28336.1
f 77/94/9 69/83/9 78/96/9

f 69/83/9 65/81/9 78/96/9

v 205477 7454.15 -28336.1
f 78/96/9 65/81/9 79/97/9

v 205477 7454.15 -25966.9
f 79/97/9 65/81/9 80/98/9

v 205597 7454.15 -23732
f 81/99/9 80/98/9 65/81/9

v 205597 7454.15 -25847.5
f 80/98/9 81/99/9 82/100/9

v 205597 653.152 -25847.5
f 81/82/2 83/101/2 82/102/2

v 205597 653.152 -23732
f 83/101/2 81/82/2 84/80/2

f 65/103/15 84/104/15 81/105/15

f 84/104/15 65/103/15 67/106/15

f 67/107/1 83/108/1 84/109/1

v 205477 653.152 -25966.9
f 67/107/1 85/110/1 83/108/1

v 205477 653.152 -28336.1
f 67/107/1 86/111/1 85/110/1

f 66/87/1 86/111/1 67/107/1

f 74/112/1 86/111/1 66/87/1

v 203989 653.152 -28336.1
f 74/112/1 87/113/1 86/111/1

f 75/95/1 87/113/1 74/112/1

v 203870 653.152 -28201.8
f 87/113/1 75/95/1 88/94/1

f 75/114/5 77/115/5 88/116/5

f 77/115/5 75/114/5 76/117/5

f 78/118/16 88/119/16 77/120/16

f 88/119/16 78/118/16 87/121/16

f 78/88/10 86/107/10 87/87/10

f 86/107/10 78/88/10 79/122/10

v 205597 7454.15 -28201.8
f 89/123/17 86/124/17 79/125/17

v 205597 653.152 -28201.8
f 86/124/17 89/123/17 90/126/17

v 205597 7454.15 -26086.3
f 91/127/2 90/128/2 89/129/2

v 205597 653.152 -26086.3
f 90/128/2 91/127/2 92/130/2

f 80/131/15 92/132/15 91/133/15

f 92/132/15 80/131/15 85/134/15

f 82/135/18 85/136/18 80/137/18

f 85/136/18 82/135/18 83/138/18

f 85/110/1 90/139/1 92/140/1

f 90/139/1 85/110/1 86/111/1

f 79/97/9 80/98/9 91/141/9

f 79/97/9 91/141/9 89/142/9

f 72/85/1 74/112/1 66/87/1

f 74/112/1 72/85/1 73/84/1

f 68/143/14 72/144/14 66/145/14

f 72/144/14 68/143/14 71/146/14

g Mesh5 Group7 Group3 Group1 Model

v 215117 7454.15 -23612.6
v 213629 653.152 -23612.6
v 215117 653.152 -23612.6
f 93/79/8 94/80/8 95/81/8

v 213629 7454.15 -23612.6
f 94/80/8 93/79/8 96/82/8

v 213629 7454.15 -25966.9
f 97/83/9 96/80/9 93/81/9

v 213510 7454.15 -25847.5
f 98/84/9 96/80/9 97/83/9

v 213510 7454.15 -23732
f 96/80/9 98/84/9 99/85/9

v 213510 653.152 -23732
f 98/86/5 100/87/5 99/88/5

v 213510 653.152 -25847.5
f 100/87/5 98/86/5 101/89/5

v 213629 653.152 -25966.9
f 98/90/13 102/91/13 101/92/13

f 102/91/13 98/90/13 97/93/13

v 213510 653.152 -26086.3
f 97/90/14 103/91/14 102/92/14

v 213510 7454.15 -26086.3
f 103/91/14 97/90/14 104/93/14

v 213510 7454.15 -28201.8
f 97/83/9 105/94/9 104/95/9

v 213629 7454.15 -28336.1
f 105/94/9 97/83/9 106/96/9

f 97/83/9 93/81/9 106/96/9

v 215117 7454.15 -28336.1
f 106/96/9 93/81/9 107/97/9

v 215117 7454.15 -25966.9
f 107/97/9 93/81/9 108/98/9

v 215237 7454.15 -23732
f 109/99/9 108/98/9 93/81/9

v 215237 7454.15 -25847.5
f 108/98/9 109/99/9 110/100/9

v 215237 653.152 -25847.5
f 109/82/2 111/101/2 110/102/2

v 215237 653.152 -23732
f 111/101/2 109/82/2 112/80/2

f 93/103/15 112/104/15 109/105/15

f 112/104/15 93/103/15 95/106/15

f 95/107/1 111/108/1 112/109/1

v 215117 653.152 -25966.9
f 95/107/1 113/110/1 111/108/1

v 215117 653.152 -28336.1
f 95/107/1 114/111/1 113/110/1

f 94/87/1 114/111/1 95/107/1

f 102/112/1 114/111/1 94/87/1

v 213629 653.152 -28336.1
f 102/112/1 115/113/1 114/111/1

f 103/95/1 115/113/1 102/112/1

v 213510 653.152 -28201.8
f 115/113/1 103/95/1 116/94/1

f 103/114/5 105/115/5 116/116/5

f 105/115/5 103/114/5 104/117/5

f 106/118/16 116/119/16 105/120/16

f 116/119/16 106/118/16 115/121/16

f 106/88/10 114/107/10 115/87/10

f 114/107/10 106/88/10 107/122/10

v 215237 7454.15 -28201.8
f 117/123/17 114/124/17 107/125/17

v 215237 653.152 -28201.8
f 114/124/17 117/123/17 118/126/17

v 215237 7454.15 -26086.3
f 119/127/2 118/128/2 117/129/2

v 215237 653.152 -26086.3
f 118/128/2 119/127/2 120/130/2

f 108/131/15 120/132/15 119/133/15

f 120/132/15 108/131/15 113/134/15

f 110/135/18 113/136/18 108/137/18

f 113/136/18 110/135/18 111/138/18

f 113/110/1 118/139/1 120/140/1

f 118/139/1 113/110/1 114/111/1

f 107/97/9 108/98/9 119/141/9

f 107/97/9 119/141/9 117/142/9

f 100/85/1 102/112/1 94/87/1

f 102/112/1 100/85/1 101/84/1

f 96/143/14 100/144/14 94/145/14

f 100/144/14 96/143/14 99/146/14

g Mesh6 Group8 Group3 Group1 Model

v 186197 7454.15 -23612.6
v 184709 653.152 -23612.6
v 186197 653.152 -23612.6
f 121/79/8 122/80/8 123/81/8

v 184709 7454.15 -23612.6
f 122/80/8 121/79/8 124/82/8

v 184709 7454.15 -25966.9
f 125/83/9 124/80/9 121/81/9

v 184590 7454.15 -25847.5
f 126/84/9 124/80/9 125/83/9

v 184590 7454.15 -23732
f 124/80/9 126/84/9 127/85/9

v 184590 653.152 -23732
f 126/86/5 128/87/5 127/88/5

v 184590 653.152 -25847.5
f 128/87/5 126/86/5 129/89/5

v 184709 653.152 -25966.9
f 126/90/13 130/91/13 129/92/13

f 130/91/13 126/90/13 125/93/13

v 184590 653.152 -26086.3
f 125/90/14 131/91/14 130/92/14

v 184590 7454.15 -26086.3
f 131/91/14 125/90/14 132/93/14

v 184590 7454.15 -28201.8
f 125/83/9 133/94/9 132/95/9

v 184709 7454.15 -28336.1
f 133/94/9 125/83/9 134/96/9

f 125/83/9 121/81/9 134/96/9

v 186197 7454.15 -28336.1
f 134/96/9 121/81/9 135/97/9

v 186197 7454.15 -25966.9
f 135/97/9 121/81/9 136/98/9

v 186317 7454.15 -23732
f 137/99/9 136/98/9 121/81/9

v 186317 7454.15 -25847.5
f 136/98/9 137/99/9 138/100/9

v 186317 653.152 -25847.5
f 137/82/2 139/101/2 138/102/2

v 186317 653.152 -23732
f 139/101/2 137/82/2 140/80/2

f 121/103/15 140/104/15 137/105/15

f 140/104/15 121/103/15 123/106/15

f 123/107/1 139/108/1 140/109/1

v 186197 653.152 -25966.9
f 123/107/1 141/110/1 139/108/1

v 186197 653.152 -28336.1
f 123/107/1 142/111/1 141/110/1

f 122/87/1 142/111/1 123/107/1

f 130/112/1 142/111/1 122/87/1

v 184709 653.152 -28336.1
f 130/112/1 143/113/1 142/111/1

f 131/95/1 143/113/1 130/112/1

v 184590 653.152 -28201.8
f 143/113/1 131/95/1 144/94/1

f 131/114/5 133/115/5 144/116/5

f 133/115/5 131/114/5 132/117/5

f 134/118/16 144/119/16 133/120/16

f 144/119/16 134/118/16 143/121/16

f 134/88/10 142/107/10 143/87/10

f 142/107/10 134/88/10 135/122/10

v 186317 7454.15 -28201.8
f 145/123/17 142/124/17 135/125/17

v 186317 653.152 -28201.8
f 142/124/17 145/123/17 146/126/17

v 186317 7454.15 -26086.3
f 147/127/2 146/128/2 145/129/2

v 186317 653.152 -26086.3
f 146/128/2 147/127/2 148/130/2

f 136/131/15 148/132/15 147/133/15

f 148/132/15 136/131/15 141/134/15

f 138/135/18 141/136/18 136/137/18

f 141/136/18 138/135/18 139/138/18

f 141/110/1 146/139/1 148/140/1

f 146/139/1 141/110/1 142/111/1

f 135/97/9 136/98/9 147/141/9

f 135/97/9 147/141/9 145/142/9

f 128/85/1 130/112/1 122/87/1

f 130/112/1 128/85/1 129/84/1

f 124/143/14 128/144/14 122/145/14

f 128/144/14 124/143/14 127/146/14

g Mesh7 Group9 Group3 Group1 Model

v 176557 7454.15 -23612.6
v 175069 653.152 -23612.6
v 176557 653.152 -23612.6
f 149/79/8 150/80/8 151/81/8

v 175069 7454.15 -23612.6
f 150/80/8 149/79/8 152/82/8

v 175069 7454.15 -25966.9
f 153/83/9 152/80/9 149/81/9

v 174950 7454.15 -25847.5
f 154/84/9 152/80/9 153/83/9

v 174950 7454.15 -23732
f 152/80/9 154/84/9 155/85/9

v 174950 653.152 -23732
f 154/86/5 156/87/5 155/88/5

v 174950 653.152 -25847.5
f 156/87/5 154/86/5 157/89/5

v 175069 653.152 -25966.9
f 154/90/13 158/91/13 157/92/13

f 158/91/13 154/90/13 153/93/13

v 174950 653.152 -26086.3
f 153/90/14 159/91/14 158/92/14

v 174950 7454.15 -26086.3
f 159/91/14 153/90/14 160/93/14

v 174950 7454.15 -28201.8
f 153/83/9 161/94/9 160/95/9

v 175069 7454.15 -28336.1
f 161/94/9 153/83/9 162/96/9

f 153/83/9 149/81/9 162/96/9

v 176557 7454.15 -28336.1
f 162/96/9 149/81/9 163/97/9

v 176557 7454.15 -25966.9
f 163/97/9 149/81/9 164/98/9

v 176677 7454.15 -23732
f 165/99/9 164/98/9 149/81/9

v 176677 7454.15 -25847.5
f 164/98/9 165/99/9 166/100/9

v 176677 653.152 -25847.5
f 165/82/2 167/101/2 166/102/2

v 176677 653.152 -23732
f 167/101/2 165/82/2 168/80/2

f 149/103/15 168/104/15 165/105/15

f 168/104/15 149/103/15 151/106/15

f 151/107/1 167/108/1 168/109/1

v 176557 653.152 -25966.9
f 151/107/1 169/110/1 167/108/1

v 176557 653.152 -28336.1
f 151/107/1 170/111/1 169/110/1

f 150/87/1 170/111/1 151/107/1

f 158/112/1 170/111/1 150/87/1

v 175069 653.152 -28336.1
f 158/112/1 171/113/1 170/111/1

f 159/95/1 171/113/1 158/112/1

v 174950 653.152 -28201.8
f 171/113/1 159/95/1 172/94/1

f 159/114/5 161/115/5 172/116/5

f 161/115/5 159/114/5 160/117/5

f 162/118/16 172/119/16 161/120/16

f 172/119/16 162/118/16 171/121/16

f 162/88/10 170/107/10 171/87/10

f 170/107/10 162/88/10 163/122/10

v 176677 7454.15 -28201.8
f 173/123/17 170/124/17 163/125/17

v 176677 653.152 -28201.8
f 170/124/17 173/123/17 174/126/17

v 176677 7454.15 -26086.3
f 175/127/2 174/128/2 173/129/2

v 176677 653.152 -26086.3
f 174/128/2 175/127/2 176/130/2

f 164/131/15 176/132/15 175/133/15

f 176/132/15 164/131/15 169/134/15

f 166/135/18 169/136/18 164/137/18

f 169/136/18 166/135/18 167/138/18

f 169/110/1 174/139/1 176/140/1

f 174/139/1 169/110/1 170/111/1

f 163/97/9 164/98/9 175/141/9

f 163/97/9 175/141/9 173/142/9

f 156/85/1 158/112/1 150/87/1

f 158/112/1 156/85/1 157/84/1

f 152/143/14 156/144/14 150/145/14

f 156/144/14 152/143/14 155/146/14

g Mesh8 Group10 Group3 Group1 Model

v 195837 7454.15 -23612.6
v 194349 653.152 -23612.6
v 195837 653.152 -23612.6
f 177/79/8 178/80/8 179/81/8

v 194349 7454.15 -23612.6
f 178/80/8 177/79/8 180/82/8

v 194349 7454.15 -25966.9
f 181/83/9 180/80/9 177/81/9

v 194230 7454.15 -25847.5
f 182/84/9 180/80/9 181/83/9

v 194230 7454.15 -23732
f 180/80/9 182/84/9 183/85/9

v 194230 653.152 -23732
f 182/86/5 184/87/5 183/88/5

v 194230 653.152 -25847.5
f 184/87/5 182/86/5 185/89/5

v 194349 653.152 -25966.9
f 182/90/13 186/91/13 185/92/13

f 186/91/13 182/90/13 181/93/13

v 194230 653.152 -26086.3
f 181/90/14 187/91/14 186/92/14

v 194230 7454.15 -26086.3
f 187/91/14 181/90/14 188/93/14

v 194230 7454.15 -28201.8
f 181/83/9 189/94/9 188/95/9

v 194349 7454.15 -28336.1
f 189/94/9 181/83/9 190/96/9

f 181/83/9 177/81/9 190/96/9

v 195837 7454.15 -28336.1
f 190/96/9 177/81/9 191/97/9

v 195837 7454.15 -25966.9
f 191/97/9 177/81/9 192/98/9

v 195957 7454.15 -23732
f 193/99/9 192/98/9 177/81/9

v 195957 7454.15 -25847.5
f 192/98/9 193/99/9 194/100/9

v 195957 653.152 -25847.5
f 193/82/2 195/101/2 194/102/2

v 195957 653.152 -23732
f 195/101/2 193/82/2 196/80/2

f 177/103/15 196/104/15 193/105/15

f 196/104/15 177/103/15 179/106/15

f 179/107/1 195/108/1 196/109/1

v 195837 653.152 -25966.9
f 179/107/1 197/110/1 195/108/1

v 195837 653.152 -28336.1
f 179/107/1 198/111/1 197/110/1

f 178/87/1 198/111/1 179/107/1

f 186/112/1 198/111/1 178/87/1

v 194349 653.152 -28336.1
f 186/112/1 199/113/1 198/111/1

f 187/95/1 199/113/1 186/112/1

v 194230 653.152 -28201.8
f 199/113/1 187/95/1 200/94/1

f 187/114/5 189/115/5 200/116/5

f 189/115/5 187/114/5 188/117/5

f 190/118/16 200/119/16 189/120/16

f 200/119/16 190/118/16 199/121/16

f 190/88/10 198/107/10 199/87/10

f 198/107/10 190/88/10 191/122/10

v 195957 7454.15 -28201.8
f 201/123/17 198/124/17 191/125/17

v 195957 653.152 -28201.8
f 198/124/17 201/123/17 202/126/17

v 195957 7454.15 -26086.3
f 203/127/2 202/128/2 201/129/2

v 195957 653.152 -26086.3
f 202/128/2 203/127/2 204/130/2

f 192/131/15 204/132/15 203/133/15

f 204/132/15 192/131/15 197/134/15

f 194/135/18 197/136/18 192/137/18

f 197/136/18 194/135/18 195/138/18

f 197/110/1 202/139/1 204/140/1

f 202/139/1 197/110/1 198/111/1

f 191/97/9 192/98/9 203/141/9

f 191/97/9 203/141/9 201/142/9

f 184/85/1 186/112/1 178/87/1

f 186/112/1 184/85/1 185/84/1

f 180/143/14 184/144/14 178/145/14

f 184/144/14 180/143/14 183/146/14

